G04 #@! TF.GenerationSoftware,KiCad,Pcbnew,5.1.5-52549c5~84~ubuntu18.04.1*
G04 #@! TF.CreationDate,2020-03-17T21:00:59-04:00*
G04 #@! TF.ProjectId,OBG-SVF-panelpcb,4f42472d-5356-4462-9d70-616e656c7063,rev?*
G04 #@! TF.SameCoordinates,Original*
G04 #@! TF.FileFunction,Copper,L2,Bot*
G04 #@! TF.FilePolarity,Positive*
%FSLAX46Y46*%
G04 Gerber Fmt 4.6, Leading zero omitted, Abs format (unit mm)*
G04 Created by KiCad (PCBNEW 5.1.5-52549c5~84~ubuntu18.04.1) date 2020-03-17 21:00:59*
%MOMM*%
%LPD*%
G04 APERTURE LIST*
%ADD10O,1.600000X1.600000*%
%ADD11C,1.600000*%
%ADD12C,1.800000*%
%ADD13O,1.700000X1.700000*%
%ADD14R,1.700000X1.700000*%
%ADD15C,3.240000*%
%ADD16R,1.800000X1.800000*%
%ADD17C,0.250000*%
%ADD18C,0.254000*%
G04 APERTURE END LIST*
D10*
X160120000Y-84000000D03*
D11*
X152500000Y-84000000D03*
D12*
X139700000Y-115730000D03*
X139700000Y-127130000D03*
X139700000Y-124030000D03*
X119380000Y-115730000D03*
X119380000Y-127130000D03*
X119380000Y-124030000D03*
D13*
X146050000Y-77470000D03*
X146050000Y-80010000D03*
X143510000Y-77470000D03*
X143510000Y-80010000D03*
X140970000Y-77470000D03*
X140970000Y-80010000D03*
X138430000Y-77470000D03*
X138430000Y-80010000D03*
X135890000Y-77470000D03*
X135890000Y-80010000D03*
X133350000Y-77470000D03*
D14*
X133350000Y-80010000D03*
D15*
X155180000Y-101720000D03*
X164780000Y-101720000D03*
D12*
X162480000Y-109220000D03*
X159980000Y-109220000D03*
D16*
X157480000Y-109220000D03*
D15*
X134860000Y-101720000D03*
X144460000Y-101720000D03*
D12*
X142160000Y-109220000D03*
X139660000Y-109220000D03*
D16*
X137160000Y-109220000D03*
D15*
X114540000Y-101720000D03*
X124140000Y-101720000D03*
D12*
X121840000Y-109220000D03*
X119340000Y-109220000D03*
D16*
X116840000Y-109220000D03*
D10*
X147320000Y-116205000D03*
D11*
X147320000Y-123825000D03*
D15*
X151370000Y-69970000D03*
X160970000Y-69970000D03*
D12*
X158670000Y-77470000D03*
X156170000Y-77470000D03*
D16*
X153670000Y-77470000D03*
D15*
X118350000Y-69970000D03*
X127950000Y-69970000D03*
D12*
X125650000Y-77470000D03*
X123150000Y-77470000D03*
D16*
X120650000Y-77470000D03*
D12*
X119380000Y-141130000D03*
X119380000Y-152530000D03*
X119380000Y-149430000D03*
X160020000Y-115730000D03*
X160020000Y-127130000D03*
X160020000Y-124030000D03*
X139700000Y-141130000D03*
X139700000Y-152530000D03*
X139700000Y-149430000D03*
X160020000Y-141130000D03*
X160020000Y-152530000D03*
X160020000Y-149430000D03*
D10*
X127000000Y-141605000D03*
D11*
X127000000Y-149225000D03*
D10*
X147320000Y-141605000D03*
D11*
X147320000Y-149225000D03*
D10*
X152400000Y-149225000D03*
D11*
X152400000Y-141605000D03*
D10*
X127000000Y-123190000D03*
D11*
X127000000Y-115570000D03*
D10*
X153670000Y-123190000D03*
D11*
X153670000Y-115570000D03*
D10*
X119380000Y-83820000D03*
D11*
X127000000Y-83820000D03*
D17*
X138430000Y-77470000D02*
X136000000Y-75040000D01*
X128080000Y-75040000D02*
X125650000Y-77470000D01*
X136000000Y-75040000D02*
X128080000Y-75040000D01*
X149225000Y-147320000D02*
X147320000Y-149225000D01*
X149225000Y-77470000D02*
X149225000Y-147320000D01*
X140970000Y-77470000D02*
X140970000Y-76267919D01*
X140970000Y-76267919D02*
X141672919Y-75565000D01*
X141672919Y-75565000D02*
X147320000Y-75565000D01*
X147320000Y-75565000D02*
X149225000Y-77470000D01*
X128125001Y-148099999D02*
X127000000Y-149225000D01*
X128125001Y-99137080D02*
X128125001Y-148099999D01*
X146050000Y-81212081D02*
X128125001Y-99137080D01*
X146050000Y-80010000D02*
X146050000Y-81212081D01*
D18*
G36*
X166955000Y-101095715D02*
G01*
X166948342Y-101062241D01*
X166778355Y-100651857D01*
X166531573Y-100282521D01*
X166217479Y-99968427D01*
X165848143Y-99721645D01*
X165437759Y-99551658D01*
X165002098Y-99465000D01*
X164557902Y-99465000D01*
X164122241Y-99551658D01*
X163711857Y-99721645D01*
X163342521Y-99968427D01*
X163028427Y-100282521D01*
X162781645Y-100651857D01*
X162611658Y-101062241D01*
X162525000Y-101497902D01*
X162525000Y-101942098D01*
X162611658Y-102377759D01*
X162781645Y-102788143D01*
X163028427Y-103157479D01*
X163342521Y-103471573D01*
X163711857Y-103718355D01*
X164122241Y-103888342D01*
X164557902Y-103975000D01*
X165002098Y-103975000D01*
X165437759Y-103888342D01*
X165848143Y-103718355D01*
X166217479Y-103471573D01*
X166531573Y-103157479D01*
X166778355Y-102788143D01*
X166948342Y-102377759D01*
X166955000Y-102344285D01*
X166955001Y-154255000D01*
X112445000Y-154255000D01*
X112445000Y-153594080D01*
X118495525Y-153594080D01*
X118579208Y-153848261D01*
X118851775Y-153979158D01*
X119144642Y-154054365D01*
X119446553Y-154070991D01*
X119745907Y-154028397D01*
X120031199Y-153928222D01*
X120180792Y-153848261D01*
X120264475Y-153594080D01*
X138815525Y-153594080D01*
X138899208Y-153848261D01*
X139171775Y-153979158D01*
X139464642Y-154054365D01*
X139766553Y-154070991D01*
X140065907Y-154028397D01*
X140351199Y-153928222D01*
X140500792Y-153848261D01*
X140584475Y-153594080D01*
X159135525Y-153594080D01*
X159219208Y-153848261D01*
X159491775Y-153979158D01*
X159784642Y-154054365D01*
X160086553Y-154070991D01*
X160385907Y-154028397D01*
X160671199Y-153928222D01*
X160820792Y-153848261D01*
X160904475Y-153594080D01*
X160020000Y-152709605D01*
X159135525Y-153594080D01*
X140584475Y-153594080D01*
X139700000Y-152709605D01*
X138815525Y-153594080D01*
X120264475Y-153594080D01*
X119380000Y-152709605D01*
X118495525Y-153594080D01*
X112445000Y-153594080D01*
X112445000Y-152596553D01*
X117839009Y-152596553D01*
X117881603Y-152895907D01*
X117981778Y-153181199D01*
X118061739Y-153330792D01*
X118315920Y-153414475D01*
X119200395Y-152530000D01*
X119559605Y-152530000D01*
X120444080Y-153414475D01*
X120698261Y-153330792D01*
X120829158Y-153058225D01*
X120904365Y-152765358D01*
X120913660Y-152596553D01*
X138159009Y-152596553D01*
X138201603Y-152895907D01*
X138301778Y-153181199D01*
X138381739Y-153330792D01*
X138635920Y-153414475D01*
X139520395Y-152530000D01*
X139879605Y-152530000D01*
X140764080Y-153414475D01*
X141018261Y-153330792D01*
X141149158Y-153058225D01*
X141224365Y-152765358D01*
X141233660Y-152596553D01*
X158479009Y-152596553D01*
X158521603Y-152895907D01*
X158621778Y-153181199D01*
X158701739Y-153330792D01*
X158955920Y-153414475D01*
X159840395Y-152530000D01*
X160199605Y-152530000D01*
X161084080Y-153414475D01*
X161338261Y-153330792D01*
X161469158Y-153058225D01*
X161544365Y-152765358D01*
X161560991Y-152463447D01*
X161518397Y-152164093D01*
X161418222Y-151878801D01*
X161338261Y-151729208D01*
X161084080Y-151645525D01*
X160199605Y-152530000D01*
X159840395Y-152530000D01*
X158955920Y-151645525D01*
X158701739Y-151729208D01*
X158570842Y-152001775D01*
X158495635Y-152294642D01*
X158479009Y-152596553D01*
X141233660Y-152596553D01*
X141240991Y-152463447D01*
X141198397Y-152164093D01*
X141098222Y-151878801D01*
X141018261Y-151729208D01*
X140764080Y-151645525D01*
X139879605Y-152530000D01*
X139520395Y-152530000D01*
X138635920Y-151645525D01*
X138381739Y-151729208D01*
X138250842Y-152001775D01*
X138175635Y-152294642D01*
X138159009Y-152596553D01*
X120913660Y-152596553D01*
X120920991Y-152463447D01*
X120878397Y-152164093D01*
X120778222Y-151878801D01*
X120698261Y-151729208D01*
X120444080Y-151645525D01*
X119559605Y-152530000D01*
X119200395Y-152530000D01*
X118315920Y-151645525D01*
X118061739Y-151729208D01*
X117930842Y-152001775D01*
X117855635Y-152294642D01*
X117839009Y-152596553D01*
X112445000Y-152596553D01*
X112445000Y-151465920D01*
X118495525Y-151465920D01*
X119380000Y-152350395D01*
X120264475Y-151465920D01*
X138815525Y-151465920D01*
X139700000Y-152350395D01*
X140584475Y-151465920D01*
X159135525Y-151465920D01*
X160020000Y-152350395D01*
X160904475Y-151465920D01*
X160820792Y-151211739D01*
X160548225Y-151080842D01*
X160255358Y-151005635D01*
X159953447Y-150989009D01*
X159654093Y-151031603D01*
X159368801Y-151131778D01*
X159219208Y-151211739D01*
X159135525Y-151465920D01*
X140584475Y-151465920D01*
X140500792Y-151211739D01*
X140228225Y-151080842D01*
X139935358Y-151005635D01*
X139633447Y-150989009D01*
X139334093Y-151031603D01*
X139048801Y-151131778D01*
X138899208Y-151211739D01*
X138815525Y-151465920D01*
X120264475Y-151465920D01*
X120180792Y-151211739D01*
X119908225Y-151080842D01*
X119615358Y-151005635D01*
X119313447Y-150989009D01*
X119014093Y-151031603D01*
X118728801Y-151131778D01*
X118579208Y-151211739D01*
X118495525Y-151465920D01*
X112445000Y-151465920D01*
X112445000Y-149278816D01*
X117845000Y-149278816D01*
X117845000Y-149581184D01*
X117903989Y-149877743D01*
X118019701Y-150157095D01*
X118187688Y-150408505D01*
X118401495Y-150622312D01*
X118652905Y-150790299D01*
X118932257Y-150906011D01*
X119228816Y-150965000D01*
X119531184Y-150965000D01*
X119827743Y-150906011D01*
X120107095Y-150790299D01*
X120358505Y-150622312D01*
X120572312Y-150408505D01*
X120740299Y-150157095D01*
X120856011Y-149877743D01*
X120915000Y-149581184D01*
X120915000Y-149278816D01*
X120856011Y-148982257D01*
X120740299Y-148702905D01*
X120572312Y-148451495D01*
X120358505Y-148237688D01*
X120107095Y-148069701D01*
X119827743Y-147953989D01*
X119531184Y-147895000D01*
X119228816Y-147895000D01*
X118932257Y-147953989D01*
X118652905Y-148069701D01*
X118401495Y-148237688D01*
X118187688Y-148451495D01*
X118019701Y-148702905D01*
X117903989Y-148982257D01*
X117845000Y-149278816D01*
X112445000Y-149278816D01*
X112445000Y-140978816D01*
X117845000Y-140978816D01*
X117845000Y-141281184D01*
X117903989Y-141577743D01*
X118019701Y-141857095D01*
X118187688Y-142108505D01*
X118401495Y-142322312D01*
X118652905Y-142490299D01*
X118932257Y-142606011D01*
X119228816Y-142665000D01*
X119531184Y-142665000D01*
X119827743Y-142606011D01*
X120107095Y-142490299D01*
X120358505Y-142322312D01*
X120572312Y-142108505D01*
X120740299Y-141857095D01*
X120856011Y-141577743D01*
X120915000Y-141281184D01*
X120915000Y-140978816D01*
X120856011Y-140682257D01*
X120740299Y-140402905D01*
X120572312Y-140151495D01*
X120358505Y-139937688D01*
X120107095Y-139769701D01*
X119827743Y-139653989D01*
X119531184Y-139595000D01*
X119228816Y-139595000D01*
X118932257Y-139653989D01*
X118652905Y-139769701D01*
X118401495Y-139937688D01*
X118187688Y-140151495D01*
X118019701Y-140402905D01*
X117903989Y-140682257D01*
X117845000Y-140978816D01*
X112445000Y-140978816D01*
X112445000Y-128194080D01*
X118495525Y-128194080D01*
X118579208Y-128448261D01*
X118851775Y-128579158D01*
X119144642Y-128654365D01*
X119446553Y-128670991D01*
X119745907Y-128628397D01*
X120031199Y-128528222D01*
X120180792Y-128448261D01*
X120264475Y-128194080D01*
X119380000Y-127309605D01*
X118495525Y-128194080D01*
X112445000Y-128194080D01*
X112445000Y-127196553D01*
X117839009Y-127196553D01*
X117881603Y-127495907D01*
X117981778Y-127781199D01*
X118061739Y-127930792D01*
X118315920Y-128014475D01*
X119200395Y-127130000D01*
X119559605Y-127130000D01*
X120444080Y-128014475D01*
X120698261Y-127930792D01*
X120829158Y-127658225D01*
X120904365Y-127365358D01*
X120920991Y-127063447D01*
X120878397Y-126764093D01*
X120778222Y-126478801D01*
X120698261Y-126329208D01*
X120444080Y-126245525D01*
X119559605Y-127130000D01*
X119200395Y-127130000D01*
X118315920Y-126245525D01*
X118061739Y-126329208D01*
X117930842Y-126601775D01*
X117855635Y-126894642D01*
X117839009Y-127196553D01*
X112445000Y-127196553D01*
X112445000Y-126065920D01*
X118495525Y-126065920D01*
X119380000Y-126950395D01*
X120264475Y-126065920D01*
X120180792Y-125811739D01*
X119908225Y-125680842D01*
X119615358Y-125605635D01*
X119313447Y-125589009D01*
X119014093Y-125631603D01*
X118728801Y-125731778D01*
X118579208Y-125811739D01*
X118495525Y-126065920D01*
X112445000Y-126065920D01*
X112445000Y-125094080D01*
X118495525Y-125094080D01*
X118579208Y-125348261D01*
X118851775Y-125479158D01*
X119144642Y-125554365D01*
X119446553Y-125570991D01*
X119745907Y-125528397D01*
X120031199Y-125428222D01*
X120180792Y-125348261D01*
X120264475Y-125094080D01*
X119380000Y-124209605D01*
X118495525Y-125094080D01*
X112445000Y-125094080D01*
X112445000Y-124096553D01*
X117839009Y-124096553D01*
X117881603Y-124395907D01*
X117981778Y-124681199D01*
X118061739Y-124830792D01*
X118315920Y-124914475D01*
X119200395Y-124030000D01*
X119559605Y-124030000D01*
X120444080Y-124914475D01*
X120698261Y-124830792D01*
X120829158Y-124558225D01*
X120904365Y-124265358D01*
X120920991Y-123963447D01*
X120878397Y-123664093D01*
X120778222Y-123378801D01*
X120698261Y-123229208D01*
X120444080Y-123145525D01*
X119559605Y-124030000D01*
X119200395Y-124030000D01*
X118315920Y-123145525D01*
X118061739Y-123229208D01*
X117930842Y-123501775D01*
X117855635Y-123794642D01*
X117839009Y-124096553D01*
X112445000Y-124096553D01*
X112445000Y-122965920D01*
X118495525Y-122965920D01*
X119380000Y-123850395D01*
X120264475Y-122965920D01*
X120180792Y-122711739D01*
X119908225Y-122580842D01*
X119615358Y-122505635D01*
X119313447Y-122489009D01*
X119014093Y-122531603D01*
X118728801Y-122631778D01*
X118579208Y-122711739D01*
X118495525Y-122965920D01*
X112445000Y-122965920D01*
X112445000Y-115578816D01*
X117845000Y-115578816D01*
X117845000Y-115881184D01*
X117903989Y-116177743D01*
X118019701Y-116457095D01*
X118187688Y-116708505D01*
X118401495Y-116922312D01*
X118652905Y-117090299D01*
X118932257Y-117206011D01*
X119228816Y-117265000D01*
X119531184Y-117265000D01*
X119827743Y-117206011D01*
X120107095Y-117090299D01*
X120358505Y-116922312D01*
X120572312Y-116708505D01*
X120740299Y-116457095D01*
X120856011Y-116177743D01*
X120915000Y-115881184D01*
X120915000Y-115578816D01*
X120856011Y-115282257D01*
X120740299Y-115002905D01*
X120572312Y-114751495D01*
X120358505Y-114537688D01*
X120107095Y-114369701D01*
X119827743Y-114253989D01*
X119531184Y-114195000D01*
X119228816Y-114195000D01*
X118932257Y-114253989D01*
X118652905Y-114369701D01*
X118401495Y-114537688D01*
X118187688Y-114751495D01*
X118019701Y-115002905D01*
X117903989Y-115282257D01*
X117845000Y-115578816D01*
X112445000Y-115578816D01*
X112445000Y-110120000D01*
X115301928Y-110120000D01*
X115314188Y-110244482D01*
X115350498Y-110364180D01*
X115409463Y-110474494D01*
X115488815Y-110571185D01*
X115585506Y-110650537D01*
X115695820Y-110709502D01*
X115815518Y-110745812D01*
X115940000Y-110758072D01*
X116554250Y-110755000D01*
X116713000Y-110596250D01*
X116713000Y-109347000D01*
X115463750Y-109347000D01*
X115305000Y-109505750D01*
X115301928Y-110120000D01*
X112445000Y-110120000D01*
X112445000Y-108320000D01*
X115301928Y-108320000D01*
X115305000Y-108934250D01*
X115463750Y-109093000D01*
X116713000Y-109093000D01*
X116713000Y-107843750D01*
X116967000Y-107843750D01*
X116967000Y-109093000D01*
X116987000Y-109093000D01*
X116987000Y-109347000D01*
X116967000Y-109347000D01*
X116967000Y-110596250D01*
X117125750Y-110755000D01*
X117740000Y-110758072D01*
X117864482Y-110745812D01*
X117984180Y-110709502D01*
X118094494Y-110650537D01*
X118191185Y-110571185D01*
X118270537Y-110474494D01*
X118323880Y-110374697D01*
X118361495Y-110412312D01*
X118612905Y-110580299D01*
X118892257Y-110696011D01*
X119188816Y-110755000D01*
X119491184Y-110755000D01*
X119787743Y-110696011D01*
X120067095Y-110580299D01*
X120318505Y-110412312D01*
X120532312Y-110198505D01*
X120590000Y-110112169D01*
X120647688Y-110198505D01*
X120861495Y-110412312D01*
X121112905Y-110580299D01*
X121392257Y-110696011D01*
X121688816Y-110755000D01*
X121991184Y-110755000D01*
X122287743Y-110696011D01*
X122567095Y-110580299D01*
X122818505Y-110412312D01*
X123032312Y-110198505D01*
X123200299Y-109947095D01*
X123316011Y-109667743D01*
X123375000Y-109371184D01*
X123375000Y-109068816D01*
X123316011Y-108772257D01*
X123200299Y-108492905D01*
X123032312Y-108241495D01*
X122818505Y-108027688D01*
X122567095Y-107859701D01*
X122287743Y-107743989D01*
X121991184Y-107685000D01*
X121688816Y-107685000D01*
X121392257Y-107743989D01*
X121112905Y-107859701D01*
X120861495Y-108027688D01*
X120647688Y-108241495D01*
X120590000Y-108327831D01*
X120532312Y-108241495D01*
X120318505Y-108027688D01*
X120067095Y-107859701D01*
X119787743Y-107743989D01*
X119491184Y-107685000D01*
X119188816Y-107685000D01*
X118892257Y-107743989D01*
X118612905Y-107859701D01*
X118361495Y-108027688D01*
X118323880Y-108065303D01*
X118270537Y-107965506D01*
X118191185Y-107868815D01*
X118094494Y-107789463D01*
X117984180Y-107730498D01*
X117864482Y-107694188D01*
X117740000Y-107681928D01*
X117125750Y-107685000D01*
X116967000Y-107843750D01*
X116713000Y-107843750D01*
X116554250Y-107685000D01*
X115940000Y-107681928D01*
X115815518Y-107694188D01*
X115695820Y-107730498D01*
X115585506Y-107789463D01*
X115488815Y-107868815D01*
X115409463Y-107965506D01*
X115350498Y-108075820D01*
X115314188Y-108195518D01*
X115301928Y-108320000D01*
X112445000Y-108320000D01*
X112445000Y-102554822D01*
X112541645Y-102788143D01*
X112788427Y-103157479D01*
X113102521Y-103471573D01*
X113471857Y-103718355D01*
X113882241Y-103888342D01*
X114317902Y-103975000D01*
X114762098Y-103975000D01*
X115197759Y-103888342D01*
X115608143Y-103718355D01*
X115977479Y-103471573D01*
X116291573Y-103157479D01*
X116538355Y-102788143D01*
X116708342Y-102377759D01*
X116795000Y-101942098D01*
X116795000Y-101497902D01*
X121885000Y-101497902D01*
X121885000Y-101942098D01*
X121971658Y-102377759D01*
X122141645Y-102788143D01*
X122388427Y-103157479D01*
X122702521Y-103471573D01*
X123071857Y-103718355D01*
X123482241Y-103888342D01*
X123917902Y-103975000D01*
X124362098Y-103975000D01*
X124797759Y-103888342D01*
X125208143Y-103718355D01*
X125577479Y-103471573D01*
X125891573Y-103157479D01*
X126138355Y-102788143D01*
X126308342Y-102377759D01*
X126395000Y-101942098D01*
X126395000Y-101497902D01*
X126308342Y-101062241D01*
X126138355Y-100651857D01*
X125891573Y-100282521D01*
X125577479Y-99968427D01*
X125208143Y-99721645D01*
X124797759Y-99551658D01*
X124362098Y-99465000D01*
X123917902Y-99465000D01*
X123482241Y-99551658D01*
X123071857Y-99721645D01*
X122702521Y-99968427D01*
X122388427Y-100282521D01*
X122141645Y-100651857D01*
X121971658Y-101062241D01*
X121885000Y-101497902D01*
X116795000Y-101497902D01*
X116708342Y-101062241D01*
X116538355Y-100651857D01*
X116291573Y-100282521D01*
X115977479Y-99968427D01*
X115608143Y-99721645D01*
X115197759Y-99551658D01*
X114762098Y-99465000D01*
X114317902Y-99465000D01*
X113882241Y-99551658D01*
X113471857Y-99721645D01*
X113102521Y-99968427D01*
X112788427Y-100282521D01*
X112541645Y-100651857D01*
X112445000Y-100885178D01*
X112445000Y-83678665D01*
X117945000Y-83678665D01*
X117945000Y-83961335D01*
X118000147Y-84238574D01*
X118108320Y-84499727D01*
X118265363Y-84734759D01*
X118465241Y-84934637D01*
X118700273Y-85091680D01*
X118961426Y-85199853D01*
X119238665Y-85255000D01*
X119521335Y-85255000D01*
X119798574Y-85199853D01*
X120059727Y-85091680D01*
X120294759Y-84934637D01*
X120494637Y-84734759D01*
X120651680Y-84499727D01*
X120759853Y-84238574D01*
X120815000Y-83961335D01*
X120815000Y-83678665D01*
X125565000Y-83678665D01*
X125565000Y-83961335D01*
X125620147Y-84238574D01*
X125728320Y-84499727D01*
X125885363Y-84734759D01*
X126085241Y-84934637D01*
X126320273Y-85091680D01*
X126581426Y-85199853D01*
X126858665Y-85255000D01*
X127141335Y-85255000D01*
X127418574Y-85199853D01*
X127679727Y-85091680D01*
X127914759Y-84934637D01*
X128114637Y-84734759D01*
X128271680Y-84499727D01*
X128379853Y-84238574D01*
X128435000Y-83961335D01*
X128435000Y-83678665D01*
X128379853Y-83401426D01*
X128271680Y-83140273D01*
X128114637Y-82905241D01*
X127914759Y-82705363D01*
X127679727Y-82548320D01*
X127418574Y-82440147D01*
X127141335Y-82385000D01*
X126858665Y-82385000D01*
X126581426Y-82440147D01*
X126320273Y-82548320D01*
X126085241Y-82705363D01*
X125885363Y-82905241D01*
X125728320Y-83140273D01*
X125620147Y-83401426D01*
X125565000Y-83678665D01*
X120815000Y-83678665D01*
X120759853Y-83401426D01*
X120651680Y-83140273D01*
X120494637Y-82905241D01*
X120294759Y-82705363D01*
X120059727Y-82548320D01*
X119798574Y-82440147D01*
X119521335Y-82385000D01*
X119238665Y-82385000D01*
X118961426Y-82440147D01*
X118700273Y-82548320D01*
X118465241Y-82705363D01*
X118265363Y-82905241D01*
X118108320Y-83140273D01*
X118000147Y-83401426D01*
X117945000Y-83678665D01*
X112445000Y-83678665D01*
X112445000Y-78370000D01*
X119111928Y-78370000D01*
X119124188Y-78494482D01*
X119160498Y-78614180D01*
X119219463Y-78724494D01*
X119298815Y-78821185D01*
X119395506Y-78900537D01*
X119505820Y-78959502D01*
X119625518Y-78995812D01*
X119750000Y-79008072D01*
X120364250Y-79005000D01*
X120523000Y-78846250D01*
X120523000Y-77597000D01*
X119273750Y-77597000D01*
X119115000Y-77755750D01*
X119111928Y-78370000D01*
X112445000Y-78370000D01*
X112445000Y-76570000D01*
X119111928Y-76570000D01*
X119115000Y-77184250D01*
X119273750Y-77343000D01*
X120523000Y-77343000D01*
X120523000Y-76093750D01*
X120777000Y-76093750D01*
X120777000Y-77343000D01*
X120797000Y-77343000D01*
X120797000Y-77597000D01*
X120777000Y-77597000D01*
X120777000Y-78846250D01*
X120935750Y-79005000D01*
X121550000Y-79008072D01*
X121674482Y-78995812D01*
X121794180Y-78959502D01*
X121904494Y-78900537D01*
X122001185Y-78821185D01*
X122080537Y-78724494D01*
X122133880Y-78624697D01*
X122171495Y-78662312D01*
X122422905Y-78830299D01*
X122702257Y-78946011D01*
X122998816Y-79005000D01*
X123301184Y-79005000D01*
X123597743Y-78946011D01*
X123877095Y-78830299D01*
X124128505Y-78662312D01*
X124342312Y-78448505D01*
X124400000Y-78362169D01*
X124457688Y-78448505D01*
X124671495Y-78662312D01*
X124922905Y-78830299D01*
X125202257Y-78946011D01*
X125498816Y-79005000D01*
X125801184Y-79005000D01*
X126097743Y-78946011D01*
X126377095Y-78830299D01*
X126628505Y-78662312D01*
X126842312Y-78448505D01*
X127010299Y-78197095D01*
X127126011Y-77917743D01*
X127185000Y-77621184D01*
X127185000Y-77318816D01*
X127133731Y-77061070D01*
X128394802Y-75800000D01*
X135685199Y-75800000D01*
X135870199Y-75985000D01*
X135743740Y-75985000D01*
X135456842Y-76042068D01*
X135186589Y-76154010D01*
X134943368Y-76316525D01*
X134736525Y-76523368D01*
X134620000Y-76697760D01*
X134503475Y-76523368D01*
X134296632Y-76316525D01*
X134053411Y-76154010D01*
X133783158Y-76042068D01*
X133496260Y-75985000D01*
X133203740Y-75985000D01*
X132916842Y-76042068D01*
X132646589Y-76154010D01*
X132403368Y-76316525D01*
X132196525Y-76523368D01*
X132034010Y-76766589D01*
X131922068Y-77036842D01*
X131865000Y-77323740D01*
X131865000Y-77616260D01*
X131922068Y-77903158D01*
X132034010Y-78173411D01*
X132196525Y-78416632D01*
X132328380Y-78548487D01*
X132255820Y-78570498D01*
X132145506Y-78629463D01*
X132048815Y-78708815D01*
X131969463Y-78805506D01*
X131910498Y-78915820D01*
X131874188Y-79035518D01*
X131861928Y-79160000D01*
X131861928Y-80860000D01*
X131874188Y-80984482D01*
X131910498Y-81104180D01*
X131969463Y-81214494D01*
X132048815Y-81311185D01*
X132145506Y-81390537D01*
X132255820Y-81449502D01*
X132375518Y-81485812D01*
X132500000Y-81498072D01*
X134200000Y-81498072D01*
X134324482Y-81485812D01*
X134444180Y-81449502D01*
X134554494Y-81390537D01*
X134651185Y-81311185D01*
X134730537Y-81214494D01*
X134789502Y-81104180D01*
X134811513Y-81031620D01*
X134943368Y-81163475D01*
X135186589Y-81325990D01*
X135456842Y-81437932D01*
X135743740Y-81495000D01*
X136036260Y-81495000D01*
X136323158Y-81437932D01*
X136593411Y-81325990D01*
X136836632Y-81163475D01*
X137043475Y-80956632D01*
X137165195Y-80774466D01*
X137234822Y-80891355D01*
X137429731Y-81107588D01*
X137663080Y-81281641D01*
X137925901Y-81406825D01*
X138073110Y-81451476D01*
X138303000Y-81330155D01*
X138303000Y-80137000D01*
X138283000Y-80137000D01*
X138283000Y-79883000D01*
X138303000Y-79883000D01*
X138303000Y-79863000D01*
X138557000Y-79863000D01*
X138557000Y-79883000D01*
X138577000Y-79883000D01*
X138577000Y-80137000D01*
X138557000Y-80137000D01*
X138557000Y-81330155D01*
X138786890Y-81451476D01*
X138934099Y-81406825D01*
X139196920Y-81281641D01*
X139430269Y-81107588D01*
X139625178Y-80891355D01*
X139694805Y-80774466D01*
X139816525Y-80956632D01*
X140023368Y-81163475D01*
X140266589Y-81325990D01*
X140536842Y-81437932D01*
X140823740Y-81495000D01*
X141116260Y-81495000D01*
X141403158Y-81437932D01*
X141673411Y-81325990D01*
X141916632Y-81163475D01*
X142123475Y-80956632D01*
X142240000Y-80782240D01*
X142356525Y-80956632D01*
X142563368Y-81163475D01*
X142806589Y-81325990D01*
X143076842Y-81437932D01*
X143363740Y-81495000D01*
X143656260Y-81495000D01*
X143943158Y-81437932D01*
X144213411Y-81325990D01*
X144456632Y-81163475D01*
X144663475Y-80956632D01*
X144780000Y-80782240D01*
X144896525Y-80956632D01*
X145063586Y-81123693D01*
X127614004Y-98573276D01*
X127585000Y-98597079D01*
X127529872Y-98664254D01*
X127490027Y-98712804D01*
X127419456Y-98844833D01*
X127419455Y-98844834D01*
X127375998Y-98988095D01*
X127365001Y-99099748D01*
X127365001Y-99099758D01*
X127361325Y-99137080D01*
X127365001Y-99174402D01*
X127365001Y-114179491D01*
X127141335Y-114135000D01*
X126858665Y-114135000D01*
X126581426Y-114190147D01*
X126320273Y-114298320D01*
X126085241Y-114455363D01*
X125885363Y-114655241D01*
X125728320Y-114890273D01*
X125620147Y-115151426D01*
X125565000Y-115428665D01*
X125565000Y-115711335D01*
X125620147Y-115988574D01*
X125728320Y-116249727D01*
X125885363Y-116484759D01*
X126085241Y-116684637D01*
X126320273Y-116841680D01*
X126581426Y-116949853D01*
X126858665Y-117005000D01*
X127141335Y-117005000D01*
X127365001Y-116960509D01*
X127365001Y-121799491D01*
X127141335Y-121755000D01*
X126858665Y-121755000D01*
X126581426Y-121810147D01*
X126320273Y-121918320D01*
X126085241Y-122075363D01*
X125885363Y-122275241D01*
X125728320Y-122510273D01*
X125620147Y-122771426D01*
X125565000Y-123048665D01*
X125565000Y-123331335D01*
X125620147Y-123608574D01*
X125728320Y-123869727D01*
X125885363Y-124104759D01*
X126085241Y-124304637D01*
X126320273Y-124461680D01*
X126581426Y-124569853D01*
X126858665Y-124625000D01*
X127141335Y-124625000D01*
X127365002Y-124580509D01*
X127365002Y-140214491D01*
X127141335Y-140170000D01*
X126858665Y-140170000D01*
X126581426Y-140225147D01*
X126320273Y-140333320D01*
X126085241Y-140490363D01*
X125885363Y-140690241D01*
X125728320Y-140925273D01*
X125620147Y-141186426D01*
X125565000Y-141463665D01*
X125565000Y-141746335D01*
X125620147Y-142023574D01*
X125728320Y-142284727D01*
X125885363Y-142519759D01*
X126085241Y-142719637D01*
X126320273Y-142876680D01*
X126581426Y-142984853D01*
X126858665Y-143040000D01*
X127141335Y-143040000D01*
X127365002Y-142995509D01*
X127365002Y-147785196D01*
X127323886Y-147826312D01*
X127141335Y-147790000D01*
X126858665Y-147790000D01*
X126581426Y-147845147D01*
X126320273Y-147953320D01*
X126085241Y-148110363D01*
X125885363Y-148310241D01*
X125728320Y-148545273D01*
X125620147Y-148806426D01*
X125565000Y-149083665D01*
X125565000Y-149366335D01*
X125620147Y-149643574D01*
X125728320Y-149904727D01*
X125885363Y-150139759D01*
X126085241Y-150339637D01*
X126320273Y-150496680D01*
X126581426Y-150604853D01*
X126858665Y-150660000D01*
X127141335Y-150660000D01*
X127418574Y-150604853D01*
X127679727Y-150496680D01*
X127914759Y-150339637D01*
X128114637Y-150139759D01*
X128271680Y-149904727D01*
X128379853Y-149643574D01*
X128435000Y-149366335D01*
X128435000Y-149278816D01*
X138165000Y-149278816D01*
X138165000Y-149581184D01*
X138223989Y-149877743D01*
X138339701Y-150157095D01*
X138507688Y-150408505D01*
X138721495Y-150622312D01*
X138972905Y-150790299D01*
X139252257Y-150906011D01*
X139548816Y-150965000D01*
X139851184Y-150965000D01*
X140147743Y-150906011D01*
X140427095Y-150790299D01*
X140678505Y-150622312D01*
X140892312Y-150408505D01*
X141060299Y-150157095D01*
X141176011Y-149877743D01*
X141235000Y-149581184D01*
X141235000Y-149278816D01*
X141176011Y-148982257D01*
X141060299Y-148702905D01*
X140892312Y-148451495D01*
X140678505Y-148237688D01*
X140427095Y-148069701D01*
X140147743Y-147953989D01*
X139851184Y-147895000D01*
X139548816Y-147895000D01*
X139252257Y-147953989D01*
X138972905Y-148069701D01*
X138721495Y-148237688D01*
X138507688Y-148451495D01*
X138339701Y-148702905D01*
X138223989Y-148982257D01*
X138165000Y-149278816D01*
X128435000Y-149278816D01*
X128435000Y-149083665D01*
X128398688Y-148901114D01*
X128636004Y-148663798D01*
X128665002Y-148640000D01*
X128759975Y-148524275D01*
X128830547Y-148392246D01*
X128874004Y-148248985D01*
X128885001Y-148137332D01*
X128885001Y-148137324D01*
X128888677Y-148099999D01*
X128885001Y-148062674D01*
X128885001Y-140978816D01*
X138165000Y-140978816D01*
X138165000Y-141281184D01*
X138223989Y-141577743D01*
X138339701Y-141857095D01*
X138507688Y-142108505D01*
X138721495Y-142322312D01*
X138972905Y-142490299D01*
X139252257Y-142606011D01*
X139548816Y-142665000D01*
X139851184Y-142665000D01*
X140147743Y-142606011D01*
X140427095Y-142490299D01*
X140678505Y-142322312D01*
X140892312Y-142108505D01*
X141060299Y-141857095D01*
X141176011Y-141577743D01*
X141235000Y-141281184D01*
X141235000Y-140978816D01*
X141176011Y-140682257D01*
X141060299Y-140402905D01*
X140892312Y-140151495D01*
X140678505Y-139937688D01*
X140427095Y-139769701D01*
X140147743Y-139653989D01*
X139851184Y-139595000D01*
X139548816Y-139595000D01*
X139252257Y-139653989D01*
X138972905Y-139769701D01*
X138721495Y-139937688D01*
X138507688Y-140151495D01*
X138339701Y-140402905D01*
X138223989Y-140682257D01*
X138165000Y-140978816D01*
X128885001Y-140978816D01*
X128885001Y-133129872D01*
X137465000Y-133129872D01*
X137465000Y-133570128D01*
X137550890Y-134001925D01*
X137719369Y-134408669D01*
X137963962Y-134774729D01*
X138275271Y-135086038D01*
X138641331Y-135330631D01*
X139048075Y-135499110D01*
X139479872Y-135585000D01*
X139920128Y-135585000D01*
X140351925Y-135499110D01*
X140758669Y-135330631D01*
X141124729Y-135086038D01*
X141436038Y-134774729D01*
X141680631Y-134408669D01*
X141849110Y-134001925D01*
X141935000Y-133570128D01*
X141935000Y-133129872D01*
X141849110Y-132698075D01*
X141680631Y-132291331D01*
X141436038Y-131925271D01*
X141124729Y-131613962D01*
X140758669Y-131369369D01*
X140351925Y-131200890D01*
X139920128Y-131115000D01*
X139479872Y-131115000D01*
X139048075Y-131200890D01*
X138641331Y-131369369D01*
X138275271Y-131613962D01*
X137963962Y-131925271D01*
X137719369Y-132291331D01*
X137550890Y-132698075D01*
X137465000Y-133129872D01*
X128885001Y-133129872D01*
X128885001Y-128194080D01*
X138815525Y-128194080D01*
X138899208Y-128448261D01*
X139171775Y-128579158D01*
X139464642Y-128654365D01*
X139766553Y-128670991D01*
X140065907Y-128628397D01*
X140351199Y-128528222D01*
X140500792Y-128448261D01*
X140584475Y-128194080D01*
X139700000Y-127309605D01*
X138815525Y-128194080D01*
X128885001Y-128194080D01*
X128885001Y-127196553D01*
X138159009Y-127196553D01*
X138201603Y-127495907D01*
X138301778Y-127781199D01*
X138381739Y-127930792D01*
X138635920Y-128014475D01*
X139520395Y-127130000D01*
X139879605Y-127130000D01*
X140764080Y-128014475D01*
X141018261Y-127930792D01*
X141149158Y-127658225D01*
X141224365Y-127365358D01*
X141240991Y-127063447D01*
X141198397Y-126764093D01*
X141098222Y-126478801D01*
X141018261Y-126329208D01*
X140764080Y-126245525D01*
X139879605Y-127130000D01*
X139520395Y-127130000D01*
X138635920Y-126245525D01*
X138381739Y-126329208D01*
X138250842Y-126601775D01*
X138175635Y-126894642D01*
X138159009Y-127196553D01*
X128885001Y-127196553D01*
X128885001Y-126065920D01*
X138815525Y-126065920D01*
X139700000Y-126950395D01*
X140584475Y-126065920D01*
X140500792Y-125811739D01*
X140228225Y-125680842D01*
X139935358Y-125605635D01*
X139633447Y-125589009D01*
X139334093Y-125631603D01*
X139048801Y-125731778D01*
X138899208Y-125811739D01*
X138815525Y-126065920D01*
X128885001Y-126065920D01*
X128885001Y-125094080D01*
X138815525Y-125094080D01*
X138899208Y-125348261D01*
X139171775Y-125479158D01*
X139464642Y-125554365D01*
X139766553Y-125570991D01*
X140065907Y-125528397D01*
X140351199Y-125428222D01*
X140500792Y-125348261D01*
X140584475Y-125094080D01*
X139700000Y-124209605D01*
X138815525Y-125094080D01*
X128885001Y-125094080D01*
X128885001Y-124096553D01*
X138159009Y-124096553D01*
X138201603Y-124395907D01*
X138301778Y-124681199D01*
X138381739Y-124830792D01*
X138635920Y-124914475D01*
X139520395Y-124030000D01*
X139879605Y-124030000D01*
X140764080Y-124914475D01*
X141018261Y-124830792D01*
X141149158Y-124558225D01*
X141224365Y-124265358D01*
X141240991Y-123963447D01*
X141198397Y-123664093D01*
X141098222Y-123378801D01*
X141018261Y-123229208D01*
X140764080Y-123145525D01*
X139879605Y-124030000D01*
X139520395Y-124030000D01*
X138635920Y-123145525D01*
X138381739Y-123229208D01*
X138250842Y-123501775D01*
X138175635Y-123794642D01*
X138159009Y-124096553D01*
X128885001Y-124096553D01*
X128885001Y-122965920D01*
X138815525Y-122965920D01*
X139700000Y-123850395D01*
X140584475Y-122965920D01*
X140500792Y-122711739D01*
X140228225Y-122580842D01*
X139935358Y-122505635D01*
X139633447Y-122489009D01*
X139334093Y-122531603D01*
X139048801Y-122631778D01*
X138899208Y-122711739D01*
X138815525Y-122965920D01*
X128885001Y-122965920D01*
X128885001Y-115578816D01*
X138165000Y-115578816D01*
X138165000Y-115881184D01*
X138223989Y-116177743D01*
X138339701Y-116457095D01*
X138507688Y-116708505D01*
X138721495Y-116922312D01*
X138972905Y-117090299D01*
X139252257Y-117206011D01*
X139548816Y-117265000D01*
X139851184Y-117265000D01*
X140147743Y-117206011D01*
X140427095Y-117090299D01*
X140678505Y-116922312D01*
X140892312Y-116708505D01*
X141060299Y-116457095D01*
X141176011Y-116177743D01*
X141235000Y-115881184D01*
X141235000Y-115578816D01*
X141176011Y-115282257D01*
X141060299Y-115002905D01*
X140892312Y-114751495D01*
X140678505Y-114537688D01*
X140427095Y-114369701D01*
X140147743Y-114253989D01*
X139851184Y-114195000D01*
X139548816Y-114195000D01*
X139252257Y-114253989D01*
X138972905Y-114369701D01*
X138721495Y-114537688D01*
X138507688Y-114751495D01*
X138339701Y-115002905D01*
X138223989Y-115282257D01*
X138165000Y-115578816D01*
X128885001Y-115578816D01*
X128885001Y-110120000D01*
X135621928Y-110120000D01*
X135634188Y-110244482D01*
X135670498Y-110364180D01*
X135729463Y-110474494D01*
X135808815Y-110571185D01*
X135905506Y-110650537D01*
X136015820Y-110709502D01*
X136135518Y-110745812D01*
X136260000Y-110758072D01*
X136874250Y-110755000D01*
X137033000Y-110596250D01*
X137033000Y-109347000D01*
X135783750Y-109347000D01*
X135625000Y-109505750D01*
X135621928Y-110120000D01*
X128885001Y-110120000D01*
X128885001Y-108320000D01*
X135621928Y-108320000D01*
X135625000Y-108934250D01*
X135783750Y-109093000D01*
X137033000Y-109093000D01*
X137033000Y-107843750D01*
X137287000Y-107843750D01*
X137287000Y-109093000D01*
X137307000Y-109093000D01*
X137307000Y-109347000D01*
X137287000Y-109347000D01*
X137287000Y-110596250D01*
X137445750Y-110755000D01*
X138060000Y-110758072D01*
X138184482Y-110745812D01*
X138304180Y-110709502D01*
X138414494Y-110650537D01*
X138511185Y-110571185D01*
X138590537Y-110474494D01*
X138643880Y-110374697D01*
X138681495Y-110412312D01*
X138932905Y-110580299D01*
X139212257Y-110696011D01*
X139508816Y-110755000D01*
X139811184Y-110755000D01*
X140107743Y-110696011D01*
X140387095Y-110580299D01*
X140638505Y-110412312D01*
X140852312Y-110198505D01*
X140910000Y-110112169D01*
X140967688Y-110198505D01*
X141181495Y-110412312D01*
X141432905Y-110580299D01*
X141712257Y-110696011D01*
X142008816Y-110755000D01*
X142311184Y-110755000D01*
X142607743Y-110696011D01*
X142887095Y-110580299D01*
X143138505Y-110412312D01*
X143352312Y-110198505D01*
X143520299Y-109947095D01*
X143636011Y-109667743D01*
X143695000Y-109371184D01*
X143695000Y-109068816D01*
X143636011Y-108772257D01*
X143520299Y-108492905D01*
X143352312Y-108241495D01*
X143138505Y-108027688D01*
X142887095Y-107859701D01*
X142607743Y-107743989D01*
X142311184Y-107685000D01*
X142008816Y-107685000D01*
X141712257Y-107743989D01*
X141432905Y-107859701D01*
X141181495Y-108027688D01*
X140967688Y-108241495D01*
X140910000Y-108327831D01*
X140852312Y-108241495D01*
X140638505Y-108027688D01*
X140387095Y-107859701D01*
X140107743Y-107743989D01*
X139811184Y-107685000D01*
X139508816Y-107685000D01*
X139212257Y-107743989D01*
X138932905Y-107859701D01*
X138681495Y-108027688D01*
X138643880Y-108065303D01*
X138590537Y-107965506D01*
X138511185Y-107868815D01*
X138414494Y-107789463D01*
X138304180Y-107730498D01*
X138184482Y-107694188D01*
X138060000Y-107681928D01*
X137445750Y-107685000D01*
X137287000Y-107843750D01*
X137033000Y-107843750D01*
X136874250Y-107685000D01*
X136260000Y-107681928D01*
X136135518Y-107694188D01*
X136015820Y-107730498D01*
X135905506Y-107789463D01*
X135808815Y-107868815D01*
X135729463Y-107965506D01*
X135670498Y-108075820D01*
X135634188Y-108195518D01*
X135621928Y-108320000D01*
X128885001Y-108320000D01*
X128885001Y-101497902D01*
X132605000Y-101497902D01*
X132605000Y-101942098D01*
X132691658Y-102377759D01*
X132861645Y-102788143D01*
X133108427Y-103157479D01*
X133422521Y-103471573D01*
X133791857Y-103718355D01*
X134202241Y-103888342D01*
X134637902Y-103975000D01*
X135082098Y-103975000D01*
X135517759Y-103888342D01*
X135928143Y-103718355D01*
X136297479Y-103471573D01*
X136611573Y-103157479D01*
X136858355Y-102788143D01*
X137028342Y-102377759D01*
X137115000Y-101942098D01*
X137115000Y-101497902D01*
X142205000Y-101497902D01*
X142205000Y-101942098D01*
X142291658Y-102377759D01*
X142461645Y-102788143D01*
X142708427Y-103157479D01*
X143022521Y-103471573D01*
X143391857Y-103718355D01*
X143802241Y-103888342D01*
X144237902Y-103975000D01*
X144682098Y-103975000D01*
X145117759Y-103888342D01*
X145528143Y-103718355D01*
X145897479Y-103471573D01*
X146211573Y-103157479D01*
X146458355Y-102788143D01*
X146628342Y-102377759D01*
X146715000Y-101942098D01*
X146715000Y-101497902D01*
X146628342Y-101062241D01*
X146458355Y-100651857D01*
X146211573Y-100282521D01*
X145897479Y-99968427D01*
X145528143Y-99721645D01*
X145117759Y-99551658D01*
X144682098Y-99465000D01*
X144237902Y-99465000D01*
X143802241Y-99551658D01*
X143391857Y-99721645D01*
X143022521Y-99968427D01*
X142708427Y-100282521D01*
X142461645Y-100651857D01*
X142291658Y-101062241D01*
X142205000Y-101497902D01*
X137115000Y-101497902D01*
X137028342Y-101062241D01*
X136858355Y-100651857D01*
X136611573Y-100282521D01*
X136297479Y-99968427D01*
X135928143Y-99721645D01*
X135517759Y-99551658D01*
X135082098Y-99465000D01*
X134637902Y-99465000D01*
X134202241Y-99551658D01*
X133791857Y-99721645D01*
X133422521Y-99968427D01*
X133108427Y-100282521D01*
X132861645Y-100651857D01*
X132691658Y-101062241D01*
X132605000Y-101497902D01*
X128885001Y-101497902D01*
X128885001Y-99451881D01*
X146561003Y-81775880D01*
X146590001Y-81752082D01*
X146684974Y-81636357D01*
X146755546Y-81504328D01*
X146799003Y-81361067D01*
X146805913Y-81290909D01*
X146996632Y-81163475D01*
X147203475Y-80956632D01*
X147365990Y-80713411D01*
X147477932Y-80443158D01*
X147535000Y-80156260D01*
X147535000Y-79863740D01*
X147477932Y-79576842D01*
X147365990Y-79306589D01*
X147203475Y-79063368D01*
X146996632Y-78856525D01*
X146822240Y-78740000D01*
X146996632Y-78623475D01*
X147203475Y-78416632D01*
X147365990Y-78173411D01*
X147477932Y-77903158D01*
X147535000Y-77616260D01*
X147535000Y-77323740D01*
X147477932Y-77036842D01*
X147365990Y-76766589D01*
X147203475Y-76523368D01*
X147005107Y-76325000D01*
X147005199Y-76325000D01*
X148465000Y-77784802D01*
X148465001Y-115335683D01*
X148434637Y-115290241D01*
X148234759Y-115090363D01*
X147999727Y-114933320D01*
X147738574Y-114825147D01*
X147461335Y-114770000D01*
X147178665Y-114770000D01*
X146901426Y-114825147D01*
X146640273Y-114933320D01*
X146405241Y-115090363D01*
X146205363Y-115290241D01*
X146048320Y-115525273D01*
X145940147Y-115786426D01*
X145885000Y-116063665D01*
X145885000Y-116346335D01*
X145940147Y-116623574D01*
X146048320Y-116884727D01*
X146205363Y-117119759D01*
X146405241Y-117319637D01*
X146640273Y-117476680D01*
X146901426Y-117584853D01*
X147178665Y-117640000D01*
X147461335Y-117640000D01*
X147738574Y-117584853D01*
X147999727Y-117476680D01*
X148234759Y-117319637D01*
X148434637Y-117119759D01*
X148465001Y-117074317D01*
X148465001Y-122955684D01*
X148434637Y-122910241D01*
X148234759Y-122710363D01*
X147999727Y-122553320D01*
X147738574Y-122445147D01*
X147461335Y-122390000D01*
X147178665Y-122390000D01*
X146901426Y-122445147D01*
X146640273Y-122553320D01*
X146405241Y-122710363D01*
X146205363Y-122910241D01*
X146048320Y-123145273D01*
X145940147Y-123406426D01*
X145885000Y-123683665D01*
X145885000Y-123966335D01*
X145940147Y-124243574D01*
X146048320Y-124504727D01*
X146205363Y-124739759D01*
X146405241Y-124939637D01*
X146640273Y-125096680D01*
X146901426Y-125204853D01*
X147178665Y-125260000D01*
X147461335Y-125260000D01*
X147738574Y-125204853D01*
X147999727Y-125096680D01*
X148234759Y-124939637D01*
X148434637Y-124739759D01*
X148465001Y-124694316D01*
X148465001Y-140735684D01*
X148434637Y-140690241D01*
X148234759Y-140490363D01*
X147999727Y-140333320D01*
X147738574Y-140225147D01*
X147461335Y-140170000D01*
X147178665Y-140170000D01*
X146901426Y-140225147D01*
X146640273Y-140333320D01*
X146405241Y-140490363D01*
X146205363Y-140690241D01*
X146048320Y-140925273D01*
X145940147Y-141186426D01*
X145885000Y-141463665D01*
X145885000Y-141746335D01*
X145940147Y-142023574D01*
X146048320Y-142284727D01*
X146205363Y-142519759D01*
X146405241Y-142719637D01*
X146640273Y-142876680D01*
X146901426Y-142984853D01*
X147178665Y-143040000D01*
X147461335Y-143040000D01*
X147738574Y-142984853D01*
X147999727Y-142876680D01*
X148234759Y-142719637D01*
X148434637Y-142519759D01*
X148465001Y-142474316D01*
X148465001Y-147005197D01*
X147643886Y-147826312D01*
X147461335Y-147790000D01*
X147178665Y-147790000D01*
X146901426Y-147845147D01*
X146640273Y-147953320D01*
X146405241Y-148110363D01*
X146205363Y-148310241D01*
X146048320Y-148545273D01*
X145940147Y-148806426D01*
X145885000Y-149083665D01*
X145885000Y-149366335D01*
X145940147Y-149643574D01*
X146048320Y-149904727D01*
X146205363Y-150139759D01*
X146405241Y-150339637D01*
X146640273Y-150496680D01*
X146901426Y-150604853D01*
X147178665Y-150660000D01*
X147461335Y-150660000D01*
X147738574Y-150604853D01*
X147999727Y-150496680D01*
X148234759Y-150339637D01*
X148434637Y-150139759D01*
X148591680Y-149904727D01*
X148699853Y-149643574D01*
X148755000Y-149366335D01*
X148755000Y-149083665D01*
X150965000Y-149083665D01*
X150965000Y-149366335D01*
X151020147Y-149643574D01*
X151128320Y-149904727D01*
X151285363Y-150139759D01*
X151485241Y-150339637D01*
X151720273Y-150496680D01*
X151981426Y-150604853D01*
X152258665Y-150660000D01*
X152541335Y-150660000D01*
X152818574Y-150604853D01*
X153079727Y-150496680D01*
X153314759Y-150339637D01*
X153514637Y-150139759D01*
X153671680Y-149904727D01*
X153779853Y-149643574D01*
X153835000Y-149366335D01*
X153835000Y-149278816D01*
X158485000Y-149278816D01*
X158485000Y-149581184D01*
X158543989Y-149877743D01*
X158659701Y-150157095D01*
X158827688Y-150408505D01*
X159041495Y-150622312D01*
X159292905Y-150790299D01*
X159572257Y-150906011D01*
X159868816Y-150965000D01*
X160171184Y-150965000D01*
X160467743Y-150906011D01*
X160747095Y-150790299D01*
X160998505Y-150622312D01*
X161212312Y-150408505D01*
X161380299Y-150157095D01*
X161496011Y-149877743D01*
X161555000Y-149581184D01*
X161555000Y-149278816D01*
X161496011Y-148982257D01*
X161380299Y-148702905D01*
X161212312Y-148451495D01*
X160998505Y-148237688D01*
X160747095Y-148069701D01*
X160467743Y-147953989D01*
X160171184Y-147895000D01*
X159868816Y-147895000D01*
X159572257Y-147953989D01*
X159292905Y-148069701D01*
X159041495Y-148237688D01*
X158827688Y-148451495D01*
X158659701Y-148702905D01*
X158543989Y-148982257D01*
X158485000Y-149278816D01*
X153835000Y-149278816D01*
X153835000Y-149083665D01*
X153779853Y-148806426D01*
X153671680Y-148545273D01*
X153514637Y-148310241D01*
X153314759Y-148110363D01*
X153079727Y-147953320D01*
X152818574Y-147845147D01*
X152541335Y-147790000D01*
X152258665Y-147790000D01*
X151981426Y-147845147D01*
X151720273Y-147953320D01*
X151485241Y-148110363D01*
X151285363Y-148310241D01*
X151128320Y-148545273D01*
X151020147Y-148806426D01*
X150965000Y-149083665D01*
X148755000Y-149083665D01*
X148718688Y-148901114D01*
X149736003Y-147883799D01*
X149765001Y-147860001D01*
X149859974Y-147744276D01*
X149930546Y-147612247D01*
X149974003Y-147468986D01*
X149985000Y-147357333D01*
X149985000Y-147357323D01*
X149988676Y-147320000D01*
X149985000Y-147282677D01*
X149985000Y-141463665D01*
X150965000Y-141463665D01*
X150965000Y-141746335D01*
X151020147Y-142023574D01*
X151128320Y-142284727D01*
X151285363Y-142519759D01*
X151485241Y-142719637D01*
X151720273Y-142876680D01*
X151981426Y-142984853D01*
X152258665Y-143040000D01*
X152541335Y-143040000D01*
X152818574Y-142984853D01*
X153079727Y-142876680D01*
X153314759Y-142719637D01*
X153514637Y-142519759D01*
X153671680Y-142284727D01*
X153779853Y-142023574D01*
X153835000Y-141746335D01*
X153835000Y-141463665D01*
X153779853Y-141186426D01*
X153693859Y-140978816D01*
X158485000Y-140978816D01*
X158485000Y-141281184D01*
X158543989Y-141577743D01*
X158659701Y-141857095D01*
X158827688Y-142108505D01*
X159041495Y-142322312D01*
X159292905Y-142490299D01*
X159572257Y-142606011D01*
X159868816Y-142665000D01*
X160171184Y-142665000D01*
X160467743Y-142606011D01*
X160747095Y-142490299D01*
X160998505Y-142322312D01*
X161212312Y-142108505D01*
X161380299Y-141857095D01*
X161496011Y-141577743D01*
X161555000Y-141281184D01*
X161555000Y-140978816D01*
X161496011Y-140682257D01*
X161380299Y-140402905D01*
X161212312Y-140151495D01*
X160998505Y-139937688D01*
X160747095Y-139769701D01*
X160467743Y-139653989D01*
X160171184Y-139595000D01*
X159868816Y-139595000D01*
X159572257Y-139653989D01*
X159292905Y-139769701D01*
X159041495Y-139937688D01*
X158827688Y-140151495D01*
X158659701Y-140402905D01*
X158543989Y-140682257D01*
X158485000Y-140978816D01*
X153693859Y-140978816D01*
X153671680Y-140925273D01*
X153514637Y-140690241D01*
X153314759Y-140490363D01*
X153079727Y-140333320D01*
X152818574Y-140225147D01*
X152541335Y-140170000D01*
X152258665Y-140170000D01*
X151981426Y-140225147D01*
X151720273Y-140333320D01*
X151485241Y-140490363D01*
X151285363Y-140690241D01*
X151128320Y-140925273D01*
X151020147Y-141186426D01*
X150965000Y-141463665D01*
X149985000Y-141463665D01*
X149985000Y-128194080D01*
X159135525Y-128194080D01*
X159219208Y-128448261D01*
X159491775Y-128579158D01*
X159784642Y-128654365D01*
X160086553Y-128670991D01*
X160385907Y-128628397D01*
X160671199Y-128528222D01*
X160820792Y-128448261D01*
X160904475Y-128194080D01*
X160020000Y-127309605D01*
X159135525Y-128194080D01*
X149985000Y-128194080D01*
X149985000Y-127196553D01*
X158479009Y-127196553D01*
X158521603Y-127495907D01*
X158621778Y-127781199D01*
X158701739Y-127930792D01*
X158955920Y-128014475D01*
X159840395Y-127130000D01*
X160199605Y-127130000D01*
X161084080Y-128014475D01*
X161338261Y-127930792D01*
X161469158Y-127658225D01*
X161544365Y-127365358D01*
X161560991Y-127063447D01*
X161518397Y-126764093D01*
X161418222Y-126478801D01*
X161338261Y-126329208D01*
X161084080Y-126245525D01*
X160199605Y-127130000D01*
X159840395Y-127130000D01*
X158955920Y-126245525D01*
X158701739Y-126329208D01*
X158570842Y-126601775D01*
X158495635Y-126894642D01*
X158479009Y-127196553D01*
X149985000Y-127196553D01*
X149985000Y-126065920D01*
X159135525Y-126065920D01*
X160020000Y-126950395D01*
X160904475Y-126065920D01*
X160820792Y-125811739D01*
X160548225Y-125680842D01*
X160255358Y-125605635D01*
X159953447Y-125589009D01*
X159654093Y-125631603D01*
X159368801Y-125731778D01*
X159219208Y-125811739D01*
X159135525Y-126065920D01*
X149985000Y-126065920D01*
X149985000Y-125094080D01*
X159135525Y-125094080D01*
X159219208Y-125348261D01*
X159491775Y-125479158D01*
X159784642Y-125554365D01*
X160086553Y-125570991D01*
X160385907Y-125528397D01*
X160671199Y-125428222D01*
X160820792Y-125348261D01*
X160904475Y-125094080D01*
X160020000Y-124209605D01*
X159135525Y-125094080D01*
X149985000Y-125094080D01*
X149985000Y-123048665D01*
X152235000Y-123048665D01*
X152235000Y-123331335D01*
X152290147Y-123608574D01*
X152398320Y-123869727D01*
X152555363Y-124104759D01*
X152755241Y-124304637D01*
X152990273Y-124461680D01*
X153251426Y-124569853D01*
X153528665Y-124625000D01*
X153811335Y-124625000D01*
X154088574Y-124569853D01*
X154349727Y-124461680D01*
X154584759Y-124304637D01*
X154784637Y-124104759D01*
X154790120Y-124096553D01*
X158479009Y-124096553D01*
X158521603Y-124395907D01*
X158621778Y-124681199D01*
X158701739Y-124830792D01*
X158955920Y-124914475D01*
X159840395Y-124030000D01*
X160199605Y-124030000D01*
X161084080Y-124914475D01*
X161338261Y-124830792D01*
X161469158Y-124558225D01*
X161544365Y-124265358D01*
X161560991Y-123963447D01*
X161518397Y-123664093D01*
X161418222Y-123378801D01*
X161338261Y-123229208D01*
X161084080Y-123145525D01*
X160199605Y-124030000D01*
X159840395Y-124030000D01*
X158955920Y-123145525D01*
X158701739Y-123229208D01*
X158570842Y-123501775D01*
X158495635Y-123794642D01*
X158479009Y-124096553D01*
X154790120Y-124096553D01*
X154941680Y-123869727D01*
X155049853Y-123608574D01*
X155105000Y-123331335D01*
X155105000Y-123048665D01*
X155088541Y-122965920D01*
X159135525Y-122965920D01*
X160020000Y-123850395D01*
X160904475Y-122965920D01*
X160820792Y-122711739D01*
X160548225Y-122580842D01*
X160255358Y-122505635D01*
X159953447Y-122489009D01*
X159654093Y-122531603D01*
X159368801Y-122631778D01*
X159219208Y-122711739D01*
X159135525Y-122965920D01*
X155088541Y-122965920D01*
X155049853Y-122771426D01*
X154941680Y-122510273D01*
X154784637Y-122275241D01*
X154584759Y-122075363D01*
X154349727Y-121918320D01*
X154088574Y-121810147D01*
X153811335Y-121755000D01*
X153528665Y-121755000D01*
X153251426Y-121810147D01*
X152990273Y-121918320D01*
X152755241Y-122075363D01*
X152555363Y-122275241D01*
X152398320Y-122510273D01*
X152290147Y-122771426D01*
X152235000Y-123048665D01*
X149985000Y-123048665D01*
X149985000Y-115428665D01*
X152235000Y-115428665D01*
X152235000Y-115711335D01*
X152290147Y-115988574D01*
X152398320Y-116249727D01*
X152555363Y-116484759D01*
X152755241Y-116684637D01*
X152990273Y-116841680D01*
X153251426Y-116949853D01*
X153528665Y-117005000D01*
X153811335Y-117005000D01*
X154088574Y-116949853D01*
X154349727Y-116841680D01*
X154584759Y-116684637D01*
X154784637Y-116484759D01*
X154941680Y-116249727D01*
X155049853Y-115988574D01*
X155105000Y-115711335D01*
X155105000Y-115578816D01*
X158485000Y-115578816D01*
X158485000Y-115881184D01*
X158543989Y-116177743D01*
X158659701Y-116457095D01*
X158827688Y-116708505D01*
X159041495Y-116922312D01*
X159292905Y-117090299D01*
X159572257Y-117206011D01*
X159868816Y-117265000D01*
X160171184Y-117265000D01*
X160467743Y-117206011D01*
X160747095Y-117090299D01*
X160998505Y-116922312D01*
X161212312Y-116708505D01*
X161380299Y-116457095D01*
X161496011Y-116177743D01*
X161555000Y-115881184D01*
X161555000Y-115578816D01*
X161496011Y-115282257D01*
X161380299Y-115002905D01*
X161212312Y-114751495D01*
X160998505Y-114537688D01*
X160747095Y-114369701D01*
X160467743Y-114253989D01*
X160171184Y-114195000D01*
X159868816Y-114195000D01*
X159572257Y-114253989D01*
X159292905Y-114369701D01*
X159041495Y-114537688D01*
X158827688Y-114751495D01*
X158659701Y-115002905D01*
X158543989Y-115282257D01*
X158485000Y-115578816D01*
X155105000Y-115578816D01*
X155105000Y-115428665D01*
X155049853Y-115151426D01*
X154941680Y-114890273D01*
X154784637Y-114655241D01*
X154584759Y-114455363D01*
X154349727Y-114298320D01*
X154088574Y-114190147D01*
X153811335Y-114135000D01*
X153528665Y-114135000D01*
X153251426Y-114190147D01*
X152990273Y-114298320D01*
X152755241Y-114455363D01*
X152555363Y-114655241D01*
X152398320Y-114890273D01*
X152290147Y-115151426D01*
X152235000Y-115428665D01*
X149985000Y-115428665D01*
X149985000Y-110120000D01*
X155941928Y-110120000D01*
X155954188Y-110244482D01*
X155990498Y-110364180D01*
X156049463Y-110474494D01*
X156128815Y-110571185D01*
X156225506Y-110650537D01*
X156335820Y-110709502D01*
X156455518Y-110745812D01*
X156580000Y-110758072D01*
X157194250Y-110755000D01*
X157353000Y-110596250D01*
X157353000Y-109347000D01*
X156103750Y-109347000D01*
X155945000Y-109505750D01*
X155941928Y-110120000D01*
X149985000Y-110120000D01*
X149985000Y-108320000D01*
X155941928Y-108320000D01*
X155945000Y-108934250D01*
X156103750Y-109093000D01*
X157353000Y-109093000D01*
X157353000Y-107843750D01*
X157607000Y-107843750D01*
X157607000Y-109093000D01*
X157627000Y-109093000D01*
X157627000Y-109347000D01*
X157607000Y-109347000D01*
X157607000Y-110596250D01*
X157765750Y-110755000D01*
X158380000Y-110758072D01*
X158504482Y-110745812D01*
X158624180Y-110709502D01*
X158734494Y-110650537D01*
X158831185Y-110571185D01*
X158910537Y-110474494D01*
X158963880Y-110374697D01*
X159001495Y-110412312D01*
X159252905Y-110580299D01*
X159532257Y-110696011D01*
X159828816Y-110755000D01*
X160131184Y-110755000D01*
X160427743Y-110696011D01*
X160707095Y-110580299D01*
X160958505Y-110412312D01*
X161172312Y-110198505D01*
X161230000Y-110112169D01*
X161287688Y-110198505D01*
X161501495Y-110412312D01*
X161752905Y-110580299D01*
X162032257Y-110696011D01*
X162328816Y-110755000D01*
X162631184Y-110755000D01*
X162927743Y-110696011D01*
X163207095Y-110580299D01*
X163458505Y-110412312D01*
X163672312Y-110198505D01*
X163840299Y-109947095D01*
X163956011Y-109667743D01*
X164015000Y-109371184D01*
X164015000Y-109068816D01*
X163956011Y-108772257D01*
X163840299Y-108492905D01*
X163672312Y-108241495D01*
X163458505Y-108027688D01*
X163207095Y-107859701D01*
X162927743Y-107743989D01*
X162631184Y-107685000D01*
X162328816Y-107685000D01*
X162032257Y-107743989D01*
X161752905Y-107859701D01*
X161501495Y-108027688D01*
X161287688Y-108241495D01*
X161230000Y-108327831D01*
X161172312Y-108241495D01*
X160958505Y-108027688D01*
X160707095Y-107859701D01*
X160427743Y-107743989D01*
X160131184Y-107685000D01*
X159828816Y-107685000D01*
X159532257Y-107743989D01*
X159252905Y-107859701D01*
X159001495Y-108027688D01*
X158963880Y-108065303D01*
X158910537Y-107965506D01*
X158831185Y-107868815D01*
X158734494Y-107789463D01*
X158624180Y-107730498D01*
X158504482Y-107694188D01*
X158380000Y-107681928D01*
X157765750Y-107685000D01*
X157607000Y-107843750D01*
X157353000Y-107843750D01*
X157194250Y-107685000D01*
X156580000Y-107681928D01*
X156455518Y-107694188D01*
X156335820Y-107730498D01*
X156225506Y-107789463D01*
X156128815Y-107868815D01*
X156049463Y-107965506D01*
X155990498Y-108075820D01*
X155954188Y-108195518D01*
X155941928Y-108320000D01*
X149985000Y-108320000D01*
X149985000Y-101497902D01*
X152925000Y-101497902D01*
X152925000Y-101942098D01*
X153011658Y-102377759D01*
X153181645Y-102788143D01*
X153428427Y-103157479D01*
X153742521Y-103471573D01*
X154111857Y-103718355D01*
X154522241Y-103888342D01*
X154957902Y-103975000D01*
X155402098Y-103975000D01*
X155837759Y-103888342D01*
X156248143Y-103718355D01*
X156617479Y-103471573D01*
X156931573Y-103157479D01*
X157178355Y-102788143D01*
X157348342Y-102377759D01*
X157435000Y-101942098D01*
X157435000Y-101497902D01*
X157348342Y-101062241D01*
X157178355Y-100651857D01*
X156931573Y-100282521D01*
X156617479Y-99968427D01*
X156248143Y-99721645D01*
X155837759Y-99551658D01*
X155402098Y-99465000D01*
X154957902Y-99465000D01*
X154522241Y-99551658D01*
X154111857Y-99721645D01*
X153742521Y-99968427D01*
X153428427Y-100282521D01*
X153181645Y-100651857D01*
X153011658Y-101062241D01*
X152925000Y-101497902D01*
X149985000Y-101497902D01*
X149985000Y-84992702D01*
X151686903Y-84992702D01*
X151758486Y-85236671D01*
X152013996Y-85357571D01*
X152288184Y-85426300D01*
X152570512Y-85440217D01*
X152850130Y-85398787D01*
X153116292Y-85303603D01*
X153241514Y-85236671D01*
X153313097Y-84992702D01*
X152500000Y-84179605D01*
X151686903Y-84992702D01*
X149985000Y-84992702D01*
X149985000Y-84070512D01*
X151059783Y-84070512D01*
X151101213Y-84350130D01*
X151196397Y-84616292D01*
X151263329Y-84741514D01*
X151507298Y-84813097D01*
X152320395Y-84000000D01*
X152679605Y-84000000D01*
X153492702Y-84813097D01*
X153736671Y-84741514D01*
X153857571Y-84486004D01*
X153926300Y-84211816D01*
X153940217Y-83929488D01*
X153929724Y-83858665D01*
X158685000Y-83858665D01*
X158685000Y-84141335D01*
X158740147Y-84418574D01*
X158848320Y-84679727D01*
X159005363Y-84914759D01*
X159205241Y-85114637D01*
X159440273Y-85271680D01*
X159701426Y-85379853D01*
X159978665Y-85435000D01*
X160261335Y-85435000D01*
X160538574Y-85379853D01*
X160799727Y-85271680D01*
X161034759Y-85114637D01*
X161234637Y-84914759D01*
X161391680Y-84679727D01*
X161499853Y-84418574D01*
X161555000Y-84141335D01*
X161555000Y-83858665D01*
X161499853Y-83581426D01*
X161391680Y-83320273D01*
X161234637Y-83085241D01*
X161034759Y-82885363D01*
X160799727Y-82728320D01*
X160538574Y-82620147D01*
X160261335Y-82565000D01*
X159978665Y-82565000D01*
X159701426Y-82620147D01*
X159440273Y-82728320D01*
X159205241Y-82885363D01*
X159005363Y-83085241D01*
X158848320Y-83320273D01*
X158740147Y-83581426D01*
X158685000Y-83858665D01*
X153929724Y-83858665D01*
X153898787Y-83649870D01*
X153803603Y-83383708D01*
X153736671Y-83258486D01*
X153492702Y-83186903D01*
X152679605Y-84000000D01*
X152320395Y-84000000D01*
X151507298Y-83186903D01*
X151263329Y-83258486D01*
X151142429Y-83513996D01*
X151073700Y-83788184D01*
X151059783Y-84070512D01*
X149985000Y-84070512D01*
X149985000Y-83007298D01*
X151686903Y-83007298D01*
X152500000Y-83820395D01*
X153313097Y-83007298D01*
X153241514Y-82763329D01*
X152986004Y-82642429D01*
X152711816Y-82573700D01*
X152429488Y-82559783D01*
X152149870Y-82601213D01*
X151883708Y-82696397D01*
X151758486Y-82763329D01*
X151686903Y-83007298D01*
X149985000Y-83007298D01*
X149985000Y-77507323D01*
X149988676Y-77470000D01*
X149985000Y-77432677D01*
X149985000Y-77432667D01*
X149974003Y-77321014D01*
X149930546Y-77177753D01*
X149859974Y-77045724D01*
X149765001Y-76929999D01*
X149736004Y-76906202D01*
X149399802Y-76570000D01*
X152131928Y-76570000D01*
X152131928Y-78370000D01*
X152144188Y-78494482D01*
X152180498Y-78614180D01*
X152239463Y-78724494D01*
X152318815Y-78821185D01*
X152415506Y-78900537D01*
X152525820Y-78959502D01*
X152645518Y-78995812D01*
X152770000Y-79008072D01*
X154570000Y-79008072D01*
X154694482Y-78995812D01*
X154814180Y-78959502D01*
X154924494Y-78900537D01*
X155021185Y-78821185D01*
X155100537Y-78724494D01*
X155153880Y-78624697D01*
X155191495Y-78662312D01*
X155442905Y-78830299D01*
X155722257Y-78946011D01*
X156018816Y-79005000D01*
X156321184Y-79005000D01*
X156617743Y-78946011D01*
X156897095Y-78830299D01*
X157148505Y-78662312D01*
X157362312Y-78448505D01*
X157420000Y-78362169D01*
X157477688Y-78448505D01*
X157691495Y-78662312D01*
X157942905Y-78830299D01*
X158222257Y-78946011D01*
X158518816Y-79005000D01*
X158821184Y-79005000D01*
X159117743Y-78946011D01*
X159397095Y-78830299D01*
X159648505Y-78662312D01*
X159862312Y-78448505D01*
X160030299Y-78197095D01*
X160146011Y-77917743D01*
X160205000Y-77621184D01*
X160205000Y-77318816D01*
X160146011Y-77022257D01*
X160030299Y-76742905D01*
X159862312Y-76491495D01*
X159648505Y-76277688D01*
X159397095Y-76109701D01*
X159117743Y-75993989D01*
X158821184Y-75935000D01*
X158518816Y-75935000D01*
X158222257Y-75993989D01*
X157942905Y-76109701D01*
X157691495Y-76277688D01*
X157477688Y-76491495D01*
X157420000Y-76577831D01*
X157362312Y-76491495D01*
X157148505Y-76277688D01*
X156897095Y-76109701D01*
X156617743Y-75993989D01*
X156321184Y-75935000D01*
X156018816Y-75935000D01*
X155722257Y-75993989D01*
X155442905Y-76109701D01*
X155191495Y-76277688D01*
X155153880Y-76315303D01*
X155100537Y-76215506D01*
X155021185Y-76118815D01*
X154924494Y-76039463D01*
X154814180Y-75980498D01*
X154694482Y-75944188D01*
X154570000Y-75931928D01*
X152770000Y-75931928D01*
X152645518Y-75944188D01*
X152525820Y-75980498D01*
X152415506Y-76039463D01*
X152318815Y-76118815D01*
X152239463Y-76215506D01*
X152180498Y-76325820D01*
X152144188Y-76445518D01*
X152131928Y-76570000D01*
X149399802Y-76570000D01*
X147883804Y-75054003D01*
X147860001Y-75024999D01*
X147744276Y-74930026D01*
X147612247Y-74859454D01*
X147468986Y-74815997D01*
X147357333Y-74805000D01*
X147357322Y-74805000D01*
X147320000Y-74801324D01*
X147282678Y-74805000D01*
X141710252Y-74805000D01*
X141672919Y-74801323D01*
X141635586Y-74805000D01*
X141523933Y-74815997D01*
X141380672Y-74859454D01*
X141248643Y-74930026D01*
X141132918Y-75024999D01*
X141109120Y-75053998D01*
X140458998Y-75704120D01*
X140430000Y-75727918D01*
X140406202Y-75756916D01*
X140406201Y-75756917D01*
X140335026Y-75843643D01*
X140264454Y-75975673D01*
X140244314Y-76042068D01*
X140223799Y-76109701D01*
X140220998Y-76118934D01*
X140214088Y-76189090D01*
X140023368Y-76316525D01*
X139816525Y-76523368D01*
X139700000Y-76697760D01*
X139583475Y-76523368D01*
X139376632Y-76316525D01*
X139133411Y-76154010D01*
X138863158Y-76042068D01*
X138576260Y-75985000D01*
X138283740Y-75985000D01*
X138063592Y-76028790D01*
X136563804Y-74529003D01*
X136540001Y-74499999D01*
X136424276Y-74405026D01*
X136292247Y-74334454D01*
X136148986Y-74290997D01*
X136037333Y-74280000D01*
X136037322Y-74280000D01*
X136000000Y-74276324D01*
X135962678Y-74280000D01*
X128117323Y-74280000D01*
X128080000Y-74276324D01*
X128042677Y-74280000D01*
X128042667Y-74280000D01*
X127931014Y-74290997D01*
X127787753Y-74334454D01*
X127655723Y-74405026D01*
X127572083Y-74473668D01*
X127539999Y-74499999D01*
X127516201Y-74528997D01*
X126058930Y-75986269D01*
X125801184Y-75935000D01*
X125498816Y-75935000D01*
X125202257Y-75993989D01*
X124922905Y-76109701D01*
X124671495Y-76277688D01*
X124457688Y-76491495D01*
X124400000Y-76577831D01*
X124342312Y-76491495D01*
X124128505Y-76277688D01*
X123877095Y-76109701D01*
X123597743Y-75993989D01*
X123301184Y-75935000D01*
X122998816Y-75935000D01*
X122702257Y-75993989D01*
X122422905Y-76109701D01*
X122171495Y-76277688D01*
X122133880Y-76315303D01*
X122080537Y-76215506D01*
X122001185Y-76118815D01*
X121904494Y-76039463D01*
X121794180Y-75980498D01*
X121674482Y-75944188D01*
X121550000Y-75931928D01*
X120935750Y-75935000D01*
X120777000Y-76093750D01*
X120523000Y-76093750D01*
X120364250Y-75935000D01*
X119750000Y-75931928D01*
X119625518Y-75944188D01*
X119505820Y-75980498D01*
X119395506Y-76039463D01*
X119298815Y-76118815D01*
X119219463Y-76215506D01*
X119160498Y-76325820D01*
X119124188Y-76445518D01*
X119111928Y-76570000D01*
X112445000Y-76570000D01*
X112445000Y-69747902D01*
X116095000Y-69747902D01*
X116095000Y-70192098D01*
X116181658Y-70627759D01*
X116351645Y-71038143D01*
X116598427Y-71407479D01*
X116912521Y-71721573D01*
X117281857Y-71968355D01*
X117692241Y-72138342D01*
X118127902Y-72225000D01*
X118572098Y-72225000D01*
X119007759Y-72138342D01*
X119418143Y-71968355D01*
X119787479Y-71721573D01*
X120101573Y-71407479D01*
X120348355Y-71038143D01*
X120518342Y-70627759D01*
X120605000Y-70192098D01*
X120605000Y-69747902D01*
X125695000Y-69747902D01*
X125695000Y-70192098D01*
X125781658Y-70627759D01*
X125951645Y-71038143D01*
X126198427Y-71407479D01*
X126512521Y-71721573D01*
X126881857Y-71968355D01*
X127292241Y-72138342D01*
X127727902Y-72225000D01*
X128172098Y-72225000D01*
X128607759Y-72138342D01*
X129018143Y-71968355D01*
X129387479Y-71721573D01*
X129701573Y-71407479D01*
X129948355Y-71038143D01*
X130005628Y-70899872D01*
X137465000Y-70899872D01*
X137465000Y-71340128D01*
X137550890Y-71771925D01*
X137719369Y-72178669D01*
X137963962Y-72544729D01*
X138275271Y-72856038D01*
X138641331Y-73100631D01*
X139048075Y-73269110D01*
X139479872Y-73355000D01*
X139920128Y-73355000D01*
X140351925Y-73269110D01*
X140758669Y-73100631D01*
X141124729Y-72856038D01*
X141436038Y-72544729D01*
X141680631Y-72178669D01*
X141849110Y-71771925D01*
X141935000Y-71340128D01*
X141935000Y-70899872D01*
X141849110Y-70468075D01*
X141680631Y-70061331D01*
X141471205Y-69747902D01*
X149115000Y-69747902D01*
X149115000Y-70192098D01*
X149201658Y-70627759D01*
X149371645Y-71038143D01*
X149618427Y-71407479D01*
X149932521Y-71721573D01*
X150301857Y-71968355D01*
X150712241Y-72138342D01*
X151147902Y-72225000D01*
X151592098Y-72225000D01*
X152027759Y-72138342D01*
X152438143Y-71968355D01*
X152807479Y-71721573D01*
X153121573Y-71407479D01*
X153368355Y-71038143D01*
X153538342Y-70627759D01*
X153625000Y-70192098D01*
X153625000Y-69747902D01*
X158715000Y-69747902D01*
X158715000Y-70192098D01*
X158801658Y-70627759D01*
X158971645Y-71038143D01*
X159218427Y-71407479D01*
X159532521Y-71721573D01*
X159901857Y-71968355D01*
X160312241Y-72138342D01*
X160747902Y-72225000D01*
X161192098Y-72225000D01*
X161627759Y-72138342D01*
X162038143Y-71968355D01*
X162407479Y-71721573D01*
X162721573Y-71407479D01*
X162968355Y-71038143D01*
X163138342Y-70627759D01*
X163225000Y-70192098D01*
X163225000Y-69747902D01*
X163138342Y-69312241D01*
X162968355Y-68901857D01*
X162721573Y-68532521D01*
X162407479Y-68218427D01*
X162038143Y-67971645D01*
X161627759Y-67801658D01*
X161192098Y-67715000D01*
X160747902Y-67715000D01*
X160312241Y-67801658D01*
X159901857Y-67971645D01*
X159532521Y-68218427D01*
X159218427Y-68532521D01*
X158971645Y-68901857D01*
X158801658Y-69312241D01*
X158715000Y-69747902D01*
X153625000Y-69747902D01*
X153538342Y-69312241D01*
X153368355Y-68901857D01*
X153121573Y-68532521D01*
X152807479Y-68218427D01*
X152438143Y-67971645D01*
X152027759Y-67801658D01*
X151592098Y-67715000D01*
X151147902Y-67715000D01*
X150712241Y-67801658D01*
X150301857Y-67971645D01*
X149932521Y-68218427D01*
X149618427Y-68532521D01*
X149371645Y-68901857D01*
X149201658Y-69312241D01*
X149115000Y-69747902D01*
X141471205Y-69747902D01*
X141436038Y-69695271D01*
X141124729Y-69383962D01*
X140758669Y-69139369D01*
X140351925Y-68970890D01*
X139920128Y-68885000D01*
X139479872Y-68885000D01*
X139048075Y-68970890D01*
X138641331Y-69139369D01*
X138275271Y-69383962D01*
X137963962Y-69695271D01*
X137719369Y-70061331D01*
X137550890Y-70468075D01*
X137465000Y-70899872D01*
X130005628Y-70899872D01*
X130118342Y-70627759D01*
X130205000Y-70192098D01*
X130205000Y-69747902D01*
X130118342Y-69312241D01*
X129948355Y-68901857D01*
X129701573Y-68532521D01*
X129387479Y-68218427D01*
X129018143Y-67971645D01*
X128607759Y-67801658D01*
X128172098Y-67715000D01*
X127727902Y-67715000D01*
X127292241Y-67801658D01*
X126881857Y-67971645D01*
X126512521Y-68218427D01*
X126198427Y-68532521D01*
X125951645Y-68901857D01*
X125781658Y-69312241D01*
X125695000Y-69747902D01*
X120605000Y-69747902D01*
X120518342Y-69312241D01*
X120348355Y-68901857D01*
X120101573Y-68532521D01*
X119787479Y-68218427D01*
X119418143Y-67971645D01*
X119007759Y-67801658D01*
X118572098Y-67715000D01*
X118127902Y-67715000D01*
X117692241Y-67801658D01*
X117281857Y-67971645D01*
X116912521Y-68218427D01*
X116598427Y-68532521D01*
X116351645Y-68901857D01*
X116181658Y-69312241D01*
X116095000Y-69747902D01*
X112445000Y-69747902D01*
X112445000Y-64185000D01*
X166955000Y-64185000D01*
X166955000Y-101095715D01*
G37*
X166955000Y-101095715D02*
X166948342Y-101062241D01*
X166778355Y-100651857D01*
X166531573Y-100282521D01*
X166217479Y-99968427D01*
X165848143Y-99721645D01*
X165437759Y-99551658D01*
X165002098Y-99465000D01*
X164557902Y-99465000D01*
X164122241Y-99551658D01*
X163711857Y-99721645D01*
X163342521Y-99968427D01*
X163028427Y-100282521D01*
X162781645Y-100651857D01*
X162611658Y-101062241D01*
X162525000Y-101497902D01*
X162525000Y-101942098D01*
X162611658Y-102377759D01*
X162781645Y-102788143D01*
X163028427Y-103157479D01*
X163342521Y-103471573D01*
X163711857Y-103718355D01*
X164122241Y-103888342D01*
X164557902Y-103975000D01*
X165002098Y-103975000D01*
X165437759Y-103888342D01*
X165848143Y-103718355D01*
X166217479Y-103471573D01*
X166531573Y-103157479D01*
X166778355Y-102788143D01*
X166948342Y-102377759D01*
X166955000Y-102344285D01*
X166955001Y-154255000D01*
X112445000Y-154255000D01*
X112445000Y-153594080D01*
X118495525Y-153594080D01*
X118579208Y-153848261D01*
X118851775Y-153979158D01*
X119144642Y-154054365D01*
X119446553Y-154070991D01*
X119745907Y-154028397D01*
X120031199Y-153928222D01*
X120180792Y-153848261D01*
X120264475Y-153594080D01*
X138815525Y-153594080D01*
X138899208Y-153848261D01*
X139171775Y-153979158D01*
X139464642Y-154054365D01*
X139766553Y-154070991D01*
X140065907Y-154028397D01*
X140351199Y-153928222D01*
X140500792Y-153848261D01*
X140584475Y-153594080D01*
X159135525Y-153594080D01*
X159219208Y-153848261D01*
X159491775Y-153979158D01*
X159784642Y-154054365D01*
X160086553Y-154070991D01*
X160385907Y-154028397D01*
X160671199Y-153928222D01*
X160820792Y-153848261D01*
X160904475Y-153594080D01*
X160020000Y-152709605D01*
X159135525Y-153594080D01*
X140584475Y-153594080D01*
X139700000Y-152709605D01*
X138815525Y-153594080D01*
X120264475Y-153594080D01*
X119380000Y-152709605D01*
X118495525Y-153594080D01*
X112445000Y-153594080D01*
X112445000Y-152596553D01*
X117839009Y-152596553D01*
X117881603Y-152895907D01*
X117981778Y-153181199D01*
X118061739Y-153330792D01*
X118315920Y-153414475D01*
X119200395Y-152530000D01*
X119559605Y-152530000D01*
X120444080Y-153414475D01*
X120698261Y-153330792D01*
X120829158Y-153058225D01*
X120904365Y-152765358D01*
X120913660Y-152596553D01*
X138159009Y-152596553D01*
X138201603Y-152895907D01*
X138301778Y-153181199D01*
X138381739Y-153330792D01*
X138635920Y-153414475D01*
X139520395Y-152530000D01*
X139879605Y-152530000D01*
X140764080Y-153414475D01*
X141018261Y-153330792D01*
X141149158Y-153058225D01*
X141224365Y-152765358D01*
X141233660Y-152596553D01*
X158479009Y-152596553D01*
X158521603Y-152895907D01*
X158621778Y-153181199D01*
X158701739Y-153330792D01*
X158955920Y-153414475D01*
X159840395Y-152530000D01*
X160199605Y-152530000D01*
X161084080Y-153414475D01*
X161338261Y-153330792D01*
X161469158Y-153058225D01*
X161544365Y-152765358D01*
X161560991Y-152463447D01*
X161518397Y-152164093D01*
X161418222Y-151878801D01*
X161338261Y-151729208D01*
X161084080Y-151645525D01*
X160199605Y-152530000D01*
X159840395Y-152530000D01*
X158955920Y-151645525D01*
X158701739Y-151729208D01*
X158570842Y-152001775D01*
X158495635Y-152294642D01*
X158479009Y-152596553D01*
X141233660Y-152596553D01*
X141240991Y-152463447D01*
X141198397Y-152164093D01*
X141098222Y-151878801D01*
X141018261Y-151729208D01*
X140764080Y-151645525D01*
X139879605Y-152530000D01*
X139520395Y-152530000D01*
X138635920Y-151645525D01*
X138381739Y-151729208D01*
X138250842Y-152001775D01*
X138175635Y-152294642D01*
X138159009Y-152596553D01*
X120913660Y-152596553D01*
X120920991Y-152463447D01*
X120878397Y-152164093D01*
X120778222Y-151878801D01*
X120698261Y-151729208D01*
X120444080Y-151645525D01*
X119559605Y-152530000D01*
X119200395Y-152530000D01*
X118315920Y-151645525D01*
X118061739Y-151729208D01*
X117930842Y-152001775D01*
X117855635Y-152294642D01*
X117839009Y-152596553D01*
X112445000Y-152596553D01*
X112445000Y-151465920D01*
X118495525Y-151465920D01*
X119380000Y-152350395D01*
X120264475Y-151465920D01*
X138815525Y-151465920D01*
X139700000Y-152350395D01*
X140584475Y-151465920D01*
X159135525Y-151465920D01*
X160020000Y-152350395D01*
X160904475Y-151465920D01*
X160820792Y-151211739D01*
X160548225Y-151080842D01*
X160255358Y-151005635D01*
X159953447Y-150989009D01*
X159654093Y-151031603D01*
X159368801Y-151131778D01*
X159219208Y-151211739D01*
X159135525Y-151465920D01*
X140584475Y-151465920D01*
X140500792Y-151211739D01*
X140228225Y-151080842D01*
X139935358Y-151005635D01*
X139633447Y-150989009D01*
X139334093Y-151031603D01*
X139048801Y-151131778D01*
X138899208Y-151211739D01*
X138815525Y-151465920D01*
X120264475Y-151465920D01*
X120180792Y-151211739D01*
X119908225Y-151080842D01*
X119615358Y-151005635D01*
X119313447Y-150989009D01*
X119014093Y-151031603D01*
X118728801Y-151131778D01*
X118579208Y-151211739D01*
X118495525Y-151465920D01*
X112445000Y-151465920D01*
X112445000Y-149278816D01*
X117845000Y-149278816D01*
X117845000Y-149581184D01*
X117903989Y-149877743D01*
X118019701Y-150157095D01*
X118187688Y-150408505D01*
X118401495Y-150622312D01*
X118652905Y-150790299D01*
X118932257Y-150906011D01*
X119228816Y-150965000D01*
X119531184Y-150965000D01*
X119827743Y-150906011D01*
X120107095Y-150790299D01*
X120358505Y-150622312D01*
X120572312Y-150408505D01*
X120740299Y-150157095D01*
X120856011Y-149877743D01*
X120915000Y-149581184D01*
X120915000Y-149278816D01*
X120856011Y-148982257D01*
X120740299Y-148702905D01*
X120572312Y-148451495D01*
X120358505Y-148237688D01*
X120107095Y-148069701D01*
X119827743Y-147953989D01*
X119531184Y-147895000D01*
X119228816Y-147895000D01*
X118932257Y-147953989D01*
X118652905Y-148069701D01*
X118401495Y-148237688D01*
X118187688Y-148451495D01*
X118019701Y-148702905D01*
X117903989Y-148982257D01*
X117845000Y-149278816D01*
X112445000Y-149278816D01*
X112445000Y-140978816D01*
X117845000Y-140978816D01*
X117845000Y-141281184D01*
X117903989Y-141577743D01*
X118019701Y-141857095D01*
X118187688Y-142108505D01*
X118401495Y-142322312D01*
X118652905Y-142490299D01*
X118932257Y-142606011D01*
X119228816Y-142665000D01*
X119531184Y-142665000D01*
X119827743Y-142606011D01*
X120107095Y-142490299D01*
X120358505Y-142322312D01*
X120572312Y-142108505D01*
X120740299Y-141857095D01*
X120856011Y-141577743D01*
X120915000Y-141281184D01*
X120915000Y-140978816D01*
X120856011Y-140682257D01*
X120740299Y-140402905D01*
X120572312Y-140151495D01*
X120358505Y-139937688D01*
X120107095Y-139769701D01*
X119827743Y-139653989D01*
X119531184Y-139595000D01*
X119228816Y-139595000D01*
X118932257Y-139653989D01*
X118652905Y-139769701D01*
X118401495Y-139937688D01*
X118187688Y-140151495D01*
X118019701Y-140402905D01*
X117903989Y-140682257D01*
X117845000Y-140978816D01*
X112445000Y-140978816D01*
X112445000Y-128194080D01*
X118495525Y-128194080D01*
X118579208Y-128448261D01*
X118851775Y-128579158D01*
X119144642Y-128654365D01*
X119446553Y-128670991D01*
X119745907Y-128628397D01*
X120031199Y-128528222D01*
X120180792Y-128448261D01*
X120264475Y-128194080D01*
X119380000Y-127309605D01*
X118495525Y-128194080D01*
X112445000Y-128194080D01*
X112445000Y-127196553D01*
X117839009Y-127196553D01*
X117881603Y-127495907D01*
X117981778Y-127781199D01*
X118061739Y-127930792D01*
X118315920Y-128014475D01*
X119200395Y-127130000D01*
X119559605Y-127130000D01*
X120444080Y-128014475D01*
X120698261Y-127930792D01*
X120829158Y-127658225D01*
X120904365Y-127365358D01*
X120920991Y-127063447D01*
X120878397Y-126764093D01*
X120778222Y-126478801D01*
X120698261Y-126329208D01*
X120444080Y-126245525D01*
X119559605Y-127130000D01*
X119200395Y-127130000D01*
X118315920Y-126245525D01*
X118061739Y-126329208D01*
X117930842Y-126601775D01*
X117855635Y-126894642D01*
X117839009Y-127196553D01*
X112445000Y-127196553D01*
X112445000Y-126065920D01*
X118495525Y-126065920D01*
X119380000Y-126950395D01*
X120264475Y-126065920D01*
X120180792Y-125811739D01*
X119908225Y-125680842D01*
X119615358Y-125605635D01*
X119313447Y-125589009D01*
X119014093Y-125631603D01*
X118728801Y-125731778D01*
X118579208Y-125811739D01*
X118495525Y-126065920D01*
X112445000Y-126065920D01*
X112445000Y-125094080D01*
X118495525Y-125094080D01*
X118579208Y-125348261D01*
X118851775Y-125479158D01*
X119144642Y-125554365D01*
X119446553Y-125570991D01*
X119745907Y-125528397D01*
X120031199Y-125428222D01*
X120180792Y-125348261D01*
X120264475Y-125094080D01*
X119380000Y-124209605D01*
X118495525Y-125094080D01*
X112445000Y-125094080D01*
X112445000Y-124096553D01*
X117839009Y-124096553D01*
X117881603Y-124395907D01*
X117981778Y-124681199D01*
X118061739Y-124830792D01*
X118315920Y-124914475D01*
X119200395Y-124030000D01*
X119559605Y-124030000D01*
X120444080Y-124914475D01*
X120698261Y-124830792D01*
X120829158Y-124558225D01*
X120904365Y-124265358D01*
X120920991Y-123963447D01*
X120878397Y-123664093D01*
X120778222Y-123378801D01*
X120698261Y-123229208D01*
X120444080Y-123145525D01*
X119559605Y-124030000D01*
X119200395Y-124030000D01*
X118315920Y-123145525D01*
X118061739Y-123229208D01*
X117930842Y-123501775D01*
X117855635Y-123794642D01*
X117839009Y-124096553D01*
X112445000Y-124096553D01*
X112445000Y-122965920D01*
X118495525Y-122965920D01*
X119380000Y-123850395D01*
X120264475Y-122965920D01*
X120180792Y-122711739D01*
X119908225Y-122580842D01*
X119615358Y-122505635D01*
X119313447Y-122489009D01*
X119014093Y-122531603D01*
X118728801Y-122631778D01*
X118579208Y-122711739D01*
X118495525Y-122965920D01*
X112445000Y-122965920D01*
X112445000Y-115578816D01*
X117845000Y-115578816D01*
X117845000Y-115881184D01*
X117903989Y-116177743D01*
X118019701Y-116457095D01*
X118187688Y-116708505D01*
X118401495Y-116922312D01*
X118652905Y-117090299D01*
X118932257Y-117206011D01*
X119228816Y-117265000D01*
X119531184Y-117265000D01*
X119827743Y-117206011D01*
X120107095Y-117090299D01*
X120358505Y-116922312D01*
X120572312Y-116708505D01*
X120740299Y-116457095D01*
X120856011Y-116177743D01*
X120915000Y-115881184D01*
X120915000Y-115578816D01*
X120856011Y-115282257D01*
X120740299Y-115002905D01*
X120572312Y-114751495D01*
X120358505Y-114537688D01*
X120107095Y-114369701D01*
X119827743Y-114253989D01*
X119531184Y-114195000D01*
X119228816Y-114195000D01*
X118932257Y-114253989D01*
X118652905Y-114369701D01*
X118401495Y-114537688D01*
X118187688Y-114751495D01*
X118019701Y-115002905D01*
X117903989Y-115282257D01*
X117845000Y-115578816D01*
X112445000Y-115578816D01*
X112445000Y-110120000D01*
X115301928Y-110120000D01*
X115314188Y-110244482D01*
X115350498Y-110364180D01*
X115409463Y-110474494D01*
X115488815Y-110571185D01*
X115585506Y-110650537D01*
X115695820Y-110709502D01*
X115815518Y-110745812D01*
X115940000Y-110758072D01*
X116554250Y-110755000D01*
X116713000Y-110596250D01*
X116713000Y-109347000D01*
X115463750Y-109347000D01*
X115305000Y-109505750D01*
X115301928Y-110120000D01*
X112445000Y-110120000D01*
X112445000Y-108320000D01*
X115301928Y-108320000D01*
X115305000Y-108934250D01*
X115463750Y-109093000D01*
X116713000Y-109093000D01*
X116713000Y-107843750D01*
X116967000Y-107843750D01*
X116967000Y-109093000D01*
X116987000Y-109093000D01*
X116987000Y-109347000D01*
X116967000Y-109347000D01*
X116967000Y-110596250D01*
X117125750Y-110755000D01*
X117740000Y-110758072D01*
X117864482Y-110745812D01*
X117984180Y-110709502D01*
X118094494Y-110650537D01*
X118191185Y-110571185D01*
X118270537Y-110474494D01*
X118323880Y-110374697D01*
X118361495Y-110412312D01*
X118612905Y-110580299D01*
X118892257Y-110696011D01*
X119188816Y-110755000D01*
X119491184Y-110755000D01*
X119787743Y-110696011D01*
X120067095Y-110580299D01*
X120318505Y-110412312D01*
X120532312Y-110198505D01*
X120590000Y-110112169D01*
X120647688Y-110198505D01*
X120861495Y-110412312D01*
X121112905Y-110580299D01*
X121392257Y-110696011D01*
X121688816Y-110755000D01*
X121991184Y-110755000D01*
X122287743Y-110696011D01*
X122567095Y-110580299D01*
X122818505Y-110412312D01*
X123032312Y-110198505D01*
X123200299Y-109947095D01*
X123316011Y-109667743D01*
X123375000Y-109371184D01*
X123375000Y-109068816D01*
X123316011Y-108772257D01*
X123200299Y-108492905D01*
X123032312Y-108241495D01*
X122818505Y-108027688D01*
X122567095Y-107859701D01*
X122287743Y-107743989D01*
X121991184Y-107685000D01*
X121688816Y-107685000D01*
X121392257Y-107743989D01*
X121112905Y-107859701D01*
X120861495Y-108027688D01*
X120647688Y-108241495D01*
X120590000Y-108327831D01*
X120532312Y-108241495D01*
X120318505Y-108027688D01*
X120067095Y-107859701D01*
X119787743Y-107743989D01*
X119491184Y-107685000D01*
X119188816Y-107685000D01*
X118892257Y-107743989D01*
X118612905Y-107859701D01*
X118361495Y-108027688D01*
X118323880Y-108065303D01*
X118270537Y-107965506D01*
X118191185Y-107868815D01*
X118094494Y-107789463D01*
X117984180Y-107730498D01*
X117864482Y-107694188D01*
X117740000Y-107681928D01*
X117125750Y-107685000D01*
X116967000Y-107843750D01*
X116713000Y-107843750D01*
X116554250Y-107685000D01*
X115940000Y-107681928D01*
X115815518Y-107694188D01*
X115695820Y-107730498D01*
X115585506Y-107789463D01*
X115488815Y-107868815D01*
X115409463Y-107965506D01*
X115350498Y-108075820D01*
X115314188Y-108195518D01*
X115301928Y-108320000D01*
X112445000Y-108320000D01*
X112445000Y-102554822D01*
X112541645Y-102788143D01*
X112788427Y-103157479D01*
X113102521Y-103471573D01*
X113471857Y-103718355D01*
X113882241Y-103888342D01*
X114317902Y-103975000D01*
X114762098Y-103975000D01*
X115197759Y-103888342D01*
X115608143Y-103718355D01*
X115977479Y-103471573D01*
X116291573Y-103157479D01*
X116538355Y-102788143D01*
X116708342Y-102377759D01*
X116795000Y-101942098D01*
X116795000Y-101497902D01*
X121885000Y-101497902D01*
X121885000Y-101942098D01*
X121971658Y-102377759D01*
X122141645Y-102788143D01*
X122388427Y-103157479D01*
X122702521Y-103471573D01*
X123071857Y-103718355D01*
X123482241Y-103888342D01*
X123917902Y-103975000D01*
X124362098Y-103975000D01*
X124797759Y-103888342D01*
X125208143Y-103718355D01*
X125577479Y-103471573D01*
X125891573Y-103157479D01*
X126138355Y-102788143D01*
X126308342Y-102377759D01*
X126395000Y-101942098D01*
X126395000Y-101497902D01*
X126308342Y-101062241D01*
X126138355Y-100651857D01*
X125891573Y-100282521D01*
X125577479Y-99968427D01*
X125208143Y-99721645D01*
X124797759Y-99551658D01*
X124362098Y-99465000D01*
X123917902Y-99465000D01*
X123482241Y-99551658D01*
X123071857Y-99721645D01*
X122702521Y-99968427D01*
X122388427Y-100282521D01*
X122141645Y-100651857D01*
X121971658Y-101062241D01*
X121885000Y-101497902D01*
X116795000Y-101497902D01*
X116708342Y-101062241D01*
X116538355Y-100651857D01*
X116291573Y-100282521D01*
X115977479Y-99968427D01*
X115608143Y-99721645D01*
X115197759Y-99551658D01*
X114762098Y-99465000D01*
X114317902Y-99465000D01*
X113882241Y-99551658D01*
X113471857Y-99721645D01*
X113102521Y-99968427D01*
X112788427Y-100282521D01*
X112541645Y-100651857D01*
X112445000Y-100885178D01*
X112445000Y-83678665D01*
X117945000Y-83678665D01*
X117945000Y-83961335D01*
X118000147Y-84238574D01*
X118108320Y-84499727D01*
X118265363Y-84734759D01*
X118465241Y-84934637D01*
X118700273Y-85091680D01*
X118961426Y-85199853D01*
X119238665Y-85255000D01*
X119521335Y-85255000D01*
X119798574Y-85199853D01*
X120059727Y-85091680D01*
X120294759Y-84934637D01*
X120494637Y-84734759D01*
X120651680Y-84499727D01*
X120759853Y-84238574D01*
X120815000Y-83961335D01*
X120815000Y-83678665D01*
X125565000Y-83678665D01*
X125565000Y-83961335D01*
X125620147Y-84238574D01*
X125728320Y-84499727D01*
X125885363Y-84734759D01*
X126085241Y-84934637D01*
X126320273Y-85091680D01*
X126581426Y-85199853D01*
X126858665Y-85255000D01*
X127141335Y-85255000D01*
X127418574Y-85199853D01*
X127679727Y-85091680D01*
X127914759Y-84934637D01*
X128114637Y-84734759D01*
X128271680Y-84499727D01*
X128379853Y-84238574D01*
X128435000Y-83961335D01*
X128435000Y-83678665D01*
X128379853Y-83401426D01*
X128271680Y-83140273D01*
X128114637Y-82905241D01*
X127914759Y-82705363D01*
X127679727Y-82548320D01*
X127418574Y-82440147D01*
X127141335Y-82385000D01*
X126858665Y-82385000D01*
X126581426Y-82440147D01*
X126320273Y-82548320D01*
X126085241Y-82705363D01*
X125885363Y-82905241D01*
X125728320Y-83140273D01*
X125620147Y-83401426D01*
X125565000Y-83678665D01*
X120815000Y-83678665D01*
X120759853Y-83401426D01*
X120651680Y-83140273D01*
X120494637Y-82905241D01*
X120294759Y-82705363D01*
X120059727Y-82548320D01*
X119798574Y-82440147D01*
X119521335Y-82385000D01*
X119238665Y-82385000D01*
X118961426Y-82440147D01*
X118700273Y-82548320D01*
X118465241Y-82705363D01*
X118265363Y-82905241D01*
X118108320Y-83140273D01*
X118000147Y-83401426D01*
X117945000Y-83678665D01*
X112445000Y-83678665D01*
X112445000Y-78370000D01*
X119111928Y-78370000D01*
X119124188Y-78494482D01*
X119160498Y-78614180D01*
X119219463Y-78724494D01*
X119298815Y-78821185D01*
X119395506Y-78900537D01*
X119505820Y-78959502D01*
X119625518Y-78995812D01*
X119750000Y-79008072D01*
X120364250Y-79005000D01*
X120523000Y-78846250D01*
X120523000Y-77597000D01*
X119273750Y-77597000D01*
X119115000Y-77755750D01*
X119111928Y-78370000D01*
X112445000Y-78370000D01*
X112445000Y-76570000D01*
X119111928Y-76570000D01*
X119115000Y-77184250D01*
X119273750Y-77343000D01*
X120523000Y-77343000D01*
X120523000Y-76093750D01*
X120777000Y-76093750D01*
X120777000Y-77343000D01*
X120797000Y-77343000D01*
X120797000Y-77597000D01*
X120777000Y-77597000D01*
X120777000Y-78846250D01*
X120935750Y-79005000D01*
X121550000Y-79008072D01*
X121674482Y-78995812D01*
X121794180Y-78959502D01*
X121904494Y-78900537D01*
X122001185Y-78821185D01*
X122080537Y-78724494D01*
X122133880Y-78624697D01*
X122171495Y-78662312D01*
X122422905Y-78830299D01*
X122702257Y-78946011D01*
X122998816Y-79005000D01*
X123301184Y-79005000D01*
X123597743Y-78946011D01*
X123877095Y-78830299D01*
X124128505Y-78662312D01*
X124342312Y-78448505D01*
X124400000Y-78362169D01*
X124457688Y-78448505D01*
X124671495Y-78662312D01*
X124922905Y-78830299D01*
X125202257Y-78946011D01*
X125498816Y-79005000D01*
X125801184Y-79005000D01*
X126097743Y-78946011D01*
X126377095Y-78830299D01*
X126628505Y-78662312D01*
X126842312Y-78448505D01*
X127010299Y-78197095D01*
X127126011Y-77917743D01*
X127185000Y-77621184D01*
X127185000Y-77318816D01*
X127133731Y-77061070D01*
X128394802Y-75800000D01*
X135685199Y-75800000D01*
X135870199Y-75985000D01*
X135743740Y-75985000D01*
X135456842Y-76042068D01*
X135186589Y-76154010D01*
X134943368Y-76316525D01*
X134736525Y-76523368D01*
X134620000Y-76697760D01*
X134503475Y-76523368D01*
X134296632Y-76316525D01*
X134053411Y-76154010D01*
X133783158Y-76042068D01*
X133496260Y-75985000D01*
X133203740Y-75985000D01*
X132916842Y-76042068D01*
X132646589Y-76154010D01*
X132403368Y-76316525D01*
X132196525Y-76523368D01*
X132034010Y-76766589D01*
X131922068Y-77036842D01*
X131865000Y-77323740D01*
X131865000Y-77616260D01*
X131922068Y-77903158D01*
X132034010Y-78173411D01*
X132196525Y-78416632D01*
X132328380Y-78548487D01*
X132255820Y-78570498D01*
X132145506Y-78629463D01*
X132048815Y-78708815D01*
X131969463Y-78805506D01*
X131910498Y-78915820D01*
X131874188Y-79035518D01*
X131861928Y-79160000D01*
X131861928Y-80860000D01*
X131874188Y-80984482D01*
X131910498Y-81104180D01*
X131969463Y-81214494D01*
X132048815Y-81311185D01*
X132145506Y-81390537D01*
X132255820Y-81449502D01*
X132375518Y-81485812D01*
X132500000Y-81498072D01*
X134200000Y-81498072D01*
X134324482Y-81485812D01*
X134444180Y-81449502D01*
X134554494Y-81390537D01*
X134651185Y-81311185D01*
X134730537Y-81214494D01*
X134789502Y-81104180D01*
X134811513Y-81031620D01*
X134943368Y-81163475D01*
X135186589Y-81325990D01*
X135456842Y-81437932D01*
X135743740Y-81495000D01*
X136036260Y-81495000D01*
X136323158Y-81437932D01*
X136593411Y-81325990D01*
X136836632Y-81163475D01*
X137043475Y-80956632D01*
X137165195Y-80774466D01*
X137234822Y-80891355D01*
X137429731Y-81107588D01*
X137663080Y-81281641D01*
X137925901Y-81406825D01*
X138073110Y-81451476D01*
X138303000Y-81330155D01*
X138303000Y-80137000D01*
X138283000Y-80137000D01*
X138283000Y-79883000D01*
X138303000Y-79883000D01*
X138303000Y-79863000D01*
X138557000Y-79863000D01*
X138557000Y-79883000D01*
X138577000Y-79883000D01*
X138577000Y-80137000D01*
X138557000Y-80137000D01*
X138557000Y-81330155D01*
X138786890Y-81451476D01*
X138934099Y-81406825D01*
X139196920Y-81281641D01*
X139430269Y-81107588D01*
X139625178Y-80891355D01*
X139694805Y-80774466D01*
X139816525Y-80956632D01*
X140023368Y-81163475D01*
X140266589Y-81325990D01*
X140536842Y-81437932D01*
X140823740Y-81495000D01*
X141116260Y-81495000D01*
X141403158Y-81437932D01*
X141673411Y-81325990D01*
X141916632Y-81163475D01*
X142123475Y-80956632D01*
X142240000Y-80782240D01*
X142356525Y-80956632D01*
X142563368Y-81163475D01*
X142806589Y-81325990D01*
X143076842Y-81437932D01*
X143363740Y-81495000D01*
X143656260Y-81495000D01*
X143943158Y-81437932D01*
X144213411Y-81325990D01*
X144456632Y-81163475D01*
X144663475Y-80956632D01*
X144780000Y-80782240D01*
X144896525Y-80956632D01*
X145063586Y-81123693D01*
X127614004Y-98573276D01*
X127585000Y-98597079D01*
X127529872Y-98664254D01*
X127490027Y-98712804D01*
X127419456Y-98844833D01*
X127419455Y-98844834D01*
X127375998Y-98988095D01*
X127365001Y-99099748D01*
X127365001Y-99099758D01*
X127361325Y-99137080D01*
X127365001Y-99174402D01*
X127365001Y-114179491D01*
X127141335Y-114135000D01*
X126858665Y-114135000D01*
X126581426Y-114190147D01*
X126320273Y-114298320D01*
X126085241Y-114455363D01*
X125885363Y-114655241D01*
X125728320Y-114890273D01*
X125620147Y-115151426D01*
X125565000Y-115428665D01*
X125565000Y-115711335D01*
X125620147Y-115988574D01*
X125728320Y-116249727D01*
X125885363Y-116484759D01*
X126085241Y-116684637D01*
X126320273Y-116841680D01*
X126581426Y-116949853D01*
X126858665Y-117005000D01*
X127141335Y-117005000D01*
X127365001Y-116960509D01*
X127365001Y-121799491D01*
X127141335Y-121755000D01*
X126858665Y-121755000D01*
X126581426Y-121810147D01*
X126320273Y-121918320D01*
X126085241Y-122075363D01*
X125885363Y-122275241D01*
X125728320Y-122510273D01*
X125620147Y-122771426D01*
X125565000Y-123048665D01*
X125565000Y-123331335D01*
X125620147Y-123608574D01*
X125728320Y-123869727D01*
X125885363Y-124104759D01*
X126085241Y-124304637D01*
X126320273Y-124461680D01*
X126581426Y-124569853D01*
X126858665Y-124625000D01*
X127141335Y-124625000D01*
X127365002Y-124580509D01*
X127365002Y-140214491D01*
X127141335Y-140170000D01*
X126858665Y-140170000D01*
X126581426Y-140225147D01*
X126320273Y-140333320D01*
X126085241Y-140490363D01*
X125885363Y-140690241D01*
X125728320Y-140925273D01*
X125620147Y-141186426D01*
X125565000Y-141463665D01*
X125565000Y-141746335D01*
X125620147Y-142023574D01*
X125728320Y-142284727D01*
X125885363Y-142519759D01*
X126085241Y-142719637D01*
X126320273Y-142876680D01*
X126581426Y-142984853D01*
X126858665Y-143040000D01*
X127141335Y-143040000D01*
X127365002Y-142995509D01*
X127365002Y-147785196D01*
X127323886Y-147826312D01*
X127141335Y-147790000D01*
X126858665Y-147790000D01*
X126581426Y-147845147D01*
X126320273Y-147953320D01*
X126085241Y-148110363D01*
X125885363Y-148310241D01*
X125728320Y-148545273D01*
X125620147Y-148806426D01*
X125565000Y-149083665D01*
X125565000Y-149366335D01*
X125620147Y-149643574D01*
X125728320Y-149904727D01*
X125885363Y-150139759D01*
X126085241Y-150339637D01*
X126320273Y-150496680D01*
X126581426Y-150604853D01*
X126858665Y-150660000D01*
X127141335Y-150660000D01*
X127418574Y-150604853D01*
X127679727Y-150496680D01*
X127914759Y-150339637D01*
X128114637Y-150139759D01*
X128271680Y-149904727D01*
X128379853Y-149643574D01*
X128435000Y-149366335D01*
X128435000Y-149278816D01*
X138165000Y-149278816D01*
X138165000Y-149581184D01*
X138223989Y-149877743D01*
X138339701Y-150157095D01*
X138507688Y-150408505D01*
X138721495Y-150622312D01*
X138972905Y-150790299D01*
X139252257Y-150906011D01*
X139548816Y-150965000D01*
X139851184Y-150965000D01*
X140147743Y-150906011D01*
X140427095Y-150790299D01*
X140678505Y-150622312D01*
X140892312Y-150408505D01*
X141060299Y-150157095D01*
X141176011Y-149877743D01*
X141235000Y-149581184D01*
X141235000Y-149278816D01*
X141176011Y-148982257D01*
X141060299Y-148702905D01*
X140892312Y-148451495D01*
X140678505Y-148237688D01*
X140427095Y-148069701D01*
X140147743Y-147953989D01*
X139851184Y-147895000D01*
X139548816Y-147895000D01*
X139252257Y-147953989D01*
X138972905Y-148069701D01*
X138721495Y-148237688D01*
X138507688Y-148451495D01*
X138339701Y-148702905D01*
X138223989Y-148982257D01*
X138165000Y-149278816D01*
X128435000Y-149278816D01*
X128435000Y-149083665D01*
X128398688Y-148901114D01*
X128636004Y-148663798D01*
X128665002Y-148640000D01*
X128759975Y-148524275D01*
X128830547Y-148392246D01*
X128874004Y-148248985D01*
X128885001Y-148137332D01*
X128885001Y-148137324D01*
X128888677Y-148099999D01*
X128885001Y-148062674D01*
X128885001Y-140978816D01*
X138165000Y-140978816D01*
X138165000Y-141281184D01*
X138223989Y-141577743D01*
X138339701Y-141857095D01*
X138507688Y-142108505D01*
X138721495Y-142322312D01*
X138972905Y-142490299D01*
X139252257Y-142606011D01*
X139548816Y-142665000D01*
X139851184Y-142665000D01*
X140147743Y-142606011D01*
X140427095Y-142490299D01*
X140678505Y-142322312D01*
X140892312Y-142108505D01*
X141060299Y-141857095D01*
X141176011Y-141577743D01*
X141235000Y-141281184D01*
X141235000Y-140978816D01*
X141176011Y-140682257D01*
X141060299Y-140402905D01*
X140892312Y-140151495D01*
X140678505Y-139937688D01*
X140427095Y-139769701D01*
X140147743Y-139653989D01*
X139851184Y-139595000D01*
X139548816Y-139595000D01*
X139252257Y-139653989D01*
X138972905Y-139769701D01*
X138721495Y-139937688D01*
X138507688Y-140151495D01*
X138339701Y-140402905D01*
X138223989Y-140682257D01*
X138165000Y-140978816D01*
X128885001Y-140978816D01*
X128885001Y-133129872D01*
X137465000Y-133129872D01*
X137465000Y-133570128D01*
X137550890Y-134001925D01*
X137719369Y-134408669D01*
X137963962Y-134774729D01*
X138275271Y-135086038D01*
X138641331Y-135330631D01*
X139048075Y-135499110D01*
X139479872Y-135585000D01*
X139920128Y-135585000D01*
X140351925Y-135499110D01*
X140758669Y-135330631D01*
X141124729Y-135086038D01*
X141436038Y-134774729D01*
X141680631Y-134408669D01*
X141849110Y-134001925D01*
X141935000Y-133570128D01*
X141935000Y-133129872D01*
X141849110Y-132698075D01*
X141680631Y-132291331D01*
X141436038Y-131925271D01*
X141124729Y-131613962D01*
X140758669Y-131369369D01*
X140351925Y-131200890D01*
X139920128Y-131115000D01*
X139479872Y-131115000D01*
X139048075Y-131200890D01*
X138641331Y-131369369D01*
X138275271Y-131613962D01*
X137963962Y-131925271D01*
X137719369Y-132291331D01*
X137550890Y-132698075D01*
X137465000Y-133129872D01*
X128885001Y-133129872D01*
X128885001Y-128194080D01*
X138815525Y-128194080D01*
X138899208Y-128448261D01*
X139171775Y-128579158D01*
X139464642Y-128654365D01*
X139766553Y-128670991D01*
X140065907Y-128628397D01*
X140351199Y-128528222D01*
X140500792Y-128448261D01*
X140584475Y-128194080D01*
X139700000Y-127309605D01*
X138815525Y-128194080D01*
X128885001Y-128194080D01*
X128885001Y-127196553D01*
X138159009Y-127196553D01*
X138201603Y-127495907D01*
X138301778Y-127781199D01*
X138381739Y-127930792D01*
X138635920Y-128014475D01*
X139520395Y-127130000D01*
X139879605Y-127130000D01*
X140764080Y-128014475D01*
X141018261Y-127930792D01*
X141149158Y-127658225D01*
X141224365Y-127365358D01*
X141240991Y-127063447D01*
X141198397Y-126764093D01*
X141098222Y-126478801D01*
X141018261Y-126329208D01*
X140764080Y-126245525D01*
X139879605Y-127130000D01*
X139520395Y-127130000D01*
X138635920Y-126245525D01*
X138381739Y-126329208D01*
X138250842Y-126601775D01*
X138175635Y-126894642D01*
X138159009Y-127196553D01*
X128885001Y-127196553D01*
X128885001Y-126065920D01*
X138815525Y-126065920D01*
X139700000Y-126950395D01*
X140584475Y-126065920D01*
X140500792Y-125811739D01*
X140228225Y-125680842D01*
X139935358Y-125605635D01*
X139633447Y-125589009D01*
X139334093Y-125631603D01*
X139048801Y-125731778D01*
X138899208Y-125811739D01*
X138815525Y-126065920D01*
X128885001Y-126065920D01*
X128885001Y-125094080D01*
X138815525Y-125094080D01*
X138899208Y-125348261D01*
X139171775Y-125479158D01*
X139464642Y-125554365D01*
X139766553Y-125570991D01*
X140065907Y-125528397D01*
X140351199Y-125428222D01*
X140500792Y-125348261D01*
X140584475Y-125094080D01*
X139700000Y-124209605D01*
X138815525Y-125094080D01*
X128885001Y-125094080D01*
X128885001Y-124096553D01*
X138159009Y-124096553D01*
X138201603Y-124395907D01*
X138301778Y-124681199D01*
X138381739Y-124830792D01*
X138635920Y-124914475D01*
X139520395Y-124030000D01*
X139879605Y-124030000D01*
X140764080Y-124914475D01*
X141018261Y-124830792D01*
X141149158Y-124558225D01*
X141224365Y-124265358D01*
X141240991Y-123963447D01*
X141198397Y-123664093D01*
X141098222Y-123378801D01*
X141018261Y-123229208D01*
X140764080Y-123145525D01*
X139879605Y-124030000D01*
X139520395Y-124030000D01*
X138635920Y-123145525D01*
X138381739Y-123229208D01*
X138250842Y-123501775D01*
X138175635Y-123794642D01*
X138159009Y-124096553D01*
X128885001Y-124096553D01*
X128885001Y-122965920D01*
X138815525Y-122965920D01*
X139700000Y-123850395D01*
X140584475Y-122965920D01*
X140500792Y-122711739D01*
X140228225Y-122580842D01*
X139935358Y-122505635D01*
X139633447Y-122489009D01*
X139334093Y-122531603D01*
X139048801Y-122631778D01*
X138899208Y-122711739D01*
X138815525Y-122965920D01*
X128885001Y-122965920D01*
X128885001Y-115578816D01*
X138165000Y-115578816D01*
X138165000Y-115881184D01*
X138223989Y-116177743D01*
X138339701Y-116457095D01*
X138507688Y-116708505D01*
X138721495Y-116922312D01*
X138972905Y-117090299D01*
X139252257Y-117206011D01*
X139548816Y-117265000D01*
X139851184Y-117265000D01*
X140147743Y-117206011D01*
X140427095Y-117090299D01*
X140678505Y-116922312D01*
X140892312Y-116708505D01*
X141060299Y-116457095D01*
X141176011Y-116177743D01*
X141235000Y-115881184D01*
X141235000Y-115578816D01*
X141176011Y-115282257D01*
X141060299Y-115002905D01*
X140892312Y-114751495D01*
X140678505Y-114537688D01*
X140427095Y-114369701D01*
X140147743Y-114253989D01*
X139851184Y-114195000D01*
X139548816Y-114195000D01*
X139252257Y-114253989D01*
X138972905Y-114369701D01*
X138721495Y-114537688D01*
X138507688Y-114751495D01*
X138339701Y-115002905D01*
X138223989Y-115282257D01*
X138165000Y-115578816D01*
X128885001Y-115578816D01*
X128885001Y-110120000D01*
X135621928Y-110120000D01*
X135634188Y-110244482D01*
X135670498Y-110364180D01*
X135729463Y-110474494D01*
X135808815Y-110571185D01*
X135905506Y-110650537D01*
X136015820Y-110709502D01*
X136135518Y-110745812D01*
X136260000Y-110758072D01*
X136874250Y-110755000D01*
X137033000Y-110596250D01*
X137033000Y-109347000D01*
X135783750Y-109347000D01*
X135625000Y-109505750D01*
X135621928Y-110120000D01*
X128885001Y-110120000D01*
X128885001Y-108320000D01*
X135621928Y-108320000D01*
X135625000Y-108934250D01*
X135783750Y-109093000D01*
X137033000Y-109093000D01*
X137033000Y-107843750D01*
X137287000Y-107843750D01*
X137287000Y-109093000D01*
X137307000Y-109093000D01*
X137307000Y-109347000D01*
X137287000Y-109347000D01*
X137287000Y-110596250D01*
X137445750Y-110755000D01*
X138060000Y-110758072D01*
X138184482Y-110745812D01*
X138304180Y-110709502D01*
X138414494Y-110650537D01*
X138511185Y-110571185D01*
X138590537Y-110474494D01*
X138643880Y-110374697D01*
X138681495Y-110412312D01*
X138932905Y-110580299D01*
X139212257Y-110696011D01*
X139508816Y-110755000D01*
X139811184Y-110755000D01*
X140107743Y-110696011D01*
X140387095Y-110580299D01*
X140638505Y-110412312D01*
X140852312Y-110198505D01*
X140910000Y-110112169D01*
X140967688Y-110198505D01*
X141181495Y-110412312D01*
X141432905Y-110580299D01*
X141712257Y-110696011D01*
X142008816Y-110755000D01*
X142311184Y-110755000D01*
X142607743Y-110696011D01*
X142887095Y-110580299D01*
X143138505Y-110412312D01*
X143352312Y-110198505D01*
X143520299Y-109947095D01*
X143636011Y-109667743D01*
X143695000Y-109371184D01*
X143695000Y-109068816D01*
X143636011Y-108772257D01*
X143520299Y-108492905D01*
X143352312Y-108241495D01*
X143138505Y-108027688D01*
X142887095Y-107859701D01*
X142607743Y-107743989D01*
X142311184Y-107685000D01*
X142008816Y-107685000D01*
X141712257Y-107743989D01*
X141432905Y-107859701D01*
X141181495Y-108027688D01*
X140967688Y-108241495D01*
X140910000Y-108327831D01*
X140852312Y-108241495D01*
X140638505Y-108027688D01*
X140387095Y-107859701D01*
X140107743Y-107743989D01*
X139811184Y-107685000D01*
X139508816Y-107685000D01*
X139212257Y-107743989D01*
X138932905Y-107859701D01*
X138681495Y-108027688D01*
X138643880Y-108065303D01*
X138590537Y-107965506D01*
X138511185Y-107868815D01*
X138414494Y-107789463D01*
X138304180Y-107730498D01*
X138184482Y-107694188D01*
X138060000Y-107681928D01*
X137445750Y-107685000D01*
X137287000Y-107843750D01*
X137033000Y-107843750D01*
X136874250Y-107685000D01*
X136260000Y-107681928D01*
X136135518Y-107694188D01*
X136015820Y-107730498D01*
X135905506Y-107789463D01*
X135808815Y-107868815D01*
X135729463Y-107965506D01*
X135670498Y-108075820D01*
X135634188Y-108195518D01*
X135621928Y-108320000D01*
X128885001Y-108320000D01*
X128885001Y-101497902D01*
X132605000Y-101497902D01*
X132605000Y-101942098D01*
X132691658Y-102377759D01*
X132861645Y-102788143D01*
X133108427Y-103157479D01*
X133422521Y-103471573D01*
X133791857Y-103718355D01*
X134202241Y-103888342D01*
X134637902Y-103975000D01*
X135082098Y-103975000D01*
X135517759Y-103888342D01*
X135928143Y-103718355D01*
X136297479Y-103471573D01*
X136611573Y-103157479D01*
X136858355Y-102788143D01*
X137028342Y-102377759D01*
X137115000Y-101942098D01*
X137115000Y-101497902D01*
X142205000Y-101497902D01*
X142205000Y-101942098D01*
X142291658Y-102377759D01*
X142461645Y-102788143D01*
X142708427Y-103157479D01*
X143022521Y-103471573D01*
X143391857Y-103718355D01*
X143802241Y-103888342D01*
X144237902Y-103975000D01*
X144682098Y-103975000D01*
X145117759Y-103888342D01*
X145528143Y-103718355D01*
X145897479Y-103471573D01*
X146211573Y-103157479D01*
X146458355Y-102788143D01*
X146628342Y-102377759D01*
X146715000Y-101942098D01*
X146715000Y-101497902D01*
X146628342Y-101062241D01*
X146458355Y-100651857D01*
X146211573Y-100282521D01*
X145897479Y-99968427D01*
X145528143Y-99721645D01*
X145117759Y-99551658D01*
X144682098Y-99465000D01*
X144237902Y-99465000D01*
X143802241Y-99551658D01*
X143391857Y-99721645D01*
X143022521Y-99968427D01*
X142708427Y-100282521D01*
X142461645Y-100651857D01*
X142291658Y-101062241D01*
X142205000Y-101497902D01*
X137115000Y-101497902D01*
X137028342Y-101062241D01*
X136858355Y-100651857D01*
X136611573Y-100282521D01*
X136297479Y-99968427D01*
X135928143Y-99721645D01*
X135517759Y-99551658D01*
X135082098Y-99465000D01*
X134637902Y-99465000D01*
X134202241Y-99551658D01*
X133791857Y-99721645D01*
X133422521Y-99968427D01*
X133108427Y-100282521D01*
X132861645Y-100651857D01*
X132691658Y-101062241D01*
X132605000Y-101497902D01*
X128885001Y-101497902D01*
X128885001Y-99451881D01*
X146561003Y-81775880D01*
X146590001Y-81752082D01*
X146684974Y-81636357D01*
X146755546Y-81504328D01*
X146799003Y-81361067D01*
X146805913Y-81290909D01*
X146996632Y-81163475D01*
X147203475Y-80956632D01*
X147365990Y-80713411D01*
X147477932Y-80443158D01*
X147535000Y-80156260D01*
X147535000Y-79863740D01*
X147477932Y-79576842D01*
X147365990Y-79306589D01*
X147203475Y-79063368D01*
X146996632Y-78856525D01*
X146822240Y-78740000D01*
X146996632Y-78623475D01*
X147203475Y-78416632D01*
X147365990Y-78173411D01*
X147477932Y-77903158D01*
X147535000Y-77616260D01*
X147535000Y-77323740D01*
X147477932Y-77036842D01*
X147365990Y-76766589D01*
X147203475Y-76523368D01*
X147005107Y-76325000D01*
X147005199Y-76325000D01*
X148465000Y-77784802D01*
X148465001Y-115335683D01*
X148434637Y-115290241D01*
X148234759Y-115090363D01*
X147999727Y-114933320D01*
X147738574Y-114825147D01*
X147461335Y-114770000D01*
X147178665Y-114770000D01*
X146901426Y-114825147D01*
X146640273Y-114933320D01*
X146405241Y-115090363D01*
X146205363Y-115290241D01*
X146048320Y-115525273D01*
X145940147Y-115786426D01*
X145885000Y-116063665D01*
X145885000Y-116346335D01*
X145940147Y-116623574D01*
X146048320Y-116884727D01*
X146205363Y-117119759D01*
X146405241Y-117319637D01*
X146640273Y-117476680D01*
X146901426Y-117584853D01*
X147178665Y-117640000D01*
X147461335Y-117640000D01*
X147738574Y-117584853D01*
X147999727Y-117476680D01*
X148234759Y-117319637D01*
X148434637Y-117119759D01*
X148465001Y-117074317D01*
X148465001Y-122955684D01*
X148434637Y-122910241D01*
X148234759Y-122710363D01*
X147999727Y-122553320D01*
X147738574Y-122445147D01*
X147461335Y-122390000D01*
X147178665Y-122390000D01*
X146901426Y-122445147D01*
X146640273Y-122553320D01*
X146405241Y-122710363D01*
X146205363Y-122910241D01*
X146048320Y-123145273D01*
X145940147Y-123406426D01*
X145885000Y-123683665D01*
X145885000Y-123966335D01*
X145940147Y-124243574D01*
X146048320Y-124504727D01*
X146205363Y-124739759D01*
X146405241Y-124939637D01*
X146640273Y-125096680D01*
X146901426Y-125204853D01*
X147178665Y-125260000D01*
X147461335Y-125260000D01*
X147738574Y-125204853D01*
X147999727Y-125096680D01*
X148234759Y-124939637D01*
X148434637Y-124739759D01*
X148465001Y-124694316D01*
X148465001Y-140735684D01*
X148434637Y-140690241D01*
X148234759Y-140490363D01*
X147999727Y-140333320D01*
X147738574Y-140225147D01*
X147461335Y-140170000D01*
X147178665Y-140170000D01*
X146901426Y-140225147D01*
X146640273Y-140333320D01*
X146405241Y-140490363D01*
X146205363Y-140690241D01*
X146048320Y-140925273D01*
X145940147Y-141186426D01*
X145885000Y-141463665D01*
X145885000Y-141746335D01*
X145940147Y-142023574D01*
X146048320Y-142284727D01*
X146205363Y-142519759D01*
X146405241Y-142719637D01*
X146640273Y-142876680D01*
X146901426Y-142984853D01*
X147178665Y-143040000D01*
X147461335Y-143040000D01*
X147738574Y-142984853D01*
X147999727Y-142876680D01*
X148234759Y-142719637D01*
X148434637Y-142519759D01*
X148465001Y-142474316D01*
X148465001Y-147005197D01*
X147643886Y-147826312D01*
X147461335Y-147790000D01*
X147178665Y-147790000D01*
X146901426Y-147845147D01*
X146640273Y-147953320D01*
X146405241Y-148110363D01*
X146205363Y-148310241D01*
X146048320Y-148545273D01*
X145940147Y-148806426D01*
X145885000Y-149083665D01*
X145885000Y-149366335D01*
X145940147Y-149643574D01*
X146048320Y-149904727D01*
X146205363Y-150139759D01*
X146405241Y-150339637D01*
X146640273Y-150496680D01*
X146901426Y-150604853D01*
X147178665Y-150660000D01*
X147461335Y-150660000D01*
X147738574Y-150604853D01*
X147999727Y-150496680D01*
X148234759Y-150339637D01*
X148434637Y-150139759D01*
X148591680Y-149904727D01*
X148699853Y-149643574D01*
X148755000Y-149366335D01*
X148755000Y-149083665D01*
X150965000Y-149083665D01*
X150965000Y-149366335D01*
X151020147Y-149643574D01*
X151128320Y-149904727D01*
X151285363Y-150139759D01*
X151485241Y-150339637D01*
X151720273Y-150496680D01*
X151981426Y-150604853D01*
X152258665Y-150660000D01*
X152541335Y-150660000D01*
X152818574Y-150604853D01*
X153079727Y-150496680D01*
X153314759Y-150339637D01*
X153514637Y-150139759D01*
X153671680Y-149904727D01*
X153779853Y-149643574D01*
X153835000Y-149366335D01*
X153835000Y-149278816D01*
X158485000Y-149278816D01*
X158485000Y-149581184D01*
X158543989Y-149877743D01*
X158659701Y-150157095D01*
X158827688Y-150408505D01*
X159041495Y-150622312D01*
X159292905Y-150790299D01*
X159572257Y-150906011D01*
X159868816Y-150965000D01*
X160171184Y-150965000D01*
X160467743Y-150906011D01*
X160747095Y-150790299D01*
X160998505Y-150622312D01*
X161212312Y-150408505D01*
X161380299Y-150157095D01*
X161496011Y-149877743D01*
X161555000Y-149581184D01*
X161555000Y-149278816D01*
X161496011Y-148982257D01*
X161380299Y-148702905D01*
X161212312Y-148451495D01*
X160998505Y-148237688D01*
X160747095Y-148069701D01*
X160467743Y-147953989D01*
X160171184Y-147895000D01*
X159868816Y-147895000D01*
X159572257Y-147953989D01*
X159292905Y-148069701D01*
X159041495Y-148237688D01*
X158827688Y-148451495D01*
X158659701Y-148702905D01*
X158543989Y-148982257D01*
X158485000Y-149278816D01*
X153835000Y-149278816D01*
X153835000Y-149083665D01*
X153779853Y-148806426D01*
X153671680Y-148545273D01*
X153514637Y-148310241D01*
X153314759Y-148110363D01*
X153079727Y-147953320D01*
X152818574Y-147845147D01*
X152541335Y-147790000D01*
X152258665Y-147790000D01*
X151981426Y-147845147D01*
X151720273Y-147953320D01*
X151485241Y-148110363D01*
X151285363Y-148310241D01*
X151128320Y-148545273D01*
X151020147Y-148806426D01*
X150965000Y-149083665D01*
X148755000Y-149083665D01*
X148718688Y-148901114D01*
X149736003Y-147883799D01*
X149765001Y-147860001D01*
X149859974Y-147744276D01*
X149930546Y-147612247D01*
X149974003Y-147468986D01*
X149985000Y-147357333D01*
X149985000Y-147357323D01*
X149988676Y-147320000D01*
X149985000Y-147282677D01*
X149985000Y-141463665D01*
X150965000Y-141463665D01*
X150965000Y-141746335D01*
X151020147Y-142023574D01*
X151128320Y-142284727D01*
X151285363Y-142519759D01*
X151485241Y-142719637D01*
X151720273Y-142876680D01*
X151981426Y-142984853D01*
X152258665Y-143040000D01*
X152541335Y-143040000D01*
X152818574Y-142984853D01*
X153079727Y-142876680D01*
X153314759Y-142719637D01*
X153514637Y-142519759D01*
X153671680Y-142284727D01*
X153779853Y-142023574D01*
X153835000Y-141746335D01*
X153835000Y-141463665D01*
X153779853Y-141186426D01*
X153693859Y-140978816D01*
X158485000Y-140978816D01*
X158485000Y-141281184D01*
X158543989Y-141577743D01*
X158659701Y-141857095D01*
X158827688Y-142108505D01*
X159041495Y-142322312D01*
X159292905Y-142490299D01*
X159572257Y-142606011D01*
X159868816Y-142665000D01*
X160171184Y-142665000D01*
X160467743Y-142606011D01*
X160747095Y-142490299D01*
X160998505Y-142322312D01*
X161212312Y-142108505D01*
X161380299Y-141857095D01*
X161496011Y-141577743D01*
X161555000Y-141281184D01*
X161555000Y-140978816D01*
X161496011Y-140682257D01*
X161380299Y-140402905D01*
X161212312Y-140151495D01*
X160998505Y-139937688D01*
X160747095Y-139769701D01*
X160467743Y-139653989D01*
X160171184Y-139595000D01*
X159868816Y-139595000D01*
X159572257Y-139653989D01*
X159292905Y-139769701D01*
X159041495Y-139937688D01*
X158827688Y-140151495D01*
X158659701Y-140402905D01*
X158543989Y-140682257D01*
X158485000Y-140978816D01*
X153693859Y-140978816D01*
X153671680Y-140925273D01*
X153514637Y-140690241D01*
X153314759Y-140490363D01*
X153079727Y-140333320D01*
X152818574Y-140225147D01*
X152541335Y-140170000D01*
X152258665Y-140170000D01*
X151981426Y-140225147D01*
X151720273Y-140333320D01*
X151485241Y-140490363D01*
X151285363Y-140690241D01*
X151128320Y-140925273D01*
X151020147Y-141186426D01*
X150965000Y-141463665D01*
X149985000Y-141463665D01*
X149985000Y-128194080D01*
X159135525Y-128194080D01*
X159219208Y-128448261D01*
X159491775Y-128579158D01*
X159784642Y-128654365D01*
X160086553Y-128670991D01*
X160385907Y-128628397D01*
X160671199Y-128528222D01*
X160820792Y-128448261D01*
X160904475Y-128194080D01*
X160020000Y-127309605D01*
X159135525Y-128194080D01*
X149985000Y-128194080D01*
X149985000Y-127196553D01*
X158479009Y-127196553D01*
X158521603Y-127495907D01*
X158621778Y-127781199D01*
X158701739Y-127930792D01*
X158955920Y-128014475D01*
X159840395Y-127130000D01*
X160199605Y-127130000D01*
X161084080Y-128014475D01*
X161338261Y-127930792D01*
X161469158Y-127658225D01*
X161544365Y-127365358D01*
X161560991Y-127063447D01*
X161518397Y-126764093D01*
X161418222Y-126478801D01*
X161338261Y-126329208D01*
X161084080Y-126245525D01*
X160199605Y-127130000D01*
X159840395Y-127130000D01*
X158955920Y-126245525D01*
X158701739Y-126329208D01*
X158570842Y-126601775D01*
X158495635Y-126894642D01*
X158479009Y-127196553D01*
X149985000Y-127196553D01*
X149985000Y-126065920D01*
X159135525Y-126065920D01*
X160020000Y-126950395D01*
X160904475Y-126065920D01*
X160820792Y-125811739D01*
X160548225Y-125680842D01*
X160255358Y-125605635D01*
X159953447Y-125589009D01*
X159654093Y-125631603D01*
X159368801Y-125731778D01*
X159219208Y-125811739D01*
X159135525Y-126065920D01*
X149985000Y-126065920D01*
X149985000Y-125094080D01*
X159135525Y-125094080D01*
X159219208Y-125348261D01*
X159491775Y-125479158D01*
X159784642Y-125554365D01*
X160086553Y-125570991D01*
X160385907Y-125528397D01*
X160671199Y-125428222D01*
X160820792Y-125348261D01*
X160904475Y-125094080D01*
X160020000Y-124209605D01*
X159135525Y-125094080D01*
X149985000Y-125094080D01*
X149985000Y-123048665D01*
X152235000Y-123048665D01*
X152235000Y-123331335D01*
X152290147Y-123608574D01*
X152398320Y-123869727D01*
X152555363Y-124104759D01*
X152755241Y-124304637D01*
X152990273Y-124461680D01*
X153251426Y-124569853D01*
X153528665Y-124625000D01*
X153811335Y-124625000D01*
X154088574Y-124569853D01*
X154349727Y-124461680D01*
X154584759Y-124304637D01*
X154784637Y-124104759D01*
X154790120Y-124096553D01*
X158479009Y-124096553D01*
X158521603Y-124395907D01*
X158621778Y-124681199D01*
X158701739Y-124830792D01*
X158955920Y-124914475D01*
X159840395Y-124030000D01*
X160199605Y-124030000D01*
X161084080Y-124914475D01*
X161338261Y-124830792D01*
X161469158Y-124558225D01*
X161544365Y-124265358D01*
X161560991Y-123963447D01*
X161518397Y-123664093D01*
X161418222Y-123378801D01*
X161338261Y-123229208D01*
X161084080Y-123145525D01*
X160199605Y-124030000D01*
X159840395Y-124030000D01*
X158955920Y-123145525D01*
X158701739Y-123229208D01*
X158570842Y-123501775D01*
X158495635Y-123794642D01*
X158479009Y-124096553D01*
X154790120Y-124096553D01*
X154941680Y-123869727D01*
X155049853Y-123608574D01*
X155105000Y-123331335D01*
X155105000Y-123048665D01*
X155088541Y-122965920D01*
X159135525Y-122965920D01*
X160020000Y-123850395D01*
X160904475Y-122965920D01*
X160820792Y-122711739D01*
X160548225Y-122580842D01*
X160255358Y-122505635D01*
X159953447Y-122489009D01*
X159654093Y-122531603D01*
X159368801Y-122631778D01*
X159219208Y-122711739D01*
X159135525Y-122965920D01*
X155088541Y-122965920D01*
X155049853Y-122771426D01*
X154941680Y-122510273D01*
X154784637Y-122275241D01*
X154584759Y-122075363D01*
X154349727Y-121918320D01*
X154088574Y-121810147D01*
X153811335Y-121755000D01*
X153528665Y-121755000D01*
X153251426Y-121810147D01*
X152990273Y-121918320D01*
X152755241Y-122075363D01*
X152555363Y-122275241D01*
X152398320Y-122510273D01*
X152290147Y-122771426D01*
X152235000Y-123048665D01*
X149985000Y-123048665D01*
X149985000Y-115428665D01*
X152235000Y-115428665D01*
X152235000Y-115711335D01*
X152290147Y-115988574D01*
X152398320Y-116249727D01*
X152555363Y-116484759D01*
X152755241Y-116684637D01*
X152990273Y-116841680D01*
X153251426Y-116949853D01*
X153528665Y-117005000D01*
X153811335Y-117005000D01*
X154088574Y-116949853D01*
X154349727Y-116841680D01*
X154584759Y-116684637D01*
X154784637Y-116484759D01*
X154941680Y-116249727D01*
X155049853Y-115988574D01*
X155105000Y-115711335D01*
X155105000Y-115578816D01*
X158485000Y-115578816D01*
X158485000Y-115881184D01*
X158543989Y-116177743D01*
X158659701Y-116457095D01*
X158827688Y-116708505D01*
X159041495Y-116922312D01*
X159292905Y-117090299D01*
X159572257Y-117206011D01*
X159868816Y-117265000D01*
X160171184Y-117265000D01*
X160467743Y-117206011D01*
X160747095Y-117090299D01*
X160998505Y-116922312D01*
X161212312Y-116708505D01*
X161380299Y-116457095D01*
X161496011Y-116177743D01*
X161555000Y-115881184D01*
X161555000Y-115578816D01*
X161496011Y-115282257D01*
X161380299Y-115002905D01*
X161212312Y-114751495D01*
X160998505Y-114537688D01*
X160747095Y-114369701D01*
X160467743Y-114253989D01*
X160171184Y-114195000D01*
X159868816Y-114195000D01*
X159572257Y-114253989D01*
X159292905Y-114369701D01*
X159041495Y-114537688D01*
X158827688Y-114751495D01*
X158659701Y-115002905D01*
X158543989Y-115282257D01*
X158485000Y-115578816D01*
X155105000Y-115578816D01*
X155105000Y-115428665D01*
X155049853Y-115151426D01*
X154941680Y-114890273D01*
X154784637Y-114655241D01*
X154584759Y-114455363D01*
X154349727Y-114298320D01*
X154088574Y-114190147D01*
X153811335Y-114135000D01*
X153528665Y-114135000D01*
X153251426Y-114190147D01*
X152990273Y-114298320D01*
X152755241Y-114455363D01*
X152555363Y-114655241D01*
X152398320Y-114890273D01*
X152290147Y-115151426D01*
X152235000Y-115428665D01*
X149985000Y-115428665D01*
X149985000Y-110120000D01*
X155941928Y-110120000D01*
X155954188Y-110244482D01*
X155990498Y-110364180D01*
X156049463Y-110474494D01*
X156128815Y-110571185D01*
X156225506Y-110650537D01*
X156335820Y-110709502D01*
X156455518Y-110745812D01*
X156580000Y-110758072D01*
X157194250Y-110755000D01*
X157353000Y-110596250D01*
X157353000Y-109347000D01*
X156103750Y-109347000D01*
X155945000Y-109505750D01*
X155941928Y-110120000D01*
X149985000Y-110120000D01*
X149985000Y-108320000D01*
X155941928Y-108320000D01*
X155945000Y-108934250D01*
X156103750Y-109093000D01*
X157353000Y-109093000D01*
X157353000Y-107843750D01*
X157607000Y-107843750D01*
X157607000Y-109093000D01*
X157627000Y-109093000D01*
X157627000Y-109347000D01*
X157607000Y-109347000D01*
X157607000Y-110596250D01*
X157765750Y-110755000D01*
X158380000Y-110758072D01*
X158504482Y-110745812D01*
X158624180Y-110709502D01*
X158734494Y-110650537D01*
X158831185Y-110571185D01*
X158910537Y-110474494D01*
X158963880Y-110374697D01*
X159001495Y-110412312D01*
X159252905Y-110580299D01*
X159532257Y-110696011D01*
X159828816Y-110755000D01*
X160131184Y-110755000D01*
X160427743Y-110696011D01*
X160707095Y-110580299D01*
X160958505Y-110412312D01*
X161172312Y-110198505D01*
X161230000Y-110112169D01*
X161287688Y-110198505D01*
X161501495Y-110412312D01*
X161752905Y-110580299D01*
X162032257Y-110696011D01*
X162328816Y-110755000D01*
X162631184Y-110755000D01*
X162927743Y-110696011D01*
X163207095Y-110580299D01*
X163458505Y-110412312D01*
X163672312Y-110198505D01*
X163840299Y-109947095D01*
X163956011Y-109667743D01*
X164015000Y-109371184D01*
X164015000Y-109068816D01*
X163956011Y-108772257D01*
X163840299Y-108492905D01*
X163672312Y-108241495D01*
X163458505Y-108027688D01*
X163207095Y-107859701D01*
X162927743Y-107743989D01*
X162631184Y-107685000D01*
X162328816Y-107685000D01*
X162032257Y-107743989D01*
X161752905Y-107859701D01*
X161501495Y-108027688D01*
X161287688Y-108241495D01*
X161230000Y-108327831D01*
X161172312Y-108241495D01*
X160958505Y-108027688D01*
X160707095Y-107859701D01*
X160427743Y-107743989D01*
X160131184Y-107685000D01*
X159828816Y-107685000D01*
X159532257Y-107743989D01*
X159252905Y-107859701D01*
X159001495Y-108027688D01*
X158963880Y-108065303D01*
X158910537Y-107965506D01*
X158831185Y-107868815D01*
X158734494Y-107789463D01*
X158624180Y-107730498D01*
X158504482Y-107694188D01*
X158380000Y-107681928D01*
X157765750Y-107685000D01*
X157607000Y-107843750D01*
X157353000Y-107843750D01*
X157194250Y-107685000D01*
X156580000Y-107681928D01*
X156455518Y-107694188D01*
X156335820Y-107730498D01*
X156225506Y-107789463D01*
X156128815Y-107868815D01*
X156049463Y-107965506D01*
X155990498Y-108075820D01*
X155954188Y-108195518D01*
X155941928Y-108320000D01*
X149985000Y-108320000D01*
X149985000Y-101497902D01*
X152925000Y-101497902D01*
X152925000Y-101942098D01*
X153011658Y-102377759D01*
X153181645Y-102788143D01*
X153428427Y-103157479D01*
X153742521Y-103471573D01*
X154111857Y-103718355D01*
X154522241Y-103888342D01*
X154957902Y-103975000D01*
X155402098Y-103975000D01*
X155837759Y-103888342D01*
X156248143Y-103718355D01*
X156617479Y-103471573D01*
X156931573Y-103157479D01*
X157178355Y-102788143D01*
X157348342Y-102377759D01*
X157435000Y-101942098D01*
X157435000Y-101497902D01*
X157348342Y-101062241D01*
X157178355Y-100651857D01*
X156931573Y-100282521D01*
X156617479Y-99968427D01*
X156248143Y-99721645D01*
X155837759Y-99551658D01*
X155402098Y-99465000D01*
X154957902Y-99465000D01*
X154522241Y-99551658D01*
X154111857Y-99721645D01*
X153742521Y-99968427D01*
X153428427Y-100282521D01*
X153181645Y-100651857D01*
X153011658Y-101062241D01*
X152925000Y-101497902D01*
X149985000Y-101497902D01*
X149985000Y-84992702D01*
X151686903Y-84992702D01*
X151758486Y-85236671D01*
X152013996Y-85357571D01*
X152288184Y-85426300D01*
X152570512Y-85440217D01*
X152850130Y-85398787D01*
X153116292Y-85303603D01*
X153241514Y-85236671D01*
X153313097Y-84992702D01*
X152500000Y-84179605D01*
X151686903Y-84992702D01*
X149985000Y-84992702D01*
X149985000Y-84070512D01*
X151059783Y-84070512D01*
X151101213Y-84350130D01*
X151196397Y-84616292D01*
X151263329Y-84741514D01*
X151507298Y-84813097D01*
X152320395Y-84000000D01*
X152679605Y-84000000D01*
X153492702Y-84813097D01*
X153736671Y-84741514D01*
X153857571Y-84486004D01*
X153926300Y-84211816D01*
X153940217Y-83929488D01*
X153929724Y-83858665D01*
X158685000Y-83858665D01*
X158685000Y-84141335D01*
X158740147Y-84418574D01*
X158848320Y-84679727D01*
X159005363Y-84914759D01*
X159205241Y-85114637D01*
X159440273Y-85271680D01*
X159701426Y-85379853D01*
X159978665Y-85435000D01*
X160261335Y-85435000D01*
X160538574Y-85379853D01*
X160799727Y-85271680D01*
X161034759Y-85114637D01*
X161234637Y-84914759D01*
X161391680Y-84679727D01*
X161499853Y-84418574D01*
X161555000Y-84141335D01*
X161555000Y-83858665D01*
X161499853Y-83581426D01*
X161391680Y-83320273D01*
X161234637Y-83085241D01*
X161034759Y-82885363D01*
X160799727Y-82728320D01*
X160538574Y-82620147D01*
X160261335Y-82565000D01*
X159978665Y-82565000D01*
X159701426Y-82620147D01*
X159440273Y-82728320D01*
X159205241Y-82885363D01*
X159005363Y-83085241D01*
X158848320Y-83320273D01*
X158740147Y-83581426D01*
X158685000Y-83858665D01*
X153929724Y-83858665D01*
X153898787Y-83649870D01*
X153803603Y-83383708D01*
X153736671Y-83258486D01*
X153492702Y-83186903D01*
X152679605Y-84000000D01*
X152320395Y-84000000D01*
X151507298Y-83186903D01*
X151263329Y-83258486D01*
X151142429Y-83513996D01*
X151073700Y-83788184D01*
X151059783Y-84070512D01*
X149985000Y-84070512D01*
X149985000Y-83007298D01*
X151686903Y-83007298D01*
X152500000Y-83820395D01*
X153313097Y-83007298D01*
X153241514Y-82763329D01*
X152986004Y-82642429D01*
X152711816Y-82573700D01*
X152429488Y-82559783D01*
X152149870Y-82601213D01*
X151883708Y-82696397D01*
X151758486Y-82763329D01*
X151686903Y-83007298D01*
X149985000Y-83007298D01*
X149985000Y-77507323D01*
X149988676Y-77470000D01*
X149985000Y-77432677D01*
X149985000Y-77432667D01*
X149974003Y-77321014D01*
X149930546Y-77177753D01*
X149859974Y-77045724D01*
X149765001Y-76929999D01*
X149736004Y-76906202D01*
X149399802Y-76570000D01*
X152131928Y-76570000D01*
X152131928Y-78370000D01*
X152144188Y-78494482D01*
X152180498Y-78614180D01*
X152239463Y-78724494D01*
X152318815Y-78821185D01*
X152415506Y-78900537D01*
X152525820Y-78959502D01*
X152645518Y-78995812D01*
X152770000Y-79008072D01*
X154570000Y-79008072D01*
X154694482Y-78995812D01*
X154814180Y-78959502D01*
X154924494Y-78900537D01*
X155021185Y-78821185D01*
X155100537Y-78724494D01*
X155153880Y-78624697D01*
X155191495Y-78662312D01*
X155442905Y-78830299D01*
X155722257Y-78946011D01*
X156018816Y-79005000D01*
X156321184Y-79005000D01*
X156617743Y-78946011D01*
X156897095Y-78830299D01*
X157148505Y-78662312D01*
X157362312Y-78448505D01*
X157420000Y-78362169D01*
X157477688Y-78448505D01*
X157691495Y-78662312D01*
X157942905Y-78830299D01*
X158222257Y-78946011D01*
X158518816Y-79005000D01*
X158821184Y-79005000D01*
X159117743Y-78946011D01*
X159397095Y-78830299D01*
X159648505Y-78662312D01*
X159862312Y-78448505D01*
X160030299Y-78197095D01*
X160146011Y-77917743D01*
X160205000Y-77621184D01*
X160205000Y-77318816D01*
X160146011Y-77022257D01*
X160030299Y-76742905D01*
X159862312Y-76491495D01*
X159648505Y-76277688D01*
X159397095Y-76109701D01*
X159117743Y-75993989D01*
X158821184Y-75935000D01*
X158518816Y-75935000D01*
X158222257Y-75993989D01*
X157942905Y-76109701D01*
X157691495Y-76277688D01*
X157477688Y-76491495D01*
X157420000Y-76577831D01*
X157362312Y-76491495D01*
X157148505Y-76277688D01*
X156897095Y-76109701D01*
X156617743Y-75993989D01*
X156321184Y-75935000D01*
X156018816Y-75935000D01*
X155722257Y-75993989D01*
X155442905Y-76109701D01*
X155191495Y-76277688D01*
X155153880Y-76315303D01*
X155100537Y-76215506D01*
X155021185Y-76118815D01*
X154924494Y-76039463D01*
X154814180Y-75980498D01*
X154694482Y-75944188D01*
X154570000Y-75931928D01*
X152770000Y-75931928D01*
X152645518Y-75944188D01*
X152525820Y-75980498D01*
X152415506Y-76039463D01*
X152318815Y-76118815D01*
X152239463Y-76215506D01*
X152180498Y-76325820D01*
X152144188Y-76445518D01*
X152131928Y-76570000D01*
X149399802Y-76570000D01*
X147883804Y-75054003D01*
X147860001Y-75024999D01*
X147744276Y-74930026D01*
X147612247Y-74859454D01*
X147468986Y-74815997D01*
X147357333Y-74805000D01*
X147357322Y-74805000D01*
X147320000Y-74801324D01*
X147282678Y-74805000D01*
X141710252Y-74805000D01*
X141672919Y-74801323D01*
X141635586Y-74805000D01*
X141523933Y-74815997D01*
X141380672Y-74859454D01*
X141248643Y-74930026D01*
X141132918Y-75024999D01*
X141109120Y-75053998D01*
X140458998Y-75704120D01*
X140430000Y-75727918D01*
X140406202Y-75756916D01*
X140406201Y-75756917D01*
X140335026Y-75843643D01*
X140264454Y-75975673D01*
X140244314Y-76042068D01*
X140223799Y-76109701D01*
X140220998Y-76118934D01*
X140214088Y-76189090D01*
X140023368Y-76316525D01*
X139816525Y-76523368D01*
X139700000Y-76697760D01*
X139583475Y-76523368D01*
X139376632Y-76316525D01*
X139133411Y-76154010D01*
X138863158Y-76042068D01*
X138576260Y-75985000D01*
X138283740Y-75985000D01*
X138063592Y-76028790D01*
X136563804Y-74529003D01*
X136540001Y-74499999D01*
X136424276Y-74405026D01*
X136292247Y-74334454D01*
X136148986Y-74290997D01*
X136037333Y-74280000D01*
X136037322Y-74280000D01*
X136000000Y-74276324D01*
X135962678Y-74280000D01*
X128117323Y-74280000D01*
X128080000Y-74276324D01*
X128042677Y-74280000D01*
X128042667Y-74280000D01*
X127931014Y-74290997D01*
X127787753Y-74334454D01*
X127655723Y-74405026D01*
X127572083Y-74473668D01*
X127539999Y-74499999D01*
X127516201Y-74528997D01*
X126058930Y-75986269D01*
X125801184Y-75935000D01*
X125498816Y-75935000D01*
X125202257Y-75993989D01*
X124922905Y-76109701D01*
X124671495Y-76277688D01*
X124457688Y-76491495D01*
X124400000Y-76577831D01*
X124342312Y-76491495D01*
X124128505Y-76277688D01*
X123877095Y-76109701D01*
X123597743Y-75993989D01*
X123301184Y-75935000D01*
X122998816Y-75935000D01*
X122702257Y-75993989D01*
X122422905Y-76109701D01*
X122171495Y-76277688D01*
X122133880Y-76315303D01*
X122080537Y-76215506D01*
X122001185Y-76118815D01*
X121904494Y-76039463D01*
X121794180Y-75980498D01*
X121674482Y-75944188D01*
X121550000Y-75931928D01*
X120935750Y-75935000D01*
X120777000Y-76093750D01*
X120523000Y-76093750D01*
X120364250Y-75935000D01*
X119750000Y-75931928D01*
X119625518Y-75944188D01*
X119505820Y-75980498D01*
X119395506Y-76039463D01*
X119298815Y-76118815D01*
X119219463Y-76215506D01*
X119160498Y-76325820D01*
X119124188Y-76445518D01*
X119111928Y-76570000D01*
X112445000Y-76570000D01*
X112445000Y-69747902D01*
X116095000Y-69747902D01*
X116095000Y-70192098D01*
X116181658Y-70627759D01*
X116351645Y-71038143D01*
X116598427Y-71407479D01*
X116912521Y-71721573D01*
X117281857Y-71968355D01*
X117692241Y-72138342D01*
X118127902Y-72225000D01*
X118572098Y-72225000D01*
X119007759Y-72138342D01*
X119418143Y-71968355D01*
X119787479Y-71721573D01*
X120101573Y-71407479D01*
X120348355Y-71038143D01*
X120518342Y-70627759D01*
X120605000Y-70192098D01*
X120605000Y-69747902D01*
X125695000Y-69747902D01*
X125695000Y-70192098D01*
X125781658Y-70627759D01*
X125951645Y-71038143D01*
X126198427Y-71407479D01*
X126512521Y-71721573D01*
X126881857Y-71968355D01*
X127292241Y-72138342D01*
X127727902Y-72225000D01*
X128172098Y-72225000D01*
X128607759Y-72138342D01*
X129018143Y-71968355D01*
X129387479Y-71721573D01*
X129701573Y-71407479D01*
X129948355Y-71038143D01*
X130005628Y-70899872D01*
X137465000Y-70899872D01*
X137465000Y-71340128D01*
X137550890Y-71771925D01*
X137719369Y-72178669D01*
X137963962Y-72544729D01*
X138275271Y-72856038D01*
X138641331Y-73100631D01*
X139048075Y-73269110D01*
X139479872Y-73355000D01*
X139920128Y-73355000D01*
X140351925Y-73269110D01*
X140758669Y-73100631D01*
X141124729Y-72856038D01*
X141436038Y-72544729D01*
X141680631Y-72178669D01*
X141849110Y-71771925D01*
X141935000Y-71340128D01*
X141935000Y-70899872D01*
X141849110Y-70468075D01*
X141680631Y-70061331D01*
X141471205Y-69747902D01*
X149115000Y-69747902D01*
X149115000Y-70192098D01*
X149201658Y-70627759D01*
X149371645Y-71038143D01*
X149618427Y-71407479D01*
X149932521Y-71721573D01*
X150301857Y-71968355D01*
X150712241Y-72138342D01*
X151147902Y-72225000D01*
X151592098Y-72225000D01*
X152027759Y-72138342D01*
X152438143Y-71968355D01*
X152807479Y-71721573D01*
X153121573Y-71407479D01*
X153368355Y-71038143D01*
X153538342Y-70627759D01*
X153625000Y-70192098D01*
X153625000Y-69747902D01*
X158715000Y-69747902D01*
X158715000Y-70192098D01*
X158801658Y-70627759D01*
X158971645Y-71038143D01*
X159218427Y-71407479D01*
X159532521Y-71721573D01*
X159901857Y-71968355D01*
X160312241Y-72138342D01*
X160747902Y-72225000D01*
X161192098Y-72225000D01*
X161627759Y-72138342D01*
X162038143Y-71968355D01*
X162407479Y-71721573D01*
X162721573Y-71407479D01*
X162968355Y-71038143D01*
X163138342Y-70627759D01*
X163225000Y-70192098D01*
X163225000Y-69747902D01*
X163138342Y-69312241D01*
X162968355Y-68901857D01*
X162721573Y-68532521D01*
X162407479Y-68218427D01*
X162038143Y-67971645D01*
X161627759Y-67801658D01*
X161192098Y-67715000D01*
X160747902Y-67715000D01*
X160312241Y-67801658D01*
X159901857Y-67971645D01*
X159532521Y-68218427D01*
X159218427Y-68532521D01*
X158971645Y-68901857D01*
X158801658Y-69312241D01*
X158715000Y-69747902D01*
X153625000Y-69747902D01*
X153538342Y-69312241D01*
X153368355Y-68901857D01*
X153121573Y-68532521D01*
X152807479Y-68218427D01*
X152438143Y-67971645D01*
X152027759Y-67801658D01*
X151592098Y-67715000D01*
X151147902Y-67715000D01*
X150712241Y-67801658D01*
X150301857Y-67971645D01*
X149932521Y-68218427D01*
X149618427Y-68532521D01*
X149371645Y-68901857D01*
X149201658Y-69312241D01*
X149115000Y-69747902D01*
X141471205Y-69747902D01*
X141436038Y-69695271D01*
X141124729Y-69383962D01*
X140758669Y-69139369D01*
X140351925Y-68970890D01*
X139920128Y-68885000D01*
X139479872Y-68885000D01*
X139048075Y-68970890D01*
X138641331Y-69139369D01*
X138275271Y-69383962D01*
X137963962Y-69695271D01*
X137719369Y-70061331D01*
X137550890Y-70468075D01*
X137465000Y-70899872D01*
X130005628Y-70899872D01*
X130118342Y-70627759D01*
X130205000Y-70192098D01*
X130205000Y-69747902D01*
X130118342Y-69312241D01*
X129948355Y-68901857D01*
X129701573Y-68532521D01*
X129387479Y-68218427D01*
X129018143Y-67971645D01*
X128607759Y-67801658D01*
X128172098Y-67715000D01*
X127727902Y-67715000D01*
X127292241Y-67801658D01*
X126881857Y-67971645D01*
X126512521Y-68218427D01*
X126198427Y-68532521D01*
X125951645Y-68901857D01*
X125781658Y-69312241D01*
X125695000Y-69747902D01*
X120605000Y-69747902D01*
X120518342Y-69312241D01*
X120348355Y-68901857D01*
X120101573Y-68532521D01*
X119787479Y-68218427D01*
X119418143Y-67971645D01*
X119007759Y-67801658D01*
X118572098Y-67715000D01*
X118127902Y-67715000D01*
X117692241Y-67801658D01*
X117281857Y-67971645D01*
X116912521Y-68218427D01*
X116598427Y-68532521D01*
X116351645Y-68901857D01*
X116181658Y-69312241D01*
X116095000Y-69747902D01*
X112445000Y-69747902D01*
X112445000Y-64185000D01*
X166955000Y-64185000D01*
X166955000Y-101095715D01*
M02*
