G04 #@! TF.GenerationSoftware,KiCad,Pcbnew,5.1.5-52549c5~84~ubuntu18.04.1*
G04 #@! TF.CreationDate,2020-03-17T21:00:59-04:00*
G04 #@! TF.ProjectId,OBG-SVF-panelpcb,4f42472d-5356-4462-9d70-616e656c7063,rev?*
G04 #@! TF.SameCoordinates,Original*
G04 #@! TF.FileFunction,Legend,Bot*
G04 #@! TF.FilePolarity,Positive*
%FSLAX46Y46*%
G04 Gerber Fmt 4.6, Leading zero omitted, Abs format (unit mm)*
G04 Created by KiCad (PCBNEW 5.1.5-52549c5~84~ubuntu18.04.1) date 2020-03-17 21:00:59*
%MOMM*%
%LPD*%
G04 APERTURE LIST*
%ADD10C,0.150000*%
%ADD11C,0.120000*%
G04 APERTURE END LIST*
D10*
X148247619Y-87782380D02*
X148057142Y-87782380D01*
X147961904Y-87830000D01*
X147866666Y-87925238D01*
X147819047Y-88115714D01*
X147819047Y-88449047D01*
X147866666Y-88639523D01*
X147961904Y-88734761D01*
X148057142Y-88782380D01*
X148247619Y-88782380D01*
X148342857Y-88734761D01*
X148438095Y-88639523D01*
X148485714Y-88449047D01*
X148485714Y-88115714D01*
X148438095Y-87925238D01*
X148342857Y-87830000D01*
X148247619Y-87782380D01*
X147057142Y-88258571D02*
X146914285Y-88306190D01*
X146866666Y-88353809D01*
X146819047Y-88449047D01*
X146819047Y-88591904D01*
X146866666Y-88687142D01*
X146914285Y-88734761D01*
X147009523Y-88782380D01*
X147390476Y-88782380D01*
X147390476Y-87782380D01*
X147057142Y-87782380D01*
X146961904Y-87830000D01*
X146914285Y-87877619D01*
X146866666Y-87972857D01*
X146866666Y-88068095D01*
X146914285Y-88163333D01*
X146961904Y-88210952D01*
X147057142Y-88258571D01*
X147390476Y-88258571D01*
X145866666Y-87830000D02*
X145961904Y-87782380D01*
X146104761Y-87782380D01*
X146247619Y-87830000D01*
X146342857Y-87925238D01*
X146390476Y-88020476D01*
X146438095Y-88210952D01*
X146438095Y-88353809D01*
X146390476Y-88544285D01*
X146342857Y-88639523D01*
X146247619Y-88734761D01*
X146104761Y-88782380D01*
X146009523Y-88782380D01*
X145866666Y-88734761D01*
X145819047Y-88687142D01*
X145819047Y-88353809D01*
X146009523Y-88353809D01*
X144676190Y-88734761D02*
X144533333Y-88782380D01*
X144295238Y-88782380D01*
X144200000Y-88734761D01*
X144152380Y-88687142D01*
X144104761Y-88591904D01*
X144104761Y-88496666D01*
X144152380Y-88401428D01*
X144200000Y-88353809D01*
X144295238Y-88306190D01*
X144485714Y-88258571D01*
X144580952Y-88210952D01*
X144628571Y-88163333D01*
X144676190Y-88068095D01*
X144676190Y-87972857D01*
X144628571Y-87877619D01*
X144580952Y-87830000D01*
X144485714Y-87782380D01*
X144247619Y-87782380D01*
X144104761Y-87830000D01*
X143819047Y-88115714D02*
X143438095Y-88115714D01*
X143676190Y-87782380D02*
X143676190Y-88639523D01*
X143628571Y-88734761D01*
X143533333Y-88782380D01*
X143438095Y-88782380D01*
X142676190Y-88782380D02*
X142676190Y-88258571D01*
X142723809Y-88163333D01*
X142819047Y-88115714D01*
X143009523Y-88115714D01*
X143104761Y-88163333D01*
X142676190Y-88734761D02*
X142771428Y-88782380D01*
X143009523Y-88782380D01*
X143104761Y-88734761D01*
X143152380Y-88639523D01*
X143152380Y-88544285D01*
X143104761Y-88449047D01*
X143009523Y-88401428D01*
X142771428Y-88401428D01*
X142676190Y-88353809D01*
X142342857Y-88115714D02*
X141961904Y-88115714D01*
X142200000Y-87782380D02*
X142200000Y-88639523D01*
X142152380Y-88734761D01*
X142057142Y-88782380D01*
X141961904Y-88782380D01*
X141247619Y-88734761D02*
X141342857Y-88782380D01*
X141533333Y-88782380D01*
X141628571Y-88734761D01*
X141676190Y-88639523D01*
X141676190Y-88258571D01*
X141628571Y-88163333D01*
X141533333Y-88115714D01*
X141342857Y-88115714D01*
X141247619Y-88163333D01*
X141200000Y-88258571D01*
X141200000Y-88353809D01*
X141676190Y-88449047D01*
X140152380Y-87782380D02*
X139819047Y-88782380D01*
X139485714Y-87782380D01*
X138723809Y-88782380D02*
X138723809Y-88258571D01*
X138771428Y-88163333D01*
X138866666Y-88115714D01*
X139057142Y-88115714D01*
X139152380Y-88163333D01*
X138723809Y-88734761D02*
X138819047Y-88782380D01*
X139057142Y-88782380D01*
X139152380Y-88734761D01*
X139200000Y-88639523D01*
X139200000Y-88544285D01*
X139152380Y-88449047D01*
X139057142Y-88401428D01*
X138819047Y-88401428D01*
X138723809Y-88353809D01*
X138247619Y-88782380D02*
X138247619Y-88115714D01*
X138247619Y-88306190D02*
X138200000Y-88210952D01*
X138152380Y-88163333D01*
X138057142Y-88115714D01*
X137961904Y-88115714D01*
X137628571Y-88782380D02*
X137628571Y-88115714D01*
X137628571Y-87782380D02*
X137676190Y-87830000D01*
X137628571Y-87877619D01*
X137580952Y-87830000D01*
X137628571Y-87782380D01*
X137628571Y-87877619D01*
X136723809Y-88782380D02*
X136723809Y-88258571D01*
X136771428Y-88163333D01*
X136866666Y-88115714D01*
X137057142Y-88115714D01*
X137152380Y-88163333D01*
X136723809Y-88734761D02*
X136819047Y-88782380D01*
X137057142Y-88782380D01*
X137152380Y-88734761D01*
X137200000Y-88639523D01*
X137200000Y-88544285D01*
X137152380Y-88449047D01*
X137057142Y-88401428D01*
X136819047Y-88401428D01*
X136723809Y-88353809D01*
X136247619Y-88782380D02*
X136247619Y-87782380D01*
X136247619Y-88163333D02*
X136152380Y-88115714D01*
X135961904Y-88115714D01*
X135866666Y-88163333D01*
X135819047Y-88210952D01*
X135771428Y-88306190D01*
X135771428Y-88591904D01*
X135819047Y-88687142D01*
X135866666Y-88734761D01*
X135961904Y-88782380D01*
X136152380Y-88782380D01*
X136247619Y-88734761D01*
X135200000Y-88782380D02*
X135295238Y-88734761D01*
X135342857Y-88639523D01*
X135342857Y-87782380D01*
X134438095Y-88734761D02*
X134533333Y-88782380D01*
X134723809Y-88782380D01*
X134819047Y-88734761D01*
X134866666Y-88639523D01*
X134866666Y-88258571D01*
X134819047Y-88163333D01*
X134723809Y-88115714D01*
X134533333Y-88115714D01*
X134438095Y-88163333D01*
X134390476Y-88258571D01*
X134390476Y-88353809D01*
X134866666Y-88449047D01*
X133342857Y-87782380D02*
X133009523Y-88782380D01*
X132676190Y-87782380D01*
X131771428Y-88687142D02*
X131819047Y-88734761D01*
X131961904Y-88782380D01*
X132057142Y-88782380D01*
X132200000Y-88734761D01*
X132295238Y-88639523D01*
X132342857Y-88544285D01*
X132390476Y-88353809D01*
X132390476Y-88210952D01*
X132342857Y-88020476D01*
X132295238Y-87925238D01*
X132200000Y-87830000D01*
X132057142Y-87782380D01*
X131961904Y-87782380D01*
X131819047Y-87830000D01*
X131771428Y-87877619D01*
X131009523Y-88258571D02*
X131342857Y-88258571D01*
X131342857Y-88782380D02*
X131342857Y-87782380D01*
X130866666Y-87782380D01*
X144771428Y-90432380D02*
X144771428Y-89432380D01*
X144771428Y-89813333D02*
X144676190Y-89765714D01*
X144485714Y-89765714D01*
X144390476Y-89813333D01*
X144342857Y-89860952D01*
X144295238Y-89956190D01*
X144295238Y-90241904D01*
X144342857Y-90337142D01*
X144390476Y-90384761D01*
X144485714Y-90432380D01*
X144676190Y-90432380D01*
X144771428Y-90384761D01*
X143961904Y-89765714D02*
X143723809Y-90432380D01*
X143485714Y-89765714D02*
X143723809Y-90432380D01*
X143819047Y-90670476D01*
X143866666Y-90718095D01*
X143961904Y-90765714D01*
X141771428Y-90432380D02*
X142104761Y-89956190D01*
X142342857Y-90432380D02*
X142342857Y-89432380D01*
X141961904Y-89432380D01*
X141866666Y-89480000D01*
X141819047Y-89527619D01*
X141771428Y-89622857D01*
X141771428Y-89765714D01*
X141819047Y-89860952D01*
X141866666Y-89908571D01*
X141961904Y-89956190D01*
X142342857Y-89956190D01*
X140914285Y-90432380D02*
X140914285Y-89908571D01*
X140961904Y-89813333D01*
X141057142Y-89765714D01*
X141247619Y-89765714D01*
X141342857Y-89813333D01*
X140914285Y-90384761D02*
X141009523Y-90432380D01*
X141247619Y-90432380D01*
X141342857Y-90384761D01*
X141390476Y-90289523D01*
X141390476Y-90194285D01*
X141342857Y-90099047D01*
X141247619Y-90051428D01*
X141009523Y-90051428D01*
X140914285Y-90003809D01*
X140533333Y-89765714D02*
X140295238Y-90432380D01*
X140057142Y-89765714D02*
X140295238Y-90432380D01*
X140390476Y-90670476D01*
X140438095Y-90718095D01*
X140533333Y-90765714D01*
X139009523Y-89432380D02*
X138771428Y-90432380D01*
X138580952Y-89718095D01*
X138390476Y-90432380D01*
X138152380Y-89432380D01*
X137771428Y-90432380D02*
X137771428Y-89765714D01*
X137771428Y-89432380D02*
X137819047Y-89480000D01*
X137771428Y-89527619D01*
X137723809Y-89480000D01*
X137771428Y-89432380D01*
X137771428Y-89527619D01*
X137152380Y-90432380D02*
X137247619Y-90384761D01*
X137295238Y-90289523D01*
X137295238Y-89432380D01*
X136819047Y-90384761D02*
X136723809Y-90432380D01*
X136533333Y-90432380D01*
X136438095Y-90384761D01*
X136390476Y-90289523D01*
X136390476Y-90241904D01*
X136438095Y-90146666D01*
X136533333Y-90099047D01*
X136676190Y-90099047D01*
X136771428Y-90051428D01*
X136819047Y-89956190D01*
X136819047Y-89908571D01*
X136771428Y-89813333D01*
X136676190Y-89765714D01*
X136533333Y-89765714D01*
X136438095Y-89813333D01*
X135819047Y-90432380D02*
X135914285Y-90384761D01*
X135961904Y-90337142D01*
X136009523Y-90241904D01*
X136009523Y-89956190D01*
X135961904Y-89860952D01*
X135914285Y-89813333D01*
X135819047Y-89765714D01*
X135676190Y-89765714D01*
X135580952Y-89813333D01*
X135533333Y-89860952D01*
X135485714Y-89956190D01*
X135485714Y-90241904D01*
X135533333Y-90337142D01*
X135580952Y-90384761D01*
X135676190Y-90432380D01*
X135819047Y-90432380D01*
X135057142Y-89765714D02*
X135057142Y-90432380D01*
X135057142Y-89860952D02*
X135009523Y-89813333D01*
X134914285Y-89765714D01*
X134771428Y-89765714D01*
X134676190Y-89813333D01*
X134628571Y-89908571D01*
X134628571Y-90432380D01*
X151271428Y-92082380D02*
X151271428Y-91082380D01*
X150700000Y-92082380D01*
X150700000Y-91082380D01*
X150080952Y-92082380D02*
X150176190Y-92034761D01*
X150223809Y-91987142D01*
X150271428Y-91891904D01*
X150271428Y-91606190D01*
X150223809Y-91510952D01*
X150176190Y-91463333D01*
X150080952Y-91415714D01*
X149938095Y-91415714D01*
X149842857Y-91463333D01*
X149795238Y-91510952D01*
X149747619Y-91606190D01*
X149747619Y-91891904D01*
X149795238Y-91987142D01*
X149842857Y-92034761D01*
X149938095Y-92082380D01*
X150080952Y-92082380D01*
X149319047Y-91701428D02*
X148557142Y-91701428D01*
X148176190Y-91415714D02*
X147985714Y-92082380D01*
X147795238Y-91606190D01*
X147604761Y-92082380D01*
X147414285Y-91415714D01*
X147033333Y-92082380D02*
X147033333Y-91415714D01*
X147033333Y-91082380D02*
X147080952Y-91130000D01*
X147033333Y-91177619D01*
X146985714Y-91130000D01*
X147033333Y-91082380D01*
X147033333Y-91177619D01*
X146557142Y-92082380D02*
X146557142Y-91415714D01*
X146557142Y-91606190D02*
X146509523Y-91510952D01*
X146461904Y-91463333D01*
X146366666Y-91415714D01*
X146271428Y-91415714D01*
X145938095Y-92082380D02*
X145938095Y-91415714D01*
X145938095Y-91082380D02*
X145985714Y-91130000D01*
X145938095Y-91177619D01*
X145890476Y-91130000D01*
X145938095Y-91082380D01*
X145938095Y-91177619D01*
X145461904Y-91415714D02*
X145461904Y-92082380D01*
X145461904Y-91510952D02*
X145414285Y-91463333D01*
X145319047Y-91415714D01*
X145176190Y-91415714D01*
X145080952Y-91463333D01*
X145033333Y-91558571D01*
X145033333Y-92082380D01*
X144128571Y-91415714D02*
X144128571Y-92225238D01*
X144176190Y-92320476D01*
X144223809Y-92368095D01*
X144319047Y-92415714D01*
X144461904Y-92415714D01*
X144557142Y-92368095D01*
X144128571Y-92034761D02*
X144223809Y-92082380D01*
X144414285Y-92082380D01*
X144509523Y-92034761D01*
X144557142Y-91987142D01*
X144604761Y-91891904D01*
X144604761Y-91606190D01*
X144557142Y-91510952D01*
X144509523Y-91463333D01*
X144414285Y-91415714D01*
X144223809Y-91415714D01*
X144128571Y-91463333D01*
X142890476Y-91558571D02*
X142557142Y-91558571D01*
X142414285Y-92082380D02*
X142890476Y-92082380D01*
X142890476Y-91082380D01*
X142414285Y-91082380D01*
X141557142Y-91415714D02*
X141557142Y-92082380D01*
X141985714Y-91415714D02*
X141985714Y-91939523D01*
X141938095Y-92034761D01*
X141842857Y-92082380D01*
X141700000Y-92082380D01*
X141604761Y-92034761D01*
X141557142Y-91987142D01*
X141080952Y-92082380D02*
X141080952Y-91415714D01*
X141080952Y-91606190D02*
X141033333Y-91510952D01*
X140985714Y-91463333D01*
X140890476Y-91415714D01*
X140795238Y-91415714D01*
X140319047Y-92082380D02*
X140414285Y-92034761D01*
X140461904Y-91987142D01*
X140509523Y-91891904D01*
X140509523Y-91606190D01*
X140461904Y-91510952D01*
X140414285Y-91463333D01*
X140319047Y-91415714D01*
X140176190Y-91415714D01*
X140080952Y-91463333D01*
X140033333Y-91510952D01*
X139985714Y-91606190D01*
X139985714Y-91891904D01*
X140033333Y-91987142D01*
X140080952Y-92034761D01*
X140176190Y-92082380D01*
X140319047Y-92082380D01*
X139557142Y-92082380D02*
X139557142Y-91415714D01*
X139557142Y-91606190D02*
X139509523Y-91510952D01*
X139461904Y-91463333D01*
X139366666Y-91415714D01*
X139271428Y-91415714D01*
X138509523Y-92082380D02*
X138509523Y-91558571D01*
X138557142Y-91463333D01*
X138652380Y-91415714D01*
X138842857Y-91415714D01*
X138938095Y-91463333D01*
X138509523Y-92034761D02*
X138604761Y-92082380D01*
X138842857Y-92082380D01*
X138938095Y-92034761D01*
X138985714Y-91939523D01*
X138985714Y-91844285D01*
X138938095Y-91749047D01*
X138842857Y-91701428D01*
X138604761Y-91701428D01*
X138509523Y-91653809D01*
X137604761Y-92034761D02*
X137700000Y-92082380D01*
X137890476Y-92082380D01*
X137985714Y-92034761D01*
X138033333Y-91987142D01*
X138080952Y-91891904D01*
X138080952Y-91606190D01*
X138033333Y-91510952D01*
X137985714Y-91463333D01*
X137890476Y-91415714D01*
X137700000Y-91415714D01*
X137604761Y-91463333D01*
X137176190Y-92082380D02*
X137176190Y-91082380D01*
X137080952Y-91701428D02*
X136795238Y-92082380D01*
X136795238Y-91415714D02*
X137176190Y-91796666D01*
X135176190Y-92082380D02*
X135176190Y-91558571D01*
X135223809Y-91463333D01*
X135319047Y-91415714D01*
X135509523Y-91415714D01*
X135604761Y-91463333D01*
X135176190Y-92034761D02*
X135271428Y-92082380D01*
X135509523Y-92082380D01*
X135604761Y-92034761D01*
X135652380Y-91939523D01*
X135652380Y-91844285D01*
X135604761Y-91749047D01*
X135509523Y-91701428D01*
X135271428Y-91701428D01*
X135176190Y-91653809D01*
X134271428Y-92082380D02*
X134271428Y-91082380D01*
X134271428Y-92034761D02*
X134366666Y-92082380D01*
X134557142Y-92082380D01*
X134652380Y-92034761D01*
X134700000Y-91987142D01*
X134747619Y-91891904D01*
X134747619Y-91606190D01*
X134700000Y-91510952D01*
X134652380Y-91463333D01*
X134557142Y-91415714D01*
X134366666Y-91415714D01*
X134271428Y-91463333D01*
X133366666Y-92082380D02*
X133366666Y-91558571D01*
X133414285Y-91463333D01*
X133509523Y-91415714D01*
X133700000Y-91415714D01*
X133795238Y-91463333D01*
X133366666Y-92034761D02*
X133461904Y-92082380D01*
X133700000Y-92082380D01*
X133795238Y-92034761D01*
X133842857Y-91939523D01*
X133842857Y-91844285D01*
X133795238Y-91749047D01*
X133700000Y-91701428D01*
X133461904Y-91701428D01*
X133366666Y-91653809D01*
X132890476Y-91415714D02*
X132890476Y-92415714D01*
X132890476Y-91463333D02*
X132795238Y-91415714D01*
X132604761Y-91415714D01*
X132509523Y-91463333D01*
X132461904Y-91510952D01*
X132414285Y-91606190D01*
X132414285Y-91891904D01*
X132461904Y-91987142D01*
X132509523Y-92034761D01*
X132604761Y-92082380D01*
X132795238Y-92082380D01*
X132890476Y-92034761D01*
X132128571Y-91415714D02*
X131747619Y-91415714D01*
X131985714Y-91082380D02*
X131985714Y-91939523D01*
X131938095Y-92034761D01*
X131842857Y-92082380D01*
X131747619Y-92082380D01*
X130985714Y-92082380D02*
X130985714Y-91558571D01*
X131033333Y-91463333D01*
X131128571Y-91415714D01*
X131319047Y-91415714D01*
X131414285Y-91463333D01*
X130985714Y-92034761D02*
X131080952Y-92082380D01*
X131319047Y-92082380D01*
X131414285Y-92034761D01*
X131461904Y-91939523D01*
X131461904Y-91844285D01*
X131414285Y-91749047D01*
X131319047Y-91701428D01*
X131080952Y-91701428D01*
X130985714Y-91653809D01*
X130652380Y-91415714D02*
X130271428Y-91415714D01*
X130509523Y-91082380D02*
X130509523Y-91939523D01*
X130461904Y-92034761D01*
X130366666Y-92082380D01*
X130271428Y-92082380D01*
X129938095Y-92082380D02*
X129938095Y-91415714D01*
X129938095Y-91082380D02*
X129985714Y-91130000D01*
X129938095Y-91177619D01*
X129890476Y-91130000D01*
X129938095Y-91082380D01*
X129938095Y-91177619D01*
X129319047Y-92082380D02*
X129414285Y-92034761D01*
X129461904Y-91987142D01*
X129509523Y-91891904D01*
X129509523Y-91606190D01*
X129461904Y-91510952D01*
X129414285Y-91463333D01*
X129319047Y-91415714D01*
X129176190Y-91415714D01*
X129080952Y-91463333D01*
X129033333Y-91510952D01*
X128985714Y-91606190D01*
X128985714Y-91891904D01*
X129033333Y-91987142D01*
X129080952Y-92034761D01*
X129176190Y-92082380D01*
X129319047Y-92082380D01*
X128557142Y-91415714D02*
X128557142Y-92082380D01*
X128557142Y-91510952D02*
X128509523Y-91463333D01*
X128414285Y-91415714D01*
X128271428Y-91415714D01*
X128176190Y-91463333D01*
X128128571Y-91558571D01*
X128128571Y-92082380D01*
X148700000Y-93732380D02*
X148700000Y-92732380D01*
X148700000Y-93113333D02*
X148604761Y-93065714D01*
X148414285Y-93065714D01*
X148319047Y-93113333D01*
X148271428Y-93160952D01*
X148223809Y-93256190D01*
X148223809Y-93541904D01*
X148271428Y-93637142D01*
X148319047Y-93684761D01*
X148414285Y-93732380D01*
X148604761Y-93732380D01*
X148700000Y-93684761D01*
X147890476Y-93065714D02*
X147652380Y-93732380D01*
X147414285Y-93065714D02*
X147652380Y-93732380D01*
X147747619Y-93970476D01*
X147795238Y-94018095D01*
X147890476Y-94065714D01*
X145700000Y-93732380D02*
X146033333Y-93256190D01*
X146271428Y-93732380D02*
X146271428Y-92732380D01*
X145890476Y-92732380D01*
X145795238Y-92780000D01*
X145747619Y-92827619D01*
X145700000Y-92922857D01*
X145700000Y-93065714D01*
X145747619Y-93160952D01*
X145795238Y-93208571D01*
X145890476Y-93256190D01*
X146271428Y-93256190D01*
X145271428Y-93732380D02*
X145271428Y-93065714D01*
X145271428Y-92732380D02*
X145319047Y-92780000D01*
X145271428Y-92827619D01*
X145223809Y-92780000D01*
X145271428Y-92732380D01*
X145271428Y-92827619D01*
X144366666Y-93684761D02*
X144461904Y-93732380D01*
X144652380Y-93732380D01*
X144747619Y-93684761D01*
X144795238Y-93637142D01*
X144842857Y-93541904D01*
X144842857Y-93256190D01*
X144795238Y-93160952D01*
X144747619Y-93113333D01*
X144652380Y-93065714D01*
X144461904Y-93065714D01*
X144366666Y-93113333D01*
X143938095Y-93732380D02*
X143938095Y-92732380D01*
X143509523Y-93732380D02*
X143509523Y-93208571D01*
X143557142Y-93113333D01*
X143652380Y-93065714D01*
X143795238Y-93065714D01*
X143890476Y-93113333D01*
X143938095Y-93160952D01*
X142271428Y-93732380D02*
X142271428Y-92732380D01*
X142271428Y-93208571D02*
X141700000Y-93208571D01*
X141700000Y-93732380D02*
X141700000Y-92732380D01*
X141080952Y-93732380D02*
X141176190Y-93684761D01*
X141223809Y-93637142D01*
X141271428Y-93541904D01*
X141271428Y-93256190D01*
X141223809Y-93160952D01*
X141176190Y-93113333D01*
X141080952Y-93065714D01*
X140938095Y-93065714D01*
X140842857Y-93113333D01*
X140795238Y-93160952D01*
X140747619Y-93256190D01*
X140747619Y-93541904D01*
X140795238Y-93637142D01*
X140842857Y-93684761D01*
X140938095Y-93732380D01*
X141080952Y-93732380D01*
X140176190Y-93732380D02*
X140271428Y-93684761D01*
X140319047Y-93589523D01*
X140319047Y-92732380D01*
X139795238Y-93732380D02*
X139795238Y-93065714D01*
X139795238Y-93160952D02*
X139747619Y-93113333D01*
X139652380Y-93065714D01*
X139509523Y-93065714D01*
X139414285Y-93113333D01*
X139366666Y-93208571D01*
X139366666Y-93732380D01*
X139366666Y-93208571D02*
X139319047Y-93113333D01*
X139223809Y-93065714D01*
X139080952Y-93065714D01*
X138985714Y-93113333D01*
X138938095Y-93208571D01*
X138938095Y-93732380D01*
X138080952Y-93684761D02*
X138176190Y-93732380D01*
X138366666Y-93732380D01*
X138461904Y-93684761D01*
X138509523Y-93589523D01*
X138509523Y-93208571D01*
X138461904Y-93113333D01*
X138366666Y-93065714D01*
X138176190Y-93065714D01*
X138080952Y-93113333D01*
X138033333Y-93208571D01*
X138033333Y-93303809D01*
X138509523Y-93399047D01*
X137652380Y-93684761D02*
X137557142Y-93732380D01*
X137366666Y-93732380D01*
X137271428Y-93684761D01*
X137223809Y-93589523D01*
X137223809Y-93541904D01*
X137271428Y-93446666D01*
X137366666Y-93399047D01*
X137509523Y-93399047D01*
X137604761Y-93351428D01*
X137652380Y-93256190D01*
X137652380Y-93208571D01*
X137604761Y-93113333D01*
X137509523Y-93065714D01*
X137366666Y-93065714D01*
X137271428Y-93113333D01*
X136080952Y-92827619D02*
X136033333Y-92780000D01*
X135938095Y-92732380D01*
X135700000Y-92732380D01*
X135604761Y-92780000D01*
X135557142Y-92827619D01*
X135509523Y-92922857D01*
X135509523Y-93018095D01*
X135557142Y-93160952D01*
X136128571Y-93732380D01*
X135509523Y-93732380D01*
X134366666Y-92684761D02*
X135223809Y-93970476D01*
X134080952Y-92827619D02*
X134033333Y-92780000D01*
X133938095Y-92732380D01*
X133700000Y-92732380D01*
X133604761Y-92780000D01*
X133557142Y-92827619D01*
X133509523Y-92922857D01*
X133509523Y-93018095D01*
X133557142Y-93160952D01*
X134128571Y-93732380D01*
X133509523Y-93732380D01*
X132890476Y-92732380D02*
X132795238Y-92732380D01*
X132700000Y-92780000D01*
X132652380Y-92827619D01*
X132604761Y-92922857D01*
X132557142Y-93113333D01*
X132557142Y-93351428D01*
X132604761Y-93541904D01*
X132652380Y-93637142D01*
X132700000Y-93684761D01*
X132795238Y-93732380D01*
X132890476Y-93732380D01*
X132985714Y-93684761D01*
X133033333Y-93637142D01*
X133080952Y-93541904D01*
X133128571Y-93351428D01*
X133128571Y-93113333D01*
X133080952Y-92922857D01*
X133033333Y-92827619D01*
X132985714Y-92780000D01*
X132890476Y-92732380D01*
X132176190Y-92827619D02*
X132128571Y-92780000D01*
X132033333Y-92732380D01*
X131795238Y-92732380D01*
X131700000Y-92780000D01*
X131652380Y-92827619D01*
X131604761Y-92922857D01*
X131604761Y-93018095D01*
X131652380Y-93160952D01*
X132223809Y-93732380D01*
X131604761Y-93732380D01*
X130985714Y-92732380D02*
X130890476Y-92732380D01*
X130795238Y-92780000D01*
X130747619Y-92827619D01*
X130700000Y-92922857D01*
X130652380Y-93113333D01*
X130652380Y-93351428D01*
X130700000Y-93541904D01*
X130747619Y-93637142D01*
X130795238Y-93684761D01*
X130890476Y-93732380D01*
X130985714Y-93732380D01*
X131080952Y-93684761D01*
X131128571Y-93637142D01*
X131176190Y-93541904D01*
X131223809Y-93351428D01*
X131223809Y-93113333D01*
X131176190Y-92922857D01*
X131128571Y-92827619D01*
X131080952Y-92780000D01*
X130985714Y-92732380D01*
X133064285Y-83637380D02*
X133635714Y-83637380D01*
X133350000Y-83637380D02*
X133350000Y-82637380D01*
X133445238Y-82780238D01*
X133540476Y-82875476D01*
X133635714Y-82923095D01*
D11*
X132020000Y-80010000D02*
X132020000Y-81340000D01*
X132020000Y-81340000D02*
X133350000Y-81340000D01*
X132020000Y-78740000D02*
X134620000Y-78740000D01*
X134620000Y-78740000D02*
X134620000Y-81340000D01*
X134620000Y-81340000D02*
X147380000Y-81340000D01*
X147380000Y-76140000D02*
X147380000Y-81340000D01*
X132020000Y-76140000D02*
X147380000Y-76140000D01*
X132020000Y-76140000D02*
X132020000Y-78740000D01*
D10*
X130032380Y-78406666D02*
X130746666Y-78406666D01*
X130889523Y-78359047D01*
X130984761Y-78263809D01*
X131032380Y-78120952D01*
X131032380Y-78025714D01*
X131032380Y-78930476D02*
X131032380Y-79120952D01*
X130984761Y-79216190D01*
X130937142Y-79263809D01*
X130794285Y-79359047D01*
X130603809Y-79406666D01*
X130222857Y-79406666D01*
X130127619Y-79359047D01*
X130080000Y-79311428D01*
X130032380Y-79216190D01*
X130032380Y-79025714D01*
X130080000Y-78930476D01*
X130127619Y-78882857D01*
X130222857Y-78835238D01*
X130460952Y-78835238D01*
X130556190Y-78882857D01*
X130603809Y-78930476D01*
X130651428Y-79025714D01*
X130651428Y-79216190D01*
X130603809Y-79311428D01*
X130556190Y-79359047D01*
X130460952Y-79406666D01*
M02*
