M48
; DRILL file {KiCad 5.1.5-52549c5~84~ubuntu18.04.1} date Tue 17 Mar 2020 09:01:03 PM EDT
; FORMAT={-:-/ absolute / inch / decimal}
; #@! TF.CreationDate,2020-03-17T21:01:03-04:00
; #@! TF.GenerationSoftware,Kicad,Pcbnew,5.1.5-52549c5~84~ubuntu18.04.1
; #@! TF.FileFunction,Plated,1,2,PTH
FMAT,2
INCH
T1C0.0315
T2C0.0394
T3C0.0630
T4C0.0709
%
G90
G05
T1
X6.3039Y-3.3071
X4.7Y-3.3
X5.0Y-3.3
X5.0Y-5.575
X5.0Y-5.875
X5.8Y-5.575
X5.8Y-5.875
X5.8Y-4.575
X5.8Y-4.875
X6.05Y-4.55
X6.05Y-4.85
X6.0039Y-3.3071
X6.0Y-5.575
X6.0Y-5.875
X5.0Y-4.55
X5.0Y-4.85
T2
X4.6Y-4.3
X4.6984Y-4.3
X4.7969Y-4.3
X6.05Y-3.05
X6.1484Y-3.05
X6.2469Y-3.05
X5.4Y-4.3
X5.4984Y-4.3
X5.5969Y-4.3
X6.2Y-4.3
X6.2984Y-4.3
X6.3969Y-4.3
X4.75Y-3.05
X4.8484Y-3.05
X4.9469Y-3.05
X5.25Y-3.05
X5.25Y-3.15
X5.35Y-3.05
X5.35Y-3.15
X5.45Y-3.05
X5.45Y-3.15
X5.55Y-3.05
X5.55Y-3.15
X5.65Y-3.05
X5.65Y-3.15
X5.75Y-3.05
X5.75Y-3.15
T3
X4.7Y-4.5563
X4.7Y-4.8831
X4.7Y-5.0051
X6.3Y-4.5563
X6.3Y-4.8831
X6.3Y-5.0051
X5.5Y-5.5563
X5.5Y-5.8831
X5.5Y-6.0051
X4.7Y-5.5563
X4.7Y-5.8831
X4.7Y-6.0051
X5.5Y-4.5563
X5.5Y-4.8831
X5.5Y-5.0051
X6.3Y-5.5563
X6.3Y-5.8831
X6.3Y-6.0051
T4
X4.5094Y-4.0047
X4.8874Y-4.0047
X5.9594Y-2.7547
X6.3374Y-2.7547
X5.3094Y-4.0047
X5.6874Y-4.0047
X6.1094Y-4.0047
X6.4874Y-4.0047
X4.6594Y-2.7547
X5.0374Y-2.7547
T0
M30
