G04 #@! TF.GenerationSoftware,KiCad,Pcbnew,5.1.5-52549c5~84~ubuntu18.04.1*
G04 #@! TF.CreationDate,2020-03-17T21:00:59-04:00*
G04 #@! TF.ProjectId,OBG-SVF-panelpcb,4f42472d-5356-4462-9d70-616e656c7063,rev?*
G04 #@! TF.SameCoordinates,Original*
G04 #@! TF.FileFunction,Legend,Top*
G04 #@! TF.FilePolarity,Positive*
%FSLAX46Y46*%
G04 Gerber Fmt 4.6, Leading zero omitted, Abs format (unit mm)*
G04 Created by KiCad (PCBNEW 5.1.5-52549c5~84~ubuntu18.04.1) date 2020-03-17 21:00:59*
%MOMM*%
%LPD*%
G04 APERTURE LIST*
%ADD10C,0.120000*%
%ADD11C,0.150000*%
G04 APERTURE END LIST*
D10*
X159580000Y-85370000D02*
X159580000Y-85040000D01*
X153040000Y-85370000D02*
X159580000Y-85370000D01*
X153040000Y-85040000D02*
X153040000Y-85370000D01*
X159580000Y-82630000D02*
X159580000Y-82960000D01*
X153040000Y-82630000D02*
X159580000Y-82630000D01*
X153040000Y-82960000D02*
X153040000Y-82630000D01*
D11*
X135200000Y-114450000D02*
X144200000Y-114450000D01*
X135200000Y-125350000D02*
X144200000Y-125350000D01*
X135200000Y-114450000D02*
X135200000Y-125350000D01*
X144200000Y-114450000D02*
X144200000Y-125350000D01*
X141500000Y-120650000D02*
G75*
G03X141500000Y-120650000I-1800000J0D01*
G01*
X139700000Y-118850000D02*
X139700000Y-122450000D01*
X137900000Y-120650000D02*
X141500000Y-120650000D01*
X114880000Y-114450000D02*
X123880000Y-114450000D01*
X114880000Y-125350000D02*
X123880000Y-125350000D01*
X114880000Y-114450000D02*
X114880000Y-125350000D01*
X123880000Y-114450000D02*
X123880000Y-125350000D01*
X121180000Y-120650000D02*
G75*
G03X121180000Y-120650000I-1800000J0D01*
G01*
X119380000Y-118850000D02*
X119380000Y-122450000D01*
X117580000Y-120650000D02*
X121180000Y-120650000D01*
D10*
X161640000Y-108340000D02*
X160810000Y-108340000D01*
X159190000Y-108340000D02*
X158660000Y-108340000D01*
X156290000Y-108340000D02*
X155110000Y-108340000D01*
X164850000Y-108340000D02*
X164850000Y-103620000D01*
X155110000Y-99810000D02*
X155110000Y-96750000D01*
X155100000Y-108340000D02*
X155100000Y-103620000D01*
X164850000Y-99810000D02*
X164850000Y-96750000D01*
X164850000Y-108340000D02*
X163360000Y-108340000D01*
X164850000Y-96750000D02*
X155110000Y-96750000D01*
X141320000Y-108340000D02*
X140490000Y-108340000D01*
X138870000Y-108340000D02*
X138340000Y-108340000D01*
X135970000Y-108340000D02*
X134790000Y-108340000D01*
X144530000Y-108340000D02*
X144530000Y-103620000D01*
X134790000Y-99810000D02*
X134790000Y-96750000D01*
X134780000Y-108340000D02*
X134780000Y-103620000D01*
X144530000Y-99810000D02*
X144530000Y-96750000D01*
X144530000Y-108340000D02*
X143040000Y-108340000D01*
X144530000Y-96750000D02*
X134790000Y-96750000D01*
X121000000Y-108340000D02*
X120170000Y-108340000D01*
X118550000Y-108340000D02*
X118020000Y-108340000D01*
X115650000Y-108340000D02*
X114470000Y-108340000D01*
X124210000Y-108340000D02*
X124210000Y-103620000D01*
X114470000Y-99810000D02*
X114470000Y-96750000D01*
X114460000Y-108340000D02*
X114460000Y-103620000D01*
X124210000Y-99810000D02*
X124210000Y-96750000D01*
X124210000Y-108340000D02*
X122720000Y-108340000D01*
X124210000Y-96750000D02*
X114470000Y-96750000D01*
X148690000Y-116745000D02*
X148360000Y-116745000D01*
X148690000Y-123285000D02*
X148690000Y-116745000D01*
X148360000Y-123285000D02*
X148690000Y-123285000D01*
X145950000Y-116745000D02*
X146280000Y-116745000D01*
X145950000Y-123285000D02*
X145950000Y-116745000D01*
X146280000Y-123285000D02*
X145950000Y-123285000D01*
X157830000Y-76590000D02*
X157000000Y-76590000D01*
X155380000Y-76590000D02*
X154850000Y-76590000D01*
X152480000Y-76590000D02*
X151300000Y-76590000D01*
X161040000Y-76590000D02*
X161040000Y-71870000D01*
X151300000Y-68060000D02*
X151300000Y-65000000D01*
X151290000Y-76590000D02*
X151290000Y-71870000D01*
X161040000Y-68060000D02*
X161040000Y-65000000D01*
X161040000Y-76590000D02*
X159550000Y-76590000D01*
X161040000Y-65000000D02*
X151300000Y-65000000D01*
X124810000Y-76590000D02*
X123980000Y-76590000D01*
X122360000Y-76590000D02*
X121830000Y-76590000D01*
X119460000Y-76590000D02*
X118280000Y-76590000D01*
X128020000Y-76590000D02*
X128020000Y-71870000D01*
X118280000Y-68060000D02*
X118280000Y-65000000D01*
X118270000Y-76590000D02*
X118270000Y-71870000D01*
X128020000Y-68060000D02*
X128020000Y-65000000D01*
X128020000Y-76590000D02*
X126530000Y-76590000D01*
X128020000Y-65000000D02*
X118280000Y-65000000D01*
D11*
X114880000Y-139850000D02*
X123880000Y-139850000D01*
X114880000Y-150750000D02*
X123880000Y-150750000D01*
X114880000Y-139850000D02*
X114880000Y-150750000D01*
X123880000Y-139850000D02*
X123880000Y-150750000D01*
X121180000Y-146050000D02*
G75*
G03X121180000Y-146050000I-1800000J0D01*
G01*
X119380000Y-144250000D02*
X119380000Y-147850000D01*
X117580000Y-146050000D02*
X121180000Y-146050000D01*
X155520000Y-114450000D02*
X164520000Y-114450000D01*
X155520000Y-125350000D02*
X164520000Y-125350000D01*
X155520000Y-114450000D02*
X155520000Y-125350000D01*
X164520000Y-114450000D02*
X164520000Y-125350000D01*
X161820000Y-120650000D02*
G75*
G03X161820000Y-120650000I-1800000J0D01*
G01*
X160020000Y-118850000D02*
X160020000Y-122450000D01*
X158220000Y-120650000D02*
X161820000Y-120650000D01*
X135200000Y-139850000D02*
X144200000Y-139850000D01*
X135200000Y-150750000D02*
X144200000Y-150750000D01*
X135200000Y-139850000D02*
X135200000Y-150750000D01*
X144200000Y-139850000D02*
X144200000Y-150750000D01*
X141500000Y-146050000D02*
G75*
G03X141500000Y-146050000I-1800000J0D01*
G01*
X139700000Y-144250000D02*
X139700000Y-147850000D01*
X137900000Y-146050000D02*
X141500000Y-146050000D01*
X155520000Y-139850000D02*
X164520000Y-139850000D01*
X155520000Y-150750000D02*
X164520000Y-150750000D01*
X155520000Y-139850000D02*
X155520000Y-150750000D01*
X164520000Y-139850000D02*
X164520000Y-150750000D01*
X161820000Y-146050000D02*
G75*
G03X161820000Y-146050000I-1800000J0D01*
G01*
X160020000Y-144250000D02*
X160020000Y-147850000D01*
X158220000Y-146050000D02*
X161820000Y-146050000D01*
D10*
X128370000Y-142145000D02*
X128040000Y-142145000D01*
X128370000Y-148685000D02*
X128370000Y-142145000D01*
X128040000Y-148685000D02*
X128370000Y-148685000D01*
X125630000Y-142145000D02*
X125960000Y-142145000D01*
X125630000Y-148685000D02*
X125630000Y-142145000D01*
X125960000Y-148685000D02*
X125630000Y-148685000D01*
X148690000Y-142145000D02*
X148360000Y-142145000D01*
X148690000Y-148685000D02*
X148690000Y-142145000D01*
X148360000Y-148685000D02*
X148690000Y-148685000D01*
X145950000Y-142145000D02*
X146280000Y-142145000D01*
X145950000Y-148685000D02*
X145950000Y-142145000D01*
X146280000Y-148685000D02*
X145950000Y-148685000D01*
X151030000Y-148685000D02*
X151360000Y-148685000D01*
X151030000Y-142145000D02*
X151030000Y-148685000D01*
X151360000Y-142145000D02*
X151030000Y-142145000D01*
X153770000Y-148685000D02*
X153440000Y-148685000D01*
X153770000Y-142145000D02*
X153770000Y-148685000D01*
X153440000Y-142145000D02*
X153770000Y-142145000D01*
X125630000Y-122650000D02*
X125960000Y-122650000D01*
X125630000Y-116110000D02*
X125630000Y-122650000D01*
X125960000Y-116110000D02*
X125630000Y-116110000D01*
X128370000Y-122650000D02*
X128040000Y-122650000D01*
X128370000Y-116110000D02*
X128370000Y-122650000D01*
X128040000Y-116110000D02*
X128370000Y-116110000D01*
X152300000Y-122650000D02*
X152630000Y-122650000D01*
X152300000Y-116110000D02*
X152300000Y-122650000D01*
X152630000Y-116110000D02*
X152300000Y-116110000D01*
X155040000Y-122650000D02*
X154710000Y-122650000D01*
X155040000Y-116110000D02*
X155040000Y-122650000D01*
X154710000Y-116110000D02*
X155040000Y-116110000D01*
X119920000Y-82450000D02*
X119920000Y-82780000D01*
X126460000Y-82450000D02*
X119920000Y-82450000D01*
X126460000Y-82780000D02*
X126460000Y-82450000D01*
X119920000Y-85190000D02*
X119920000Y-84860000D01*
X126460000Y-85190000D02*
X119920000Y-85190000D01*
X126460000Y-84860000D02*
X126460000Y-85190000D01*
D11*
X138366666Y-129602380D02*
X138033333Y-129126190D01*
X137795238Y-129602380D02*
X137795238Y-128602380D01*
X138176190Y-128602380D01*
X138271428Y-128650000D01*
X138319047Y-128697619D01*
X138366666Y-128792857D01*
X138366666Y-128935714D01*
X138319047Y-129030952D01*
X138271428Y-129078571D01*
X138176190Y-129126190D01*
X137795238Y-129126190D01*
X138795238Y-129078571D02*
X139128571Y-129078571D01*
X139271428Y-129602380D02*
X138795238Y-129602380D01*
X138795238Y-128602380D01*
X139271428Y-128602380D01*
X140033333Y-129078571D02*
X139700000Y-129078571D01*
X139700000Y-129602380D02*
X139700000Y-128602380D01*
X140176190Y-128602380D01*
X140700000Y-128602380D02*
X140700000Y-128840476D01*
X140461904Y-128745238D02*
X140700000Y-128840476D01*
X140938095Y-128745238D01*
X140557142Y-129030952D02*
X140700000Y-128840476D01*
X140842857Y-129030952D01*
X141461904Y-128602380D02*
X141461904Y-128840476D01*
X141223809Y-128745238D02*
X141461904Y-128840476D01*
X141700000Y-128745238D01*
X141319047Y-129030952D02*
X141461904Y-128840476D01*
X141604761Y-129030952D01*
X138366666Y-67372380D02*
X138033333Y-66896190D01*
X137795238Y-67372380D02*
X137795238Y-66372380D01*
X138176190Y-66372380D01*
X138271428Y-66420000D01*
X138319047Y-66467619D01*
X138366666Y-66562857D01*
X138366666Y-66705714D01*
X138319047Y-66800952D01*
X138271428Y-66848571D01*
X138176190Y-66896190D01*
X137795238Y-66896190D01*
X138795238Y-66848571D02*
X139128571Y-66848571D01*
X139271428Y-67372380D02*
X138795238Y-67372380D01*
X138795238Y-66372380D01*
X139271428Y-66372380D01*
X140033333Y-66848571D02*
X139700000Y-66848571D01*
X139700000Y-67372380D02*
X139700000Y-66372380D01*
X140176190Y-66372380D01*
X140700000Y-66372380D02*
X140700000Y-66610476D01*
X140461904Y-66515238D02*
X140700000Y-66610476D01*
X140938095Y-66515238D01*
X140557142Y-66800952D02*
X140700000Y-66610476D01*
X140842857Y-66800952D01*
X141461904Y-66372380D02*
X141461904Y-66610476D01*
X141223809Y-66515238D02*
X141461904Y-66610476D01*
X141700000Y-66515238D01*
X141319047Y-66800952D02*
X141461904Y-66610476D01*
X141604761Y-66800952D01*
X156143333Y-86992380D02*
X155810000Y-86516190D01*
X155571904Y-86992380D02*
X155571904Y-85992380D01*
X155952857Y-85992380D01*
X156048095Y-86040000D01*
X156095714Y-86087619D01*
X156143333Y-86182857D01*
X156143333Y-86325714D01*
X156095714Y-86420952D01*
X156048095Y-86468571D01*
X155952857Y-86516190D01*
X155571904Y-86516190D01*
X156714761Y-86420952D02*
X156619523Y-86373333D01*
X156571904Y-86325714D01*
X156524285Y-86230476D01*
X156524285Y-86182857D01*
X156571904Y-86087619D01*
X156619523Y-86040000D01*
X156714761Y-85992380D01*
X156905238Y-85992380D01*
X157000476Y-86040000D01*
X157048095Y-86087619D01*
X157095714Y-86182857D01*
X157095714Y-86230476D01*
X157048095Y-86325714D01*
X157000476Y-86373333D01*
X156905238Y-86420952D01*
X156714761Y-86420952D01*
X156619523Y-86468571D01*
X156571904Y-86516190D01*
X156524285Y-86611428D01*
X156524285Y-86801904D01*
X156571904Y-86897142D01*
X156619523Y-86944761D01*
X156714761Y-86992380D01*
X156905238Y-86992380D01*
X157000476Y-86944761D01*
X157048095Y-86897142D01*
X157095714Y-86801904D01*
X157095714Y-86611428D01*
X157048095Y-86516190D01*
X157000476Y-86468571D01*
X156905238Y-86420952D01*
X143430666Y-125690380D02*
X143430666Y-126404666D01*
X143383047Y-126547523D01*
X143287809Y-126642761D01*
X143144952Y-126690380D01*
X143049714Y-126690380D01*
X143811619Y-125690380D02*
X144430666Y-125690380D01*
X144097333Y-126071333D01*
X144240190Y-126071333D01*
X144335428Y-126118952D01*
X144383047Y-126166571D01*
X144430666Y-126261809D01*
X144430666Y-126499904D01*
X144383047Y-126595142D01*
X144335428Y-126642761D01*
X144240190Y-126690380D01*
X143954476Y-126690380D01*
X143859238Y-126642761D01*
X143811619Y-126595142D01*
X123110666Y-125690380D02*
X123110666Y-126404666D01*
X123063047Y-126547523D01*
X122967809Y-126642761D01*
X122824952Y-126690380D01*
X122729714Y-126690380D01*
X124110666Y-126690380D02*
X123539238Y-126690380D01*
X123824952Y-126690380D02*
X123824952Y-125690380D01*
X123729714Y-125833238D01*
X123634476Y-125928476D01*
X123539238Y-125976095D01*
X154122380Y-98432857D02*
X153646190Y-98766190D01*
X154122380Y-99004285D02*
X153122380Y-99004285D01*
X153122380Y-98623333D01*
X153170000Y-98528095D01*
X153217619Y-98480476D01*
X153312857Y-98432857D01*
X153455714Y-98432857D01*
X153550952Y-98480476D01*
X153598571Y-98528095D01*
X153646190Y-98623333D01*
X153646190Y-99004285D01*
X153122380Y-98099523D02*
X153122380Y-97480476D01*
X153503333Y-97813809D01*
X153503333Y-97670952D01*
X153550952Y-97575714D01*
X153598571Y-97528095D01*
X153693809Y-97480476D01*
X153931904Y-97480476D01*
X154027142Y-97528095D01*
X154074761Y-97575714D01*
X154122380Y-97670952D01*
X154122380Y-97956666D01*
X154074761Y-98051904D01*
X154027142Y-98099523D01*
X153122380Y-97147142D02*
X153122380Y-96528095D01*
X153503333Y-96861428D01*
X153503333Y-96718571D01*
X153550952Y-96623333D01*
X153598571Y-96575714D01*
X153693809Y-96528095D01*
X153931904Y-96528095D01*
X154027142Y-96575714D01*
X154074761Y-96623333D01*
X154122380Y-96718571D01*
X154122380Y-97004285D01*
X154074761Y-97099523D01*
X154027142Y-97147142D01*
X146502380Y-98432857D02*
X146026190Y-98766190D01*
X146502380Y-99004285D02*
X145502380Y-99004285D01*
X145502380Y-98623333D01*
X145550000Y-98528095D01*
X145597619Y-98480476D01*
X145692857Y-98432857D01*
X145835714Y-98432857D01*
X145930952Y-98480476D01*
X145978571Y-98528095D01*
X146026190Y-98623333D01*
X146026190Y-99004285D01*
X145502380Y-98099523D02*
X145502380Y-97480476D01*
X145883333Y-97813809D01*
X145883333Y-97670952D01*
X145930952Y-97575714D01*
X145978571Y-97528095D01*
X146073809Y-97480476D01*
X146311904Y-97480476D01*
X146407142Y-97528095D01*
X146454761Y-97575714D01*
X146502380Y-97670952D01*
X146502380Y-97956666D01*
X146454761Y-98051904D01*
X146407142Y-98099523D01*
X145597619Y-97099523D02*
X145550000Y-97051904D01*
X145502380Y-96956666D01*
X145502380Y-96718571D01*
X145550000Y-96623333D01*
X145597619Y-96575714D01*
X145692857Y-96528095D01*
X145788095Y-96528095D01*
X145930952Y-96575714D01*
X146502380Y-97147142D01*
X146502380Y-96528095D01*
X114117380Y-98432857D02*
X113641190Y-98766190D01*
X114117380Y-99004285D02*
X113117380Y-99004285D01*
X113117380Y-98623333D01*
X113165000Y-98528095D01*
X113212619Y-98480476D01*
X113307857Y-98432857D01*
X113450714Y-98432857D01*
X113545952Y-98480476D01*
X113593571Y-98528095D01*
X113641190Y-98623333D01*
X113641190Y-99004285D01*
X113117380Y-98099523D02*
X113117380Y-97480476D01*
X113498333Y-97813809D01*
X113498333Y-97670952D01*
X113545952Y-97575714D01*
X113593571Y-97528095D01*
X113688809Y-97480476D01*
X113926904Y-97480476D01*
X114022142Y-97528095D01*
X114069761Y-97575714D01*
X114117380Y-97670952D01*
X114117380Y-97956666D01*
X114069761Y-98051904D01*
X114022142Y-98099523D01*
X114117380Y-96528095D02*
X114117380Y-97099523D01*
X114117380Y-96813809D02*
X113117380Y-96813809D01*
X113260238Y-96909047D01*
X113355476Y-97004285D01*
X113403095Y-97099523D01*
X145402380Y-120657857D02*
X144926190Y-120991190D01*
X145402380Y-121229285D02*
X144402380Y-121229285D01*
X144402380Y-120848333D01*
X144450000Y-120753095D01*
X144497619Y-120705476D01*
X144592857Y-120657857D01*
X144735714Y-120657857D01*
X144830952Y-120705476D01*
X144878571Y-120753095D01*
X144926190Y-120848333D01*
X144926190Y-121229285D01*
X144497619Y-120276904D02*
X144450000Y-120229285D01*
X144402380Y-120134047D01*
X144402380Y-119895952D01*
X144450000Y-119800714D01*
X144497619Y-119753095D01*
X144592857Y-119705476D01*
X144688095Y-119705476D01*
X144830952Y-119753095D01*
X145402380Y-120324523D01*
X145402380Y-119705476D01*
X145402380Y-119229285D02*
X145402380Y-119038809D01*
X145354761Y-118943571D01*
X145307142Y-118895952D01*
X145164285Y-118800714D01*
X144973809Y-118753095D01*
X144592857Y-118753095D01*
X144497619Y-118800714D01*
X144450000Y-118848333D01*
X144402380Y-118943571D01*
X144402380Y-119134047D01*
X144450000Y-119229285D01*
X144497619Y-119276904D01*
X144592857Y-119324523D01*
X144830952Y-119324523D01*
X144926190Y-119276904D01*
X144973809Y-119229285D01*
X145021428Y-119134047D01*
X145021428Y-118943571D01*
X144973809Y-118848333D01*
X144926190Y-118800714D01*
X144830952Y-118753095D01*
X149042380Y-71186666D02*
X148566190Y-71520000D01*
X149042380Y-71758095D02*
X148042380Y-71758095D01*
X148042380Y-71377142D01*
X148090000Y-71281904D01*
X148137619Y-71234285D01*
X148232857Y-71186666D01*
X148375714Y-71186666D01*
X148470952Y-71234285D01*
X148518571Y-71281904D01*
X148566190Y-71377142D01*
X148566190Y-71758095D01*
X148042380Y-70281904D02*
X148042380Y-70758095D01*
X148518571Y-70805714D01*
X148470952Y-70758095D01*
X148423333Y-70662857D01*
X148423333Y-70424761D01*
X148470952Y-70329523D01*
X148518571Y-70281904D01*
X148613809Y-70234285D01*
X148851904Y-70234285D01*
X148947142Y-70281904D01*
X148994761Y-70329523D01*
X149042380Y-70424761D01*
X149042380Y-70662857D01*
X148994761Y-70758095D01*
X148947142Y-70805714D01*
X116022380Y-71186666D02*
X115546190Y-71520000D01*
X116022380Y-71758095D02*
X115022380Y-71758095D01*
X115022380Y-71377142D01*
X115070000Y-71281904D01*
X115117619Y-71234285D01*
X115212857Y-71186666D01*
X115355714Y-71186666D01*
X115450952Y-71234285D01*
X115498571Y-71281904D01*
X115546190Y-71377142D01*
X115546190Y-71758095D01*
X116022380Y-70234285D02*
X116022380Y-70805714D01*
X116022380Y-70520000D02*
X115022380Y-70520000D01*
X115165238Y-70615238D01*
X115260476Y-70710476D01*
X115308095Y-70805714D01*
X123110666Y-151090380D02*
X123110666Y-151804666D01*
X123063047Y-151947523D01*
X122967809Y-152042761D01*
X122824952Y-152090380D01*
X122729714Y-152090380D01*
X124015428Y-151090380D02*
X123824952Y-151090380D01*
X123729714Y-151138000D01*
X123682095Y-151185619D01*
X123586857Y-151328476D01*
X123539238Y-151518952D01*
X123539238Y-151899904D01*
X123586857Y-151995142D01*
X123634476Y-152042761D01*
X123729714Y-152090380D01*
X123920190Y-152090380D01*
X124015428Y-152042761D01*
X124063047Y-151995142D01*
X124110666Y-151899904D01*
X124110666Y-151661809D01*
X124063047Y-151566571D01*
X124015428Y-151518952D01*
X123920190Y-151471333D01*
X123729714Y-151471333D01*
X123634476Y-151518952D01*
X123586857Y-151566571D01*
X123539238Y-151661809D01*
X163750666Y-125690380D02*
X163750666Y-126404666D01*
X163703047Y-126547523D01*
X163607809Y-126642761D01*
X163464952Y-126690380D01*
X163369714Y-126690380D01*
X164703047Y-125690380D02*
X164226857Y-125690380D01*
X164179238Y-126166571D01*
X164226857Y-126118952D01*
X164322095Y-126071333D01*
X164560190Y-126071333D01*
X164655428Y-126118952D01*
X164703047Y-126166571D01*
X164750666Y-126261809D01*
X164750666Y-126499904D01*
X164703047Y-126595142D01*
X164655428Y-126642761D01*
X164560190Y-126690380D01*
X164322095Y-126690380D01*
X164226857Y-126642761D01*
X164179238Y-126595142D01*
X142541666Y-152487380D02*
X142541666Y-153201666D01*
X142494047Y-153344523D01*
X142398809Y-153439761D01*
X142255952Y-153487380D01*
X142160714Y-153487380D01*
X143446428Y-152820714D02*
X143446428Y-153487380D01*
X143208333Y-152439761D02*
X142970238Y-153154047D01*
X143589285Y-153154047D01*
X163750666Y-151090380D02*
X163750666Y-151804666D01*
X163703047Y-151947523D01*
X163607809Y-152042761D01*
X163464952Y-152090380D01*
X163369714Y-152090380D01*
X164179238Y-151185619D02*
X164226857Y-151138000D01*
X164322095Y-151090380D01*
X164560190Y-151090380D01*
X164655428Y-151138000D01*
X164703047Y-151185619D01*
X164750666Y-151280857D01*
X164750666Y-151376095D01*
X164703047Y-151518952D01*
X164131619Y-152090380D01*
X164750666Y-152090380D01*
X125082380Y-146057857D02*
X124606190Y-146391190D01*
X125082380Y-146629285D02*
X124082380Y-146629285D01*
X124082380Y-146248333D01*
X124130000Y-146153095D01*
X124177619Y-146105476D01*
X124272857Y-146057857D01*
X124415714Y-146057857D01*
X124510952Y-146105476D01*
X124558571Y-146153095D01*
X124606190Y-146248333D01*
X124606190Y-146629285D01*
X124177619Y-145676904D02*
X124130000Y-145629285D01*
X124082380Y-145534047D01*
X124082380Y-145295952D01*
X124130000Y-145200714D01*
X124177619Y-145153095D01*
X124272857Y-145105476D01*
X124368095Y-145105476D01*
X124510952Y-145153095D01*
X125082380Y-145724523D01*
X125082380Y-145105476D01*
X124415714Y-144248333D02*
X125082380Y-144248333D01*
X124034761Y-144486428D02*
X124749047Y-144724523D01*
X124749047Y-144105476D01*
X145402380Y-146057857D02*
X144926190Y-146391190D01*
X145402380Y-146629285D02*
X144402380Y-146629285D01*
X144402380Y-146248333D01*
X144450000Y-146153095D01*
X144497619Y-146105476D01*
X144592857Y-146057857D01*
X144735714Y-146057857D01*
X144830952Y-146105476D01*
X144878571Y-146153095D01*
X144926190Y-146248333D01*
X144926190Y-146629285D01*
X144497619Y-145676904D02*
X144450000Y-145629285D01*
X144402380Y-145534047D01*
X144402380Y-145295952D01*
X144450000Y-145200714D01*
X144497619Y-145153095D01*
X144592857Y-145105476D01*
X144688095Y-145105476D01*
X144830952Y-145153095D01*
X145402380Y-145724523D01*
X145402380Y-145105476D01*
X144402380Y-144772142D02*
X144402380Y-144153095D01*
X144783333Y-144486428D01*
X144783333Y-144343571D01*
X144830952Y-144248333D01*
X144878571Y-144200714D01*
X144973809Y-144153095D01*
X145211904Y-144153095D01*
X145307142Y-144200714D01*
X145354761Y-144248333D01*
X145402380Y-144343571D01*
X145402380Y-144629285D01*
X145354761Y-144724523D01*
X145307142Y-144772142D01*
X154757380Y-153042857D02*
X154281190Y-153376190D01*
X154757380Y-153614285D02*
X153757380Y-153614285D01*
X153757380Y-153233333D01*
X153805000Y-153138095D01*
X153852619Y-153090476D01*
X153947857Y-153042857D01*
X154090714Y-153042857D01*
X154185952Y-153090476D01*
X154233571Y-153138095D01*
X154281190Y-153233333D01*
X154281190Y-153614285D01*
X154757380Y-152090476D02*
X154757380Y-152661904D01*
X154757380Y-152376190D02*
X153757380Y-152376190D01*
X153900238Y-152471428D01*
X153995476Y-152566666D01*
X154043095Y-152661904D01*
X153757380Y-151233333D02*
X153757380Y-151423809D01*
X153805000Y-151519047D01*
X153852619Y-151566666D01*
X153995476Y-151661904D01*
X154185952Y-151709523D01*
X154566904Y-151709523D01*
X154662142Y-151661904D01*
X154709761Y-151614285D01*
X154757380Y-151519047D01*
X154757380Y-151328571D01*
X154709761Y-151233333D01*
X154662142Y-151185714D01*
X154566904Y-151138095D01*
X154328809Y-151138095D01*
X154233571Y-151185714D01*
X154185952Y-151233333D01*
X154138333Y-151328571D01*
X154138333Y-151519047D01*
X154185952Y-151614285D01*
X154233571Y-151661904D01*
X154328809Y-151709523D01*
X125547380Y-117641666D02*
X125071190Y-117975000D01*
X125547380Y-118213095D02*
X124547380Y-118213095D01*
X124547380Y-117832142D01*
X124595000Y-117736904D01*
X124642619Y-117689285D01*
X124737857Y-117641666D01*
X124880714Y-117641666D01*
X124975952Y-117689285D01*
X125023571Y-117736904D01*
X125071190Y-117832142D01*
X125071190Y-118213095D01*
X125547380Y-117165476D02*
X125547380Y-116975000D01*
X125499761Y-116879761D01*
X125452142Y-116832142D01*
X125309285Y-116736904D01*
X125118809Y-116689285D01*
X124737857Y-116689285D01*
X124642619Y-116736904D01*
X124595000Y-116784523D01*
X124547380Y-116879761D01*
X124547380Y-117070238D01*
X124595000Y-117165476D01*
X124642619Y-117213095D01*
X124737857Y-117260714D01*
X124975952Y-117260714D01*
X125071190Y-117213095D01*
X125118809Y-117165476D01*
X125166428Y-117070238D01*
X125166428Y-116879761D01*
X125118809Y-116784523D01*
X125071190Y-116736904D01*
X124975952Y-116689285D01*
X156492380Y-119546666D02*
X156016190Y-119880000D01*
X156492380Y-120118095D02*
X155492380Y-120118095D01*
X155492380Y-119737142D01*
X155540000Y-119641904D01*
X155587619Y-119594285D01*
X155682857Y-119546666D01*
X155825714Y-119546666D01*
X155920952Y-119594285D01*
X155968571Y-119641904D01*
X156016190Y-119737142D01*
X156016190Y-120118095D01*
X155492380Y-118689523D02*
X155492380Y-118880000D01*
X155540000Y-118975238D01*
X155587619Y-119022857D01*
X155730476Y-119118095D01*
X155920952Y-119165714D01*
X156301904Y-119165714D01*
X156397142Y-119118095D01*
X156444761Y-119070476D01*
X156492380Y-118975238D01*
X156492380Y-118784761D01*
X156444761Y-118689523D01*
X156397142Y-118641904D01*
X156301904Y-118594285D01*
X156063809Y-118594285D01*
X155968571Y-118641904D01*
X155920952Y-118689523D01*
X155873333Y-118784761D01*
X155873333Y-118975238D01*
X155920952Y-119070476D01*
X155968571Y-119118095D01*
X156063809Y-119165714D01*
X123023333Y-86642380D02*
X122690000Y-86166190D01*
X122451904Y-86642380D02*
X122451904Y-85642380D01*
X122832857Y-85642380D01*
X122928095Y-85690000D01*
X122975714Y-85737619D01*
X123023333Y-85832857D01*
X123023333Y-85975714D01*
X122975714Y-86070952D01*
X122928095Y-86118571D01*
X122832857Y-86166190D01*
X122451904Y-86166190D01*
X123404285Y-85737619D02*
X123451904Y-85690000D01*
X123547142Y-85642380D01*
X123785238Y-85642380D01*
X123880476Y-85690000D01*
X123928095Y-85737619D01*
X123975714Y-85832857D01*
X123975714Y-85928095D01*
X123928095Y-86070952D01*
X123356666Y-86642380D01*
X123975714Y-86642380D01*
M02*
