G04 #@! TF.GenerationSoftware,KiCad,Pcbnew,5.1.5-52549c5~84~ubuntu18.04.1*
G04 #@! TF.CreationDate,2020-03-18T19:13:26-04:00*
G04 #@! TF.ProjectId,obg-SVF-panel,6f62672d-5356-4462-9d70-616e656c2e6b,rev?*
G04 #@! TF.SameCoordinates,Original*
G04 #@! TF.FileFunction,Copper,L1,Top*
G04 #@! TF.FilePolarity,Positive*
%FSLAX46Y46*%
G04 Gerber Fmt 4.6, Leading zero omitted, Abs format (unit mm)*
G04 Created by KiCad (PCBNEW 5.1.5-52549c5~84~ubuntu18.04.1) date 2020-03-18 19:13:26*
%MOMM*%
%LPD*%
G04 APERTURE LIST*
%ADD10C,0.254000*%
G04 APERTURE END LIST*
D10*
G36*
X239940001Y-167840000D02*
G01*
X180660000Y-167840000D01*
X180660000Y-165279872D01*
X185265000Y-165279872D01*
X185265000Y-165720128D01*
X185350890Y-166151925D01*
X185519369Y-166558669D01*
X185763962Y-166924729D01*
X186075271Y-167236038D01*
X186441331Y-167480631D01*
X186848075Y-167649110D01*
X187279872Y-167735000D01*
X187720128Y-167735000D01*
X188151925Y-167649110D01*
X188558669Y-167480631D01*
X188924729Y-167236038D01*
X189236038Y-166924729D01*
X189480631Y-166558669D01*
X189649110Y-166151925D01*
X189735000Y-165720128D01*
X189735000Y-165279872D01*
X230965000Y-165279872D01*
X230965000Y-165720128D01*
X231050890Y-166151925D01*
X231219369Y-166558669D01*
X231463962Y-166924729D01*
X231775271Y-167236038D01*
X232141331Y-167480631D01*
X232548075Y-167649110D01*
X232979872Y-167735000D01*
X233420128Y-167735000D01*
X233851925Y-167649110D01*
X234258669Y-167480631D01*
X234624729Y-167236038D01*
X234936038Y-166924729D01*
X235180631Y-166558669D01*
X235349110Y-166151925D01*
X235435000Y-165720128D01*
X235435000Y-165279872D01*
X235349110Y-164848075D01*
X235180631Y-164441331D01*
X234936038Y-164075271D01*
X234624729Y-163763962D01*
X234258669Y-163519369D01*
X233851925Y-163350890D01*
X233420128Y-163265000D01*
X232979872Y-163265000D01*
X232548075Y-163350890D01*
X232141331Y-163519369D01*
X231775271Y-163763962D01*
X231463962Y-164075271D01*
X231219369Y-164441331D01*
X231050890Y-164848075D01*
X230965000Y-165279872D01*
X189735000Y-165279872D01*
X189649110Y-164848075D01*
X189480631Y-164441331D01*
X189236038Y-164075271D01*
X188924729Y-163763962D01*
X188558669Y-163519369D01*
X188151925Y-163350890D01*
X187720128Y-163265000D01*
X187279872Y-163265000D01*
X186848075Y-163350890D01*
X186441331Y-163519369D01*
X186075271Y-163763962D01*
X185763962Y-164075271D01*
X185519369Y-164441331D01*
X185350890Y-164848075D01*
X185265000Y-165279872D01*
X180660000Y-165279872D01*
X180660000Y-148322285D01*
X186165000Y-148322285D01*
X186165000Y-149077715D01*
X186312377Y-149818628D01*
X186601467Y-150516554D01*
X187021161Y-151144670D01*
X187555330Y-151678839D01*
X188183446Y-152098533D01*
X188881372Y-152387623D01*
X189622285Y-152535000D01*
X190377715Y-152535000D01*
X191118628Y-152387623D01*
X191816554Y-152098533D01*
X192444670Y-151678839D01*
X192978839Y-151144670D01*
X193398533Y-150516554D01*
X193687623Y-149818628D01*
X193835000Y-149077715D01*
X193835000Y-148322285D01*
X206465000Y-148322285D01*
X206465000Y-149077715D01*
X206612377Y-149818628D01*
X206901467Y-150516554D01*
X207321161Y-151144670D01*
X207855330Y-151678839D01*
X208483446Y-152098533D01*
X209181372Y-152387623D01*
X209922285Y-152535000D01*
X210677715Y-152535000D01*
X211418628Y-152387623D01*
X212116554Y-152098533D01*
X212744670Y-151678839D01*
X213278839Y-151144670D01*
X213698533Y-150516554D01*
X213987623Y-149818628D01*
X214135000Y-149077715D01*
X214135000Y-148322285D01*
X226765000Y-148322285D01*
X226765000Y-149077715D01*
X226912377Y-149818628D01*
X227201467Y-150516554D01*
X227621161Y-151144670D01*
X228155330Y-151678839D01*
X228783446Y-152098533D01*
X229481372Y-152387623D01*
X230222285Y-152535000D01*
X230977715Y-152535000D01*
X231718628Y-152387623D01*
X232416554Y-152098533D01*
X233044670Y-151678839D01*
X233578839Y-151144670D01*
X233998533Y-150516554D01*
X234287623Y-149818628D01*
X234435000Y-149077715D01*
X234435000Y-148322285D01*
X234287623Y-147581372D01*
X233998533Y-146883446D01*
X233578839Y-146255330D01*
X233044670Y-145721161D01*
X232416554Y-145301467D01*
X231718628Y-145012377D01*
X230977715Y-144865000D01*
X230222285Y-144865000D01*
X229481372Y-145012377D01*
X228783446Y-145301467D01*
X228155330Y-145721161D01*
X227621161Y-146255330D01*
X227201467Y-146883446D01*
X226912377Y-147581372D01*
X226765000Y-148322285D01*
X214135000Y-148322285D01*
X213987623Y-147581372D01*
X213698533Y-146883446D01*
X213278839Y-146255330D01*
X212744670Y-145721161D01*
X212116554Y-145301467D01*
X211418628Y-145012377D01*
X210677715Y-144865000D01*
X209922285Y-144865000D01*
X209181372Y-145012377D01*
X208483446Y-145301467D01*
X207855330Y-145721161D01*
X207321161Y-146255330D01*
X206901467Y-146883446D01*
X206612377Y-147581372D01*
X206465000Y-148322285D01*
X193835000Y-148322285D01*
X193687623Y-147581372D01*
X193398533Y-146883446D01*
X192978839Y-146255330D01*
X192444670Y-145721161D01*
X191816554Y-145301467D01*
X191118628Y-145012377D01*
X190377715Y-144865000D01*
X189622285Y-144865000D01*
X188881372Y-145012377D01*
X188183446Y-145301467D01*
X187555330Y-145721161D01*
X187021161Y-146255330D01*
X186601467Y-146883446D01*
X186312377Y-147581372D01*
X186165000Y-148322285D01*
X180660000Y-148322285D01*
X180660000Y-122922285D01*
X186165000Y-122922285D01*
X186165000Y-123677715D01*
X186312377Y-124418628D01*
X186601467Y-125116554D01*
X187021161Y-125744670D01*
X187555330Y-126278839D01*
X188183446Y-126698533D01*
X188881372Y-126987623D01*
X189622285Y-127135000D01*
X190377715Y-127135000D01*
X191118628Y-126987623D01*
X191816554Y-126698533D01*
X192444670Y-126278839D01*
X192978839Y-125744670D01*
X193398533Y-125116554D01*
X193687623Y-124418628D01*
X193835000Y-123677715D01*
X193835000Y-122922285D01*
X206465000Y-122922285D01*
X206465000Y-123677715D01*
X206612377Y-124418628D01*
X206901467Y-125116554D01*
X207321161Y-125744670D01*
X207855330Y-126278839D01*
X208483446Y-126698533D01*
X209181372Y-126987623D01*
X209922285Y-127135000D01*
X210677715Y-127135000D01*
X211418628Y-126987623D01*
X212116554Y-126698533D01*
X212744670Y-126278839D01*
X213278839Y-125744670D01*
X213698533Y-125116554D01*
X213987623Y-124418628D01*
X214135000Y-123677715D01*
X214135000Y-122922285D01*
X226765000Y-122922285D01*
X226765000Y-123677715D01*
X226912377Y-124418628D01*
X227201467Y-125116554D01*
X227621161Y-125744670D01*
X228155330Y-126278839D01*
X228783446Y-126698533D01*
X229481372Y-126987623D01*
X230222285Y-127135000D01*
X230977715Y-127135000D01*
X231718628Y-126987623D01*
X232416554Y-126698533D01*
X233044670Y-126278839D01*
X233578839Y-125744670D01*
X233998533Y-125116554D01*
X234287623Y-124418628D01*
X234435000Y-123677715D01*
X234435000Y-122922285D01*
X234287623Y-122181372D01*
X233998533Y-121483446D01*
X233578839Y-120855330D01*
X233044670Y-120321161D01*
X232416554Y-119901467D01*
X231718628Y-119612377D01*
X230977715Y-119465000D01*
X230222285Y-119465000D01*
X229481372Y-119612377D01*
X228783446Y-119901467D01*
X228155330Y-120321161D01*
X227621161Y-120855330D01*
X227201467Y-121483446D01*
X226912377Y-122181372D01*
X226765000Y-122922285D01*
X214135000Y-122922285D01*
X213987623Y-122181372D01*
X213698533Y-121483446D01*
X213278839Y-120855330D01*
X212744670Y-120321161D01*
X212116554Y-119901467D01*
X211418628Y-119612377D01*
X210677715Y-119465000D01*
X209922285Y-119465000D01*
X209181372Y-119612377D01*
X208483446Y-119901467D01*
X207855330Y-120321161D01*
X207321161Y-120855330D01*
X206901467Y-121483446D01*
X206612377Y-122181372D01*
X206465000Y-122922285D01*
X193835000Y-122922285D01*
X193687623Y-122181372D01*
X193398533Y-121483446D01*
X192978839Y-120855330D01*
X192444670Y-120321161D01*
X191816554Y-119901467D01*
X191118628Y-119612377D01*
X190377715Y-119465000D01*
X189622285Y-119465000D01*
X188881372Y-119612377D01*
X188183446Y-119901467D01*
X187555330Y-120321161D01*
X187021161Y-120855330D01*
X186601467Y-121483446D01*
X186312377Y-122181372D01*
X186165000Y-122922285D01*
X180660000Y-122922285D01*
X180660000Y-103887814D01*
X185815000Y-103887814D01*
X185815000Y-104712186D01*
X185975828Y-105520719D01*
X186291301Y-106282341D01*
X186749299Y-106967782D01*
X187332218Y-107550701D01*
X188017659Y-108008699D01*
X188779281Y-108324172D01*
X189587814Y-108485000D01*
X190412186Y-108485000D01*
X191220719Y-108324172D01*
X191982341Y-108008699D01*
X192667782Y-107550701D01*
X193250701Y-106967782D01*
X193708699Y-106282341D01*
X194024172Y-105520719D01*
X194185000Y-104712186D01*
X194185000Y-103887814D01*
X206115000Y-103887814D01*
X206115000Y-104712186D01*
X206275828Y-105520719D01*
X206591301Y-106282341D01*
X207049299Y-106967782D01*
X207632218Y-107550701D01*
X208317659Y-108008699D01*
X209079281Y-108324172D01*
X209887814Y-108485000D01*
X210712186Y-108485000D01*
X211520719Y-108324172D01*
X212282341Y-108008699D01*
X212967782Y-107550701D01*
X213550701Y-106967782D01*
X214008699Y-106282341D01*
X214324172Y-105520719D01*
X214485000Y-104712186D01*
X214485000Y-103887814D01*
X226415000Y-103887814D01*
X226415000Y-104712186D01*
X226575828Y-105520719D01*
X226891301Y-106282341D01*
X227349299Y-106967782D01*
X227932218Y-107550701D01*
X228617659Y-108008699D01*
X229379281Y-108324172D01*
X230187814Y-108485000D01*
X231012186Y-108485000D01*
X231820719Y-108324172D01*
X232582341Y-108008699D01*
X233267782Y-107550701D01*
X233850701Y-106967782D01*
X234308699Y-106282341D01*
X234624172Y-105520719D01*
X234785000Y-104712186D01*
X234785000Y-103887814D01*
X234624172Y-103079281D01*
X234308699Y-102317659D01*
X233850701Y-101632218D01*
X233267782Y-101049299D01*
X232582341Y-100591301D01*
X231820719Y-100275828D01*
X231012186Y-100115000D01*
X230187814Y-100115000D01*
X229379281Y-100275828D01*
X228617659Y-100591301D01*
X227932218Y-101049299D01*
X227349299Y-101632218D01*
X226891301Y-102317659D01*
X226575828Y-103079281D01*
X226415000Y-103887814D01*
X214485000Y-103887814D01*
X214324172Y-103079281D01*
X214008699Y-102317659D01*
X213550701Y-101632218D01*
X212967782Y-101049299D01*
X212282341Y-100591301D01*
X211520719Y-100275828D01*
X210712186Y-100115000D01*
X209887814Y-100115000D01*
X209079281Y-100275828D01*
X208317659Y-100591301D01*
X207632218Y-101049299D01*
X207049299Y-101632218D01*
X206591301Y-102317659D01*
X206275828Y-103079281D01*
X206115000Y-103887814D01*
X194185000Y-103887814D01*
X194024172Y-103079281D01*
X193708699Y-102317659D01*
X193250701Y-101632218D01*
X192667782Y-101049299D01*
X191982341Y-100591301D01*
X191220719Y-100275828D01*
X190412186Y-100115000D01*
X189587814Y-100115000D01*
X188779281Y-100275828D01*
X188017659Y-100591301D01*
X187332218Y-101049299D01*
X186749299Y-101632218D01*
X186291301Y-102317659D01*
X185975828Y-103079281D01*
X185815000Y-103887814D01*
X180660000Y-103887814D01*
X180660000Y-72087814D01*
X189515000Y-72087814D01*
X189515000Y-72912186D01*
X189675828Y-73720719D01*
X189991301Y-74482341D01*
X190449299Y-75167782D01*
X191032218Y-75750701D01*
X191717659Y-76208699D01*
X192479281Y-76524172D01*
X193287814Y-76685000D01*
X194112186Y-76685000D01*
X194920719Y-76524172D01*
X195682341Y-76208699D01*
X196367782Y-75750701D01*
X196950701Y-75167782D01*
X197408699Y-74482341D01*
X197724172Y-73720719D01*
X197885000Y-72912186D01*
X197885000Y-72087814D01*
X222515000Y-72087814D01*
X222515000Y-72912186D01*
X222675828Y-73720719D01*
X222991301Y-74482341D01*
X223449299Y-75167782D01*
X224032218Y-75750701D01*
X224717659Y-76208699D01*
X225479281Y-76524172D01*
X226287814Y-76685000D01*
X227112186Y-76685000D01*
X227920719Y-76524172D01*
X228682341Y-76208699D01*
X229367782Y-75750701D01*
X229950701Y-75167782D01*
X230408699Y-74482341D01*
X230724172Y-73720719D01*
X230885000Y-72912186D01*
X230885000Y-72087814D01*
X230724172Y-71279281D01*
X230408699Y-70517659D01*
X229950701Y-69832218D01*
X229367782Y-69249299D01*
X228682341Y-68791301D01*
X227920719Y-68475828D01*
X227112186Y-68315000D01*
X226287814Y-68315000D01*
X225479281Y-68475828D01*
X224717659Y-68791301D01*
X224032218Y-69249299D01*
X223449299Y-69832218D01*
X222991301Y-70517659D01*
X222675828Y-71279281D01*
X222515000Y-72087814D01*
X197885000Y-72087814D01*
X197724172Y-71279281D01*
X197408699Y-70517659D01*
X196950701Y-69832218D01*
X196367782Y-69249299D01*
X195682341Y-68791301D01*
X194920719Y-68475828D01*
X194112186Y-68315000D01*
X193287814Y-68315000D01*
X192479281Y-68475828D01*
X191717659Y-68791301D01*
X191032218Y-69249299D01*
X190449299Y-69832218D01*
X189991301Y-70517659D01*
X189675828Y-71279281D01*
X189515000Y-72087814D01*
X180660000Y-72087814D01*
X180660000Y-42779872D01*
X185265000Y-42779872D01*
X185265000Y-43220128D01*
X185350890Y-43651925D01*
X185519369Y-44058669D01*
X185763962Y-44424729D01*
X186075271Y-44736038D01*
X186441331Y-44980631D01*
X186848075Y-45149110D01*
X187279872Y-45235000D01*
X187720128Y-45235000D01*
X188151925Y-45149110D01*
X188558669Y-44980631D01*
X188924729Y-44736038D01*
X189236038Y-44424729D01*
X189480631Y-44058669D01*
X189649110Y-43651925D01*
X189735000Y-43220128D01*
X189735000Y-42779872D01*
X230965000Y-42779872D01*
X230965000Y-43220128D01*
X231050890Y-43651925D01*
X231219369Y-44058669D01*
X231463962Y-44424729D01*
X231775271Y-44736038D01*
X232141331Y-44980631D01*
X232548075Y-45149110D01*
X232979872Y-45235000D01*
X233420128Y-45235000D01*
X233851925Y-45149110D01*
X234258669Y-44980631D01*
X234624729Y-44736038D01*
X234936038Y-44424729D01*
X235180631Y-44058669D01*
X235349110Y-43651925D01*
X235435000Y-43220128D01*
X235435000Y-42779872D01*
X235349110Y-42348075D01*
X235180631Y-41941331D01*
X234936038Y-41575271D01*
X234624729Y-41263962D01*
X234258669Y-41019369D01*
X233851925Y-40850890D01*
X233420128Y-40765000D01*
X232979872Y-40765000D01*
X232548075Y-40850890D01*
X232141331Y-41019369D01*
X231775271Y-41263962D01*
X231463962Y-41575271D01*
X231219369Y-41941331D01*
X231050890Y-42348075D01*
X230965000Y-42779872D01*
X189735000Y-42779872D01*
X189649110Y-42348075D01*
X189480631Y-41941331D01*
X189236038Y-41575271D01*
X188924729Y-41263962D01*
X188558669Y-41019369D01*
X188151925Y-40850890D01*
X187720128Y-40765000D01*
X187279872Y-40765000D01*
X186848075Y-40850890D01*
X186441331Y-41019369D01*
X186075271Y-41263962D01*
X185763962Y-41575271D01*
X185519369Y-41941331D01*
X185350890Y-42348075D01*
X185265000Y-42779872D01*
X180660000Y-42779872D01*
X180660000Y-40660000D01*
X239940000Y-40660000D01*
X239940001Y-167840000D01*
G37*
X239940001Y-167840000D02*
X180660000Y-167840000D01*
X180660000Y-165279872D01*
X185265000Y-165279872D01*
X185265000Y-165720128D01*
X185350890Y-166151925D01*
X185519369Y-166558669D01*
X185763962Y-166924729D01*
X186075271Y-167236038D01*
X186441331Y-167480631D01*
X186848075Y-167649110D01*
X187279872Y-167735000D01*
X187720128Y-167735000D01*
X188151925Y-167649110D01*
X188558669Y-167480631D01*
X188924729Y-167236038D01*
X189236038Y-166924729D01*
X189480631Y-166558669D01*
X189649110Y-166151925D01*
X189735000Y-165720128D01*
X189735000Y-165279872D01*
X230965000Y-165279872D01*
X230965000Y-165720128D01*
X231050890Y-166151925D01*
X231219369Y-166558669D01*
X231463962Y-166924729D01*
X231775271Y-167236038D01*
X232141331Y-167480631D01*
X232548075Y-167649110D01*
X232979872Y-167735000D01*
X233420128Y-167735000D01*
X233851925Y-167649110D01*
X234258669Y-167480631D01*
X234624729Y-167236038D01*
X234936038Y-166924729D01*
X235180631Y-166558669D01*
X235349110Y-166151925D01*
X235435000Y-165720128D01*
X235435000Y-165279872D01*
X235349110Y-164848075D01*
X235180631Y-164441331D01*
X234936038Y-164075271D01*
X234624729Y-163763962D01*
X234258669Y-163519369D01*
X233851925Y-163350890D01*
X233420128Y-163265000D01*
X232979872Y-163265000D01*
X232548075Y-163350890D01*
X232141331Y-163519369D01*
X231775271Y-163763962D01*
X231463962Y-164075271D01*
X231219369Y-164441331D01*
X231050890Y-164848075D01*
X230965000Y-165279872D01*
X189735000Y-165279872D01*
X189649110Y-164848075D01*
X189480631Y-164441331D01*
X189236038Y-164075271D01*
X188924729Y-163763962D01*
X188558669Y-163519369D01*
X188151925Y-163350890D01*
X187720128Y-163265000D01*
X187279872Y-163265000D01*
X186848075Y-163350890D01*
X186441331Y-163519369D01*
X186075271Y-163763962D01*
X185763962Y-164075271D01*
X185519369Y-164441331D01*
X185350890Y-164848075D01*
X185265000Y-165279872D01*
X180660000Y-165279872D01*
X180660000Y-148322285D01*
X186165000Y-148322285D01*
X186165000Y-149077715D01*
X186312377Y-149818628D01*
X186601467Y-150516554D01*
X187021161Y-151144670D01*
X187555330Y-151678839D01*
X188183446Y-152098533D01*
X188881372Y-152387623D01*
X189622285Y-152535000D01*
X190377715Y-152535000D01*
X191118628Y-152387623D01*
X191816554Y-152098533D01*
X192444670Y-151678839D01*
X192978839Y-151144670D01*
X193398533Y-150516554D01*
X193687623Y-149818628D01*
X193835000Y-149077715D01*
X193835000Y-148322285D01*
X206465000Y-148322285D01*
X206465000Y-149077715D01*
X206612377Y-149818628D01*
X206901467Y-150516554D01*
X207321161Y-151144670D01*
X207855330Y-151678839D01*
X208483446Y-152098533D01*
X209181372Y-152387623D01*
X209922285Y-152535000D01*
X210677715Y-152535000D01*
X211418628Y-152387623D01*
X212116554Y-152098533D01*
X212744670Y-151678839D01*
X213278839Y-151144670D01*
X213698533Y-150516554D01*
X213987623Y-149818628D01*
X214135000Y-149077715D01*
X214135000Y-148322285D01*
X226765000Y-148322285D01*
X226765000Y-149077715D01*
X226912377Y-149818628D01*
X227201467Y-150516554D01*
X227621161Y-151144670D01*
X228155330Y-151678839D01*
X228783446Y-152098533D01*
X229481372Y-152387623D01*
X230222285Y-152535000D01*
X230977715Y-152535000D01*
X231718628Y-152387623D01*
X232416554Y-152098533D01*
X233044670Y-151678839D01*
X233578839Y-151144670D01*
X233998533Y-150516554D01*
X234287623Y-149818628D01*
X234435000Y-149077715D01*
X234435000Y-148322285D01*
X234287623Y-147581372D01*
X233998533Y-146883446D01*
X233578839Y-146255330D01*
X233044670Y-145721161D01*
X232416554Y-145301467D01*
X231718628Y-145012377D01*
X230977715Y-144865000D01*
X230222285Y-144865000D01*
X229481372Y-145012377D01*
X228783446Y-145301467D01*
X228155330Y-145721161D01*
X227621161Y-146255330D01*
X227201467Y-146883446D01*
X226912377Y-147581372D01*
X226765000Y-148322285D01*
X214135000Y-148322285D01*
X213987623Y-147581372D01*
X213698533Y-146883446D01*
X213278839Y-146255330D01*
X212744670Y-145721161D01*
X212116554Y-145301467D01*
X211418628Y-145012377D01*
X210677715Y-144865000D01*
X209922285Y-144865000D01*
X209181372Y-145012377D01*
X208483446Y-145301467D01*
X207855330Y-145721161D01*
X207321161Y-146255330D01*
X206901467Y-146883446D01*
X206612377Y-147581372D01*
X206465000Y-148322285D01*
X193835000Y-148322285D01*
X193687623Y-147581372D01*
X193398533Y-146883446D01*
X192978839Y-146255330D01*
X192444670Y-145721161D01*
X191816554Y-145301467D01*
X191118628Y-145012377D01*
X190377715Y-144865000D01*
X189622285Y-144865000D01*
X188881372Y-145012377D01*
X188183446Y-145301467D01*
X187555330Y-145721161D01*
X187021161Y-146255330D01*
X186601467Y-146883446D01*
X186312377Y-147581372D01*
X186165000Y-148322285D01*
X180660000Y-148322285D01*
X180660000Y-122922285D01*
X186165000Y-122922285D01*
X186165000Y-123677715D01*
X186312377Y-124418628D01*
X186601467Y-125116554D01*
X187021161Y-125744670D01*
X187555330Y-126278839D01*
X188183446Y-126698533D01*
X188881372Y-126987623D01*
X189622285Y-127135000D01*
X190377715Y-127135000D01*
X191118628Y-126987623D01*
X191816554Y-126698533D01*
X192444670Y-126278839D01*
X192978839Y-125744670D01*
X193398533Y-125116554D01*
X193687623Y-124418628D01*
X193835000Y-123677715D01*
X193835000Y-122922285D01*
X206465000Y-122922285D01*
X206465000Y-123677715D01*
X206612377Y-124418628D01*
X206901467Y-125116554D01*
X207321161Y-125744670D01*
X207855330Y-126278839D01*
X208483446Y-126698533D01*
X209181372Y-126987623D01*
X209922285Y-127135000D01*
X210677715Y-127135000D01*
X211418628Y-126987623D01*
X212116554Y-126698533D01*
X212744670Y-126278839D01*
X213278839Y-125744670D01*
X213698533Y-125116554D01*
X213987623Y-124418628D01*
X214135000Y-123677715D01*
X214135000Y-122922285D01*
X226765000Y-122922285D01*
X226765000Y-123677715D01*
X226912377Y-124418628D01*
X227201467Y-125116554D01*
X227621161Y-125744670D01*
X228155330Y-126278839D01*
X228783446Y-126698533D01*
X229481372Y-126987623D01*
X230222285Y-127135000D01*
X230977715Y-127135000D01*
X231718628Y-126987623D01*
X232416554Y-126698533D01*
X233044670Y-126278839D01*
X233578839Y-125744670D01*
X233998533Y-125116554D01*
X234287623Y-124418628D01*
X234435000Y-123677715D01*
X234435000Y-122922285D01*
X234287623Y-122181372D01*
X233998533Y-121483446D01*
X233578839Y-120855330D01*
X233044670Y-120321161D01*
X232416554Y-119901467D01*
X231718628Y-119612377D01*
X230977715Y-119465000D01*
X230222285Y-119465000D01*
X229481372Y-119612377D01*
X228783446Y-119901467D01*
X228155330Y-120321161D01*
X227621161Y-120855330D01*
X227201467Y-121483446D01*
X226912377Y-122181372D01*
X226765000Y-122922285D01*
X214135000Y-122922285D01*
X213987623Y-122181372D01*
X213698533Y-121483446D01*
X213278839Y-120855330D01*
X212744670Y-120321161D01*
X212116554Y-119901467D01*
X211418628Y-119612377D01*
X210677715Y-119465000D01*
X209922285Y-119465000D01*
X209181372Y-119612377D01*
X208483446Y-119901467D01*
X207855330Y-120321161D01*
X207321161Y-120855330D01*
X206901467Y-121483446D01*
X206612377Y-122181372D01*
X206465000Y-122922285D01*
X193835000Y-122922285D01*
X193687623Y-122181372D01*
X193398533Y-121483446D01*
X192978839Y-120855330D01*
X192444670Y-120321161D01*
X191816554Y-119901467D01*
X191118628Y-119612377D01*
X190377715Y-119465000D01*
X189622285Y-119465000D01*
X188881372Y-119612377D01*
X188183446Y-119901467D01*
X187555330Y-120321161D01*
X187021161Y-120855330D01*
X186601467Y-121483446D01*
X186312377Y-122181372D01*
X186165000Y-122922285D01*
X180660000Y-122922285D01*
X180660000Y-103887814D01*
X185815000Y-103887814D01*
X185815000Y-104712186D01*
X185975828Y-105520719D01*
X186291301Y-106282341D01*
X186749299Y-106967782D01*
X187332218Y-107550701D01*
X188017659Y-108008699D01*
X188779281Y-108324172D01*
X189587814Y-108485000D01*
X190412186Y-108485000D01*
X191220719Y-108324172D01*
X191982341Y-108008699D01*
X192667782Y-107550701D01*
X193250701Y-106967782D01*
X193708699Y-106282341D01*
X194024172Y-105520719D01*
X194185000Y-104712186D01*
X194185000Y-103887814D01*
X206115000Y-103887814D01*
X206115000Y-104712186D01*
X206275828Y-105520719D01*
X206591301Y-106282341D01*
X207049299Y-106967782D01*
X207632218Y-107550701D01*
X208317659Y-108008699D01*
X209079281Y-108324172D01*
X209887814Y-108485000D01*
X210712186Y-108485000D01*
X211520719Y-108324172D01*
X212282341Y-108008699D01*
X212967782Y-107550701D01*
X213550701Y-106967782D01*
X214008699Y-106282341D01*
X214324172Y-105520719D01*
X214485000Y-104712186D01*
X214485000Y-103887814D01*
X226415000Y-103887814D01*
X226415000Y-104712186D01*
X226575828Y-105520719D01*
X226891301Y-106282341D01*
X227349299Y-106967782D01*
X227932218Y-107550701D01*
X228617659Y-108008699D01*
X229379281Y-108324172D01*
X230187814Y-108485000D01*
X231012186Y-108485000D01*
X231820719Y-108324172D01*
X232582341Y-108008699D01*
X233267782Y-107550701D01*
X233850701Y-106967782D01*
X234308699Y-106282341D01*
X234624172Y-105520719D01*
X234785000Y-104712186D01*
X234785000Y-103887814D01*
X234624172Y-103079281D01*
X234308699Y-102317659D01*
X233850701Y-101632218D01*
X233267782Y-101049299D01*
X232582341Y-100591301D01*
X231820719Y-100275828D01*
X231012186Y-100115000D01*
X230187814Y-100115000D01*
X229379281Y-100275828D01*
X228617659Y-100591301D01*
X227932218Y-101049299D01*
X227349299Y-101632218D01*
X226891301Y-102317659D01*
X226575828Y-103079281D01*
X226415000Y-103887814D01*
X214485000Y-103887814D01*
X214324172Y-103079281D01*
X214008699Y-102317659D01*
X213550701Y-101632218D01*
X212967782Y-101049299D01*
X212282341Y-100591301D01*
X211520719Y-100275828D01*
X210712186Y-100115000D01*
X209887814Y-100115000D01*
X209079281Y-100275828D01*
X208317659Y-100591301D01*
X207632218Y-101049299D01*
X207049299Y-101632218D01*
X206591301Y-102317659D01*
X206275828Y-103079281D01*
X206115000Y-103887814D01*
X194185000Y-103887814D01*
X194024172Y-103079281D01*
X193708699Y-102317659D01*
X193250701Y-101632218D01*
X192667782Y-101049299D01*
X191982341Y-100591301D01*
X191220719Y-100275828D01*
X190412186Y-100115000D01*
X189587814Y-100115000D01*
X188779281Y-100275828D01*
X188017659Y-100591301D01*
X187332218Y-101049299D01*
X186749299Y-101632218D01*
X186291301Y-102317659D01*
X185975828Y-103079281D01*
X185815000Y-103887814D01*
X180660000Y-103887814D01*
X180660000Y-72087814D01*
X189515000Y-72087814D01*
X189515000Y-72912186D01*
X189675828Y-73720719D01*
X189991301Y-74482341D01*
X190449299Y-75167782D01*
X191032218Y-75750701D01*
X191717659Y-76208699D01*
X192479281Y-76524172D01*
X193287814Y-76685000D01*
X194112186Y-76685000D01*
X194920719Y-76524172D01*
X195682341Y-76208699D01*
X196367782Y-75750701D01*
X196950701Y-75167782D01*
X197408699Y-74482341D01*
X197724172Y-73720719D01*
X197885000Y-72912186D01*
X197885000Y-72087814D01*
X222515000Y-72087814D01*
X222515000Y-72912186D01*
X222675828Y-73720719D01*
X222991301Y-74482341D01*
X223449299Y-75167782D01*
X224032218Y-75750701D01*
X224717659Y-76208699D01*
X225479281Y-76524172D01*
X226287814Y-76685000D01*
X227112186Y-76685000D01*
X227920719Y-76524172D01*
X228682341Y-76208699D01*
X229367782Y-75750701D01*
X229950701Y-75167782D01*
X230408699Y-74482341D01*
X230724172Y-73720719D01*
X230885000Y-72912186D01*
X230885000Y-72087814D01*
X230724172Y-71279281D01*
X230408699Y-70517659D01*
X229950701Y-69832218D01*
X229367782Y-69249299D01*
X228682341Y-68791301D01*
X227920719Y-68475828D01*
X227112186Y-68315000D01*
X226287814Y-68315000D01*
X225479281Y-68475828D01*
X224717659Y-68791301D01*
X224032218Y-69249299D01*
X223449299Y-69832218D01*
X222991301Y-70517659D01*
X222675828Y-71279281D01*
X222515000Y-72087814D01*
X197885000Y-72087814D01*
X197724172Y-71279281D01*
X197408699Y-70517659D01*
X196950701Y-69832218D01*
X196367782Y-69249299D01*
X195682341Y-68791301D01*
X194920719Y-68475828D01*
X194112186Y-68315000D01*
X193287814Y-68315000D01*
X192479281Y-68475828D01*
X191717659Y-68791301D01*
X191032218Y-69249299D01*
X190449299Y-69832218D01*
X189991301Y-70517659D01*
X189675828Y-71279281D01*
X189515000Y-72087814D01*
X180660000Y-72087814D01*
X180660000Y-42779872D01*
X185265000Y-42779872D01*
X185265000Y-43220128D01*
X185350890Y-43651925D01*
X185519369Y-44058669D01*
X185763962Y-44424729D01*
X186075271Y-44736038D01*
X186441331Y-44980631D01*
X186848075Y-45149110D01*
X187279872Y-45235000D01*
X187720128Y-45235000D01*
X188151925Y-45149110D01*
X188558669Y-44980631D01*
X188924729Y-44736038D01*
X189236038Y-44424729D01*
X189480631Y-44058669D01*
X189649110Y-43651925D01*
X189735000Y-43220128D01*
X189735000Y-42779872D01*
X230965000Y-42779872D01*
X230965000Y-43220128D01*
X231050890Y-43651925D01*
X231219369Y-44058669D01*
X231463962Y-44424729D01*
X231775271Y-44736038D01*
X232141331Y-44980631D01*
X232548075Y-45149110D01*
X232979872Y-45235000D01*
X233420128Y-45235000D01*
X233851925Y-45149110D01*
X234258669Y-44980631D01*
X234624729Y-44736038D01*
X234936038Y-44424729D01*
X235180631Y-44058669D01*
X235349110Y-43651925D01*
X235435000Y-43220128D01*
X235435000Y-42779872D01*
X235349110Y-42348075D01*
X235180631Y-41941331D01*
X234936038Y-41575271D01*
X234624729Y-41263962D01*
X234258669Y-41019369D01*
X233851925Y-40850890D01*
X233420128Y-40765000D01*
X232979872Y-40765000D01*
X232548075Y-40850890D01*
X232141331Y-41019369D01*
X231775271Y-41263962D01*
X231463962Y-41575271D01*
X231219369Y-41941331D01*
X231050890Y-42348075D01*
X230965000Y-42779872D01*
X189735000Y-42779872D01*
X189649110Y-42348075D01*
X189480631Y-41941331D01*
X189236038Y-41575271D01*
X188924729Y-41263962D01*
X188558669Y-41019369D01*
X188151925Y-40850890D01*
X187720128Y-40765000D01*
X187279872Y-40765000D01*
X186848075Y-40850890D01*
X186441331Y-41019369D01*
X186075271Y-41263962D01*
X185763962Y-41575271D01*
X185519369Y-41941331D01*
X185350890Y-42348075D01*
X185265000Y-42779872D01*
X180660000Y-42779872D01*
X180660000Y-40660000D01*
X239940000Y-40660000D01*
X239940001Y-167840000D01*
M02*
