G04 #@! TF.GenerationSoftware,KiCad,Pcbnew,5.1.5-52549c5~84~ubuntu18.04.1*
G04 #@! TF.CreationDate,2020-03-18T19:13:26-04:00*
G04 #@! TF.ProjectId,obg-SVF-panel,6f62672d-5356-4462-9d70-616e656c2e6b,rev?*
G04 #@! TF.SameCoordinates,Original*
G04 #@! TF.FileFunction,Legend,Bot*
G04 #@! TF.FilePolarity,Positive*
%FSLAX46Y46*%
G04 Gerber Fmt 4.6, Leading zero omitted, Abs format (unit mm)*
G04 Created by KiCad (PCBNEW 5.1.5-52549c5~84~ubuntu18.04.1) date 2020-03-18 19:13:26*
%MOMM*%
%LPD*%
G04 APERTURE LIST*
%ADD10C,0.150000*%
G04 APERTURE END LIST*
D10*
X211089047Y-163012380D02*
X211089047Y-163726666D01*
X211136666Y-163869523D01*
X211231904Y-163964761D01*
X211374761Y-164012380D01*
X211470000Y-164012380D01*
X210136666Y-164012380D02*
X210612857Y-164012380D01*
X210612857Y-163012380D01*
X209231904Y-163917142D02*
X209279523Y-163964761D01*
X209422380Y-164012380D01*
X209517619Y-164012380D01*
X209660476Y-163964761D01*
X209755714Y-163869523D01*
X209803333Y-163774285D01*
X209850952Y-163583809D01*
X209850952Y-163440952D01*
X209803333Y-163250476D01*
X209755714Y-163155238D01*
X209660476Y-163060000D01*
X209517619Y-163012380D01*
X209422380Y-163012380D01*
X209279523Y-163060000D01*
X209231904Y-163107619D01*
X208517619Y-163012380D02*
X208517619Y-163726666D01*
X208565238Y-163869523D01*
X208660476Y-163964761D01*
X208803333Y-164012380D01*
X208898571Y-164012380D01*
X207565238Y-164012380D02*
X208041428Y-164012380D01*
X208041428Y-163012380D01*
X206660476Y-163917142D02*
X206708095Y-163964761D01*
X206850952Y-164012380D01*
X206946190Y-164012380D01*
X207089047Y-163964761D01*
X207184285Y-163869523D01*
X207231904Y-163774285D01*
X207279523Y-163583809D01*
X207279523Y-163440952D01*
X207231904Y-163250476D01*
X207184285Y-163155238D01*
X207089047Y-163060000D01*
X206946190Y-163012380D01*
X206850952Y-163012380D01*
X206708095Y-163060000D01*
X206660476Y-163107619D01*
X205946190Y-163012380D02*
X205946190Y-163726666D01*
X205993809Y-163869523D01*
X206089047Y-163964761D01*
X206231904Y-164012380D01*
X206327142Y-164012380D01*
X204993809Y-164012380D02*
X205470000Y-164012380D01*
X205470000Y-163012380D01*
X204089047Y-163917142D02*
X204136666Y-163964761D01*
X204279523Y-164012380D01*
X204374761Y-164012380D01*
X204517619Y-163964761D01*
X204612857Y-163869523D01*
X204660476Y-163774285D01*
X204708095Y-163583809D01*
X204708095Y-163440952D01*
X204660476Y-163250476D01*
X204612857Y-163155238D01*
X204517619Y-163060000D01*
X204374761Y-163012380D01*
X204279523Y-163012380D01*
X204136666Y-163060000D01*
X204089047Y-163107619D01*
X203374761Y-163012380D02*
X203374761Y-163726666D01*
X203422380Y-163869523D01*
X203517619Y-163964761D01*
X203660476Y-164012380D01*
X203755714Y-164012380D01*
X202422380Y-164012380D02*
X202898571Y-164012380D01*
X202898571Y-163012380D01*
X201517619Y-163917142D02*
X201565238Y-163964761D01*
X201708095Y-164012380D01*
X201803333Y-164012380D01*
X201946190Y-163964761D01*
X202041428Y-163869523D01*
X202089047Y-163774285D01*
X202136666Y-163583809D01*
X202136666Y-163440952D01*
X202089047Y-163250476D01*
X202041428Y-163155238D01*
X201946190Y-163060000D01*
X201803333Y-163012380D01*
X201708095Y-163012380D01*
X201565238Y-163060000D01*
X201517619Y-163107619D01*
M02*
