G04 #@! TF.GenerationSoftware,KiCad,Pcbnew,5.1.5-52549c5~84~ubuntu18.04.1*
G04 #@! TF.CreationDate,2020-03-18T19:12:43-04:00*
G04 #@! TF.ProjectId,OBG-SVF-mainpcb,4f42472d-5356-4462-9d6d-61696e706362,rev?*
G04 #@! TF.SameCoordinates,Original*
G04 #@! TF.FileFunction,Soldermask,Bot*
G04 #@! TF.FilePolarity,Negative*
%FSLAX46Y46*%
G04 Gerber Fmt 4.6, Leading zero omitted, Abs format (unit mm)*
G04 Created by KiCad (PCBNEW 5.1.5-52549c5~84~ubuntu18.04.1) date 2020-03-18 19:12:43*
%MOMM*%
%LPD*%
G04 APERTURE LIST*
%ADD10C,3.200000*%
%ADD11O,1.727200X1.727200*%
%ADD12R,1.727200X1.727200*%
%ADD13O,1.600000X1.600000*%
%ADD14R,1.600000X1.600000*%
%ADD15C,1.440000*%
%ADD16C,1.600000*%
%ADD17R,2.200000X2.200000*%
%ADD18O,2.200000X2.200000*%
%ADD19R,1.500000X1.050000*%
%ADD20O,1.500000X1.050000*%
%ADD21R,1.700000X1.700000*%
%ADD22O,1.700000X1.700000*%
G04 APERTURE END LIST*
D10*
X142240000Y-104140000D03*
X142240000Y-41910000D03*
D11*
X124340000Y-48240000D03*
X121800000Y-48240000D03*
X124340000Y-50780000D03*
X121800000Y-50780000D03*
X124340000Y-53320000D03*
X121800000Y-53320000D03*
X124340000Y-55860000D03*
X121800000Y-55860000D03*
X124340000Y-58400000D03*
D12*
X121800000Y-58400000D03*
D13*
X146050000Y-57150000D03*
X138430000Y-74930000D03*
X146050000Y-59690000D03*
X138430000Y-72390000D03*
X146050000Y-62230000D03*
X138430000Y-69850000D03*
X146050000Y-64770000D03*
X138430000Y-67310000D03*
X146050000Y-67310000D03*
X138430000Y-64770000D03*
X146050000Y-69850000D03*
X138430000Y-62230000D03*
X146050000Y-72390000D03*
X138430000Y-59690000D03*
X146050000Y-74930000D03*
D14*
X138430000Y-57150000D03*
D15*
X130810000Y-99060000D03*
X128270000Y-99060000D03*
X125730000Y-99060000D03*
D13*
X128270000Y-105410000D03*
D16*
X120650000Y-105410000D03*
D13*
X132080000Y-91440000D03*
D16*
X124460000Y-91440000D03*
D13*
X132080000Y-94615000D03*
D16*
X124460000Y-94615000D03*
D13*
X132080000Y-73660000D03*
D16*
X124460000Y-73660000D03*
D17*
X131000000Y-60000000D03*
D18*
X131000000Y-49840000D03*
D16*
X132080000Y-43910000D03*
D14*
X132080000Y-41910000D03*
D19*
X152400000Y-40640000D03*
D20*
X152400000Y-43180000D03*
X152400000Y-41910000D03*
D19*
X158750000Y-40640000D03*
D20*
X158750000Y-43180000D03*
X158750000Y-41910000D03*
D13*
X152400000Y-102870000D03*
D16*
X160020000Y-102870000D03*
D13*
X160020000Y-99060000D03*
D16*
X152400000Y-99060000D03*
D13*
X160020000Y-80010000D03*
D16*
X152400000Y-80010000D03*
D13*
X160020000Y-95250000D03*
D16*
X152400000Y-95250000D03*
D13*
X132080000Y-77470000D03*
D16*
X124460000Y-77470000D03*
D13*
X124460000Y-66040000D03*
D16*
X132080000Y-66040000D03*
D13*
X132080000Y-69850000D03*
D16*
X124460000Y-69850000D03*
D13*
X125095000Y-88265000D03*
D16*
X125095000Y-80645000D03*
D21*
X135890000Y-50800000D03*
D22*
X135890000Y-48260000D03*
X138430000Y-50800000D03*
X138430000Y-48260000D03*
X140970000Y-50800000D03*
X140970000Y-48260000D03*
X143510000Y-50800000D03*
X143510000Y-48260000D03*
X146050000Y-50800000D03*
X146050000Y-48260000D03*
X148590000Y-50800000D03*
X148590000Y-48260000D03*
D13*
X138430000Y-95250000D03*
X146050000Y-80010000D03*
X138430000Y-92710000D03*
X146050000Y-82550000D03*
X138430000Y-90170000D03*
X146050000Y-85090000D03*
X138430000Y-87630000D03*
X146050000Y-87630000D03*
X138430000Y-85090000D03*
X146050000Y-90170000D03*
X138430000Y-82550000D03*
X146050000Y-92710000D03*
X138430000Y-80010000D03*
D14*
X146050000Y-95250000D03*
D13*
X160020000Y-83820000D03*
D16*
X152400000Y-83820000D03*
D13*
X152400000Y-67310000D03*
D16*
X160020000Y-67310000D03*
D13*
X160020000Y-63500000D03*
D16*
X152400000Y-63500000D03*
D13*
X152400000Y-59690000D03*
D16*
X160020000Y-59690000D03*
D13*
X152400000Y-55880000D03*
D16*
X160020000Y-55880000D03*
D13*
X152400000Y-91440000D03*
D16*
X160020000Y-91440000D03*
D19*
X133350000Y-105410000D03*
D20*
X133350000Y-102870000D03*
X133350000Y-104140000D03*
D17*
X131000000Y-38000000D03*
D18*
X120840000Y-38000000D03*
D16*
X135255000Y-79335000D03*
X135255000Y-76835000D03*
X129580000Y-86360000D03*
X132080000Y-86360000D03*
X152440000Y-74930000D03*
X154940000Y-74930000D03*
X152440000Y-87630000D03*
X154940000Y-87630000D03*
X137890000Y-38100000D03*
D14*
X135890000Y-38100000D03*
D16*
X152440000Y-71120000D03*
X154940000Y-71120000D03*
X129580000Y-83820000D03*
X132080000Y-83820000D03*
M02*
