G04 #@! TF.GenerationSoftware,KiCad,Pcbnew,5.1.5-52549c5~84~ubuntu18.04.1*
G04 #@! TF.CreationDate,2020-03-18T19:12:43-04:00*
G04 #@! TF.ProjectId,OBG-SVF-mainpcb,4f42472d-5356-4462-9d6d-61696e706362,rev?*
G04 #@! TF.SameCoordinates,Original*
G04 #@! TF.FileFunction,Copper,L2,Bot*
G04 #@! TF.FilePolarity,Positive*
%FSLAX46Y46*%
G04 Gerber Fmt 4.6, Leading zero omitted, Abs format (unit mm)*
G04 Created by KiCad (PCBNEW 5.1.5-52549c5~84~ubuntu18.04.1) date 2020-03-18 19:12:43*
%MOMM*%
%LPD*%
G04 APERTURE LIST*
%ADD10O,1.727200X1.727200*%
%ADD11R,1.727200X1.727200*%
%ADD12O,1.600000X1.600000*%
%ADD13R,1.600000X1.600000*%
%ADD14C,1.440000*%
%ADD15C,1.600000*%
%ADD16R,2.200000X2.200000*%
%ADD17O,2.200000X2.200000*%
%ADD18R,1.500000X1.050000*%
%ADD19O,1.500000X1.050000*%
%ADD20R,1.700000X1.700000*%
%ADD21O,1.700000X1.700000*%
%ADD22C,0.250000*%
%ADD23C,0.254000*%
G04 APERTURE END LIST*
D10*
X124340000Y-48240000D03*
X121800000Y-48240000D03*
X124340000Y-50780000D03*
X121800000Y-50780000D03*
X124340000Y-53320000D03*
X121800000Y-53320000D03*
X124340000Y-55860000D03*
X121800000Y-55860000D03*
X124340000Y-58400000D03*
D11*
X121800000Y-58400000D03*
D12*
X146050000Y-57150000D03*
X138430000Y-74930000D03*
X146050000Y-59690000D03*
X138430000Y-72390000D03*
X146050000Y-62230000D03*
X138430000Y-69850000D03*
X146050000Y-64770000D03*
X138430000Y-67310000D03*
X146050000Y-67310000D03*
X138430000Y-64770000D03*
X146050000Y-69850000D03*
X138430000Y-62230000D03*
X146050000Y-72390000D03*
X138430000Y-59690000D03*
X146050000Y-74930000D03*
D13*
X138430000Y-57150000D03*
D14*
X130810000Y-99060000D03*
X128270000Y-99060000D03*
X125730000Y-99060000D03*
D12*
X128270000Y-105410000D03*
D15*
X120650000Y-105410000D03*
D12*
X132080000Y-91440000D03*
D15*
X124460000Y-91440000D03*
D12*
X132080000Y-94615000D03*
D15*
X124460000Y-94615000D03*
D12*
X132080000Y-73660000D03*
D15*
X124460000Y-73660000D03*
D16*
X131000000Y-60000000D03*
D17*
X131000000Y-49840000D03*
D15*
X132080000Y-43910000D03*
D13*
X132080000Y-41910000D03*
D18*
X152400000Y-40640000D03*
D19*
X152400000Y-43180000D03*
X152400000Y-41910000D03*
D18*
X158750000Y-40640000D03*
D19*
X158750000Y-43180000D03*
X158750000Y-41910000D03*
D12*
X152400000Y-102870000D03*
D15*
X160020000Y-102870000D03*
D12*
X160020000Y-99060000D03*
D15*
X152400000Y-99060000D03*
D12*
X160020000Y-80010000D03*
D15*
X152400000Y-80010000D03*
D12*
X160020000Y-95250000D03*
D15*
X152400000Y-95250000D03*
D12*
X132080000Y-77470000D03*
D15*
X124460000Y-77470000D03*
D12*
X124460000Y-66040000D03*
D15*
X132080000Y-66040000D03*
D12*
X132080000Y-69850000D03*
D15*
X124460000Y-69850000D03*
D12*
X125095000Y-88265000D03*
D15*
X125095000Y-80645000D03*
D20*
X135890000Y-50800000D03*
D21*
X135890000Y-48260000D03*
X138430000Y-50800000D03*
X138430000Y-48260000D03*
X140970000Y-50800000D03*
X140970000Y-48260000D03*
X143510000Y-50800000D03*
X143510000Y-48260000D03*
X146050000Y-50800000D03*
X146050000Y-48260000D03*
X148590000Y-50800000D03*
X148590000Y-48260000D03*
D12*
X138430000Y-95250000D03*
X146050000Y-80010000D03*
X138430000Y-92710000D03*
X146050000Y-82550000D03*
X138430000Y-90170000D03*
X146050000Y-85090000D03*
X138430000Y-87630000D03*
X146050000Y-87630000D03*
X138430000Y-85090000D03*
X146050000Y-90170000D03*
X138430000Y-82550000D03*
X146050000Y-92710000D03*
X138430000Y-80010000D03*
D13*
X146050000Y-95250000D03*
D12*
X160020000Y-83820000D03*
D15*
X152400000Y-83820000D03*
D12*
X152400000Y-67310000D03*
D15*
X160020000Y-67310000D03*
D12*
X160020000Y-63500000D03*
D15*
X152400000Y-63500000D03*
D12*
X152400000Y-59690000D03*
D15*
X160020000Y-59690000D03*
D12*
X152400000Y-55880000D03*
D15*
X160020000Y-55880000D03*
D12*
X152400000Y-91440000D03*
D15*
X160020000Y-91440000D03*
D18*
X133350000Y-105410000D03*
D19*
X133350000Y-102870000D03*
X133350000Y-104140000D03*
D16*
X131000000Y-38000000D03*
D17*
X120840000Y-38000000D03*
D15*
X135255000Y-79335000D03*
X135255000Y-76835000D03*
X129580000Y-86360000D03*
X132080000Y-86360000D03*
X152440000Y-74930000D03*
X154940000Y-74930000D03*
X152440000Y-87630000D03*
X154940000Y-87630000D03*
X137890000Y-38100000D03*
D13*
X135890000Y-38100000D03*
D15*
X152440000Y-71120000D03*
X154940000Y-71120000D03*
X129580000Y-83820000D03*
X132080000Y-83820000D03*
D22*
X147360000Y-69850000D02*
X152440000Y-74930000D01*
X146050000Y-69850000D02*
X147360000Y-69850000D01*
X153525001Y-86544999D02*
X152440000Y-87630000D01*
X153525001Y-76015001D02*
X153525001Y-86544999D01*
X152440000Y-74930000D02*
X153525001Y-76015001D01*
X152440000Y-87630000D02*
X146050000Y-87630000D01*
X160020000Y-95210000D02*
X160020000Y-95250000D01*
X152440000Y-87630000D02*
X160020000Y-95210000D01*
X134350000Y-102870000D02*
X133350000Y-102870000D01*
X144924999Y-92295001D02*
X134350000Y-102870000D01*
X144924999Y-88755001D02*
X144924999Y-92295001D01*
X146050000Y-87630000D02*
X144924999Y-88755001D01*
X140875001Y-48354999D02*
X140970000Y-48260000D01*
X139794999Y-48354999D02*
X140875001Y-48354999D01*
X130810000Y-38100000D02*
X135890000Y-38100000D01*
X139794999Y-43054999D02*
X139794999Y-48354999D01*
X135890000Y-39150000D02*
X139794999Y-43054999D01*
X135890000Y-38100000D02*
X135890000Y-39150000D01*
X147715002Y-69850000D02*
X146050000Y-69850000D01*
X153525001Y-64040001D02*
X147715002Y-69850000D01*
X153525001Y-55339999D02*
X153525001Y-64040001D01*
X152940001Y-54754999D02*
X153525001Y-55339999D01*
X145725997Y-54754999D02*
X152940001Y-54754999D01*
X142334999Y-51364001D02*
X145725997Y-54754999D01*
X142334999Y-49624999D02*
X142334999Y-51364001D01*
X140970000Y-48260000D02*
X142334999Y-49624999D01*
X132080000Y-46910000D02*
X132080000Y-43910000D01*
X130810000Y-48180000D02*
X132080000Y-46910000D01*
X130810000Y-49530000D02*
X130810000Y-48180000D01*
X137304999Y-68724999D02*
X138430000Y-69850000D01*
X137304999Y-57374999D02*
X137304999Y-68724999D01*
X130810000Y-50880000D02*
X137304999Y-57374999D01*
X130810000Y-49530000D02*
X130810000Y-50880000D01*
X137160000Y-86360000D02*
X138430000Y-87630000D01*
X132080000Y-86360000D02*
X137160000Y-86360000D01*
X120650000Y-101323398D02*
X120650000Y-105410000D01*
X130954999Y-91018399D02*
X120650000Y-101323398D01*
X130954999Y-87485001D02*
X130954999Y-91018399D01*
X132080000Y-86360000D02*
X130954999Y-87485001D01*
X135255000Y-73899998D02*
X135255000Y-76835000D01*
X138430000Y-70724998D02*
X135255000Y-73899998D01*
X138430000Y-69850000D02*
X138430000Y-70724998D01*
X134129999Y-84310001D02*
X132080000Y-86360000D01*
X135255000Y-76835000D02*
X134129999Y-77960001D01*
X134129999Y-77960001D02*
X134129999Y-84310001D01*
X140750000Y-55880000D02*
X152400000Y-55880000D01*
X139480000Y-57150000D02*
X140750000Y-55880000D01*
X138430000Y-57150000D02*
X139480000Y-57150000D01*
X124460000Y-67171370D02*
X127635000Y-70346370D01*
X124460000Y-66040000D02*
X124460000Y-67171370D01*
X127635000Y-78105000D02*
X125095000Y-80645000D01*
X127635000Y-70346370D02*
X127635000Y-78105000D01*
X121920000Y-48260000D02*
X124460000Y-48260000D01*
X121920000Y-39370000D02*
X120650000Y-38100000D01*
X121920000Y-48260000D02*
X121920000Y-39370000D01*
X129540000Y-58420000D02*
X130810000Y-59690000D01*
X124460000Y-58420000D02*
X129540000Y-58420000D01*
X121920000Y-58420000D02*
X124460000Y-58420000D01*
D23*
G36*
X166955000Y-109805000D02*
G01*
X117525000Y-109805000D01*
X117525000Y-105268665D01*
X119215000Y-105268665D01*
X119215000Y-105551335D01*
X119270147Y-105828574D01*
X119378320Y-106089727D01*
X119535363Y-106324759D01*
X119735241Y-106524637D01*
X119970273Y-106681680D01*
X120231426Y-106789853D01*
X120508665Y-106845000D01*
X120791335Y-106845000D01*
X121068574Y-106789853D01*
X121329727Y-106681680D01*
X121564759Y-106524637D01*
X121764637Y-106324759D01*
X121921680Y-106089727D01*
X122029853Y-105828574D01*
X122085000Y-105551335D01*
X122085000Y-105268665D01*
X126835000Y-105268665D01*
X126835000Y-105551335D01*
X126890147Y-105828574D01*
X126998320Y-106089727D01*
X127155363Y-106324759D01*
X127355241Y-106524637D01*
X127590273Y-106681680D01*
X127851426Y-106789853D01*
X128128665Y-106845000D01*
X128411335Y-106845000D01*
X128688574Y-106789853D01*
X128949727Y-106681680D01*
X129184759Y-106524637D01*
X129384637Y-106324759D01*
X129541680Y-106089727D01*
X129649853Y-105828574D01*
X129705000Y-105551335D01*
X129705000Y-105268665D01*
X129649853Y-104991426D01*
X129541680Y-104730273D01*
X129384637Y-104495241D01*
X129184759Y-104295363D01*
X128949727Y-104138320D01*
X128688574Y-104030147D01*
X128411335Y-103975000D01*
X128128665Y-103975000D01*
X127851426Y-104030147D01*
X127590273Y-104138320D01*
X127355241Y-104295363D01*
X127155363Y-104495241D01*
X126998320Y-104730273D01*
X126890147Y-104991426D01*
X126835000Y-105268665D01*
X122085000Y-105268665D01*
X122029853Y-104991426D01*
X121921680Y-104730273D01*
X121764637Y-104495241D01*
X121564759Y-104295363D01*
X121410000Y-104191957D01*
X121410000Y-101638199D01*
X124457926Y-98590273D01*
X124427072Y-98664761D01*
X124375000Y-98926544D01*
X124375000Y-99193456D01*
X124427072Y-99455239D01*
X124529215Y-99701833D01*
X124677503Y-99923762D01*
X124866238Y-100112497D01*
X125088167Y-100260785D01*
X125334761Y-100362928D01*
X125596544Y-100415000D01*
X125863456Y-100415000D01*
X126125239Y-100362928D01*
X126371833Y-100260785D01*
X126593762Y-100112497D01*
X126782497Y-99923762D01*
X126930785Y-99701833D01*
X127000000Y-99534734D01*
X127069215Y-99701833D01*
X127217503Y-99923762D01*
X127406238Y-100112497D01*
X127628167Y-100260785D01*
X127874761Y-100362928D01*
X128136544Y-100415000D01*
X128403456Y-100415000D01*
X128665239Y-100362928D01*
X128911833Y-100260785D01*
X129133762Y-100112497D01*
X129322497Y-99923762D01*
X129470785Y-99701833D01*
X129540000Y-99534734D01*
X129609215Y-99701833D01*
X129757503Y-99923762D01*
X129946238Y-100112497D01*
X130168167Y-100260785D01*
X130414761Y-100362928D01*
X130676544Y-100415000D01*
X130943456Y-100415000D01*
X131205239Y-100362928D01*
X131451833Y-100260785D01*
X131673762Y-100112497D01*
X131862497Y-99923762D01*
X132010785Y-99701833D01*
X132112928Y-99455239D01*
X132165000Y-99193456D01*
X132165000Y-98926544D01*
X132112928Y-98664761D01*
X132010785Y-98418167D01*
X131862497Y-98196238D01*
X131673762Y-98007503D01*
X131451833Y-97859215D01*
X131205239Y-97757072D01*
X130943456Y-97705000D01*
X130676544Y-97705000D01*
X130414761Y-97757072D01*
X130168167Y-97859215D01*
X129946238Y-98007503D01*
X129757503Y-98196238D01*
X129609215Y-98418167D01*
X129540000Y-98585266D01*
X129470785Y-98418167D01*
X129322497Y-98196238D01*
X129133762Y-98007503D01*
X128911833Y-97859215D01*
X128665239Y-97757072D01*
X128403456Y-97705000D01*
X128136544Y-97705000D01*
X127874761Y-97757072D01*
X127628167Y-97859215D01*
X127406238Y-98007503D01*
X127217503Y-98196238D01*
X127069215Y-98418167D01*
X127000000Y-98585266D01*
X126930785Y-98418167D01*
X126782497Y-98196238D01*
X126593762Y-98007503D01*
X126371833Y-97859215D01*
X126125239Y-97757072D01*
X125863456Y-97705000D01*
X125596544Y-97705000D01*
X125334761Y-97757072D01*
X125260274Y-97787926D01*
X128574534Y-94473665D01*
X130645000Y-94473665D01*
X130645000Y-94756335D01*
X130700147Y-95033574D01*
X130808320Y-95294727D01*
X130965363Y-95529759D01*
X131165241Y-95729637D01*
X131400273Y-95886680D01*
X131661426Y-95994853D01*
X131938665Y-96050000D01*
X132221335Y-96050000D01*
X132498574Y-95994853D01*
X132759727Y-95886680D01*
X132994759Y-95729637D01*
X133194637Y-95529759D01*
X133351680Y-95294727D01*
X133459853Y-95033574D01*
X133515000Y-94756335D01*
X133515000Y-94473665D01*
X133459853Y-94196426D01*
X133351680Y-93935273D01*
X133194637Y-93700241D01*
X132994759Y-93500363D01*
X132759727Y-93343320D01*
X132498574Y-93235147D01*
X132221335Y-93180000D01*
X131938665Y-93180000D01*
X131661426Y-93235147D01*
X131400273Y-93343320D01*
X131165241Y-93500363D01*
X130965363Y-93700241D01*
X130808320Y-93935273D01*
X130700147Y-94196426D01*
X130645000Y-94473665D01*
X128574534Y-94473665D01*
X130856446Y-92191753D01*
X130965363Y-92354759D01*
X131165241Y-92554637D01*
X131400273Y-92711680D01*
X131661426Y-92819853D01*
X131938665Y-92875000D01*
X132221335Y-92875000D01*
X132498574Y-92819853D01*
X132759727Y-92711680D01*
X132973764Y-92568665D01*
X136995000Y-92568665D01*
X136995000Y-92851335D01*
X137050147Y-93128574D01*
X137158320Y-93389727D01*
X137315363Y-93624759D01*
X137515241Y-93824637D01*
X137747759Y-93980000D01*
X137515241Y-94135363D01*
X137315363Y-94335241D01*
X137158320Y-94570273D01*
X137050147Y-94831426D01*
X136995000Y-95108665D01*
X136995000Y-95391335D01*
X137050147Y-95668574D01*
X137158320Y-95929727D01*
X137315363Y-96164759D01*
X137515241Y-96364637D01*
X137750273Y-96521680D01*
X138011426Y-96629853D01*
X138288665Y-96685000D01*
X138571335Y-96685000D01*
X138848574Y-96629853D01*
X139109727Y-96521680D01*
X139344759Y-96364637D01*
X139544637Y-96164759D01*
X139701680Y-95929727D01*
X139809853Y-95668574D01*
X139865000Y-95391335D01*
X139865000Y-95108665D01*
X139809853Y-94831426D01*
X139701680Y-94570273D01*
X139544637Y-94335241D01*
X139344759Y-94135363D01*
X139112241Y-93980000D01*
X139344759Y-93824637D01*
X139544637Y-93624759D01*
X139701680Y-93389727D01*
X139809853Y-93128574D01*
X139865000Y-92851335D01*
X139865000Y-92568665D01*
X139809853Y-92291426D01*
X139701680Y-92030273D01*
X139544637Y-91795241D01*
X139344759Y-91595363D01*
X139109727Y-91438320D01*
X139099135Y-91433933D01*
X139285131Y-91322385D01*
X139493519Y-91133414D01*
X139661037Y-90907420D01*
X139781246Y-90653087D01*
X139821904Y-90519039D01*
X139699915Y-90297000D01*
X138557000Y-90297000D01*
X138557000Y-90317000D01*
X138303000Y-90317000D01*
X138303000Y-90297000D01*
X137160085Y-90297000D01*
X137038096Y-90519039D01*
X137078754Y-90653087D01*
X137198963Y-90907420D01*
X137366481Y-91133414D01*
X137574869Y-91322385D01*
X137760865Y-91433933D01*
X137750273Y-91438320D01*
X137515241Y-91595363D01*
X137315363Y-91795241D01*
X137158320Y-92030273D01*
X137050147Y-92291426D01*
X136995000Y-92568665D01*
X132973764Y-92568665D01*
X132994759Y-92554637D01*
X133194637Y-92354759D01*
X133351680Y-92119727D01*
X133459853Y-91858574D01*
X133515000Y-91581335D01*
X133515000Y-91298665D01*
X133459853Y-91021426D01*
X133351680Y-90760273D01*
X133194637Y-90525241D01*
X132994759Y-90325363D01*
X132759727Y-90168320D01*
X132498574Y-90060147D01*
X132221335Y-90005000D01*
X131938665Y-90005000D01*
X131714999Y-90049491D01*
X131714999Y-87799802D01*
X131756113Y-87758688D01*
X131938665Y-87795000D01*
X132221335Y-87795000D01*
X132498574Y-87739853D01*
X132759727Y-87631680D01*
X132994759Y-87474637D01*
X133194637Y-87274759D01*
X133298043Y-87120000D01*
X136845199Y-87120000D01*
X137031312Y-87306114D01*
X136995000Y-87488665D01*
X136995000Y-87771335D01*
X137050147Y-88048574D01*
X137158320Y-88309727D01*
X137315363Y-88544759D01*
X137515241Y-88744637D01*
X137750273Y-88901680D01*
X137760865Y-88906067D01*
X137574869Y-89017615D01*
X137366481Y-89206586D01*
X137198963Y-89432580D01*
X137078754Y-89686913D01*
X137038096Y-89820961D01*
X137160085Y-90043000D01*
X138303000Y-90043000D01*
X138303000Y-90023000D01*
X138557000Y-90023000D01*
X138557000Y-90043000D01*
X139699915Y-90043000D01*
X139821904Y-89820961D01*
X139781246Y-89686913D01*
X139661037Y-89432580D01*
X139493519Y-89206586D01*
X139285131Y-89017615D01*
X139099135Y-88906067D01*
X139109727Y-88901680D01*
X139344759Y-88744637D01*
X139544637Y-88544759D01*
X139701680Y-88309727D01*
X139809853Y-88048574D01*
X139865000Y-87771335D01*
X139865000Y-87488665D01*
X139809853Y-87211426D01*
X139701680Y-86950273D01*
X139544637Y-86715241D01*
X139344759Y-86515363D01*
X139112241Y-86360000D01*
X139344759Y-86204637D01*
X139544637Y-86004759D01*
X139701680Y-85769727D01*
X139809853Y-85508574D01*
X139865000Y-85231335D01*
X139865000Y-84948665D01*
X139809853Y-84671426D01*
X139701680Y-84410273D01*
X139544637Y-84175241D01*
X139344759Y-83975363D01*
X139112241Y-83820000D01*
X139344759Y-83664637D01*
X139544637Y-83464759D01*
X139701680Y-83229727D01*
X139809853Y-82968574D01*
X139865000Y-82691335D01*
X139865000Y-82408665D01*
X139809853Y-82131426D01*
X139701680Y-81870273D01*
X139544637Y-81635241D01*
X139344759Y-81435363D01*
X139112241Y-81280000D01*
X139344759Y-81124637D01*
X139544637Y-80924759D01*
X139701680Y-80689727D01*
X139809853Y-80428574D01*
X139865000Y-80151335D01*
X139865000Y-79868665D01*
X139809853Y-79591426D01*
X139701680Y-79330273D01*
X139544637Y-79095241D01*
X139344759Y-78895363D01*
X139109727Y-78738320D01*
X138848574Y-78630147D01*
X138571335Y-78575000D01*
X138288665Y-78575000D01*
X138011426Y-78630147D01*
X137750273Y-78738320D01*
X137515241Y-78895363D01*
X137315363Y-79095241D01*
X137158320Y-79330273D01*
X137050147Y-79591426D01*
X136995000Y-79868665D01*
X136995000Y-80151335D01*
X137050147Y-80428574D01*
X137158320Y-80689727D01*
X137315363Y-80924759D01*
X137515241Y-81124637D01*
X137747759Y-81280000D01*
X137515241Y-81435363D01*
X137315363Y-81635241D01*
X137158320Y-81870273D01*
X137050147Y-82131426D01*
X136995000Y-82408665D01*
X136995000Y-82691335D01*
X137050147Y-82968574D01*
X137158320Y-83229727D01*
X137315363Y-83464759D01*
X137515241Y-83664637D01*
X137747759Y-83820000D01*
X137515241Y-83975363D01*
X137315363Y-84175241D01*
X137158320Y-84410273D01*
X137050147Y-84671426D01*
X136995000Y-84948665D01*
X136995000Y-85231335D01*
X137050147Y-85508574D01*
X137088017Y-85600000D01*
X133914802Y-85600000D01*
X134641007Y-84873796D01*
X134670000Y-84850002D01*
X134693794Y-84821009D01*
X134693798Y-84821005D01*
X134764972Y-84734278D01*
X134764973Y-84734277D01*
X134835545Y-84602248D01*
X134879002Y-84458987D01*
X134889999Y-84347334D01*
X134889999Y-84347325D01*
X134893675Y-84310002D01*
X134889999Y-84272679D01*
X134889999Y-80722902D01*
X135043184Y-80761300D01*
X135325512Y-80775217D01*
X135605130Y-80733787D01*
X135871292Y-80638603D01*
X135996514Y-80571671D01*
X136068097Y-80327702D01*
X135255000Y-79514605D01*
X135240858Y-79528748D01*
X135061253Y-79349143D01*
X135075395Y-79335000D01*
X135434605Y-79335000D01*
X136247702Y-80148097D01*
X136491671Y-80076514D01*
X136612571Y-79821004D01*
X136681300Y-79546816D01*
X136695217Y-79264488D01*
X136653787Y-78984870D01*
X136558603Y-78718708D01*
X136491671Y-78593486D01*
X136247702Y-78521903D01*
X135434605Y-79335000D01*
X135075395Y-79335000D01*
X135061253Y-79320858D01*
X135240858Y-79141253D01*
X135255000Y-79155395D01*
X136068097Y-78342298D01*
X135996514Y-78098329D01*
X135967659Y-78084676D01*
X136169759Y-77949637D01*
X136369637Y-77749759D01*
X136526680Y-77514727D01*
X136634853Y-77253574D01*
X136690000Y-76976335D01*
X136690000Y-76693665D01*
X136634853Y-76416426D01*
X136526680Y-76155273D01*
X136369637Y-75920241D01*
X136169759Y-75720363D01*
X136015000Y-75616957D01*
X136015000Y-74214799D01*
X137159022Y-73070778D01*
X137315363Y-73304759D01*
X137515241Y-73504637D01*
X137747759Y-73660000D01*
X137515241Y-73815363D01*
X137315363Y-74015241D01*
X137158320Y-74250273D01*
X137050147Y-74511426D01*
X136995000Y-74788665D01*
X136995000Y-75071335D01*
X137050147Y-75348574D01*
X137158320Y-75609727D01*
X137315363Y-75844759D01*
X137515241Y-76044637D01*
X137750273Y-76201680D01*
X138011426Y-76309853D01*
X138288665Y-76365000D01*
X138571335Y-76365000D01*
X138848574Y-76309853D01*
X139109727Y-76201680D01*
X139344759Y-76044637D01*
X139544637Y-75844759D01*
X139701680Y-75609727D01*
X139809853Y-75348574D01*
X139865000Y-75071335D01*
X139865000Y-74788665D01*
X139809853Y-74511426D01*
X139701680Y-74250273D01*
X139544637Y-74015241D01*
X139344759Y-73815363D01*
X139112241Y-73660000D01*
X139344759Y-73504637D01*
X139544637Y-73304759D01*
X139701680Y-73069727D01*
X139809853Y-72808574D01*
X139865000Y-72531335D01*
X139865000Y-72248665D01*
X139809853Y-71971426D01*
X139701680Y-71710273D01*
X139544637Y-71475241D01*
X139344759Y-71275363D01*
X139112241Y-71120000D01*
X139344759Y-70964637D01*
X139544637Y-70764759D01*
X139701680Y-70529727D01*
X139809853Y-70268574D01*
X139865000Y-69991335D01*
X139865000Y-69708665D01*
X139809853Y-69431426D01*
X139701680Y-69170273D01*
X139544637Y-68935241D01*
X139344759Y-68735363D01*
X139112241Y-68580000D01*
X139344759Y-68424637D01*
X139544637Y-68224759D01*
X139701680Y-67989727D01*
X139809853Y-67728574D01*
X139865000Y-67451335D01*
X139865000Y-67168665D01*
X139809853Y-66891426D01*
X139701680Y-66630273D01*
X139544637Y-66395241D01*
X139344759Y-66195363D01*
X139109727Y-66038320D01*
X139099135Y-66033933D01*
X139285131Y-65922385D01*
X139493519Y-65733414D01*
X139661037Y-65507420D01*
X139781246Y-65253087D01*
X139821904Y-65119039D01*
X139699915Y-64897000D01*
X138557000Y-64897000D01*
X138557000Y-64917000D01*
X138303000Y-64917000D01*
X138303000Y-64897000D01*
X138283000Y-64897000D01*
X138283000Y-64643000D01*
X138303000Y-64643000D01*
X138303000Y-64623000D01*
X138557000Y-64623000D01*
X138557000Y-64643000D01*
X139699915Y-64643000D01*
X139821904Y-64420961D01*
X139781246Y-64286913D01*
X139661037Y-64032580D01*
X139493519Y-63806586D01*
X139285131Y-63617615D01*
X139099135Y-63506067D01*
X139109727Y-63501680D01*
X139344759Y-63344637D01*
X139544637Y-63144759D01*
X139701680Y-62909727D01*
X139809853Y-62648574D01*
X139865000Y-62371335D01*
X139865000Y-62088665D01*
X139809853Y-61811426D01*
X139701680Y-61550273D01*
X139544637Y-61315241D01*
X139344759Y-61115363D01*
X139112241Y-60960000D01*
X139344759Y-60804637D01*
X139544637Y-60604759D01*
X139701680Y-60369727D01*
X139809853Y-60108574D01*
X139865000Y-59831335D01*
X139865000Y-59548665D01*
X139809853Y-59271426D01*
X139701680Y-59010273D01*
X139544637Y-58775241D01*
X139346039Y-58576643D01*
X139354482Y-58575812D01*
X139474180Y-58539502D01*
X139584494Y-58480537D01*
X139681185Y-58401185D01*
X139760537Y-58304494D01*
X139819502Y-58194180D01*
X139855812Y-58074482D01*
X139868072Y-57950000D01*
X139868072Y-57804326D01*
X139904276Y-57784974D01*
X140020001Y-57690001D01*
X140043804Y-57660997D01*
X141064802Y-56640000D01*
X144708017Y-56640000D01*
X144670147Y-56731426D01*
X144615000Y-57008665D01*
X144615000Y-57291335D01*
X144670147Y-57568574D01*
X144778320Y-57829727D01*
X144935363Y-58064759D01*
X145135241Y-58264637D01*
X145367759Y-58420000D01*
X145135241Y-58575363D01*
X144935363Y-58775241D01*
X144778320Y-59010273D01*
X144670147Y-59271426D01*
X144615000Y-59548665D01*
X144615000Y-59831335D01*
X144670147Y-60108574D01*
X144778320Y-60369727D01*
X144935363Y-60604759D01*
X145135241Y-60804637D01*
X145367759Y-60960000D01*
X145135241Y-61115363D01*
X144935363Y-61315241D01*
X144778320Y-61550273D01*
X144670147Y-61811426D01*
X144615000Y-62088665D01*
X144615000Y-62371335D01*
X144670147Y-62648574D01*
X144778320Y-62909727D01*
X144935363Y-63144759D01*
X145135241Y-63344637D01*
X145370273Y-63501680D01*
X145380865Y-63506067D01*
X145194869Y-63617615D01*
X144986481Y-63806586D01*
X144818963Y-64032580D01*
X144698754Y-64286913D01*
X144658096Y-64420961D01*
X144780085Y-64643000D01*
X145923000Y-64643000D01*
X145923000Y-64623000D01*
X146177000Y-64623000D01*
X146177000Y-64643000D01*
X147319915Y-64643000D01*
X147441904Y-64420961D01*
X147401246Y-64286913D01*
X147281037Y-64032580D01*
X147113519Y-63806586D01*
X146905131Y-63617615D01*
X146719135Y-63506067D01*
X146729727Y-63501680D01*
X146964759Y-63344637D01*
X147164637Y-63144759D01*
X147321680Y-62909727D01*
X147429853Y-62648574D01*
X147485000Y-62371335D01*
X147485000Y-62088665D01*
X147429853Y-61811426D01*
X147321680Y-61550273D01*
X147164637Y-61315241D01*
X146964759Y-61115363D01*
X146732241Y-60960000D01*
X146964759Y-60804637D01*
X147164637Y-60604759D01*
X147321680Y-60369727D01*
X147429853Y-60108574D01*
X147485000Y-59831335D01*
X147485000Y-59548665D01*
X147429853Y-59271426D01*
X147321680Y-59010273D01*
X147164637Y-58775241D01*
X146964759Y-58575363D01*
X146732241Y-58420000D01*
X146964759Y-58264637D01*
X147164637Y-58064759D01*
X147321680Y-57829727D01*
X147429853Y-57568574D01*
X147485000Y-57291335D01*
X147485000Y-57008665D01*
X147429853Y-56731426D01*
X147391983Y-56640000D01*
X151181957Y-56640000D01*
X151285363Y-56794759D01*
X151485241Y-56994637D01*
X151720273Y-57151680D01*
X151981426Y-57259853D01*
X152258665Y-57315000D01*
X152541335Y-57315000D01*
X152765001Y-57270509D01*
X152765001Y-58299491D01*
X152541335Y-58255000D01*
X152258665Y-58255000D01*
X151981426Y-58310147D01*
X151720273Y-58418320D01*
X151485241Y-58575363D01*
X151285363Y-58775241D01*
X151128320Y-59010273D01*
X151020147Y-59271426D01*
X150965000Y-59548665D01*
X150965000Y-59831335D01*
X151020147Y-60108574D01*
X151128320Y-60369727D01*
X151285363Y-60604759D01*
X151485241Y-60804637D01*
X151720273Y-60961680D01*
X151981426Y-61069853D01*
X152258665Y-61125000D01*
X152541335Y-61125000D01*
X152765002Y-61080509D01*
X152765002Y-62109491D01*
X152541335Y-62065000D01*
X152258665Y-62065000D01*
X151981426Y-62120147D01*
X151720273Y-62228320D01*
X151485241Y-62385363D01*
X151285363Y-62585241D01*
X151128320Y-62820273D01*
X151020147Y-63081426D01*
X150965000Y-63358665D01*
X150965000Y-63641335D01*
X151020147Y-63918574D01*
X151128320Y-64179727D01*
X151285363Y-64414759D01*
X151485241Y-64614637D01*
X151719222Y-64770978D01*
X147400201Y-69090000D01*
X147397322Y-69090000D01*
X147360000Y-69086324D01*
X147322678Y-69090000D01*
X147268043Y-69090000D01*
X147164637Y-68935241D01*
X146964759Y-68735363D01*
X146732241Y-68580000D01*
X146964759Y-68424637D01*
X147164637Y-68224759D01*
X147321680Y-67989727D01*
X147429853Y-67728574D01*
X147485000Y-67451335D01*
X147485000Y-67168665D01*
X147429853Y-66891426D01*
X147321680Y-66630273D01*
X147164637Y-66395241D01*
X146964759Y-66195363D01*
X146729727Y-66038320D01*
X146719135Y-66033933D01*
X146905131Y-65922385D01*
X147113519Y-65733414D01*
X147281037Y-65507420D01*
X147401246Y-65253087D01*
X147441904Y-65119039D01*
X147319915Y-64897000D01*
X146177000Y-64897000D01*
X146177000Y-64917000D01*
X145923000Y-64917000D01*
X145923000Y-64897000D01*
X144780085Y-64897000D01*
X144658096Y-65119039D01*
X144698754Y-65253087D01*
X144818963Y-65507420D01*
X144986481Y-65733414D01*
X145194869Y-65922385D01*
X145380865Y-66033933D01*
X145370273Y-66038320D01*
X145135241Y-66195363D01*
X144935363Y-66395241D01*
X144778320Y-66630273D01*
X144670147Y-66891426D01*
X144615000Y-67168665D01*
X144615000Y-67451335D01*
X144670147Y-67728574D01*
X144778320Y-67989727D01*
X144935363Y-68224759D01*
X145135241Y-68424637D01*
X145367759Y-68580000D01*
X145135241Y-68735363D01*
X144935363Y-68935241D01*
X144778320Y-69170273D01*
X144670147Y-69431426D01*
X144615000Y-69708665D01*
X144615000Y-69991335D01*
X144670147Y-70268574D01*
X144778320Y-70529727D01*
X144935363Y-70764759D01*
X145135241Y-70964637D01*
X145367759Y-71120000D01*
X145135241Y-71275363D01*
X144935363Y-71475241D01*
X144778320Y-71710273D01*
X144670147Y-71971426D01*
X144615000Y-72248665D01*
X144615000Y-72531335D01*
X144670147Y-72808574D01*
X144778320Y-73069727D01*
X144935363Y-73304759D01*
X145135241Y-73504637D01*
X145367759Y-73660000D01*
X145135241Y-73815363D01*
X144935363Y-74015241D01*
X144778320Y-74250273D01*
X144670147Y-74511426D01*
X144615000Y-74788665D01*
X144615000Y-75071335D01*
X144670147Y-75348574D01*
X144778320Y-75609727D01*
X144935363Y-75844759D01*
X145135241Y-76044637D01*
X145370273Y-76201680D01*
X145631426Y-76309853D01*
X145908665Y-76365000D01*
X146191335Y-76365000D01*
X146468574Y-76309853D01*
X146729727Y-76201680D01*
X146964759Y-76044637D01*
X147164637Y-75844759D01*
X147321680Y-75609727D01*
X147429853Y-75348574D01*
X147485000Y-75071335D01*
X147485000Y-74788665D01*
X147429853Y-74511426D01*
X147321680Y-74250273D01*
X147164637Y-74015241D01*
X146964759Y-73815363D01*
X146732241Y-73660000D01*
X146964759Y-73504637D01*
X147164637Y-73304759D01*
X147321680Y-73069727D01*
X147429853Y-72808574D01*
X147485000Y-72531335D01*
X147485000Y-72248665D01*
X147429853Y-71971426D01*
X147321680Y-71710273D01*
X147164637Y-71475241D01*
X146964759Y-71275363D01*
X146732241Y-71120000D01*
X146964759Y-70964637D01*
X147164637Y-70764759D01*
X147178785Y-70743586D01*
X151041312Y-74606114D01*
X151005000Y-74788665D01*
X151005000Y-75071335D01*
X151060147Y-75348574D01*
X151168320Y-75609727D01*
X151325363Y-75844759D01*
X151525241Y-76044637D01*
X151760273Y-76201680D01*
X152021426Y-76309853D01*
X152298665Y-76365000D01*
X152581335Y-76365000D01*
X152763886Y-76328688D01*
X152765001Y-76329803D01*
X152765001Y-78619491D01*
X152541335Y-78575000D01*
X152258665Y-78575000D01*
X151981426Y-78630147D01*
X151720273Y-78738320D01*
X151485241Y-78895363D01*
X151285363Y-79095241D01*
X151128320Y-79330273D01*
X151020147Y-79591426D01*
X150965000Y-79868665D01*
X150965000Y-80151335D01*
X151020147Y-80428574D01*
X151128320Y-80689727D01*
X151285363Y-80924759D01*
X151485241Y-81124637D01*
X151720273Y-81281680D01*
X151981426Y-81389853D01*
X152258665Y-81445000D01*
X152541335Y-81445000D01*
X152765002Y-81400509D01*
X152765002Y-82429491D01*
X152541335Y-82385000D01*
X152258665Y-82385000D01*
X151981426Y-82440147D01*
X151720273Y-82548320D01*
X151485241Y-82705363D01*
X151285363Y-82905241D01*
X151128320Y-83140273D01*
X151020147Y-83401426D01*
X150965000Y-83678665D01*
X150965000Y-83961335D01*
X151020147Y-84238574D01*
X151128320Y-84499727D01*
X151285363Y-84734759D01*
X151485241Y-84934637D01*
X151720273Y-85091680D01*
X151981426Y-85199853D01*
X152258665Y-85255000D01*
X152541335Y-85255000D01*
X152765002Y-85210509D01*
X152765002Y-86230196D01*
X152763886Y-86231312D01*
X152581335Y-86195000D01*
X152298665Y-86195000D01*
X152021426Y-86250147D01*
X151760273Y-86358320D01*
X151525241Y-86515363D01*
X151325363Y-86715241D01*
X151221957Y-86870000D01*
X147268043Y-86870000D01*
X147164637Y-86715241D01*
X146964759Y-86515363D01*
X146732241Y-86360000D01*
X146964759Y-86204637D01*
X147164637Y-86004759D01*
X147321680Y-85769727D01*
X147429853Y-85508574D01*
X147485000Y-85231335D01*
X147485000Y-84948665D01*
X147429853Y-84671426D01*
X147321680Y-84410273D01*
X147164637Y-84175241D01*
X146964759Y-83975363D01*
X146732241Y-83820000D01*
X146964759Y-83664637D01*
X147164637Y-83464759D01*
X147321680Y-83229727D01*
X147429853Y-82968574D01*
X147485000Y-82691335D01*
X147485000Y-82408665D01*
X147429853Y-82131426D01*
X147321680Y-81870273D01*
X147164637Y-81635241D01*
X146964759Y-81435363D01*
X146732241Y-81280000D01*
X146964759Y-81124637D01*
X147164637Y-80924759D01*
X147321680Y-80689727D01*
X147429853Y-80428574D01*
X147485000Y-80151335D01*
X147485000Y-79868665D01*
X147429853Y-79591426D01*
X147321680Y-79330273D01*
X147164637Y-79095241D01*
X146964759Y-78895363D01*
X146729727Y-78738320D01*
X146468574Y-78630147D01*
X146191335Y-78575000D01*
X145908665Y-78575000D01*
X145631426Y-78630147D01*
X145370273Y-78738320D01*
X145135241Y-78895363D01*
X144935363Y-79095241D01*
X144778320Y-79330273D01*
X144670147Y-79591426D01*
X144615000Y-79868665D01*
X144615000Y-80151335D01*
X144670147Y-80428574D01*
X144778320Y-80689727D01*
X144935363Y-80924759D01*
X145135241Y-81124637D01*
X145367759Y-81280000D01*
X145135241Y-81435363D01*
X144935363Y-81635241D01*
X144778320Y-81870273D01*
X144670147Y-82131426D01*
X144615000Y-82408665D01*
X144615000Y-82691335D01*
X144670147Y-82968574D01*
X144778320Y-83229727D01*
X144935363Y-83464759D01*
X145135241Y-83664637D01*
X145367759Y-83820000D01*
X145135241Y-83975363D01*
X144935363Y-84175241D01*
X144778320Y-84410273D01*
X144670147Y-84671426D01*
X144615000Y-84948665D01*
X144615000Y-85231335D01*
X144670147Y-85508574D01*
X144778320Y-85769727D01*
X144935363Y-86004759D01*
X145135241Y-86204637D01*
X145367759Y-86360000D01*
X145135241Y-86515363D01*
X144935363Y-86715241D01*
X144778320Y-86950273D01*
X144670147Y-87211426D01*
X144615000Y-87488665D01*
X144615000Y-87771335D01*
X144651312Y-87953887D01*
X144414001Y-88191197D01*
X144384998Y-88215000D01*
X144343987Y-88264973D01*
X144290025Y-88330725D01*
X144219454Y-88462754D01*
X144219453Y-88462755D01*
X144175996Y-88606016D01*
X144164999Y-88717669D01*
X144164999Y-88717679D01*
X144161323Y-88755001D01*
X144164999Y-88792324D01*
X144165000Y-91980198D01*
X134234548Y-101910651D01*
X134222579Y-101900829D01*
X134021060Y-101793115D01*
X133802400Y-101726785D01*
X133631979Y-101710000D01*
X133068021Y-101710000D01*
X132897600Y-101726785D01*
X132678940Y-101793115D01*
X132477421Y-101900829D01*
X132300788Y-102045788D01*
X132155829Y-102222421D01*
X132048115Y-102423940D01*
X131981785Y-102642600D01*
X131959388Y-102870000D01*
X131981785Y-103097400D01*
X132048115Y-103316060D01*
X132149105Y-103505000D01*
X132048115Y-103693940D01*
X131981785Y-103912600D01*
X131959388Y-104140000D01*
X131981785Y-104367400D01*
X132045093Y-104576098D01*
X132010498Y-104640820D01*
X131974188Y-104760518D01*
X131961928Y-104885000D01*
X131961928Y-105935000D01*
X131974188Y-106059482D01*
X132010498Y-106179180D01*
X132069463Y-106289494D01*
X132148815Y-106386185D01*
X132245506Y-106465537D01*
X132355820Y-106524502D01*
X132475518Y-106560812D01*
X132600000Y-106573072D01*
X134100000Y-106573072D01*
X134224482Y-106560812D01*
X134344180Y-106524502D01*
X134454494Y-106465537D01*
X134551185Y-106386185D01*
X134630537Y-106289494D01*
X134689502Y-106179180D01*
X134725812Y-106059482D01*
X134738072Y-105935000D01*
X134738072Y-104885000D01*
X134725812Y-104760518D01*
X134689502Y-104640820D01*
X134654907Y-104576098D01*
X134718215Y-104367400D01*
X134740612Y-104140000D01*
X134718932Y-103919872D01*
X140005000Y-103919872D01*
X140005000Y-104360128D01*
X140090890Y-104791925D01*
X140259369Y-105198669D01*
X140503962Y-105564729D01*
X140815271Y-105876038D01*
X141181331Y-106120631D01*
X141588075Y-106289110D01*
X142019872Y-106375000D01*
X142460128Y-106375000D01*
X142891925Y-106289110D01*
X143298669Y-106120631D01*
X143664729Y-105876038D01*
X143976038Y-105564729D01*
X144220631Y-105198669D01*
X144389110Y-104791925D01*
X144475000Y-104360128D01*
X144475000Y-103919872D01*
X144389110Y-103488075D01*
X144220631Y-103081331D01*
X143984988Y-102728665D01*
X150965000Y-102728665D01*
X150965000Y-103011335D01*
X151020147Y-103288574D01*
X151128320Y-103549727D01*
X151285363Y-103784759D01*
X151485241Y-103984637D01*
X151720273Y-104141680D01*
X151981426Y-104249853D01*
X152258665Y-104305000D01*
X152541335Y-104305000D01*
X152818574Y-104249853D01*
X153079727Y-104141680D01*
X153314759Y-103984637D01*
X153436694Y-103862702D01*
X159206903Y-103862702D01*
X159278486Y-104106671D01*
X159533996Y-104227571D01*
X159808184Y-104296300D01*
X160090512Y-104310217D01*
X160370130Y-104268787D01*
X160636292Y-104173603D01*
X160761514Y-104106671D01*
X160833097Y-103862702D01*
X160020000Y-103049605D01*
X159206903Y-103862702D01*
X153436694Y-103862702D01*
X153514637Y-103784759D01*
X153671680Y-103549727D01*
X153779853Y-103288574D01*
X153835000Y-103011335D01*
X153835000Y-102940512D01*
X158579783Y-102940512D01*
X158621213Y-103220130D01*
X158716397Y-103486292D01*
X158783329Y-103611514D01*
X159027298Y-103683097D01*
X159840395Y-102870000D01*
X160199605Y-102870000D01*
X161012702Y-103683097D01*
X161256671Y-103611514D01*
X161377571Y-103356004D01*
X161446300Y-103081816D01*
X161460217Y-102799488D01*
X161418787Y-102519870D01*
X161323603Y-102253708D01*
X161256671Y-102128486D01*
X161012702Y-102056903D01*
X160199605Y-102870000D01*
X159840395Y-102870000D01*
X159027298Y-102056903D01*
X158783329Y-102128486D01*
X158662429Y-102383996D01*
X158593700Y-102658184D01*
X158579783Y-102940512D01*
X153835000Y-102940512D01*
X153835000Y-102728665D01*
X153779853Y-102451426D01*
X153671680Y-102190273D01*
X153514637Y-101955241D01*
X153436694Y-101877298D01*
X159206903Y-101877298D01*
X160020000Y-102690395D01*
X160833097Y-101877298D01*
X160761514Y-101633329D01*
X160506004Y-101512429D01*
X160231816Y-101443700D01*
X159949488Y-101429783D01*
X159669870Y-101471213D01*
X159403708Y-101566397D01*
X159278486Y-101633329D01*
X159206903Y-101877298D01*
X153436694Y-101877298D01*
X153314759Y-101755363D01*
X153079727Y-101598320D01*
X152818574Y-101490147D01*
X152541335Y-101435000D01*
X152258665Y-101435000D01*
X151981426Y-101490147D01*
X151720273Y-101598320D01*
X151485241Y-101755363D01*
X151285363Y-101955241D01*
X151128320Y-102190273D01*
X151020147Y-102451426D01*
X150965000Y-102728665D01*
X143984988Y-102728665D01*
X143976038Y-102715271D01*
X143664729Y-102403962D01*
X143298669Y-102159369D01*
X142891925Y-101990890D01*
X142460128Y-101905000D01*
X142019872Y-101905000D01*
X141588075Y-101990890D01*
X141181331Y-102159369D01*
X140815271Y-102403962D01*
X140503962Y-102715271D01*
X140259369Y-103081331D01*
X140090890Y-103488075D01*
X140005000Y-103919872D01*
X134718932Y-103919872D01*
X134718215Y-103912600D01*
X134651885Y-103693940D01*
X134596087Y-103589548D01*
X134642247Y-103575546D01*
X134774276Y-103504974D01*
X134890001Y-103410001D01*
X134913804Y-103380997D01*
X139376136Y-98918665D01*
X150965000Y-98918665D01*
X150965000Y-99201335D01*
X151020147Y-99478574D01*
X151128320Y-99739727D01*
X151285363Y-99974759D01*
X151485241Y-100174637D01*
X151720273Y-100331680D01*
X151981426Y-100439853D01*
X152258665Y-100495000D01*
X152541335Y-100495000D01*
X152818574Y-100439853D01*
X153079727Y-100331680D01*
X153314759Y-100174637D01*
X153514637Y-99974759D01*
X153671680Y-99739727D01*
X153779853Y-99478574D01*
X153835000Y-99201335D01*
X153835000Y-98918665D01*
X158585000Y-98918665D01*
X158585000Y-99201335D01*
X158640147Y-99478574D01*
X158748320Y-99739727D01*
X158905363Y-99974759D01*
X159105241Y-100174637D01*
X159340273Y-100331680D01*
X159601426Y-100439853D01*
X159878665Y-100495000D01*
X160161335Y-100495000D01*
X160438574Y-100439853D01*
X160699727Y-100331680D01*
X160934759Y-100174637D01*
X161134637Y-99974759D01*
X161291680Y-99739727D01*
X161399853Y-99478574D01*
X161455000Y-99201335D01*
X161455000Y-98918665D01*
X161399853Y-98641426D01*
X161291680Y-98380273D01*
X161134637Y-98145241D01*
X160934759Y-97945363D01*
X160699727Y-97788320D01*
X160438574Y-97680147D01*
X160161335Y-97625000D01*
X159878665Y-97625000D01*
X159601426Y-97680147D01*
X159340273Y-97788320D01*
X159105241Y-97945363D01*
X158905363Y-98145241D01*
X158748320Y-98380273D01*
X158640147Y-98641426D01*
X158585000Y-98918665D01*
X153835000Y-98918665D01*
X153779853Y-98641426D01*
X153671680Y-98380273D01*
X153514637Y-98145241D01*
X153314759Y-97945363D01*
X153079727Y-97788320D01*
X152818574Y-97680147D01*
X152541335Y-97625000D01*
X152258665Y-97625000D01*
X151981426Y-97680147D01*
X151720273Y-97788320D01*
X151485241Y-97945363D01*
X151285363Y-98145241D01*
X151128320Y-98380273D01*
X151020147Y-98641426D01*
X150965000Y-98918665D01*
X139376136Y-98918665D01*
X144829091Y-93465711D01*
X144935363Y-93624759D01*
X145133961Y-93823357D01*
X145125518Y-93824188D01*
X145005820Y-93860498D01*
X144895506Y-93919463D01*
X144798815Y-93998815D01*
X144719463Y-94095506D01*
X144660498Y-94205820D01*
X144624188Y-94325518D01*
X144611928Y-94450000D01*
X144611928Y-96050000D01*
X144624188Y-96174482D01*
X144660498Y-96294180D01*
X144719463Y-96404494D01*
X144798815Y-96501185D01*
X144895506Y-96580537D01*
X145005820Y-96639502D01*
X145125518Y-96675812D01*
X145250000Y-96688072D01*
X146850000Y-96688072D01*
X146974482Y-96675812D01*
X147094180Y-96639502D01*
X147204494Y-96580537D01*
X147301185Y-96501185D01*
X147380537Y-96404494D01*
X147439502Y-96294180D01*
X147475812Y-96174482D01*
X147488072Y-96050000D01*
X147488072Y-95108665D01*
X150965000Y-95108665D01*
X150965000Y-95391335D01*
X151020147Y-95668574D01*
X151128320Y-95929727D01*
X151285363Y-96164759D01*
X151485241Y-96364637D01*
X151720273Y-96521680D01*
X151981426Y-96629853D01*
X152258665Y-96685000D01*
X152541335Y-96685000D01*
X152818574Y-96629853D01*
X153079727Y-96521680D01*
X153314759Y-96364637D01*
X153514637Y-96164759D01*
X153671680Y-95929727D01*
X153779853Y-95668574D01*
X153835000Y-95391335D01*
X153835000Y-95108665D01*
X153779853Y-94831426D01*
X153671680Y-94570273D01*
X153514637Y-94335241D01*
X153314759Y-94135363D01*
X153079727Y-93978320D01*
X152818574Y-93870147D01*
X152541335Y-93815000D01*
X152258665Y-93815000D01*
X151981426Y-93870147D01*
X151720273Y-93978320D01*
X151485241Y-94135363D01*
X151285363Y-94335241D01*
X151128320Y-94570273D01*
X151020147Y-94831426D01*
X150965000Y-95108665D01*
X147488072Y-95108665D01*
X147488072Y-94450000D01*
X147475812Y-94325518D01*
X147439502Y-94205820D01*
X147380537Y-94095506D01*
X147301185Y-93998815D01*
X147204494Y-93919463D01*
X147094180Y-93860498D01*
X146974482Y-93824188D01*
X146966039Y-93823357D01*
X147164637Y-93624759D01*
X147321680Y-93389727D01*
X147429853Y-93128574D01*
X147485000Y-92851335D01*
X147485000Y-92568665D01*
X147429853Y-92291426D01*
X147321680Y-92030273D01*
X147164637Y-91795241D01*
X146964759Y-91595363D01*
X146732241Y-91440000D01*
X146943764Y-91298665D01*
X150965000Y-91298665D01*
X150965000Y-91581335D01*
X151020147Y-91858574D01*
X151128320Y-92119727D01*
X151285363Y-92354759D01*
X151485241Y-92554637D01*
X151720273Y-92711680D01*
X151981426Y-92819853D01*
X152258665Y-92875000D01*
X152541335Y-92875000D01*
X152818574Y-92819853D01*
X153079727Y-92711680D01*
X153314759Y-92554637D01*
X153514637Y-92354759D01*
X153671680Y-92119727D01*
X153779853Y-91858574D01*
X153835000Y-91581335D01*
X153835000Y-91298665D01*
X153779853Y-91021426D01*
X153671680Y-90760273D01*
X153514637Y-90525241D01*
X153314759Y-90325363D01*
X153079727Y-90168320D01*
X152818574Y-90060147D01*
X152541335Y-90005000D01*
X152258665Y-90005000D01*
X151981426Y-90060147D01*
X151720273Y-90168320D01*
X151485241Y-90325363D01*
X151285363Y-90525241D01*
X151128320Y-90760273D01*
X151020147Y-91021426D01*
X150965000Y-91298665D01*
X146943764Y-91298665D01*
X146964759Y-91284637D01*
X147164637Y-91084759D01*
X147321680Y-90849727D01*
X147429853Y-90588574D01*
X147485000Y-90311335D01*
X147485000Y-90028665D01*
X147429853Y-89751426D01*
X147321680Y-89490273D01*
X147164637Y-89255241D01*
X146964759Y-89055363D01*
X146732241Y-88900000D01*
X146964759Y-88744637D01*
X147164637Y-88544759D01*
X147268043Y-88390000D01*
X151221957Y-88390000D01*
X151325363Y-88544759D01*
X151525241Y-88744637D01*
X151760273Y-88901680D01*
X152021426Y-89009853D01*
X152298665Y-89065000D01*
X152581335Y-89065000D01*
X152763887Y-89028688D01*
X158627949Y-94892751D01*
X158585000Y-95108665D01*
X158585000Y-95391335D01*
X158640147Y-95668574D01*
X158748320Y-95929727D01*
X158905363Y-96164759D01*
X159105241Y-96364637D01*
X159340273Y-96521680D01*
X159601426Y-96629853D01*
X159878665Y-96685000D01*
X160161335Y-96685000D01*
X160438574Y-96629853D01*
X160699727Y-96521680D01*
X160934759Y-96364637D01*
X161134637Y-96164759D01*
X161291680Y-95929727D01*
X161399853Y-95668574D01*
X161455000Y-95391335D01*
X161455000Y-95108665D01*
X161399853Y-94831426D01*
X161291680Y-94570273D01*
X161134637Y-94335241D01*
X160934759Y-94135363D01*
X160699727Y-93978320D01*
X160438574Y-93870147D01*
X160161335Y-93815000D01*
X159878665Y-93815000D01*
X159729478Y-93844676D01*
X158317504Y-92432702D01*
X159206903Y-92432702D01*
X159278486Y-92676671D01*
X159533996Y-92797571D01*
X159808184Y-92866300D01*
X160090512Y-92880217D01*
X160370130Y-92838787D01*
X160636292Y-92743603D01*
X160761514Y-92676671D01*
X160833097Y-92432702D01*
X160020000Y-91619605D01*
X159206903Y-92432702D01*
X158317504Y-92432702D01*
X157395314Y-91510512D01*
X158579783Y-91510512D01*
X158621213Y-91790130D01*
X158716397Y-92056292D01*
X158783329Y-92181514D01*
X159027298Y-92253097D01*
X159840395Y-91440000D01*
X160199605Y-91440000D01*
X161012702Y-92253097D01*
X161256671Y-92181514D01*
X161377571Y-91926004D01*
X161446300Y-91651816D01*
X161460217Y-91369488D01*
X161418787Y-91089870D01*
X161323603Y-90823708D01*
X161256671Y-90698486D01*
X161012702Y-90626903D01*
X160199605Y-91440000D01*
X159840395Y-91440000D01*
X159027298Y-90626903D01*
X158783329Y-90698486D01*
X158662429Y-90953996D01*
X158593700Y-91228184D01*
X158579783Y-91510512D01*
X157395314Y-91510512D01*
X156332100Y-90447298D01*
X159206903Y-90447298D01*
X160020000Y-91260395D01*
X160833097Y-90447298D01*
X160761514Y-90203329D01*
X160506004Y-90082429D01*
X160231816Y-90013700D01*
X159949488Y-89999783D01*
X159669870Y-90041213D01*
X159403708Y-90136397D01*
X159278486Y-90203329D01*
X159206903Y-90447298D01*
X156332100Y-90447298D01*
X154952141Y-89067340D01*
X155010512Y-89070217D01*
X155290130Y-89028787D01*
X155556292Y-88933603D01*
X155681514Y-88866671D01*
X155753097Y-88622702D01*
X154940000Y-87809605D01*
X154925858Y-87823748D01*
X154746253Y-87644143D01*
X154760395Y-87630000D01*
X155119605Y-87630000D01*
X155932702Y-88443097D01*
X156176671Y-88371514D01*
X156297571Y-88116004D01*
X156366300Y-87841816D01*
X156380217Y-87559488D01*
X156338787Y-87279870D01*
X156243603Y-87013708D01*
X156176671Y-86888486D01*
X155932702Y-86816903D01*
X155119605Y-87630000D01*
X154760395Y-87630000D01*
X154746253Y-87615858D01*
X154925858Y-87436253D01*
X154940000Y-87450395D01*
X155753097Y-86637298D01*
X155681514Y-86393329D01*
X155426004Y-86272429D01*
X155151816Y-86203700D01*
X154869488Y-86189783D01*
X154589870Y-86231213D01*
X154323708Y-86326397D01*
X154285001Y-86347086D01*
X154285001Y-84169039D01*
X158628096Y-84169039D01*
X158668754Y-84303087D01*
X158788963Y-84557420D01*
X158956481Y-84783414D01*
X159164869Y-84972385D01*
X159406119Y-85117070D01*
X159670960Y-85211909D01*
X159893000Y-85090624D01*
X159893000Y-83947000D01*
X160147000Y-83947000D01*
X160147000Y-85090624D01*
X160369040Y-85211909D01*
X160633881Y-85117070D01*
X160875131Y-84972385D01*
X161083519Y-84783414D01*
X161251037Y-84557420D01*
X161371246Y-84303087D01*
X161411904Y-84169039D01*
X161289915Y-83947000D01*
X160147000Y-83947000D01*
X159893000Y-83947000D01*
X158750085Y-83947000D01*
X158628096Y-84169039D01*
X154285001Y-84169039D01*
X154285001Y-83470961D01*
X158628096Y-83470961D01*
X158750085Y-83693000D01*
X159893000Y-83693000D01*
X159893000Y-82549376D01*
X160147000Y-82549376D01*
X160147000Y-83693000D01*
X161289915Y-83693000D01*
X161411904Y-83470961D01*
X161371246Y-83336913D01*
X161251037Y-83082580D01*
X161083519Y-82856586D01*
X160875131Y-82667615D01*
X160633881Y-82522930D01*
X160369040Y-82428091D01*
X160147000Y-82549376D01*
X159893000Y-82549376D01*
X159670960Y-82428091D01*
X159406119Y-82522930D01*
X159164869Y-82667615D01*
X158956481Y-82856586D01*
X158788963Y-83082580D01*
X158668754Y-83336913D01*
X158628096Y-83470961D01*
X154285001Y-83470961D01*
X154285001Y-79868665D01*
X158585000Y-79868665D01*
X158585000Y-80151335D01*
X158640147Y-80428574D01*
X158748320Y-80689727D01*
X158905363Y-80924759D01*
X159105241Y-81124637D01*
X159340273Y-81281680D01*
X159601426Y-81389853D01*
X159878665Y-81445000D01*
X160161335Y-81445000D01*
X160438574Y-81389853D01*
X160699727Y-81281680D01*
X160934759Y-81124637D01*
X161134637Y-80924759D01*
X161291680Y-80689727D01*
X161399853Y-80428574D01*
X161455000Y-80151335D01*
X161455000Y-79868665D01*
X161399853Y-79591426D01*
X161291680Y-79330273D01*
X161134637Y-79095241D01*
X160934759Y-78895363D01*
X160699727Y-78738320D01*
X160438574Y-78630147D01*
X160161335Y-78575000D01*
X159878665Y-78575000D01*
X159601426Y-78630147D01*
X159340273Y-78738320D01*
X159105241Y-78895363D01*
X158905363Y-79095241D01*
X158748320Y-79330273D01*
X158640147Y-79591426D01*
X158585000Y-79868665D01*
X154285001Y-79868665D01*
X154285001Y-76207607D01*
X154453996Y-76287571D01*
X154728184Y-76356300D01*
X155010512Y-76370217D01*
X155290130Y-76328787D01*
X155556292Y-76233603D01*
X155681514Y-76166671D01*
X155753097Y-75922702D01*
X154940000Y-75109605D01*
X154925858Y-75123748D01*
X154746253Y-74944143D01*
X154760395Y-74930000D01*
X155119605Y-74930000D01*
X155932702Y-75743097D01*
X156176671Y-75671514D01*
X156297571Y-75416004D01*
X156366300Y-75141816D01*
X156380217Y-74859488D01*
X156338787Y-74579870D01*
X156243603Y-74313708D01*
X156176671Y-74188486D01*
X155932702Y-74116903D01*
X155119605Y-74930000D01*
X154760395Y-74930000D01*
X153947298Y-74116903D01*
X153703329Y-74188486D01*
X153689676Y-74217341D01*
X153554637Y-74015241D01*
X153476694Y-73937298D01*
X154126903Y-73937298D01*
X154940000Y-74750395D01*
X155753097Y-73937298D01*
X155681514Y-73693329D01*
X155426004Y-73572429D01*
X155151816Y-73503700D01*
X154869488Y-73489783D01*
X154589870Y-73531213D01*
X154323708Y-73626397D01*
X154198486Y-73693329D01*
X154126903Y-73937298D01*
X153476694Y-73937298D01*
X153354759Y-73815363D01*
X153119727Y-73658320D01*
X152858574Y-73550147D01*
X152581335Y-73495000D01*
X152298665Y-73495000D01*
X152116114Y-73531312D01*
X149563467Y-70978665D01*
X151005000Y-70978665D01*
X151005000Y-71261335D01*
X151060147Y-71538574D01*
X151168320Y-71799727D01*
X151325363Y-72034759D01*
X151525241Y-72234637D01*
X151760273Y-72391680D01*
X152021426Y-72499853D01*
X152298665Y-72555000D01*
X152581335Y-72555000D01*
X152858574Y-72499853D01*
X153119727Y-72391680D01*
X153354759Y-72234637D01*
X153476694Y-72112702D01*
X154126903Y-72112702D01*
X154198486Y-72356671D01*
X154453996Y-72477571D01*
X154728184Y-72546300D01*
X155010512Y-72560217D01*
X155290130Y-72518787D01*
X155556292Y-72423603D01*
X155681514Y-72356671D01*
X155753097Y-72112702D01*
X154940000Y-71299605D01*
X154126903Y-72112702D01*
X153476694Y-72112702D01*
X153554637Y-72034759D01*
X153688692Y-71834131D01*
X153703329Y-71861514D01*
X153947298Y-71933097D01*
X154760395Y-71120000D01*
X155119605Y-71120000D01*
X155932702Y-71933097D01*
X156176671Y-71861514D01*
X156297571Y-71606004D01*
X156366300Y-71331816D01*
X156380217Y-71049488D01*
X156338787Y-70769870D01*
X156243603Y-70503708D01*
X156176671Y-70378486D01*
X155932702Y-70306903D01*
X155119605Y-71120000D01*
X154760395Y-71120000D01*
X153947298Y-70306903D01*
X153703329Y-70378486D01*
X153689676Y-70407341D01*
X153554637Y-70205241D01*
X153476694Y-70127298D01*
X154126903Y-70127298D01*
X154940000Y-70940395D01*
X155753097Y-70127298D01*
X155681514Y-69883329D01*
X155426004Y-69762429D01*
X155151816Y-69693700D01*
X154869488Y-69679783D01*
X154589870Y-69721213D01*
X154323708Y-69816397D01*
X154198486Y-69883329D01*
X154126903Y-70127298D01*
X153476694Y-70127298D01*
X153354759Y-70005363D01*
X153119727Y-69848320D01*
X152858574Y-69740147D01*
X152581335Y-69685000D01*
X152298665Y-69685000D01*
X152021426Y-69740147D01*
X151760273Y-69848320D01*
X151525241Y-70005363D01*
X151325363Y-70205241D01*
X151168320Y-70440273D01*
X151060147Y-70701426D01*
X151005000Y-70978665D01*
X149563467Y-70978665D01*
X148612302Y-70027501D01*
X151002076Y-67637728D01*
X151020147Y-67728574D01*
X151128320Y-67989727D01*
X151285363Y-68224759D01*
X151485241Y-68424637D01*
X151720273Y-68581680D01*
X151981426Y-68689853D01*
X152258665Y-68745000D01*
X152541335Y-68745000D01*
X152818574Y-68689853D01*
X153079727Y-68581680D01*
X153314759Y-68424637D01*
X153436694Y-68302702D01*
X159206903Y-68302702D01*
X159278486Y-68546671D01*
X159533996Y-68667571D01*
X159808184Y-68736300D01*
X160090512Y-68750217D01*
X160370130Y-68708787D01*
X160636292Y-68613603D01*
X160761514Y-68546671D01*
X160833097Y-68302702D01*
X160020000Y-67489605D01*
X159206903Y-68302702D01*
X153436694Y-68302702D01*
X153514637Y-68224759D01*
X153671680Y-67989727D01*
X153779853Y-67728574D01*
X153835000Y-67451335D01*
X153835000Y-67380512D01*
X158579783Y-67380512D01*
X158621213Y-67660130D01*
X158716397Y-67926292D01*
X158783329Y-68051514D01*
X159027298Y-68123097D01*
X159840395Y-67310000D01*
X160199605Y-67310000D01*
X161012702Y-68123097D01*
X161256671Y-68051514D01*
X161377571Y-67796004D01*
X161446300Y-67521816D01*
X161460217Y-67239488D01*
X161418787Y-66959870D01*
X161323603Y-66693708D01*
X161256671Y-66568486D01*
X161012702Y-66496903D01*
X160199605Y-67310000D01*
X159840395Y-67310000D01*
X159027298Y-66496903D01*
X158783329Y-66568486D01*
X158662429Y-66823996D01*
X158593700Y-67098184D01*
X158579783Y-67380512D01*
X153835000Y-67380512D01*
X153835000Y-67168665D01*
X153779853Y-66891426D01*
X153671680Y-66630273D01*
X153514637Y-66395241D01*
X153436694Y-66317298D01*
X159206903Y-66317298D01*
X160020000Y-67130395D01*
X160833097Y-66317298D01*
X160761514Y-66073329D01*
X160506004Y-65952429D01*
X160231816Y-65883700D01*
X159949488Y-65869783D01*
X159669870Y-65911213D01*
X159403708Y-66006397D01*
X159278486Y-66073329D01*
X159206903Y-66317298D01*
X153436694Y-66317298D01*
X153314759Y-66195363D01*
X153079727Y-66038320D01*
X152818574Y-65930147D01*
X152727728Y-65912076D01*
X154036009Y-64603796D01*
X154065002Y-64580002D01*
X154088796Y-64551009D01*
X154088800Y-64551005D01*
X154159974Y-64464278D01*
X154186443Y-64414759D01*
X154230547Y-64332248D01*
X154274004Y-64188987D01*
X154285001Y-64077334D01*
X154285001Y-64077325D01*
X154288677Y-64040002D01*
X154285001Y-64002679D01*
X154285001Y-63358665D01*
X158585000Y-63358665D01*
X158585000Y-63641335D01*
X158640147Y-63918574D01*
X158748320Y-64179727D01*
X158905363Y-64414759D01*
X159105241Y-64614637D01*
X159340273Y-64771680D01*
X159601426Y-64879853D01*
X159878665Y-64935000D01*
X160161335Y-64935000D01*
X160438574Y-64879853D01*
X160699727Y-64771680D01*
X160934759Y-64614637D01*
X161134637Y-64414759D01*
X161291680Y-64179727D01*
X161399853Y-63918574D01*
X161455000Y-63641335D01*
X161455000Y-63358665D01*
X161399853Y-63081426D01*
X161291680Y-62820273D01*
X161134637Y-62585241D01*
X160934759Y-62385363D01*
X160699727Y-62228320D01*
X160438574Y-62120147D01*
X160161335Y-62065000D01*
X159878665Y-62065000D01*
X159601426Y-62120147D01*
X159340273Y-62228320D01*
X159105241Y-62385363D01*
X158905363Y-62585241D01*
X158748320Y-62820273D01*
X158640147Y-63081426D01*
X158585000Y-63358665D01*
X154285001Y-63358665D01*
X154285001Y-59548665D01*
X158585000Y-59548665D01*
X158585000Y-59831335D01*
X158640147Y-60108574D01*
X158748320Y-60369727D01*
X158905363Y-60604759D01*
X159105241Y-60804637D01*
X159340273Y-60961680D01*
X159601426Y-61069853D01*
X159878665Y-61125000D01*
X160161335Y-61125000D01*
X160438574Y-61069853D01*
X160699727Y-60961680D01*
X160934759Y-60804637D01*
X161134637Y-60604759D01*
X161291680Y-60369727D01*
X161399853Y-60108574D01*
X161455000Y-59831335D01*
X161455000Y-59548665D01*
X161399853Y-59271426D01*
X161291680Y-59010273D01*
X161134637Y-58775241D01*
X160934759Y-58575363D01*
X160699727Y-58418320D01*
X160438574Y-58310147D01*
X160161335Y-58255000D01*
X159878665Y-58255000D01*
X159601426Y-58310147D01*
X159340273Y-58418320D01*
X159105241Y-58575363D01*
X158905363Y-58775241D01*
X158748320Y-59010273D01*
X158640147Y-59271426D01*
X158585000Y-59548665D01*
X154285001Y-59548665D01*
X154285001Y-55738665D01*
X158585000Y-55738665D01*
X158585000Y-56021335D01*
X158640147Y-56298574D01*
X158748320Y-56559727D01*
X158905363Y-56794759D01*
X159105241Y-56994637D01*
X159340273Y-57151680D01*
X159601426Y-57259853D01*
X159878665Y-57315000D01*
X160161335Y-57315000D01*
X160438574Y-57259853D01*
X160699727Y-57151680D01*
X160934759Y-56994637D01*
X161134637Y-56794759D01*
X161291680Y-56559727D01*
X161399853Y-56298574D01*
X161455000Y-56021335D01*
X161455000Y-55738665D01*
X161399853Y-55461426D01*
X161291680Y-55200273D01*
X161134637Y-54965241D01*
X160934759Y-54765363D01*
X160699727Y-54608320D01*
X160438574Y-54500147D01*
X160161335Y-54445000D01*
X159878665Y-54445000D01*
X159601426Y-54500147D01*
X159340273Y-54608320D01*
X159105241Y-54765363D01*
X158905363Y-54965241D01*
X158748320Y-55200273D01*
X158640147Y-55461426D01*
X158585000Y-55738665D01*
X154285001Y-55738665D01*
X154285001Y-55377322D01*
X154288677Y-55339999D01*
X154285001Y-55302676D01*
X154285001Y-55302666D01*
X154274004Y-55191013D01*
X154230547Y-55047752D01*
X154230276Y-55047245D01*
X154159975Y-54915722D01*
X154088800Y-54828996D01*
X154065002Y-54799998D01*
X154036005Y-54776201D01*
X153503804Y-54244001D01*
X153480002Y-54214998D01*
X153364277Y-54120025D01*
X153232248Y-54049453D01*
X153088987Y-54005996D01*
X152977334Y-53994999D01*
X152977323Y-53994999D01*
X152940001Y-53991323D01*
X152902679Y-53994999D01*
X146040799Y-53994999D01*
X144176909Y-52131110D01*
X144213411Y-52115990D01*
X144456632Y-51953475D01*
X144663475Y-51746632D01*
X144780000Y-51572240D01*
X144896525Y-51746632D01*
X145103368Y-51953475D01*
X145346589Y-52115990D01*
X145616842Y-52227932D01*
X145903740Y-52285000D01*
X146196260Y-52285000D01*
X146483158Y-52227932D01*
X146753411Y-52115990D01*
X146996632Y-51953475D01*
X147203475Y-51746632D01*
X147320000Y-51572240D01*
X147436525Y-51746632D01*
X147643368Y-51953475D01*
X147886589Y-52115990D01*
X148156842Y-52227932D01*
X148443740Y-52285000D01*
X148736260Y-52285000D01*
X149023158Y-52227932D01*
X149293411Y-52115990D01*
X149536632Y-51953475D01*
X149743475Y-51746632D01*
X149905990Y-51503411D01*
X150017932Y-51233158D01*
X150075000Y-50946260D01*
X150075000Y-50653740D01*
X150017932Y-50366842D01*
X149905990Y-50096589D01*
X149743475Y-49853368D01*
X149536632Y-49646525D01*
X149362240Y-49530000D01*
X149536632Y-49413475D01*
X149743475Y-49206632D01*
X149905990Y-48963411D01*
X150017932Y-48693158D01*
X150075000Y-48406260D01*
X150075000Y-48113740D01*
X150017932Y-47826842D01*
X149905990Y-47556589D01*
X149743475Y-47313368D01*
X149536632Y-47106525D01*
X149293411Y-46944010D01*
X149023158Y-46832068D01*
X148736260Y-46775000D01*
X148443740Y-46775000D01*
X148156842Y-46832068D01*
X147886589Y-46944010D01*
X147643368Y-47106525D01*
X147436525Y-47313368D01*
X147320000Y-47487760D01*
X147203475Y-47313368D01*
X146996632Y-47106525D01*
X146753411Y-46944010D01*
X146483158Y-46832068D01*
X146196260Y-46775000D01*
X145903740Y-46775000D01*
X145616842Y-46832068D01*
X145346589Y-46944010D01*
X145103368Y-47106525D01*
X144896525Y-47313368D01*
X144780000Y-47487760D01*
X144663475Y-47313368D01*
X144456632Y-47106525D01*
X144213411Y-46944010D01*
X143943158Y-46832068D01*
X143656260Y-46775000D01*
X143363740Y-46775000D01*
X143076842Y-46832068D01*
X142806589Y-46944010D01*
X142563368Y-47106525D01*
X142356525Y-47313368D01*
X142240000Y-47487760D01*
X142123475Y-47313368D01*
X141916632Y-47106525D01*
X141673411Y-46944010D01*
X141403158Y-46832068D01*
X141116260Y-46775000D01*
X140823740Y-46775000D01*
X140554999Y-46828456D01*
X140554999Y-43385766D01*
X140815271Y-43646038D01*
X141181331Y-43890631D01*
X141588075Y-44059110D01*
X142019872Y-44145000D01*
X142460128Y-44145000D01*
X142891925Y-44059110D01*
X143298669Y-43890631D01*
X143664729Y-43646038D01*
X143976038Y-43334729D01*
X144220631Y-42968669D01*
X144389110Y-42561925D01*
X144475000Y-42130128D01*
X144475000Y-41910000D01*
X151009388Y-41910000D01*
X151031785Y-42137400D01*
X151098115Y-42356060D01*
X151199105Y-42545000D01*
X151098115Y-42733940D01*
X151031785Y-42952600D01*
X151009388Y-43180000D01*
X151031785Y-43407400D01*
X151098115Y-43626060D01*
X151205829Y-43827579D01*
X151350788Y-44004212D01*
X151527421Y-44149171D01*
X151728940Y-44256885D01*
X151947600Y-44323215D01*
X152118021Y-44340000D01*
X152681979Y-44340000D01*
X152852400Y-44323215D01*
X153071060Y-44256885D01*
X153272579Y-44149171D01*
X153449212Y-44004212D01*
X153594171Y-43827579D01*
X153701885Y-43626060D01*
X153768215Y-43407400D01*
X153790612Y-43180000D01*
X153768215Y-42952600D01*
X153701885Y-42733940D01*
X153600895Y-42545000D01*
X153701885Y-42356060D01*
X153768215Y-42137400D01*
X153790612Y-41910000D01*
X157359388Y-41910000D01*
X157381785Y-42137400D01*
X157448115Y-42356060D01*
X157549105Y-42545000D01*
X157448115Y-42733940D01*
X157381785Y-42952600D01*
X157359388Y-43180000D01*
X157381785Y-43407400D01*
X157448115Y-43626060D01*
X157555829Y-43827579D01*
X157700788Y-44004212D01*
X157877421Y-44149171D01*
X158078940Y-44256885D01*
X158297600Y-44323215D01*
X158468021Y-44340000D01*
X159031979Y-44340000D01*
X159202400Y-44323215D01*
X159421060Y-44256885D01*
X159622579Y-44149171D01*
X159799212Y-44004212D01*
X159944171Y-43827579D01*
X160051885Y-43626060D01*
X160118215Y-43407400D01*
X160140612Y-43180000D01*
X160118215Y-42952600D01*
X160051885Y-42733940D01*
X159950895Y-42545000D01*
X160051885Y-42356060D01*
X160118215Y-42137400D01*
X160140612Y-41910000D01*
X160118215Y-41682600D01*
X160054907Y-41473902D01*
X160089502Y-41409180D01*
X160125812Y-41289482D01*
X160138072Y-41165000D01*
X160135000Y-40925750D01*
X159976250Y-40767000D01*
X159203109Y-40767000D01*
X159202400Y-40766785D01*
X159031979Y-40750000D01*
X158468021Y-40750000D01*
X158297600Y-40766785D01*
X158296891Y-40767000D01*
X157523750Y-40767000D01*
X157365000Y-40925750D01*
X157361928Y-41165000D01*
X157374188Y-41289482D01*
X157410498Y-41409180D01*
X157445093Y-41473902D01*
X157381785Y-41682600D01*
X157359388Y-41910000D01*
X153790612Y-41910000D01*
X153768215Y-41682600D01*
X153704907Y-41473902D01*
X153739502Y-41409180D01*
X153775812Y-41289482D01*
X153788072Y-41165000D01*
X153785000Y-40925750D01*
X153626250Y-40767000D01*
X152853109Y-40767000D01*
X152852400Y-40766785D01*
X152681979Y-40750000D01*
X152118021Y-40750000D01*
X151947600Y-40766785D01*
X151946891Y-40767000D01*
X151173750Y-40767000D01*
X151015000Y-40925750D01*
X151011928Y-41165000D01*
X151024188Y-41289482D01*
X151060498Y-41409180D01*
X151095093Y-41473902D01*
X151031785Y-41682600D01*
X151009388Y-41910000D01*
X144475000Y-41910000D01*
X144475000Y-41689872D01*
X144389110Y-41258075D01*
X144220631Y-40851331D01*
X143976038Y-40485271D01*
X143664729Y-40173962D01*
X143576486Y-40115000D01*
X151011928Y-40115000D01*
X151015000Y-40354250D01*
X151173750Y-40513000D01*
X152273000Y-40513000D01*
X152273000Y-39638750D01*
X152527000Y-39638750D01*
X152527000Y-40513000D01*
X153626250Y-40513000D01*
X153785000Y-40354250D01*
X153788072Y-40115000D01*
X157361928Y-40115000D01*
X157365000Y-40354250D01*
X157523750Y-40513000D01*
X158623000Y-40513000D01*
X158623000Y-39638750D01*
X158877000Y-39638750D01*
X158877000Y-40513000D01*
X159976250Y-40513000D01*
X160135000Y-40354250D01*
X160138072Y-40115000D01*
X160125812Y-39990518D01*
X160089502Y-39870820D01*
X160030537Y-39760506D01*
X159951185Y-39663815D01*
X159854494Y-39584463D01*
X159744180Y-39525498D01*
X159624482Y-39489188D01*
X159500000Y-39476928D01*
X159035750Y-39480000D01*
X158877000Y-39638750D01*
X158623000Y-39638750D01*
X158464250Y-39480000D01*
X158000000Y-39476928D01*
X157875518Y-39489188D01*
X157755820Y-39525498D01*
X157645506Y-39584463D01*
X157548815Y-39663815D01*
X157469463Y-39760506D01*
X157410498Y-39870820D01*
X157374188Y-39990518D01*
X157361928Y-40115000D01*
X153788072Y-40115000D01*
X153775812Y-39990518D01*
X153739502Y-39870820D01*
X153680537Y-39760506D01*
X153601185Y-39663815D01*
X153504494Y-39584463D01*
X153394180Y-39525498D01*
X153274482Y-39489188D01*
X153150000Y-39476928D01*
X152685750Y-39480000D01*
X152527000Y-39638750D01*
X152273000Y-39638750D01*
X152114250Y-39480000D01*
X151650000Y-39476928D01*
X151525518Y-39489188D01*
X151405820Y-39525498D01*
X151295506Y-39584463D01*
X151198815Y-39663815D01*
X151119463Y-39760506D01*
X151060498Y-39870820D01*
X151024188Y-39990518D01*
X151011928Y-40115000D01*
X143576486Y-40115000D01*
X143298669Y-39929369D01*
X142891925Y-39760890D01*
X142460128Y-39675000D01*
X142019872Y-39675000D01*
X141588075Y-39760890D01*
X141181331Y-39929369D01*
X140815271Y-40173962D01*
X140503962Y-40485271D01*
X140259369Y-40851331D01*
X140090890Y-41258075D01*
X140005000Y-41689872D01*
X140005000Y-42130128D01*
X140019916Y-42205114D01*
X137154154Y-39339353D01*
X137403996Y-39457571D01*
X137678184Y-39526300D01*
X137960512Y-39540217D01*
X138240130Y-39498787D01*
X138506292Y-39403603D01*
X138631514Y-39336671D01*
X138703097Y-39092702D01*
X137890000Y-38279605D01*
X137875858Y-38293748D01*
X137696253Y-38114143D01*
X137710395Y-38100000D01*
X138069605Y-38100000D01*
X138882702Y-38913097D01*
X139126671Y-38841514D01*
X139247571Y-38586004D01*
X139316300Y-38311816D01*
X139330217Y-38029488D01*
X139288787Y-37749870D01*
X139193603Y-37483708D01*
X139126671Y-37358486D01*
X138882702Y-37286903D01*
X138069605Y-38100000D01*
X137710395Y-38100000D01*
X137696253Y-38085858D01*
X137875858Y-37906253D01*
X137890000Y-37920395D01*
X138703097Y-37107298D01*
X138631514Y-36863329D01*
X138376004Y-36742429D01*
X138101816Y-36673700D01*
X137819488Y-36659783D01*
X137539870Y-36701213D01*
X137273708Y-36796397D01*
X137151691Y-36861616D01*
X137141185Y-36848815D01*
X137044494Y-36769463D01*
X136934180Y-36710498D01*
X136814482Y-36674188D01*
X136690000Y-36661928D01*
X135090000Y-36661928D01*
X134965518Y-36674188D01*
X134845820Y-36710498D01*
X134735506Y-36769463D01*
X134638815Y-36848815D01*
X134559463Y-36945506D01*
X134500498Y-37055820D01*
X134464188Y-37175518D01*
X134451928Y-37300000D01*
X134451928Y-37340000D01*
X132738072Y-37340000D01*
X132738072Y-36900000D01*
X132725812Y-36775518D01*
X132689502Y-36655820D01*
X132630537Y-36545506D01*
X132551185Y-36448815D01*
X132454494Y-36369463D01*
X132344180Y-36310498D01*
X132224482Y-36274188D01*
X132100000Y-36261928D01*
X129900000Y-36261928D01*
X129775518Y-36274188D01*
X129655820Y-36310498D01*
X129545506Y-36369463D01*
X129448815Y-36448815D01*
X129369463Y-36545506D01*
X129310498Y-36655820D01*
X129274188Y-36775518D01*
X129261928Y-36900000D01*
X129261928Y-39100000D01*
X129274188Y-39224482D01*
X129310498Y-39344180D01*
X129369463Y-39454494D01*
X129448815Y-39551185D01*
X129545506Y-39630537D01*
X129655820Y-39689502D01*
X129775518Y-39725812D01*
X129900000Y-39738072D01*
X132100000Y-39738072D01*
X132224482Y-39725812D01*
X132344180Y-39689502D01*
X132454494Y-39630537D01*
X132551185Y-39551185D01*
X132630537Y-39454494D01*
X132689502Y-39344180D01*
X132725812Y-39224482D01*
X132738072Y-39100000D01*
X132738072Y-38860000D01*
X134451928Y-38860000D01*
X134451928Y-38900000D01*
X134464188Y-39024482D01*
X134500498Y-39144180D01*
X134559463Y-39254494D01*
X134638815Y-39351185D01*
X134735506Y-39430537D01*
X134845820Y-39489502D01*
X134965518Y-39525812D01*
X135090000Y-39538072D01*
X135235674Y-39538072D01*
X135255026Y-39574276D01*
X135301199Y-39630537D01*
X135350000Y-39690001D01*
X135378998Y-39713799D01*
X139034999Y-43369801D01*
X139035000Y-46903247D01*
X138863158Y-46832068D01*
X138576260Y-46775000D01*
X138283740Y-46775000D01*
X137996842Y-46832068D01*
X137726589Y-46944010D01*
X137483368Y-47106525D01*
X137276525Y-47313368D01*
X137160000Y-47487760D01*
X137043475Y-47313368D01*
X136836632Y-47106525D01*
X136593411Y-46944010D01*
X136323158Y-46832068D01*
X136036260Y-46775000D01*
X135743740Y-46775000D01*
X135456842Y-46832068D01*
X135186589Y-46944010D01*
X134943368Y-47106525D01*
X134736525Y-47313368D01*
X134574010Y-47556589D01*
X134462068Y-47826842D01*
X134405000Y-48113740D01*
X134405000Y-48406260D01*
X134462068Y-48693158D01*
X134574010Y-48963411D01*
X134736525Y-49206632D01*
X134868380Y-49338487D01*
X134795820Y-49360498D01*
X134685506Y-49419463D01*
X134588815Y-49498815D01*
X134509463Y-49595506D01*
X134450498Y-49705820D01*
X134414188Y-49825518D01*
X134401928Y-49950000D01*
X134401928Y-51650000D01*
X134414188Y-51774482D01*
X134450498Y-51894180D01*
X134509463Y-52004494D01*
X134588815Y-52101185D01*
X134685506Y-52180537D01*
X134795820Y-52239502D01*
X134915518Y-52275812D01*
X135040000Y-52288072D01*
X136740000Y-52288072D01*
X136864482Y-52275812D01*
X136984180Y-52239502D01*
X137094494Y-52180537D01*
X137191185Y-52101185D01*
X137270537Y-52004494D01*
X137329502Y-51894180D01*
X137351513Y-51821620D01*
X137483368Y-51953475D01*
X137726589Y-52115990D01*
X137996842Y-52227932D01*
X138283740Y-52285000D01*
X138576260Y-52285000D01*
X138863158Y-52227932D01*
X139133411Y-52115990D01*
X139376632Y-51953475D01*
X139583475Y-51746632D01*
X139705195Y-51564466D01*
X139774822Y-51681355D01*
X139969731Y-51897588D01*
X140203080Y-52071641D01*
X140465901Y-52196825D01*
X140613110Y-52241476D01*
X140843000Y-52120155D01*
X140843000Y-50927000D01*
X140823000Y-50927000D01*
X140823000Y-50673000D01*
X140843000Y-50673000D01*
X140843000Y-50653000D01*
X141097000Y-50653000D01*
X141097000Y-50673000D01*
X141117000Y-50673000D01*
X141117000Y-50927000D01*
X141097000Y-50927000D01*
X141097000Y-52120155D01*
X141326890Y-52241476D01*
X141474099Y-52196825D01*
X141736920Y-52071641D01*
X141869184Y-51972987D01*
X145016196Y-55120000D01*
X140787322Y-55120000D01*
X140749999Y-55116324D01*
X140712676Y-55120000D01*
X140712667Y-55120000D01*
X140601014Y-55130997D01*
X140457753Y-55174454D01*
X140325724Y-55245026D01*
X140209999Y-55339999D01*
X140186201Y-55368997D01*
X139667563Y-55887636D01*
X139584494Y-55819463D01*
X139474180Y-55760498D01*
X139354482Y-55724188D01*
X139230000Y-55711928D01*
X137630000Y-55711928D01*
X137505518Y-55724188D01*
X137385820Y-55760498D01*
X137275506Y-55819463D01*
X137178815Y-55898815D01*
X137099463Y-55995506D01*
X137064924Y-56060122D01*
X132149231Y-51144430D01*
X132347663Y-50945998D01*
X132537537Y-50661831D01*
X132668325Y-50346081D01*
X132735000Y-50010883D01*
X132735000Y-49669117D01*
X132668325Y-49333919D01*
X132537537Y-49018169D01*
X132347663Y-48734002D01*
X132105998Y-48492337D01*
X131821831Y-48302463D01*
X131779763Y-48285038D01*
X132591004Y-47473798D01*
X132620001Y-47450001D01*
X132714974Y-47334276D01*
X132785546Y-47202247D01*
X132829003Y-47058986D01*
X132840000Y-46947333D01*
X132840000Y-46947324D01*
X132843676Y-46910001D01*
X132840000Y-46872678D01*
X132840000Y-45128043D01*
X132994759Y-45024637D01*
X133194637Y-44824759D01*
X133351680Y-44589727D01*
X133459853Y-44328574D01*
X133515000Y-44051335D01*
X133515000Y-43768665D01*
X133459853Y-43491426D01*
X133351680Y-43230273D01*
X133314607Y-43174790D01*
X133331185Y-43161185D01*
X133410537Y-43064494D01*
X133469502Y-42954180D01*
X133505812Y-42834482D01*
X133518072Y-42710000D01*
X133515000Y-42195750D01*
X133356250Y-42037000D01*
X132207000Y-42037000D01*
X132207000Y-42057000D01*
X131953000Y-42057000D01*
X131953000Y-42037000D01*
X130803750Y-42037000D01*
X130645000Y-42195750D01*
X130641928Y-42710000D01*
X130654188Y-42834482D01*
X130690498Y-42954180D01*
X130749463Y-43064494D01*
X130828815Y-43161185D01*
X130845393Y-43174790D01*
X130808320Y-43230273D01*
X130700147Y-43491426D01*
X130645000Y-43768665D01*
X130645000Y-44051335D01*
X130700147Y-44328574D01*
X130808320Y-44589727D01*
X130965363Y-44824759D01*
X131165241Y-45024637D01*
X131320001Y-45128044D01*
X131320000Y-46595198D01*
X130298998Y-47616201D01*
X130270000Y-47639999D01*
X130246202Y-47668997D01*
X130246201Y-47668998D01*
X130175026Y-47755724D01*
X130104454Y-47887754D01*
X130091420Y-47930723D01*
X130060998Y-48031014D01*
X130052850Y-48113740D01*
X130046324Y-48180000D01*
X130050001Y-48217332D01*
X130050001Y-48388102D01*
X129894002Y-48492337D01*
X129652337Y-48734002D01*
X129462463Y-49018169D01*
X129331675Y-49333919D01*
X129265000Y-49669117D01*
X129265000Y-50010883D01*
X129331675Y-50346081D01*
X129462463Y-50661831D01*
X129652337Y-50945998D01*
X129894002Y-51187663D01*
X130178169Y-51377537D01*
X130264497Y-51413295D01*
X130270000Y-51420001D01*
X130298998Y-51443799D01*
X136544999Y-57689801D01*
X136545000Y-68687667D01*
X136541323Y-68724999D01*
X136555997Y-68873984D01*
X136599453Y-69017245D01*
X136670025Y-69149275D01*
X136723986Y-69215026D01*
X136764999Y-69265000D01*
X136793997Y-69288798D01*
X137031312Y-69526113D01*
X136995000Y-69708665D01*
X136995000Y-69991335D01*
X137050147Y-70268574D01*
X137158320Y-70529727D01*
X137315363Y-70764759D01*
X137315400Y-70764796D01*
X134744003Y-73336194D01*
X134714999Y-73359997D01*
X134659871Y-73427172D01*
X134620026Y-73475722D01*
X134580245Y-73550147D01*
X134549454Y-73607752D01*
X134505997Y-73751013D01*
X134495000Y-73862666D01*
X134495000Y-73862676D01*
X134491324Y-73899998D01*
X134495000Y-73937321D01*
X134495001Y-75616956D01*
X134340241Y-75720363D01*
X134140363Y-75920241D01*
X133983320Y-76155273D01*
X133875147Y-76416426D01*
X133820000Y-76693665D01*
X133820000Y-76976335D01*
X133856312Y-77158887D01*
X133619001Y-77396197D01*
X133589998Y-77420000D01*
X133534870Y-77487175D01*
X133515000Y-77511386D01*
X133515000Y-77328665D01*
X133459853Y-77051426D01*
X133351680Y-76790273D01*
X133194637Y-76555241D01*
X132994759Y-76355363D01*
X132759727Y-76198320D01*
X132498574Y-76090147D01*
X132221335Y-76035000D01*
X131938665Y-76035000D01*
X131661426Y-76090147D01*
X131400273Y-76198320D01*
X131165241Y-76355363D01*
X130965363Y-76555241D01*
X130808320Y-76790273D01*
X130700147Y-77051426D01*
X130645000Y-77328665D01*
X130645000Y-77611335D01*
X130700147Y-77888574D01*
X130808320Y-78149727D01*
X130965363Y-78384759D01*
X131165241Y-78584637D01*
X131400273Y-78741680D01*
X131661426Y-78849853D01*
X131938665Y-78905000D01*
X132221335Y-78905000D01*
X132498574Y-78849853D01*
X132759727Y-78741680D01*
X132994759Y-78584637D01*
X133194637Y-78384759D01*
X133351680Y-78149727D01*
X133369999Y-78105501D01*
X133370000Y-83184501D01*
X133351680Y-83140273D01*
X133194637Y-82905241D01*
X132994759Y-82705363D01*
X132759727Y-82548320D01*
X132498574Y-82440147D01*
X132221335Y-82385000D01*
X131938665Y-82385000D01*
X131661426Y-82440147D01*
X131400273Y-82548320D01*
X131165241Y-82705363D01*
X130965363Y-82905241D01*
X130831308Y-83105869D01*
X130816671Y-83078486D01*
X130572702Y-83006903D01*
X129759605Y-83820000D01*
X130572702Y-84633097D01*
X130816671Y-84561514D01*
X130830324Y-84532659D01*
X130965363Y-84734759D01*
X131165241Y-84934637D01*
X131397759Y-85090000D01*
X131165241Y-85245363D01*
X130965363Y-85445241D01*
X130831308Y-85645869D01*
X130816671Y-85618486D01*
X130572702Y-85546903D01*
X129759605Y-86360000D01*
X129773748Y-86374143D01*
X129594143Y-86553748D01*
X129580000Y-86539605D01*
X128766903Y-87352702D01*
X128838486Y-87596671D01*
X129093996Y-87717571D01*
X129368184Y-87786300D01*
X129650512Y-87800217D01*
X129930130Y-87758787D01*
X130194999Y-87664065D01*
X130195000Y-90703596D01*
X125822056Y-95076541D01*
X125839853Y-95033574D01*
X125895000Y-94756335D01*
X125895000Y-94473665D01*
X125839853Y-94196426D01*
X125731680Y-93935273D01*
X125574637Y-93700241D01*
X125374759Y-93500363D01*
X125139727Y-93343320D01*
X124878574Y-93235147D01*
X124601335Y-93180000D01*
X124318665Y-93180000D01*
X124041426Y-93235147D01*
X123780273Y-93343320D01*
X123545241Y-93500363D01*
X123345363Y-93700241D01*
X123188320Y-93935273D01*
X123080147Y-94196426D01*
X123025000Y-94473665D01*
X123025000Y-94756335D01*
X123080147Y-95033574D01*
X123188320Y-95294727D01*
X123345363Y-95529759D01*
X123545241Y-95729637D01*
X123780273Y-95886680D01*
X124041426Y-95994853D01*
X124318665Y-96050000D01*
X124601335Y-96050000D01*
X124878574Y-95994853D01*
X124921541Y-95977055D01*
X120139003Y-100759594D01*
X120109999Y-100783397D01*
X120054871Y-100850572D01*
X120015026Y-100899122D01*
X119944455Y-101031151D01*
X119944454Y-101031152D01*
X119900997Y-101174413D01*
X119890000Y-101286066D01*
X119890000Y-101286076D01*
X119886324Y-101323398D01*
X119890000Y-101360721D01*
X119890001Y-104191956D01*
X119735241Y-104295363D01*
X119535363Y-104495241D01*
X119378320Y-104730273D01*
X119270147Y-104991426D01*
X119215000Y-105268665D01*
X117525000Y-105268665D01*
X117525000Y-91298665D01*
X123025000Y-91298665D01*
X123025000Y-91581335D01*
X123080147Y-91858574D01*
X123188320Y-92119727D01*
X123345363Y-92354759D01*
X123545241Y-92554637D01*
X123780273Y-92711680D01*
X124041426Y-92819853D01*
X124318665Y-92875000D01*
X124601335Y-92875000D01*
X124878574Y-92819853D01*
X125139727Y-92711680D01*
X125374759Y-92554637D01*
X125574637Y-92354759D01*
X125731680Y-92119727D01*
X125839853Y-91858574D01*
X125895000Y-91581335D01*
X125895000Y-91298665D01*
X125839853Y-91021426D01*
X125731680Y-90760273D01*
X125574637Y-90525241D01*
X125374759Y-90325363D01*
X125139727Y-90168320D01*
X124878574Y-90060147D01*
X124601335Y-90005000D01*
X124318665Y-90005000D01*
X124041426Y-90060147D01*
X123780273Y-90168320D01*
X123545241Y-90325363D01*
X123345363Y-90525241D01*
X123188320Y-90760273D01*
X123080147Y-91021426D01*
X123025000Y-91298665D01*
X117525000Y-91298665D01*
X117525000Y-88614040D01*
X123703091Y-88614040D01*
X123797930Y-88878881D01*
X123942615Y-89120131D01*
X124131586Y-89328519D01*
X124357580Y-89496037D01*
X124611913Y-89616246D01*
X124745961Y-89656904D01*
X124968000Y-89534915D01*
X124968000Y-88392000D01*
X125222000Y-88392000D01*
X125222000Y-89534915D01*
X125444039Y-89656904D01*
X125578087Y-89616246D01*
X125832420Y-89496037D01*
X126058414Y-89328519D01*
X126247385Y-89120131D01*
X126392070Y-88878881D01*
X126486909Y-88614040D01*
X126365624Y-88392000D01*
X125222000Y-88392000D01*
X124968000Y-88392000D01*
X123824376Y-88392000D01*
X123703091Y-88614040D01*
X117525000Y-88614040D01*
X117525000Y-87915960D01*
X123703091Y-87915960D01*
X123824376Y-88138000D01*
X124968000Y-88138000D01*
X124968000Y-86995085D01*
X125222000Y-86995085D01*
X125222000Y-88138000D01*
X126365624Y-88138000D01*
X126486909Y-87915960D01*
X126392070Y-87651119D01*
X126247385Y-87409869D01*
X126058414Y-87201481D01*
X125832420Y-87033963D01*
X125578087Y-86913754D01*
X125444039Y-86873096D01*
X125222000Y-86995085D01*
X124968000Y-86995085D01*
X124745961Y-86873096D01*
X124611913Y-86913754D01*
X124357580Y-87033963D01*
X124131586Y-87201481D01*
X123942615Y-87409869D01*
X123797930Y-87651119D01*
X123703091Y-87915960D01*
X117525000Y-87915960D01*
X117525000Y-86430512D01*
X128139783Y-86430512D01*
X128181213Y-86710130D01*
X128276397Y-86976292D01*
X128343329Y-87101514D01*
X128587298Y-87173097D01*
X129400395Y-86360000D01*
X128587298Y-85546903D01*
X128343329Y-85618486D01*
X128222429Y-85873996D01*
X128153700Y-86148184D01*
X128139783Y-86430512D01*
X117525000Y-86430512D01*
X117525000Y-84812702D01*
X128766903Y-84812702D01*
X128838486Y-85056671D01*
X128904636Y-85087971D01*
X128838486Y-85123329D01*
X128766903Y-85367298D01*
X129580000Y-86180395D01*
X130393097Y-85367298D01*
X130321514Y-85123329D01*
X130255364Y-85092029D01*
X130321514Y-85056671D01*
X130393097Y-84812702D01*
X129580000Y-83999605D01*
X128766903Y-84812702D01*
X117525000Y-84812702D01*
X117525000Y-83890512D01*
X128139783Y-83890512D01*
X128181213Y-84170130D01*
X128276397Y-84436292D01*
X128343329Y-84561514D01*
X128587298Y-84633097D01*
X129400395Y-83820000D01*
X128587298Y-83006903D01*
X128343329Y-83078486D01*
X128222429Y-83333996D01*
X128153700Y-83608184D01*
X128139783Y-83890512D01*
X117525000Y-83890512D01*
X117525000Y-82827298D01*
X128766903Y-82827298D01*
X129580000Y-83640395D01*
X130393097Y-82827298D01*
X130321514Y-82583329D01*
X130066004Y-82462429D01*
X129791816Y-82393700D01*
X129509488Y-82379783D01*
X129229870Y-82421213D01*
X128963708Y-82516397D01*
X128838486Y-82583329D01*
X128766903Y-82827298D01*
X117525000Y-82827298D01*
X117525000Y-78462702D01*
X123646903Y-78462702D01*
X123718486Y-78706671D01*
X123973996Y-78827571D01*
X124248184Y-78896300D01*
X124530512Y-78910217D01*
X124810130Y-78868787D01*
X125076292Y-78773603D01*
X125201514Y-78706671D01*
X125273097Y-78462702D01*
X124460000Y-77649605D01*
X123646903Y-78462702D01*
X117525000Y-78462702D01*
X117525000Y-77540512D01*
X123019783Y-77540512D01*
X123061213Y-77820130D01*
X123156397Y-78086292D01*
X123223329Y-78211514D01*
X123467298Y-78283097D01*
X124280395Y-77470000D01*
X124639605Y-77470000D01*
X125452702Y-78283097D01*
X125696671Y-78211514D01*
X125817571Y-77956004D01*
X125886300Y-77681816D01*
X125900217Y-77399488D01*
X125858787Y-77119870D01*
X125763603Y-76853708D01*
X125696671Y-76728486D01*
X125452702Y-76656903D01*
X124639605Y-77470000D01*
X124280395Y-77470000D01*
X123467298Y-76656903D01*
X123223329Y-76728486D01*
X123102429Y-76983996D01*
X123033700Y-77258184D01*
X123019783Y-77540512D01*
X117525000Y-77540512D01*
X117525000Y-76477298D01*
X123646903Y-76477298D01*
X124460000Y-77290395D01*
X125273097Y-76477298D01*
X125201514Y-76233329D01*
X124946004Y-76112429D01*
X124671816Y-76043700D01*
X124389488Y-76029783D01*
X124109870Y-76071213D01*
X123843708Y-76166397D01*
X123718486Y-76233329D01*
X123646903Y-76477298D01*
X117525000Y-76477298D01*
X117525000Y-73518665D01*
X123025000Y-73518665D01*
X123025000Y-73801335D01*
X123080147Y-74078574D01*
X123188320Y-74339727D01*
X123345363Y-74574759D01*
X123545241Y-74774637D01*
X123780273Y-74931680D01*
X124041426Y-75039853D01*
X124318665Y-75095000D01*
X124601335Y-75095000D01*
X124878574Y-75039853D01*
X125139727Y-74931680D01*
X125374759Y-74774637D01*
X125574637Y-74574759D01*
X125731680Y-74339727D01*
X125839853Y-74078574D01*
X125895000Y-73801335D01*
X125895000Y-73518665D01*
X125839853Y-73241426D01*
X125731680Y-72980273D01*
X125574637Y-72745241D01*
X125374759Y-72545363D01*
X125139727Y-72388320D01*
X124878574Y-72280147D01*
X124601335Y-72225000D01*
X124318665Y-72225000D01*
X124041426Y-72280147D01*
X123780273Y-72388320D01*
X123545241Y-72545363D01*
X123345363Y-72745241D01*
X123188320Y-72980273D01*
X123080147Y-73241426D01*
X123025000Y-73518665D01*
X117525000Y-73518665D01*
X117525000Y-65898665D01*
X123025000Y-65898665D01*
X123025000Y-66181335D01*
X123080147Y-66458574D01*
X123188320Y-66719727D01*
X123345363Y-66954759D01*
X123545241Y-67154637D01*
X123705203Y-67261520D01*
X123710144Y-67311680D01*
X123710998Y-67320355D01*
X123754454Y-67463616D01*
X123825026Y-67595646D01*
X123896201Y-67682372D01*
X123920000Y-67711371D01*
X123948998Y-67735169D01*
X124635656Y-68421827D01*
X124601335Y-68415000D01*
X124318665Y-68415000D01*
X124041426Y-68470147D01*
X123780273Y-68578320D01*
X123545241Y-68735363D01*
X123345363Y-68935241D01*
X123188320Y-69170273D01*
X123080147Y-69431426D01*
X123025000Y-69708665D01*
X123025000Y-69991335D01*
X123080147Y-70268574D01*
X123188320Y-70529727D01*
X123345363Y-70764759D01*
X123545241Y-70964637D01*
X123780273Y-71121680D01*
X124041426Y-71229853D01*
X124318665Y-71285000D01*
X124601335Y-71285000D01*
X124878574Y-71229853D01*
X125139727Y-71121680D01*
X125374759Y-70964637D01*
X125574637Y-70764759D01*
X125731680Y-70529727D01*
X125839853Y-70268574D01*
X125895000Y-69991335D01*
X125895000Y-69708665D01*
X125888173Y-69674345D01*
X126875000Y-70661172D01*
X126875001Y-77790196D01*
X125418886Y-79246312D01*
X125236335Y-79210000D01*
X124953665Y-79210000D01*
X124676426Y-79265147D01*
X124415273Y-79373320D01*
X124180241Y-79530363D01*
X123980363Y-79730241D01*
X123823320Y-79965273D01*
X123715147Y-80226426D01*
X123660000Y-80503665D01*
X123660000Y-80786335D01*
X123715147Y-81063574D01*
X123823320Y-81324727D01*
X123980363Y-81559759D01*
X124180241Y-81759637D01*
X124415273Y-81916680D01*
X124676426Y-82024853D01*
X124953665Y-82080000D01*
X125236335Y-82080000D01*
X125513574Y-82024853D01*
X125774727Y-81916680D01*
X126009759Y-81759637D01*
X126209637Y-81559759D01*
X126366680Y-81324727D01*
X126474853Y-81063574D01*
X126530000Y-80786335D01*
X126530000Y-80503665D01*
X126493688Y-80321114D01*
X128146008Y-78668795D01*
X128175001Y-78645001D01*
X128198795Y-78616008D01*
X128198799Y-78616004D01*
X128269973Y-78529277D01*
X128273915Y-78521903D01*
X128340546Y-78397247D01*
X128384003Y-78253986D01*
X128395000Y-78142333D01*
X128395000Y-78142324D01*
X128398676Y-78105001D01*
X128395000Y-78067678D01*
X128395000Y-73518665D01*
X130645000Y-73518665D01*
X130645000Y-73801335D01*
X130700147Y-74078574D01*
X130808320Y-74339727D01*
X130965363Y-74574759D01*
X131165241Y-74774637D01*
X131400273Y-74931680D01*
X131661426Y-75039853D01*
X131938665Y-75095000D01*
X132221335Y-75095000D01*
X132498574Y-75039853D01*
X132759727Y-74931680D01*
X132994759Y-74774637D01*
X133194637Y-74574759D01*
X133351680Y-74339727D01*
X133459853Y-74078574D01*
X133515000Y-73801335D01*
X133515000Y-73518665D01*
X133459853Y-73241426D01*
X133351680Y-72980273D01*
X133194637Y-72745241D01*
X132994759Y-72545363D01*
X132759727Y-72388320D01*
X132498574Y-72280147D01*
X132221335Y-72225000D01*
X131938665Y-72225000D01*
X131661426Y-72280147D01*
X131400273Y-72388320D01*
X131165241Y-72545363D01*
X130965363Y-72745241D01*
X130808320Y-72980273D01*
X130700147Y-73241426D01*
X130645000Y-73518665D01*
X128395000Y-73518665D01*
X128395000Y-70383692D01*
X128398676Y-70346369D01*
X128395000Y-70309046D01*
X128395000Y-70309037D01*
X128384003Y-70197384D01*
X128340546Y-70054123D01*
X128269975Y-69922095D01*
X128269974Y-69922093D01*
X128198799Y-69835367D01*
X128175001Y-69806369D01*
X128146004Y-69782572D01*
X128072097Y-69708665D01*
X130645000Y-69708665D01*
X130645000Y-69991335D01*
X130700147Y-70268574D01*
X130808320Y-70529727D01*
X130965363Y-70764759D01*
X131165241Y-70964637D01*
X131400273Y-71121680D01*
X131661426Y-71229853D01*
X131938665Y-71285000D01*
X132221335Y-71285000D01*
X132498574Y-71229853D01*
X132759727Y-71121680D01*
X132994759Y-70964637D01*
X133194637Y-70764759D01*
X133351680Y-70529727D01*
X133459853Y-70268574D01*
X133515000Y-69991335D01*
X133515000Y-69708665D01*
X133459853Y-69431426D01*
X133351680Y-69170273D01*
X133194637Y-68935241D01*
X132994759Y-68735363D01*
X132759727Y-68578320D01*
X132498574Y-68470147D01*
X132221335Y-68415000D01*
X131938665Y-68415000D01*
X131661426Y-68470147D01*
X131400273Y-68578320D01*
X131165241Y-68735363D01*
X130965363Y-68935241D01*
X130808320Y-69170273D01*
X130700147Y-69431426D01*
X130645000Y-69708665D01*
X128072097Y-69708665D01*
X125446414Y-67082982D01*
X125574637Y-66954759D01*
X125731680Y-66719727D01*
X125839853Y-66458574D01*
X125895000Y-66181335D01*
X125895000Y-65898665D01*
X130645000Y-65898665D01*
X130645000Y-66181335D01*
X130700147Y-66458574D01*
X130808320Y-66719727D01*
X130965363Y-66954759D01*
X131165241Y-67154637D01*
X131400273Y-67311680D01*
X131661426Y-67419853D01*
X131938665Y-67475000D01*
X132221335Y-67475000D01*
X132498574Y-67419853D01*
X132759727Y-67311680D01*
X132994759Y-67154637D01*
X133194637Y-66954759D01*
X133351680Y-66719727D01*
X133459853Y-66458574D01*
X133515000Y-66181335D01*
X133515000Y-65898665D01*
X133459853Y-65621426D01*
X133351680Y-65360273D01*
X133194637Y-65125241D01*
X132994759Y-64925363D01*
X132759727Y-64768320D01*
X132498574Y-64660147D01*
X132221335Y-64605000D01*
X131938665Y-64605000D01*
X131661426Y-64660147D01*
X131400273Y-64768320D01*
X131165241Y-64925363D01*
X130965363Y-65125241D01*
X130808320Y-65360273D01*
X130700147Y-65621426D01*
X130645000Y-65898665D01*
X125895000Y-65898665D01*
X125839853Y-65621426D01*
X125731680Y-65360273D01*
X125574637Y-65125241D01*
X125374759Y-64925363D01*
X125139727Y-64768320D01*
X124878574Y-64660147D01*
X124601335Y-64605000D01*
X124318665Y-64605000D01*
X124041426Y-64660147D01*
X123780273Y-64768320D01*
X123545241Y-64925363D01*
X123345363Y-65125241D01*
X123188320Y-65360273D01*
X123080147Y-65621426D01*
X123025000Y-65898665D01*
X117525000Y-65898665D01*
X117525000Y-57536400D01*
X120298328Y-57536400D01*
X120298328Y-59263600D01*
X120310588Y-59388082D01*
X120346898Y-59507780D01*
X120405863Y-59618094D01*
X120485215Y-59714785D01*
X120581906Y-59794137D01*
X120692220Y-59853102D01*
X120811918Y-59889412D01*
X120936400Y-59901672D01*
X122663600Y-59901672D01*
X122788082Y-59889412D01*
X122907780Y-59853102D01*
X123018094Y-59794137D01*
X123114785Y-59714785D01*
X123194137Y-59618094D01*
X123253102Y-59507780D01*
X123270636Y-59449977D01*
X123384698Y-59564039D01*
X123630147Y-59728042D01*
X123902875Y-59841010D01*
X124192401Y-59898600D01*
X124487599Y-59898600D01*
X124777125Y-59841010D01*
X125049853Y-59728042D01*
X125295302Y-59564039D01*
X125504039Y-59355302D01*
X125621171Y-59180000D01*
X129225199Y-59180000D01*
X129261928Y-59216729D01*
X129261928Y-61100000D01*
X129274188Y-61224482D01*
X129310498Y-61344180D01*
X129369463Y-61454494D01*
X129448815Y-61551185D01*
X129545506Y-61630537D01*
X129655820Y-61689502D01*
X129775518Y-61725812D01*
X129900000Y-61738072D01*
X132100000Y-61738072D01*
X132224482Y-61725812D01*
X132344180Y-61689502D01*
X132454494Y-61630537D01*
X132551185Y-61551185D01*
X132630537Y-61454494D01*
X132689502Y-61344180D01*
X132725812Y-61224482D01*
X132738072Y-61100000D01*
X132738072Y-58900000D01*
X132725812Y-58775518D01*
X132689502Y-58655820D01*
X132630537Y-58545506D01*
X132551185Y-58448815D01*
X132454494Y-58369463D01*
X132344180Y-58310498D01*
X132224482Y-58274188D01*
X132100000Y-58261928D01*
X130456729Y-58261928D01*
X130103804Y-57909003D01*
X130080001Y-57879999D01*
X129964276Y-57785026D01*
X129832247Y-57714454D01*
X129688986Y-57670997D01*
X129577333Y-57660000D01*
X129577322Y-57660000D01*
X129540000Y-57656324D01*
X129502678Y-57660000D01*
X125647899Y-57660000D01*
X125504039Y-57444698D01*
X125295302Y-57235961D01*
X125129897Y-57125441D01*
X125228488Y-57066817D01*
X125446854Y-56870293D01*
X125622684Y-56634944D01*
X125749222Y-56369814D01*
X125794958Y-56219026D01*
X125673817Y-55987000D01*
X124467000Y-55987000D01*
X124467000Y-56007000D01*
X124213000Y-56007000D01*
X124213000Y-55987000D01*
X121927000Y-55987000D01*
X121927000Y-56007000D01*
X121673000Y-56007000D01*
X121673000Y-55987000D01*
X120466183Y-55987000D01*
X120345042Y-56219026D01*
X120390778Y-56369814D01*
X120517316Y-56634944D01*
X120693146Y-56870293D01*
X120756574Y-56927376D01*
X120692220Y-56946898D01*
X120581906Y-57005863D01*
X120485215Y-57085215D01*
X120405863Y-57181906D01*
X120346898Y-57292220D01*
X120310588Y-57411918D01*
X120298328Y-57536400D01*
X117525000Y-57536400D01*
X117525000Y-53679026D01*
X120345042Y-53679026D01*
X120390778Y-53829814D01*
X120517316Y-54094944D01*
X120693146Y-54330293D01*
X120911512Y-54526817D01*
X121017770Y-54590000D01*
X120911512Y-54653183D01*
X120693146Y-54849707D01*
X120517316Y-55085056D01*
X120390778Y-55350186D01*
X120345042Y-55500974D01*
X120466183Y-55733000D01*
X121673000Y-55733000D01*
X121673000Y-53447000D01*
X121927000Y-53447000D01*
X121927000Y-55733000D01*
X124213000Y-55733000D01*
X124213000Y-53447000D01*
X124467000Y-53447000D01*
X124467000Y-55733000D01*
X125673817Y-55733000D01*
X125794958Y-55500974D01*
X125749222Y-55350186D01*
X125622684Y-55085056D01*
X125446854Y-54849707D01*
X125228488Y-54653183D01*
X125122230Y-54590000D01*
X125228488Y-54526817D01*
X125446854Y-54330293D01*
X125622684Y-54094944D01*
X125749222Y-53829814D01*
X125794958Y-53679026D01*
X125673817Y-53447000D01*
X124467000Y-53447000D01*
X124213000Y-53447000D01*
X121927000Y-53447000D01*
X121673000Y-53447000D01*
X120466183Y-53447000D01*
X120345042Y-53679026D01*
X117525000Y-53679026D01*
X117525000Y-51139026D01*
X120345042Y-51139026D01*
X120390778Y-51289814D01*
X120517316Y-51554944D01*
X120693146Y-51790293D01*
X120911512Y-51986817D01*
X121017770Y-52050000D01*
X120911512Y-52113183D01*
X120693146Y-52309707D01*
X120517316Y-52545056D01*
X120390778Y-52810186D01*
X120345042Y-52960974D01*
X120466183Y-53193000D01*
X121673000Y-53193000D01*
X121673000Y-50907000D01*
X121927000Y-50907000D01*
X121927000Y-53193000D01*
X124213000Y-53193000D01*
X124213000Y-50907000D01*
X124467000Y-50907000D01*
X124467000Y-53193000D01*
X125673817Y-53193000D01*
X125794958Y-52960974D01*
X125749222Y-52810186D01*
X125622684Y-52545056D01*
X125446854Y-52309707D01*
X125228488Y-52113183D01*
X125122230Y-52050000D01*
X125228488Y-51986817D01*
X125446854Y-51790293D01*
X125622684Y-51554944D01*
X125749222Y-51289814D01*
X125794958Y-51139026D01*
X125673817Y-50907000D01*
X124467000Y-50907000D01*
X124213000Y-50907000D01*
X121927000Y-50907000D01*
X121673000Y-50907000D01*
X120466183Y-50907000D01*
X120345042Y-51139026D01*
X117525000Y-51139026D01*
X117525000Y-37829117D01*
X119105000Y-37829117D01*
X119105000Y-38170883D01*
X119171675Y-38506081D01*
X119302463Y-38821831D01*
X119492337Y-39105998D01*
X119734002Y-39347663D01*
X120018169Y-39537537D01*
X120333919Y-39668325D01*
X120669117Y-39735000D01*
X121010883Y-39735000D01*
X121160001Y-39705339D01*
X121160000Y-46883024D01*
X121090147Y-46911958D01*
X120844698Y-47075961D01*
X120635961Y-47284698D01*
X120471958Y-47530147D01*
X120358990Y-47802875D01*
X120301400Y-48092401D01*
X120301400Y-48387599D01*
X120358990Y-48677125D01*
X120471958Y-48949853D01*
X120635961Y-49195302D01*
X120844698Y-49404039D01*
X121010103Y-49514559D01*
X120911512Y-49573183D01*
X120693146Y-49769707D01*
X120517316Y-50005056D01*
X120390778Y-50270186D01*
X120345042Y-50420974D01*
X120466183Y-50653000D01*
X121673000Y-50653000D01*
X121673000Y-50633000D01*
X121927000Y-50633000D01*
X121927000Y-50653000D01*
X124213000Y-50653000D01*
X124213000Y-50633000D01*
X124467000Y-50633000D01*
X124467000Y-50653000D01*
X125673817Y-50653000D01*
X125794958Y-50420974D01*
X125749222Y-50270186D01*
X125622684Y-50005056D01*
X125446854Y-49769707D01*
X125228488Y-49573183D01*
X125129897Y-49514559D01*
X125295302Y-49404039D01*
X125504039Y-49195302D01*
X125668042Y-48949853D01*
X125781010Y-48677125D01*
X125838600Y-48387599D01*
X125838600Y-48092401D01*
X125781010Y-47802875D01*
X125668042Y-47530147D01*
X125504039Y-47284698D01*
X125295302Y-47075961D01*
X125049853Y-46911958D01*
X124777125Y-46798990D01*
X124487599Y-46741400D01*
X124192401Y-46741400D01*
X123902875Y-46798990D01*
X123630147Y-46911958D01*
X123384698Y-47075961D01*
X123175961Y-47284698D01*
X123070000Y-47443281D01*
X122964039Y-47284698D01*
X122755302Y-47075961D01*
X122680000Y-47025646D01*
X122680000Y-41110000D01*
X130641928Y-41110000D01*
X130645000Y-41624250D01*
X130803750Y-41783000D01*
X131953000Y-41783000D01*
X131953000Y-40633750D01*
X132207000Y-40633750D01*
X132207000Y-41783000D01*
X133356250Y-41783000D01*
X133515000Y-41624250D01*
X133518072Y-41110000D01*
X133505812Y-40985518D01*
X133469502Y-40865820D01*
X133410537Y-40755506D01*
X133331185Y-40658815D01*
X133234494Y-40579463D01*
X133124180Y-40520498D01*
X133004482Y-40484188D01*
X132880000Y-40471928D01*
X132365750Y-40475000D01*
X132207000Y-40633750D01*
X131953000Y-40633750D01*
X131794250Y-40475000D01*
X131280000Y-40471928D01*
X131155518Y-40484188D01*
X131035820Y-40520498D01*
X130925506Y-40579463D01*
X130828815Y-40658815D01*
X130749463Y-40755506D01*
X130690498Y-40865820D01*
X130654188Y-40985518D01*
X130641928Y-41110000D01*
X122680000Y-41110000D01*
X122680000Y-39407322D01*
X122683676Y-39369999D01*
X122680000Y-39332676D01*
X122680000Y-39332667D01*
X122669003Y-39221014D01*
X122625546Y-39077753D01*
X122554974Y-38945724D01*
X122460001Y-38829999D01*
X122431003Y-38806201D01*
X122397775Y-38772973D01*
X122508325Y-38506081D01*
X122575000Y-38170883D01*
X122575000Y-37829117D01*
X122508325Y-37493919D01*
X122377537Y-37178169D01*
X122187663Y-36894002D01*
X121945998Y-36652337D01*
X121661831Y-36462463D01*
X121346081Y-36331675D01*
X121010883Y-36265000D01*
X120669117Y-36265000D01*
X120333919Y-36331675D01*
X120018169Y-36462463D01*
X119734002Y-36652337D01*
X119492337Y-36894002D01*
X119302463Y-37178169D01*
X119171675Y-37493919D01*
X119105000Y-37829117D01*
X117525000Y-37829117D01*
X117525000Y-34975000D01*
X166955001Y-34975000D01*
X166955000Y-109805000D01*
G37*
X166955000Y-109805000D02*
X117525000Y-109805000D01*
X117525000Y-105268665D01*
X119215000Y-105268665D01*
X119215000Y-105551335D01*
X119270147Y-105828574D01*
X119378320Y-106089727D01*
X119535363Y-106324759D01*
X119735241Y-106524637D01*
X119970273Y-106681680D01*
X120231426Y-106789853D01*
X120508665Y-106845000D01*
X120791335Y-106845000D01*
X121068574Y-106789853D01*
X121329727Y-106681680D01*
X121564759Y-106524637D01*
X121764637Y-106324759D01*
X121921680Y-106089727D01*
X122029853Y-105828574D01*
X122085000Y-105551335D01*
X122085000Y-105268665D01*
X126835000Y-105268665D01*
X126835000Y-105551335D01*
X126890147Y-105828574D01*
X126998320Y-106089727D01*
X127155363Y-106324759D01*
X127355241Y-106524637D01*
X127590273Y-106681680D01*
X127851426Y-106789853D01*
X128128665Y-106845000D01*
X128411335Y-106845000D01*
X128688574Y-106789853D01*
X128949727Y-106681680D01*
X129184759Y-106524637D01*
X129384637Y-106324759D01*
X129541680Y-106089727D01*
X129649853Y-105828574D01*
X129705000Y-105551335D01*
X129705000Y-105268665D01*
X129649853Y-104991426D01*
X129541680Y-104730273D01*
X129384637Y-104495241D01*
X129184759Y-104295363D01*
X128949727Y-104138320D01*
X128688574Y-104030147D01*
X128411335Y-103975000D01*
X128128665Y-103975000D01*
X127851426Y-104030147D01*
X127590273Y-104138320D01*
X127355241Y-104295363D01*
X127155363Y-104495241D01*
X126998320Y-104730273D01*
X126890147Y-104991426D01*
X126835000Y-105268665D01*
X122085000Y-105268665D01*
X122029853Y-104991426D01*
X121921680Y-104730273D01*
X121764637Y-104495241D01*
X121564759Y-104295363D01*
X121410000Y-104191957D01*
X121410000Y-101638199D01*
X124457926Y-98590273D01*
X124427072Y-98664761D01*
X124375000Y-98926544D01*
X124375000Y-99193456D01*
X124427072Y-99455239D01*
X124529215Y-99701833D01*
X124677503Y-99923762D01*
X124866238Y-100112497D01*
X125088167Y-100260785D01*
X125334761Y-100362928D01*
X125596544Y-100415000D01*
X125863456Y-100415000D01*
X126125239Y-100362928D01*
X126371833Y-100260785D01*
X126593762Y-100112497D01*
X126782497Y-99923762D01*
X126930785Y-99701833D01*
X127000000Y-99534734D01*
X127069215Y-99701833D01*
X127217503Y-99923762D01*
X127406238Y-100112497D01*
X127628167Y-100260785D01*
X127874761Y-100362928D01*
X128136544Y-100415000D01*
X128403456Y-100415000D01*
X128665239Y-100362928D01*
X128911833Y-100260785D01*
X129133762Y-100112497D01*
X129322497Y-99923762D01*
X129470785Y-99701833D01*
X129540000Y-99534734D01*
X129609215Y-99701833D01*
X129757503Y-99923762D01*
X129946238Y-100112497D01*
X130168167Y-100260785D01*
X130414761Y-100362928D01*
X130676544Y-100415000D01*
X130943456Y-100415000D01*
X131205239Y-100362928D01*
X131451833Y-100260785D01*
X131673762Y-100112497D01*
X131862497Y-99923762D01*
X132010785Y-99701833D01*
X132112928Y-99455239D01*
X132165000Y-99193456D01*
X132165000Y-98926544D01*
X132112928Y-98664761D01*
X132010785Y-98418167D01*
X131862497Y-98196238D01*
X131673762Y-98007503D01*
X131451833Y-97859215D01*
X131205239Y-97757072D01*
X130943456Y-97705000D01*
X130676544Y-97705000D01*
X130414761Y-97757072D01*
X130168167Y-97859215D01*
X129946238Y-98007503D01*
X129757503Y-98196238D01*
X129609215Y-98418167D01*
X129540000Y-98585266D01*
X129470785Y-98418167D01*
X129322497Y-98196238D01*
X129133762Y-98007503D01*
X128911833Y-97859215D01*
X128665239Y-97757072D01*
X128403456Y-97705000D01*
X128136544Y-97705000D01*
X127874761Y-97757072D01*
X127628167Y-97859215D01*
X127406238Y-98007503D01*
X127217503Y-98196238D01*
X127069215Y-98418167D01*
X127000000Y-98585266D01*
X126930785Y-98418167D01*
X126782497Y-98196238D01*
X126593762Y-98007503D01*
X126371833Y-97859215D01*
X126125239Y-97757072D01*
X125863456Y-97705000D01*
X125596544Y-97705000D01*
X125334761Y-97757072D01*
X125260274Y-97787926D01*
X128574534Y-94473665D01*
X130645000Y-94473665D01*
X130645000Y-94756335D01*
X130700147Y-95033574D01*
X130808320Y-95294727D01*
X130965363Y-95529759D01*
X131165241Y-95729637D01*
X131400273Y-95886680D01*
X131661426Y-95994853D01*
X131938665Y-96050000D01*
X132221335Y-96050000D01*
X132498574Y-95994853D01*
X132759727Y-95886680D01*
X132994759Y-95729637D01*
X133194637Y-95529759D01*
X133351680Y-95294727D01*
X133459853Y-95033574D01*
X133515000Y-94756335D01*
X133515000Y-94473665D01*
X133459853Y-94196426D01*
X133351680Y-93935273D01*
X133194637Y-93700241D01*
X132994759Y-93500363D01*
X132759727Y-93343320D01*
X132498574Y-93235147D01*
X132221335Y-93180000D01*
X131938665Y-93180000D01*
X131661426Y-93235147D01*
X131400273Y-93343320D01*
X131165241Y-93500363D01*
X130965363Y-93700241D01*
X130808320Y-93935273D01*
X130700147Y-94196426D01*
X130645000Y-94473665D01*
X128574534Y-94473665D01*
X130856446Y-92191753D01*
X130965363Y-92354759D01*
X131165241Y-92554637D01*
X131400273Y-92711680D01*
X131661426Y-92819853D01*
X131938665Y-92875000D01*
X132221335Y-92875000D01*
X132498574Y-92819853D01*
X132759727Y-92711680D01*
X132973764Y-92568665D01*
X136995000Y-92568665D01*
X136995000Y-92851335D01*
X137050147Y-93128574D01*
X137158320Y-93389727D01*
X137315363Y-93624759D01*
X137515241Y-93824637D01*
X137747759Y-93980000D01*
X137515241Y-94135363D01*
X137315363Y-94335241D01*
X137158320Y-94570273D01*
X137050147Y-94831426D01*
X136995000Y-95108665D01*
X136995000Y-95391335D01*
X137050147Y-95668574D01*
X137158320Y-95929727D01*
X137315363Y-96164759D01*
X137515241Y-96364637D01*
X137750273Y-96521680D01*
X138011426Y-96629853D01*
X138288665Y-96685000D01*
X138571335Y-96685000D01*
X138848574Y-96629853D01*
X139109727Y-96521680D01*
X139344759Y-96364637D01*
X139544637Y-96164759D01*
X139701680Y-95929727D01*
X139809853Y-95668574D01*
X139865000Y-95391335D01*
X139865000Y-95108665D01*
X139809853Y-94831426D01*
X139701680Y-94570273D01*
X139544637Y-94335241D01*
X139344759Y-94135363D01*
X139112241Y-93980000D01*
X139344759Y-93824637D01*
X139544637Y-93624759D01*
X139701680Y-93389727D01*
X139809853Y-93128574D01*
X139865000Y-92851335D01*
X139865000Y-92568665D01*
X139809853Y-92291426D01*
X139701680Y-92030273D01*
X139544637Y-91795241D01*
X139344759Y-91595363D01*
X139109727Y-91438320D01*
X139099135Y-91433933D01*
X139285131Y-91322385D01*
X139493519Y-91133414D01*
X139661037Y-90907420D01*
X139781246Y-90653087D01*
X139821904Y-90519039D01*
X139699915Y-90297000D01*
X138557000Y-90297000D01*
X138557000Y-90317000D01*
X138303000Y-90317000D01*
X138303000Y-90297000D01*
X137160085Y-90297000D01*
X137038096Y-90519039D01*
X137078754Y-90653087D01*
X137198963Y-90907420D01*
X137366481Y-91133414D01*
X137574869Y-91322385D01*
X137760865Y-91433933D01*
X137750273Y-91438320D01*
X137515241Y-91595363D01*
X137315363Y-91795241D01*
X137158320Y-92030273D01*
X137050147Y-92291426D01*
X136995000Y-92568665D01*
X132973764Y-92568665D01*
X132994759Y-92554637D01*
X133194637Y-92354759D01*
X133351680Y-92119727D01*
X133459853Y-91858574D01*
X133515000Y-91581335D01*
X133515000Y-91298665D01*
X133459853Y-91021426D01*
X133351680Y-90760273D01*
X133194637Y-90525241D01*
X132994759Y-90325363D01*
X132759727Y-90168320D01*
X132498574Y-90060147D01*
X132221335Y-90005000D01*
X131938665Y-90005000D01*
X131714999Y-90049491D01*
X131714999Y-87799802D01*
X131756113Y-87758688D01*
X131938665Y-87795000D01*
X132221335Y-87795000D01*
X132498574Y-87739853D01*
X132759727Y-87631680D01*
X132994759Y-87474637D01*
X133194637Y-87274759D01*
X133298043Y-87120000D01*
X136845199Y-87120000D01*
X137031312Y-87306114D01*
X136995000Y-87488665D01*
X136995000Y-87771335D01*
X137050147Y-88048574D01*
X137158320Y-88309727D01*
X137315363Y-88544759D01*
X137515241Y-88744637D01*
X137750273Y-88901680D01*
X137760865Y-88906067D01*
X137574869Y-89017615D01*
X137366481Y-89206586D01*
X137198963Y-89432580D01*
X137078754Y-89686913D01*
X137038096Y-89820961D01*
X137160085Y-90043000D01*
X138303000Y-90043000D01*
X138303000Y-90023000D01*
X138557000Y-90023000D01*
X138557000Y-90043000D01*
X139699915Y-90043000D01*
X139821904Y-89820961D01*
X139781246Y-89686913D01*
X139661037Y-89432580D01*
X139493519Y-89206586D01*
X139285131Y-89017615D01*
X139099135Y-88906067D01*
X139109727Y-88901680D01*
X139344759Y-88744637D01*
X139544637Y-88544759D01*
X139701680Y-88309727D01*
X139809853Y-88048574D01*
X139865000Y-87771335D01*
X139865000Y-87488665D01*
X139809853Y-87211426D01*
X139701680Y-86950273D01*
X139544637Y-86715241D01*
X139344759Y-86515363D01*
X139112241Y-86360000D01*
X139344759Y-86204637D01*
X139544637Y-86004759D01*
X139701680Y-85769727D01*
X139809853Y-85508574D01*
X139865000Y-85231335D01*
X139865000Y-84948665D01*
X139809853Y-84671426D01*
X139701680Y-84410273D01*
X139544637Y-84175241D01*
X139344759Y-83975363D01*
X139112241Y-83820000D01*
X139344759Y-83664637D01*
X139544637Y-83464759D01*
X139701680Y-83229727D01*
X139809853Y-82968574D01*
X139865000Y-82691335D01*
X139865000Y-82408665D01*
X139809853Y-82131426D01*
X139701680Y-81870273D01*
X139544637Y-81635241D01*
X139344759Y-81435363D01*
X139112241Y-81280000D01*
X139344759Y-81124637D01*
X139544637Y-80924759D01*
X139701680Y-80689727D01*
X139809853Y-80428574D01*
X139865000Y-80151335D01*
X139865000Y-79868665D01*
X139809853Y-79591426D01*
X139701680Y-79330273D01*
X139544637Y-79095241D01*
X139344759Y-78895363D01*
X139109727Y-78738320D01*
X138848574Y-78630147D01*
X138571335Y-78575000D01*
X138288665Y-78575000D01*
X138011426Y-78630147D01*
X137750273Y-78738320D01*
X137515241Y-78895363D01*
X137315363Y-79095241D01*
X137158320Y-79330273D01*
X137050147Y-79591426D01*
X136995000Y-79868665D01*
X136995000Y-80151335D01*
X137050147Y-80428574D01*
X137158320Y-80689727D01*
X137315363Y-80924759D01*
X137515241Y-81124637D01*
X137747759Y-81280000D01*
X137515241Y-81435363D01*
X137315363Y-81635241D01*
X137158320Y-81870273D01*
X137050147Y-82131426D01*
X136995000Y-82408665D01*
X136995000Y-82691335D01*
X137050147Y-82968574D01*
X137158320Y-83229727D01*
X137315363Y-83464759D01*
X137515241Y-83664637D01*
X137747759Y-83820000D01*
X137515241Y-83975363D01*
X137315363Y-84175241D01*
X137158320Y-84410273D01*
X137050147Y-84671426D01*
X136995000Y-84948665D01*
X136995000Y-85231335D01*
X137050147Y-85508574D01*
X137088017Y-85600000D01*
X133914802Y-85600000D01*
X134641007Y-84873796D01*
X134670000Y-84850002D01*
X134693794Y-84821009D01*
X134693798Y-84821005D01*
X134764972Y-84734278D01*
X134764973Y-84734277D01*
X134835545Y-84602248D01*
X134879002Y-84458987D01*
X134889999Y-84347334D01*
X134889999Y-84347325D01*
X134893675Y-84310002D01*
X134889999Y-84272679D01*
X134889999Y-80722902D01*
X135043184Y-80761300D01*
X135325512Y-80775217D01*
X135605130Y-80733787D01*
X135871292Y-80638603D01*
X135996514Y-80571671D01*
X136068097Y-80327702D01*
X135255000Y-79514605D01*
X135240858Y-79528748D01*
X135061253Y-79349143D01*
X135075395Y-79335000D01*
X135434605Y-79335000D01*
X136247702Y-80148097D01*
X136491671Y-80076514D01*
X136612571Y-79821004D01*
X136681300Y-79546816D01*
X136695217Y-79264488D01*
X136653787Y-78984870D01*
X136558603Y-78718708D01*
X136491671Y-78593486D01*
X136247702Y-78521903D01*
X135434605Y-79335000D01*
X135075395Y-79335000D01*
X135061253Y-79320858D01*
X135240858Y-79141253D01*
X135255000Y-79155395D01*
X136068097Y-78342298D01*
X135996514Y-78098329D01*
X135967659Y-78084676D01*
X136169759Y-77949637D01*
X136369637Y-77749759D01*
X136526680Y-77514727D01*
X136634853Y-77253574D01*
X136690000Y-76976335D01*
X136690000Y-76693665D01*
X136634853Y-76416426D01*
X136526680Y-76155273D01*
X136369637Y-75920241D01*
X136169759Y-75720363D01*
X136015000Y-75616957D01*
X136015000Y-74214799D01*
X137159022Y-73070778D01*
X137315363Y-73304759D01*
X137515241Y-73504637D01*
X137747759Y-73660000D01*
X137515241Y-73815363D01*
X137315363Y-74015241D01*
X137158320Y-74250273D01*
X137050147Y-74511426D01*
X136995000Y-74788665D01*
X136995000Y-75071335D01*
X137050147Y-75348574D01*
X137158320Y-75609727D01*
X137315363Y-75844759D01*
X137515241Y-76044637D01*
X137750273Y-76201680D01*
X138011426Y-76309853D01*
X138288665Y-76365000D01*
X138571335Y-76365000D01*
X138848574Y-76309853D01*
X139109727Y-76201680D01*
X139344759Y-76044637D01*
X139544637Y-75844759D01*
X139701680Y-75609727D01*
X139809853Y-75348574D01*
X139865000Y-75071335D01*
X139865000Y-74788665D01*
X139809853Y-74511426D01*
X139701680Y-74250273D01*
X139544637Y-74015241D01*
X139344759Y-73815363D01*
X139112241Y-73660000D01*
X139344759Y-73504637D01*
X139544637Y-73304759D01*
X139701680Y-73069727D01*
X139809853Y-72808574D01*
X139865000Y-72531335D01*
X139865000Y-72248665D01*
X139809853Y-71971426D01*
X139701680Y-71710273D01*
X139544637Y-71475241D01*
X139344759Y-71275363D01*
X139112241Y-71120000D01*
X139344759Y-70964637D01*
X139544637Y-70764759D01*
X139701680Y-70529727D01*
X139809853Y-70268574D01*
X139865000Y-69991335D01*
X139865000Y-69708665D01*
X139809853Y-69431426D01*
X139701680Y-69170273D01*
X139544637Y-68935241D01*
X139344759Y-68735363D01*
X139112241Y-68580000D01*
X139344759Y-68424637D01*
X139544637Y-68224759D01*
X139701680Y-67989727D01*
X139809853Y-67728574D01*
X139865000Y-67451335D01*
X139865000Y-67168665D01*
X139809853Y-66891426D01*
X139701680Y-66630273D01*
X139544637Y-66395241D01*
X139344759Y-66195363D01*
X139109727Y-66038320D01*
X139099135Y-66033933D01*
X139285131Y-65922385D01*
X139493519Y-65733414D01*
X139661037Y-65507420D01*
X139781246Y-65253087D01*
X139821904Y-65119039D01*
X139699915Y-64897000D01*
X138557000Y-64897000D01*
X138557000Y-64917000D01*
X138303000Y-64917000D01*
X138303000Y-64897000D01*
X138283000Y-64897000D01*
X138283000Y-64643000D01*
X138303000Y-64643000D01*
X138303000Y-64623000D01*
X138557000Y-64623000D01*
X138557000Y-64643000D01*
X139699915Y-64643000D01*
X139821904Y-64420961D01*
X139781246Y-64286913D01*
X139661037Y-64032580D01*
X139493519Y-63806586D01*
X139285131Y-63617615D01*
X139099135Y-63506067D01*
X139109727Y-63501680D01*
X139344759Y-63344637D01*
X139544637Y-63144759D01*
X139701680Y-62909727D01*
X139809853Y-62648574D01*
X139865000Y-62371335D01*
X139865000Y-62088665D01*
X139809853Y-61811426D01*
X139701680Y-61550273D01*
X139544637Y-61315241D01*
X139344759Y-61115363D01*
X139112241Y-60960000D01*
X139344759Y-60804637D01*
X139544637Y-60604759D01*
X139701680Y-60369727D01*
X139809853Y-60108574D01*
X139865000Y-59831335D01*
X139865000Y-59548665D01*
X139809853Y-59271426D01*
X139701680Y-59010273D01*
X139544637Y-58775241D01*
X139346039Y-58576643D01*
X139354482Y-58575812D01*
X139474180Y-58539502D01*
X139584494Y-58480537D01*
X139681185Y-58401185D01*
X139760537Y-58304494D01*
X139819502Y-58194180D01*
X139855812Y-58074482D01*
X139868072Y-57950000D01*
X139868072Y-57804326D01*
X139904276Y-57784974D01*
X140020001Y-57690001D01*
X140043804Y-57660997D01*
X141064802Y-56640000D01*
X144708017Y-56640000D01*
X144670147Y-56731426D01*
X144615000Y-57008665D01*
X144615000Y-57291335D01*
X144670147Y-57568574D01*
X144778320Y-57829727D01*
X144935363Y-58064759D01*
X145135241Y-58264637D01*
X145367759Y-58420000D01*
X145135241Y-58575363D01*
X144935363Y-58775241D01*
X144778320Y-59010273D01*
X144670147Y-59271426D01*
X144615000Y-59548665D01*
X144615000Y-59831335D01*
X144670147Y-60108574D01*
X144778320Y-60369727D01*
X144935363Y-60604759D01*
X145135241Y-60804637D01*
X145367759Y-60960000D01*
X145135241Y-61115363D01*
X144935363Y-61315241D01*
X144778320Y-61550273D01*
X144670147Y-61811426D01*
X144615000Y-62088665D01*
X144615000Y-62371335D01*
X144670147Y-62648574D01*
X144778320Y-62909727D01*
X144935363Y-63144759D01*
X145135241Y-63344637D01*
X145370273Y-63501680D01*
X145380865Y-63506067D01*
X145194869Y-63617615D01*
X144986481Y-63806586D01*
X144818963Y-64032580D01*
X144698754Y-64286913D01*
X144658096Y-64420961D01*
X144780085Y-64643000D01*
X145923000Y-64643000D01*
X145923000Y-64623000D01*
X146177000Y-64623000D01*
X146177000Y-64643000D01*
X147319915Y-64643000D01*
X147441904Y-64420961D01*
X147401246Y-64286913D01*
X147281037Y-64032580D01*
X147113519Y-63806586D01*
X146905131Y-63617615D01*
X146719135Y-63506067D01*
X146729727Y-63501680D01*
X146964759Y-63344637D01*
X147164637Y-63144759D01*
X147321680Y-62909727D01*
X147429853Y-62648574D01*
X147485000Y-62371335D01*
X147485000Y-62088665D01*
X147429853Y-61811426D01*
X147321680Y-61550273D01*
X147164637Y-61315241D01*
X146964759Y-61115363D01*
X146732241Y-60960000D01*
X146964759Y-60804637D01*
X147164637Y-60604759D01*
X147321680Y-60369727D01*
X147429853Y-60108574D01*
X147485000Y-59831335D01*
X147485000Y-59548665D01*
X147429853Y-59271426D01*
X147321680Y-59010273D01*
X147164637Y-58775241D01*
X146964759Y-58575363D01*
X146732241Y-58420000D01*
X146964759Y-58264637D01*
X147164637Y-58064759D01*
X147321680Y-57829727D01*
X147429853Y-57568574D01*
X147485000Y-57291335D01*
X147485000Y-57008665D01*
X147429853Y-56731426D01*
X147391983Y-56640000D01*
X151181957Y-56640000D01*
X151285363Y-56794759D01*
X151485241Y-56994637D01*
X151720273Y-57151680D01*
X151981426Y-57259853D01*
X152258665Y-57315000D01*
X152541335Y-57315000D01*
X152765001Y-57270509D01*
X152765001Y-58299491D01*
X152541335Y-58255000D01*
X152258665Y-58255000D01*
X151981426Y-58310147D01*
X151720273Y-58418320D01*
X151485241Y-58575363D01*
X151285363Y-58775241D01*
X151128320Y-59010273D01*
X151020147Y-59271426D01*
X150965000Y-59548665D01*
X150965000Y-59831335D01*
X151020147Y-60108574D01*
X151128320Y-60369727D01*
X151285363Y-60604759D01*
X151485241Y-60804637D01*
X151720273Y-60961680D01*
X151981426Y-61069853D01*
X152258665Y-61125000D01*
X152541335Y-61125000D01*
X152765002Y-61080509D01*
X152765002Y-62109491D01*
X152541335Y-62065000D01*
X152258665Y-62065000D01*
X151981426Y-62120147D01*
X151720273Y-62228320D01*
X151485241Y-62385363D01*
X151285363Y-62585241D01*
X151128320Y-62820273D01*
X151020147Y-63081426D01*
X150965000Y-63358665D01*
X150965000Y-63641335D01*
X151020147Y-63918574D01*
X151128320Y-64179727D01*
X151285363Y-64414759D01*
X151485241Y-64614637D01*
X151719222Y-64770978D01*
X147400201Y-69090000D01*
X147397322Y-69090000D01*
X147360000Y-69086324D01*
X147322678Y-69090000D01*
X147268043Y-69090000D01*
X147164637Y-68935241D01*
X146964759Y-68735363D01*
X146732241Y-68580000D01*
X146964759Y-68424637D01*
X147164637Y-68224759D01*
X147321680Y-67989727D01*
X147429853Y-67728574D01*
X147485000Y-67451335D01*
X147485000Y-67168665D01*
X147429853Y-66891426D01*
X147321680Y-66630273D01*
X147164637Y-66395241D01*
X146964759Y-66195363D01*
X146729727Y-66038320D01*
X146719135Y-66033933D01*
X146905131Y-65922385D01*
X147113519Y-65733414D01*
X147281037Y-65507420D01*
X147401246Y-65253087D01*
X147441904Y-65119039D01*
X147319915Y-64897000D01*
X146177000Y-64897000D01*
X146177000Y-64917000D01*
X145923000Y-64917000D01*
X145923000Y-64897000D01*
X144780085Y-64897000D01*
X144658096Y-65119039D01*
X144698754Y-65253087D01*
X144818963Y-65507420D01*
X144986481Y-65733414D01*
X145194869Y-65922385D01*
X145380865Y-66033933D01*
X145370273Y-66038320D01*
X145135241Y-66195363D01*
X144935363Y-66395241D01*
X144778320Y-66630273D01*
X144670147Y-66891426D01*
X144615000Y-67168665D01*
X144615000Y-67451335D01*
X144670147Y-67728574D01*
X144778320Y-67989727D01*
X144935363Y-68224759D01*
X145135241Y-68424637D01*
X145367759Y-68580000D01*
X145135241Y-68735363D01*
X144935363Y-68935241D01*
X144778320Y-69170273D01*
X144670147Y-69431426D01*
X144615000Y-69708665D01*
X144615000Y-69991335D01*
X144670147Y-70268574D01*
X144778320Y-70529727D01*
X144935363Y-70764759D01*
X145135241Y-70964637D01*
X145367759Y-71120000D01*
X145135241Y-71275363D01*
X144935363Y-71475241D01*
X144778320Y-71710273D01*
X144670147Y-71971426D01*
X144615000Y-72248665D01*
X144615000Y-72531335D01*
X144670147Y-72808574D01*
X144778320Y-73069727D01*
X144935363Y-73304759D01*
X145135241Y-73504637D01*
X145367759Y-73660000D01*
X145135241Y-73815363D01*
X144935363Y-74015241D01*
X144778320Y-74250273D01*
X144670147Y-74511426D01*
X144615000Y-74788665D01*
X144615000Y-75071335D01*
X144670147Y-75348574D01*
X144778320Y-75609727D01*
X144935363Y-75844759D01*
X145135241Y-76044637D01*
X145370273Y-76201680D01*
X145631426Y-76309853D01*
X145908665Y-76365000D01*
X146191335Y-76365000D01*
X146468574Y-76309853D01*
X146729727Y-76201680D01*
X146964759Y-76044637D01*
X147164637Y-75844759D01*
X147321680Y-75609727D01*
X147429853Y-75348574D01*
X147485000Y-75071335D01*
X147485000Y-74788665D01*
X147429853Y-74511426D01*
X147321680Y-74250273D01*
X147164637Y-74015241D01*
X146964759Y-73815363D01*
X146732241Y-73660000D01*
X146964759Y-73504637D01*
X147164637Y-73304759D01*
X147321680Y-73069727D01*
X147429853Y-72808574D01*
X147485000Y-72531335D01*
X147485000Y-72248665D01*
X147429853Y-71971426D01*
X147321680Y-71710273D01*
X147164637Y-71475241D01*
X146964759Y-71275363D01*
X146732241Y-71120000D01*
X146964759Y-70964637D01*
X147164637Y-70764759D01*
X147178785Y-70743586D01*
X151041312Y-74606114D01*
X151005000Y-74788665D01*
X151005000Y-75071335D01*
X151060147Y-75348574D01*
X151168320Y-75609727D01*
X151325363Y-75844759D01*
X151525241Y-76044637D01*
X151760273Y-76201680D01*
X152021426Y-76309853D01*
X152298665Y-76365000D01*
X152581335Y-76365000D01*
X152763886Y-76328688D01*
X152765001Y-76329803D01*
X152765001Y-78619491D01*
X152541335Y-78575000D01*
X152258665Y-78575000D01*
X151981426Y-78630147D01*
X151720273Y-78738320D01*
X151485241Y-78895363D01*
X151285363Y-79095241D01*
X151128320Y-79330273D01*
X151020147Y-79591426D01*
X150965000Y-79868665D01*
X150965000Y-80151335D01*
X151020147Y-80428574D01*
X151128320Y-80689727D01*
X151285363Y-80924759D01*
X151485241Y-81124637D01*
X151720273Y-81281680D01*
X151981426Y-81389853D01*
X152258665Y-81445000D01*
X152541335Y-81445000D01*
X152765002Y-81400509D01*
X152765002Y-82429491D01*
X152541335Y-82385000D01*
X152258665Y-82385000D01*
X151981426Y-82440147D01*
X151720273Y-82548320D01*
X151485241Y-82705363D01*
X151285363Y-82905241D01*
X151128320Y-83140273D01*
X151020147Y-83401426D01*
X150965000Y-83678665D01*
X150965000Y-83961335D01*
X151020147Y-84238574D01*
X151128320Y-84499727D01*
X151285363Y-84734759D01*
X151485241Y-84934637D01*
X151720273Y-85091680D01*
X151981426Y-85199853D01*
X152258665Y-85255000D01*
X152541335Y-85255000D01*
X152765002Y-85210509D01*
X152765002Y-86230196D01*
X152763886Y-86231312D01*
X152581335Y-86195000D01*
X152298665Y-86195000D01*
X152021426Y-86250147D01*
X151760273Y-86358320D01*
X151525241Y-86515363D01*
X151325363Y-86715241D01*
X151221957Y-86870000D01*
X147268043Y-86870000D01*
X147164637Y-86715241D01*
X146964759Y-86515363D01*
X146732241Y-86360000D01*
X146964759Y-86204637D01*
X147164637Y-86004759D01*
X147321680Y-85769727D01*
X147429853Y-85508574D01*
X147485000Y-85231335D01*
X147485000Y-84948665D01*
X147429853Y-84671426D01*
X147321680Y-84410273D01*
X147164637Y-84175241D01*
X146964759Y-83975363D01*
X146732241Y-83820000D01*
X146964759Y-83664637D01*
X147164637Y-83464759D01*
X147321680Y-83229727D01*
X147429853Y-82968574D01*
X147485000Y-82691335D01*
X147485000Y-82408665D01*
X147429853Y-82131426D01*
X147321680Y-81870273D01*
X147164637Y-81635241D01*
X146964759Y-81435363D01*
X146732241Y-81280000D01*
X146964759Y-81124637D01*
X147164637Y-80924759D01*
X147321680Y-80689727D01*
X147429853Y-80428574D01*
X147485000Y-80151335D01*
X147485000Y-79868665D01*
X147429853Y-79591426D01*
X147321680Y-79330273D01*
X147164637Y-79095241D01*
X146964759Y-78895363D01*
X146729727Y-78738320D01*
X146468574Y-78630147D01*
X146191335Y-78575000D01*
X145908665Y-78575000D01*
X145631426Y-78630147D01*
X145370273Y-78738320D01*
X145135241Y-78895363D01*
X144935363Y-79095241D01*
X144778320Y-79330273D01*
X144670147Y-79591426D01*
X144615000Y-79868665D01*
X144615000Y-80151335D01*
X144670147Y-80428574D01*
X144778320Y-80689727D01*
X144935363Y-80924759D01*
X145135241Y-81124637D01*
X145367759Y-81280000D01*
X145135241Y-81435363D01*
X144935363Y-81635241D01*
X144778320Y-81870273D01*
X144670147Y-82131426D01*
X144615000Y-82408665D01*
X144615000Y-82691335D01*
X144670147Y-82968574D01*
X144778320Y-83229727D01*
X144935363Y-83464759D01*
X145135241Y-83664637D01*
X145367759Y-83820000D01*
X145135241Y-83975363D01*
X144935363Y-84175241D01*
X144778320Y-84410273D01*
X144670147Y-84671426D01*
X144615000Y-84948665D01*
X144615000Y-85231335D01*
X144670147Y-85508574D01*
X144778320Y-85769727D01*
X144935363Y-86004759D01*
X145135241Y-86204637D01*
X145367759Y-86360000D01*
X145135241Y-86515363D01*
X144935363Y-86715241D01*
X144778320Y-86950273D01*
X144670147Y-87211426D01*
X144615000Y-87488665D01*
X144615000Y-87771335D01*
X144651312Y-87953887D01*
X144414001Y-88191197D01*
X144384998Y-88215000D01*
X144343987Y-88264973D01*
X144290025Y-88330725D01*
X144219454Y-88462754D01*
X144219453Y-88462755D01*
X144175996Y-88606016D01*
X144164999Y-88717669D01*
X144164999Y-88717679D01*
X144161323Y-88755001D01*
X144164999Y-88792324D01*
X144165000Y-91980198D01*
X134234548Y-101910651D01*
X134222579Y-101900829D01*
X134021060Y-101793115D01*
X133802400Y-101726785D01*
X133631979Y-101710000D01*
X133068021Y-101710000D01*
X132897600Y-101726785D01*
X132678940Y-101793115D01*
X132477421Y-101900829D01*
X132300788Y-102045788D01*
X132155829Y-102222421D01*
X132048115Y-102423940D01*
X131981785Y-102642600D01*
X131959388Y-102870000D01*
X131981785Y-103097400D01*
X132048115Y-103316060D01*
X132149105Y-103505000D01*
X132048115Y-103693940D01*
X131981785Y-103912600D01*
X131959388Y-104140000D01*
X131981785Y-104367400D01*
X132045093Y-104576098D01*
X132010498Y-104640820D01*
X131974188Y-104760518D01*
X131961928Y-104885000D01*
X131961928Y-105935000D01*
X131974188Y-106059482D01*
X132010498Y-106179180D01*
X132069463Y-106289494D01*
X132148815Y-106386185D01*
X132245506Y-106465537D01*
X132355820Y-106524502D01*
X132475518Y-106560812D01*
X132600000Y-106573072D01*
X134100000Y-106573072D01*
X134224482Y-106560812D01*
X134344180Y-106524502D01*
X134454494Y-106465537D01*
X134551185Y-106386185D01*
X134630537Y-106289494D01*
X134689502Y-106179180D01*
X134725812Y-106059482D01*
X134738072Y-105935000D01*
X134738072Y-104885000D01*
X134725812Y-104760518D01*
X134689502Y-104640820D01*
X134654907Y-104576098D01*
X134718215Y-104367400D01*
X134740612Y-104140000D01*
X134718932Y-103919872D01*
X140005000Y-103919872D01*
X140005000Y-104360128D01*
X140090890Y-104791925D01*
X140259369Y-105198669D01*
X140503962Y-105564729D01*
X140815271Y-105876038D01*
X141181331Y-106120631D01*
X141588075Y-106289110D01*
X142019872Y-106375000D01*
X142460128Y-106375000D01*
X142891925Y-106289110D01*
X143298669Y-106120631D01*
X143664729Y-105876038D01*
X143976038Y-105564729D01*
X144220631Y-105198669D01*
X144389110Y-104791925D01*
X144475000Y-104360128D01*
X144475000Y-103919872D01*
X144389110Y-103488075D01*
X144220631Y-103081331D01*
X143984988Y-102728665D01*
X150965000Y-102728665D01*
X150965000Y-103011335D01*
X151020147Y-103288574D01*
X151128320Y-103549727D01*
X151285363Y-103784759D01*
X151485241Y-103984637D01*
X151720273Y-104141680D01*
X151981426Y-104249853D01*
X152258665Y-104305000D01*
X152541335Y-104305000D01*
X152818574Y-104249853D01*
X153079727Y-104141680D01*
X153314759Y-103984637D01*
X153436694Y-103862702D01*
X159206903Y-103862702D01*
X159278486Y-104106671D01*
X159533996Y-104227571D01*
X159808184Y-104296300D01*
X160090512Y-104310217D01*
X160370130Y-104268787D01*
X160636292Y-104173603D01*
X160761514Y-104106671D01*
X160833097Y-103862702D01*
X160020000Y-103049605D01*
X159206903Y-103862702D01*
X153436694Y-103862702D01*
X153514637Y-103784759D01*
X153671680Y-103549727D01*
X153779853Y-103288574D01*
X153835000Y-103011335D01*
X153835000Y-102940512D01*
X158579783Y-102940512D01*
X158621213Y-103220130D01*
X158716397Y-103486292D01*
X158783329Y-103611514D01*
X159027298Y-103683097D01*
X159840395Y-102870000D01*
X160199605Y-102870000D01*
X161012702Y-103683097D01*
X161256671Y-103611514D01*
X161377571Y-103356004D01*
X161446300Y-103081816D01*
X161460217Y-102799488D01*
X161418787Y-102519870D01*
X161323603Y-102253708D01*
X161256671Y-102128486D01*
X161012702Y-102056903D01*
X160199605Y-102870000D01*
X159840395Y-102870000D01*
X159027298Y-102056903D01*
X158783329Y-102128486D01*
X158662429Y-102383996D01*
X158593700Y-102658184D01*
X158579783Y-102940512D01*
X153835000Y-102940512D01*
X153835000Y-102728665D01*
X153779853Y-102451426D01*
X153671680Y-102190273D01*
X153514637Y-101955241D01*
X153436694Y-101877298D01*
X159206903Y-101877298D01*
X160020000Y-102690395D01*
X160833097Y-101877298D01*
X160761514Y-101633329D01*
X160506004Y-101512429D01*
X160231816Y-101443700D01*
X159949488Y-101429783D01*
X159669870Y-101471213D01*
X159403708Y-101566397D01*
X159278486Y-101633329D01*
X159206903Y-101877298D01*
X153436694Y-101877298D01*
X153314759Y-101755363D01*
X153079727Y-101598320D01*
X152818574Y-101490147D01*
X152541335Y-101435000D01*
X152258665Y-101435000D01*
X151981426Y-101490147D01*
X151720273Y-101598320D01*
X151485241Y-101755363D01*
X151285363Y-101955241D01*
X151128320Y-102190273D01*
X151020147Y-102451426D01*
X150965000Y-102728665D01*
X143984988Y-102728665D01*
X143976038Y-102715271D01*
X143664729Y-102403962D01*
X143298669Y-102159369D01*
X142891925Y-101990890D01*
X142460128Y-101905000D01*
X142019872Y-101905000D01*
X141588075Y-101990890D01*
X141181331Y-102159369D01*
X140815271Y-102403962D01*
X140503962Y-102715271D01*
X140259369Y-103081331D01*
X140090890Y-103488075D01*
X140005000Y-103919872D01*
X134718932Y-103919872D01*
X134718215Y-103912600D01*
X134651885Y-103693940D01*
X134596087Y-103589548D01*
X134642247Y-103575546D01*
X134774276Y-103504974D01*
X134890001Y-103410001D01*
X134913804Y-103380997D01*
X139376136Y-98918665D01*
X150965000Y-98918665D01*
X150965000Y-99201335D01*
X151020147Y-99478574D01*
X151128320Y-99739727D01*
X151285363Y-99974759D01*
X151485241Y-100174637D01*
X151720273Y-100331680D01*
X151981426Y-100439853D01*
X152258665Y-100495000D01*
X152541335Y-100495000D01*
X152818574Y-100439853D01*
X153079727Y-100331680D01*
X153314759Y-100174637D01*
X153514637Y-99974759D01*
X153671680Y-99739727D01*
X153779853Y-99478574D01*
X153835000Y-99201335D01*
X153835000Y-98918665D01*
X158585000Y-98918665D01*
X158585000Y-99201335D01*
X158640147Y-99478574D01*
X158748320Y-99739727D01*
X158905363Y-99974759D01*
X159105241Y-100174637D01*
X159340273Y-100331680D01*
X159601426Y-100439853D01*
X159878665Y-100495000D01*
X160161335Y-100495000D01*
X160438574Y-100439853D01*
X160699727Y-100331680D01*
X160934759Y-100174637D01*
X161134637Y-99974759D01*
X161291680Y-99739727D01*
X161399853Y-99478574D01*
X161455000Y-99201335D01*
X161455000Y-98918665D01*
X161399853Y-98641426D01*
X161291680Y-98380273D01*
X161134637Y-98145241D01*
X160934759Y-97945363D01*
X160699727Y-97788320D01*
X160438574Y-97680147D01*
X160161335Y-97625000D01*
X159878665Y-97625000D01*
X159601426Y-97680147D01*
X159340273Y-97788320D01*
X159105241Y-97945363D01*
X158905363Y-98145241D01*
X158748320Y-98380273D01*
X158640147Y-98641426D01*
X158585000Y-98918665D01*
X153835000Y-98918665D01*
X153779853Y-98641426D01*
X153671680Y-98380273D01*
X153514637Y-98145241D01*
X153314759Y-97945363D01*
X153079727Y-97788320D01*
X152818574Y-97680147D01*
X152541335Y-97625000D01*
X152258665Y-97625000D01*
X151981426Y-97680147D01*
X151720273Y-97788320D01*
X151485241Y-97945363D01*
X151285363Y-98145241D01*
X151128320Y-98380273D01*
X151020147Y-98641426D01*
X150965000Y-98918665D01*
X139376136Y-98918665D01*
X144829091Y-93465711D01*
X144935363Y-93624759D01*
X145133961Y-93823357D01*
X145125518Y-93824188D01*
X145005820Y-93860498D01*
X144895506Y-93919463D01*
X144798815Y-93998815D01*
X144719463Y-94095506D01*
X144660498Y-94205820D01*
X144624188Y-94325518D01*
X144611928Y-94450000D01*
X144611928Y-96050000D01*
X144624188Y-96174482D01*
X144660498Y-96294180D01*
X144719463Y-96404494D01*
X144798815Y-96501185D01*
X144895506Y-96580537D01*
X145005820Y-96639502D01*
X145125518Y-96675812D01*
X145250000Y-96688072D01*
X146850000Y-96688072D01*
X146974482Y-96675812D01*
X147094180Y-96639502D01*
X147204494Y-96580537D01*
X147301185Y-96501185D01*
X147380537Y-96404494D01*
X147439502Y-96294180D01*
X147475812Y-96174482D01*
X147488072Y-96050000D01*
X147488072Y-95108665D01*
X150965000Y-95108665D01*
X150965000Y-95391335D01*
X151020147Y-95668574D01*
X151128320Y-95929727D01*
X151285363Y-96164759D01*
X151485241Y-96364637D01*
X151720273Y-96521680D01*
X151981426Y-96629853D01*
X152258665Y-96685000D01*
X152541335Y-96685000D01*
X152818574Y-96629853D01*
X153079727Y-96521680D01*
X153314759Y-96364637D01*
X153514637Y-96164759D01*
X153671680Y-95929727D01*
X153779853Y-95668574D01*
X153835000Y-95391335D01*
X153835000Y-95108665D01*
X153779853Y-94831426D01*
X153671680Y-94570273D01*
X153514637Y-94335241D01*
X153314759Y-94135363D01*
X153079727Y-93978320D01*
X152818574Y-93870147D01*
X152541335Y-93815000D01*
X152258665Y-93815000D01*
X151981426Y-93870147D01*
X151720273Y-93978320D01*
X151485241Y-94135363D01*
X151285363Y-94335241D01*
X151128320Y-94570273D01*
X151020147Y-94831426D01*
X150965000Y-95108665D01*
X147488072Y-95108665D01*
X147488072Y-94450000D01*
X147475812Y-94325518D01*
X147439502Y-94205820D01*
X147380537Y-94095506D01*
X147301185Y-93998815D01*
X147204494Y-93919463D01*
X147094180Y-93860498D01*
X146974482Y-93824188D01*
X146966039Y-93823357D01*
X147164637Y-93624759D01*
X147321680Y-93389727D01*
X147429853Y-93128574D01*
X147485000Y-92851335D01*
X147485000Y-92568665D01*
X147429853Y-92291426D01*
X147321680Y-92030273D01*
X147164637Y-91795241D01*
X146964759Y-91595363D01*
X146732241Y-91440000D01*
X146943764Y-91298665D01*
X150965000Y-91298665D01*
X150965000Y-91581335D01*
X151020147Y-91858574D01*
X151128320Y-92119727D01*
X151285363Y-92354759D01*
X151485241Y-92554637D01*
X151720273Y-92711680D01*
X151981426Y-92819853D01*
X152258665Y-92875000D01*
X152541335Y-92875000D01*
X152818574Y-92819853D01*
X153079727Y-92711680D01*
X153314759Y-92554637D01*
X153514637Y-92354759D01*
X153671680Y-92119727D01*
X153779853Y-91858574D01*
X153835000Y-91581335D01*
X153835000Y-91298665D01*
X153779853Y-91021426D01*
X153671680Y-90760273D01*
X153514637Y-90525241D01*
X153314759Y-90325363D01*
X153079727Y-90168320D01*
X152818574Y-90060147D01*
X152541335Y-90005000D01*
X152258665Y-90005000D01*
X151981426Y-90060147D01*
X151720273Y-90168320D01*
X151485241Y-90325363D01*
X151285363Y-90525241D01*
X151128320Y-90760273D01*
X151020147Y-91021426D01*
X150965000Y-91298665D01*
X146943764Y-91298665D01*
X146964759Y-91284637D01*
X147164637Y-91084759D01*
X147321680Y-90849727D01*
X147429853Y-90588574D01*
X147485000Y-90311335D01*
X147485000Y-90028665D01*
X147429853Y-89751426D01*
X147321680Y-89490273D01*
X147164637Y-89255241D01*
X146964759Y-89055363D01*
X146732241Y-88900000D01*
X146964759Y-88744637D01*
X147164637Y-88544759D01*
X147268043Y-88390000D01*
X151221957Y-88390000D01*
X151325363Y-88544759D01*
X151525241Y-88744637D01*
X151760273Y-88901680D01*
X152021426Y-89009853D01*
X152298665Y-89065000D01*
X152581335Y-89065000D01*
X152763887Y-89028688D01*
X158627949Y-94892751D01*
X158585000Y-95108665D01*
X158585000Y-95391335D01*
X158640147Y-95668574D01*
X158748320Y-95929727D01*
X158905363Y-96164759D01*
X159105241Y-96364637D01*
X159340273Y-96521680D01*
X159601426Y-96629853D01*
X159878665Y-96685000D01*
X160161335Y-96685000D01*
X160438574Y-96629853D01*
X160699727Y-96521680D01*
X160934759Y-96364637D01*
X161134637Y-96164759D01*
X161291680Y-95929727D01*
X161399853Y-95668574D01*
X161455000Y-95391335D01*
X161455000Y-95108665D01*
X161399853Y-94831426D01*
X161291680Y-94570273D01*
X161134637Y-94335241D01*
X160934759Y-94135363D01*
X160699727Y-93978320D01*
X160438574Y-93870147D01*
X160161335Y-93815000D01*
X159878665Y-93815000D01*
X159729478Y-93844676D01*
X158317504Y-92432702D01*
X159206903Y-92432702D01*
X159278486Y-92676671D01*
X159533996Y-92797571D01*
X159808184Y-92866300D01*
X160090512Y-92880217D01*
X160370130Y-92838787D01*
X160636292Y-92743603D01*
X160761514Y-92676671D01*
X160833097Y-92432702D01*
X160020000Y-91619605D01*
X159206903Y-92432702D01*
X158317504Y-92432702D01*
X157395314Y-91510512D01*
X158579783Y-91510512D01*
X158621213Y-91790130D01*
X158716397Y-92056292D01*
X158783329Y-92181514D01*
X159027298Y-92253097D01*
X159840395Y-91440000D01*
X160199605Y-91440000D01*
X161012702Y-92253097D01*
X161256671Y-92181514D01*
X161377571Y-91926004D01*
X161446300Y-91651816D01*
X161460217Y-91369488D01*
X161418787Y-91089870D01*
X161323603Y-90823708D01*
X161256671Y-90698486D01*
X161012702Y-90626903D01*
X160199605Y-91440000D01*
X159840395Y-91440000D01*
X159027298Y-90626903D01*
X158783329Y-90698486D01*
X158662429Y-90953996D01*
X158593700Y-91228184D01*
X158579783Y-91510512D01*
X157395314Y-91510512D01*
X156332100Y-90447298D01*
X159206903Y-90447298D01*
X160020000Y-91260395D01*
X160833097Y-90447298D01*
X160761514Y-90203329D01*
X160506004Y-90082429D01*
X160231816Y-90013700D01*
X159949488Y-89999783D01*
X159669870Y-90041213D01*
X159403708Y-90136397D01*
X159278486Y-90203329D01*
X159206903Y-90447298D01*
X156332100Y-90447298D01*
X154952141Y-89067340D01*
X155010512Y-89070217D01*
X155290130Y-89028787D01*
X155556292Y-88933603D01*
X155681514Y-88866671D01*
X155753097Y-88622702D01*
X154940000Y-87809605D01*
X154925858Y-87823748D01*
X154746253Y-87644143D01*
X154760395Y-87630000D01*
X155119605Y-87630000D01*
X155932702Y-88443097D01*
X156176671Y-88371514D01*
X156297571Y-88116004D01*
X156366300Y-87841816D01*
X156380217Y-87559488D01*
X156338787Y-87279870D01*
X156243603Y-87013708D01*
X156176671Y-86888486D01*
X155932702Y-86816903D01*
X155119605Y-87630000D01*
X154760395Y-87630000D01*
X154746253Y-87615858D01*
X154925858Y-87436253D01*
X154940000Y-87450395D01*
X155753097Y-86637298D01*
X155681514Y-86393329D01*
X155426004Y-86272429D01*
X155151816Y-86203700D01*
X154869488Y-86189783D01*
X154589870Y-86231213D01*
X154323708Y-86326397D01*
X154285001Y-86347086D01*
X154285001Y-84169039D01*
X158628096Y-84169039D01*
X158668754Y-84303087D01*
X158788963Y-84557420D01*
X158956481Y-84783414D01*
X159164869Y-84972385D01*
X159406119Y-85117070D01*
X159670960Y-85211909D01*
X159893000Y-85090624D01*
X159893000Y-83947000D01*
X160147000Y-83947000D01*
X160147000Y-85090624D01*
X160369040Y-85211909D01*
X160633881Y-85117070D01*
X160875131Y-84972385D01*
X161083519Y-84783414D01*
X161251037Y-84557420D01*
X161371246Y-84303087D01*
X161411904Y-84169039D01*
X161289915Y-83947000D01*
X160147000Y-83947000D01*
X159893000Y-83947000D01*
X158750085Y-83947000D01*
X158628096Y-84169039D01*
X154285001Y-84169039D01*
X154285001Y-83470961D01*
X158628096Y-83470961D01*
X158750085Y-83693000D01*
X159893000Y-83693000D01*
X159893000Y-82549376D01*
X160147000Y-82549376D01*
X160147000Y-83693000D01*
X161289915Y-83693000D01*
X161411904Y-83470961D01*
X161371246Y-83336913D01*
X161251037Y-83082580D01*
X161083519Y-82856586D01*
X160875131Y-82667615D01*
X160633881Y-82522930D01*
X160369040Y-82428091D01*
X160147000Y-82549376D01*
X159893000Y-82549376D01*
X159670960Y-82428091D01*
X159406119Y-82522930D01*
X159164869Y-82667615D01*
X158956481Y-82856586D01*
X158788963Y-83082580D01*
X158668754Y-83336913D01*
X158628096Y-83470961D01*
X154285001Y-83470961D01*
X154285001Y-79868665D01*
X158585000Y-79868665D01*
X158585000Y-80151335D01*
X158640147Y-80428574D01*
X158748320Y-80689727D01*
X158905363Y-80924759D01*
X159105241Y-81124637D01*
X159340273Y-81281680D01*
X159601426Y-81389853D01*
X159878665Y-81445000D01*
X160161335Y-81445000D01*
X160438574Y-81389853D01*
X160699727Y-81281680D01*
X160934759Y-81124637D01*
X161134637Y-80924759D01*
X161291680Y-80689727D01*
X161399853Y-80428574D01*
X161455000Y-80151335D01*
X161455000Y-79868665D01*
X161399853Y-79591426D01*
X161291680Y-79330273D01*
X161134637Y-79095241D01*
X160934759Y-78895363D01*
X160699727Y-78738320D01*
X160438574Y-78630147D01*
X160161335Y-78575000D01*
X159878665Y-78575000D01*
X159601426Y-78630147D01*
X159340273Y-78738320D01*
X159105241Y-78895363D01*
X158905363Y-79095241D01*
X158748320Y-79330273D01*
X158640147Y-79591426D01*
X158585000Y-79868665D01*
X154285001Y-79868665D01*
X154285001Y-76207607D01*
X154453996Y-76287571D01*
X154728184Y-76356300D01*
X155010512Y-76370217D01*
X155290130Y-76328787D01*
X155556292Y-76233603D01*
X155681514Y-76166671D01*
X155753097Y-75922702D01*
X154940000Y-75109605D01*
X154925858Y-75123748D01*
X154746253Y-74944143D01*
X154760395Y-74930000D01*
X155119605Y-74930000D01*
X155932702Y-75743097D01*
X156176671Y-75671514D01*
X156297571Y-75416004D01*
X156366300Y-75141816D01*
X156380217Y-74859488D01*
X156338787Y-74579870D01*
X156243603Y-74313708D01*
X156176671Y-74188486D01*
X155932702Y-74116903D01*
X155119605Y-74930000D01*
X154760395Y-74930000D01*
X153947298Y-74116903D01*
X153703329Y-74188486D01*
X153689676Y-74217341D01*
X153554637Y-74015241D01*
X153476694Y-73937298D01*
X154126903Y-73937298D01*
X154940000Y-74750395D01*
X155753097Y-73937298D01*
X155681514Y-73693329D01*
X155426004Y-73572429D01*
X155151816Y-73503700D01*
X154869488Y-73489783D01*
X154589870Y-73531213D01*
X154323708Y-73626397D01*
X154198486Y-73693329D01*
X154126903Y-73937298D01*
X153476694Y-73937298D01*
X153354759Y-73815363D01*
X153119727Y-73658320D01*
X152858574Y-73550147D01*
X152581335Y-73495000D01*
X152298665Y-73495000D01*
X152116114Y-73531312D01*
X149563467Y-70978665D01*
X151005000Y-70978665D01*
X151005000Y-71261335D01*
X151060147Y-71538574D01*
X151168320Y-71799727D01*
X151325363Y-72034759D01*
X151525241Y-72234637D01*
X151760273Y-72391680D01*
X152021426Y-72499853D01*
X152298665Y-72555000D01*
X152581335Y-72555000D01*
X152858574Y-72499853D01*
X153119727Y-72391680D01*
X153354759Y-72234637D01*
X153476694Y-72112702D01*
X154126903Y-72112702D01*
X154198486Y-72356671D01*
X154453996Y-72477571D01*
X154728184Y-72546300D01*
X155010512Y-72560217D01*
X155290130Y-72518787D01*
X155556292Y-72423603D01*
X155681514Y-72356671D01*
X155753097Y-72112702D01*
X154940000Y-71299605D01*
X154126903Y-72112702D01*
X153476694Y-72112702D01*
X153554637Y-72034759D01*
X153688692Y-71834131D01*
X153703329Y-71861514D01*
X153947298Y-71933097D01*
X154760395Y-71120000D01*
X155119605Y-71120000D01*
X155932702Y-71933097D01*
X156176671Y-71861514D01*
X156297571Y-71606004D01*
X156366300Y-71331816D01*
X156380217Y-71049488D01*
X156338787Y-70769870D01*
X156243603Y-70503708D01*
X156176671Y-70378486D01*
X155932702Y-70306903D01*
X155119605Y-71120000D01*
X154760395Y-71120000D01*
X153947298Y-70306903D01*
X153703329Y-70378486D01*
X153689676Y-70407341D01*
X153554637Y-70205241D01*
X153476694Y-70127298D01*
X154126903Y-70127298D01*
X154940000Y-70940395D01*
X155753097Y-70127298D01*
X155681514Y-69883329D01*
X155426004Y-69762429D01*
X155151816Y-69693700D01*
X154869488Y-69679783D01*
X154589870Y-69721213D01*
X154323708Y-69816397D01*
X154198486Y-69883329D01*
X154126903Y-70127298D01*
X153476694Y-70127298D01*
X153354759Y-70005363D01*
X153119727Y-69848320D01*
X152858574Y-69740147D01*
X152581335Y-69685000D01*
X152298665Y-69685000D01*
X152021426Y-69740147D01*
X151760273Y-69848320D01*
X151525241Y-70005363D01*
X151325363Y-70205241D01*
X151168320Y-70440273D01*
X151060147Y-70701426D01*
X151005000Y-70978665D01*
X149563467Y-70978665D01*
X148612302Y-70027501D01*
X151002076Y-67637728D01*
X151020147Y-67728574D01*
X151128320Y-67989727D01*
X151285363Y-68224759D01*
X151485241Y-68424637D01*
X151720273Y-68581680D01*
X151981426Y-68689853D01*
X152258665Y-68745000D01*
X152541335Y-68745000D01*
X152818574Y-68689853D01*
X153079727Y-68581680D01*
X153314759Y-68424637D01*
X153436694Y-68302702D01*
X159206903Y-68302702D01*
X159278486Y-68546671D01*
X159533996Y-68667571D01*
X159808184Y-68736300D01*
X160090512Y-68750217D01*
X160370130Y-68708787D01*
X160636292Y-68613603D01*
X160761514Y-68546671D01*
X160833097Y-68302702D01*
X160020000Y-67489605D01*
X159206903Y-68302702D01*
X153436694Y-68302702D01*
X153514637Y-68224759D01*
X153671680Y-67989727D01*
X153779853Y-67728574D01*
X153835000Y-67451335D01*
X153835000Y-67380512D01*
X158579783Y-67380512D01*
X158621213Y-67660130D01*
X158716397Y-67926292D01*
X158783329Y-68051514D01*
X159027298Y-68123097D01*
X159840395Y-67310000D01*
X160199605Y-67310000D01*
X161012702Y-68123097D01*
X161256671Y-68051514D01*
X161377571Y-67796004D01*
X161446300Y-67521816D01*
X161460217Y-67239488D01*
X161418787Y-66959870D01*
X161323603Y-66693708D01*
X161256671Y-66568486D01*
X161012702Y-66496903D01*
X160199605Y-67310000D01*
X159840395Y-67310000D01*
X159027298Y-66496903D01*
X158783329Y-66568486D01*
X158662429Y-66823996D01*
X158593700Y-67098184D01*
X158579783Y-67380512D01*
X153835000Y-67380512D01*
X153835000Y-67168665D01*
X153779853Y-66891426D01*
X153671680Y-66630273D01*
X153514637Y-66395241D01*
X153436694Y-66317298D01*
X159206903Y-66317298D01*
X160020000Y-67130395D01*
X160833097Y-66317298D01*
X160761514Y-66073329D01*
X160506004Y-65952429D01*
X160231816Y-65883700D01*
X159949488Y-65869783D01*
X159669870Y-65911213D01*
X159403708Y-66006397D01*
X159278486Y-66073329D01*
X159206903Y-66317298D01*
X153436694Y-66317298D01*
X153314759Y-66195363D01*
X153079727Y-66038320D01*
X152818574Y-65930147D01*
X152727728Y-65912076D01*
X154036009Y-64603796D01*
X154065002Y-64580002D01*
X154088796Y-64551009D01*
X154088800Y-64551005D01*
X154159974Y-64464278D01*
X154186443Y-64414759D01*
X154230547Y-64332248D01*
X154274004Y-64188987D01*
X154285001Y-64077334D01*
X154285001Y-64077325D01*
X154288677Y-64040002D01*
X154285001Y-64002679D01*
X154285001Y-63358665D01*
X158585000Y-63358665D01*
X158585000Y-63641335D01*
X158640147Y-63918574D01*
X158748320Y-64179727D01*
X158905363Y-64414759D01*
X159105241Y-64614637D01*
X159340273Y-64771680D01*
X159601426Y-64879853D01*
X159878665Y-64935000D01*
X160161335Y-64935000D01*
X160438574Y-64879853D01*
X160699727Y-64771680D01*
X160934759Y-64614637D01*
X161134637Y-64414759D01*
X161291680Y-64179727D01*
X161399853Y-63918574D01*
X161455000Y-63641335D01*
X161455000Y-63358665D01*
X161399853Y-63081426D01*
X161291680Y-62820273D01*
X161134637Y-62585241D01*
X160934759Y-62385363D01*
X160699727Y-62228320D01*
X160438574Y-62120147D01*
X160161335Y-62065000D01*
X159878665Y-62065000D01*
X159601426Y-62120147D01*
X159340273Y-62228320D01*
X159105241Y-62385363D01*
X158905363Y-62585241D01*
X158748320Y-62820273D01*
X158640147Y-63081426D01*
X158585000Y-63358665D01*
X154285001Y-63358665D01*
X154285001Y-59548665D01*
X158585000Y-59548665D01*
X158585000Y-59831335D01*
X158640147Y-60108574D01*
X158748320Y-60369727D01*
X158905363Y-60604759D01*
X159105241Y-60804637D01*
X159340273Y-60961680D01*
X159601426Y-61069853D01*
X159878665Y-61125000D01*
X160161335Y-61125000D01*
X160438574Y-61069853D01*
X160699727Y-60961680D01*
X160934759Y-60804637D01*
X161134637Y-60604759D01*
X161291680Y-60369727D01*
X161399853Y-60108574D01*
X161455000Y-59831335D01*
X161455000Y-59548665D01*
X161399853Y-59271426D01*
X161291680Y-59010273D01*
X161134637Y-58775241D01*
X160934759Y-58575363D01*
X160699727Y-58418320D01*
X160438574Y-58310147D01*
X160161335Y-58255000D01*
X159878665Y-58255000D01*
X159601426Y-58310147D01*
X159340273Y-58418320D01*
X159105241Y-58575363D01*
X158905363Y-58775241D01*
X158748320Y-59010273D01*
X158640147Y-59271426D01*
X158585000Y-59548665D01*
X154285001Y-59548665D01*
X154285001Y-55738665D01*
X158585000Y-55738665D01*
X158585000Y-56021335D01*
X158640147Y-56298574D01*
X158748320Y-56559727D01*
X158905363Y-56794759D01*
X159105241Y-56994637D01*
X159340273Y-57151680D01*
X159601426Y-57259853D01*
X159878665Y-57315000D01*
X160161335Y-57315000D01*
X160438574Y-57259853D01*
X160699727Y-57151680D01*
X160934759Y-56994637D01*
X161134637Y-56794759D01*
X161291680Y-56559727D01*
X161399853Y-56298574D01*
X161455000Y-56021335D01*
X161455000Y-55738665D01*
X161399853Y-55461426D01*
X161291680Y-55200273D01*
X161134637Y-54965241D01*
X160934759Y-54765363D01*
X160699727Y-54608320D01*
X160438574Y-54500147D01*
X160161335Y-54445000D01*
X159878665Y-54445000D01*
X159601426Y-54500147D01*
X159340273Y-54608320D01*
X159105241Y-54765363D01*
X158905363Y-54965241D01*
X158748320Y-55200273D01*
X158640147Y-55461426D01*
X158585000Y-55738665D01*
X154285001Y-55738665D01*
X154285001Y-55377322D01*
X154288677Y-55339999D01*
X154285001Y-55302676D01*
X154285001Y-55302666D01*
X154274004Y-55191013D01*
X154230547Y-55047752D01*
X154230276Y-55047245D01*
X154159975Y-54915722D01*
X154088800Y-54828996D01*
X154065002Y-54799998D01*
X154036005Y-54776201D01*
X153503804Y-54244001D01*
X153480002Y-54214998D01*
X153364277Y-54120025D01*
X153232248Y-54049453D01*
X153088987Y-54005996D01*
X152977334Y-53994999D01*
X152977323Y-53994999D01*
X152940001Y-53991323D01*
X152902679Y-53994999D01*
X146040799Y-53994999D01*
X144176909Y-52131110D01*
X144213411Y-52115990D01*
X144456632Y-51953475D01*
X144663475Y-51746632D01*
X144780000Y-51572240D01*
X144896525Y-51746632D01*
X145103368Y-51953475D01*
X145346589Y-52115990D01*
X145616842Y-52227932D01*
X145903740Y-52285000D01*
X146196260Y-52285000D01*
X146483158Y-52227932D01*
X146753411Y-52115990D01*
X146996632Y-51953475D01*
X147203475Y-51746632D01*
X147320000Y-51572240D01*
X147436525Y-51746632D01*
X147643368Y-51953475D01*
X147886589Y-52115990D01*
X148156842Y-52227932D01*
X148443740Y-52285000D01*
X148736260Y-52285000D01*
X149023158Y-52227932D01*
X149293411Y-52115990D01*
X149536632Y-51953475D01*
X149743475Y-51746632D01*
X149905990Y-51503411D01*
X150017932Y-51233158D01*
X150075000Y-50946260D01*
X150075000Y-50653740D01*
X150017932Y-50366842D01*
X149905990Y-50096589D01*
X149743475Y-49853368D01*
X149536632Y-49646525D01*
X149362240Y-49530000D01*
X149536632Y-49413475D01*
X149743475Y-49206632D01*
X149905990Y-48963411D01*
X150017932Y-48693158D01*
X150075000Y-48406260D01*
X150075000Y-48113740D01*
X150017932Y-47826842D01*
X149905990Y-47556589D01*
X149743475Y-47313368D01*
X149536632Y-47106525D01*
X149293411Y-46944010D01*
X149023158Y-46832068D01*
X148736260Y-46775000D01*
X148443740Y-46775000D01*
X148156842Y-46832068D01*
X147886589Y-46944010D01*
X147643368Y-47106525D01*
X147436525Y-47313368D01*
X147320000Y-47487760D01*
X147203475Y-47313368D01*
X146996632Y-47106525D01*
X146753411Y-46944010D01*
X146483158Y-46832068D01*
X146196260Y-46775000D01*
X145903740Y-46775000D01*
X145616842Y-46832068D01*
X145346589Y-46944010D01*
X145103368Y-47106525D01*
X144896525Y-47313368D01*
X144780000Y-47487760D01*
X144663475Y-47313368D01*
X144456632Y-47106525D01*
X144213411Y-46944010D01*
X143943158Y-46832068D01*
X143656260Y-46775000D01*
X143363740Y-46775000D01*
X143076842Y-46832068D01*
X142806589Y-46944010D01*
X142563368Y-47106525D01*
X142356525Y-47313368D01*
X142240000Y-47487760D01*
X142123475Y-47313368D01*
X141916632Y-47106525D01*
X141673411Y-46944010D01*
X141403158Y-46832068D01*
X141116260Y-46775000D01*
X140823740Y-46775000D01*
X140554999Y-46828456D01*
X140554999Y-43385766D01*
X140815271Y-43646038D01*
X141181331Y-43890631D01*
X141588075Y-44059110D01*
X142019872Y-44145000D01*
X142460128Y-44145000D01*
X142891925Y-44059110D01*
X143298669Y-43890631D01*
X143664729Y-43646038D01*
X143976038Y-43334729D01*
X144220631Y-42968669D01*
X144389110Y-42561925D01*
X144475000Y-42130128D01*
X144475000Y-41910000D01*
X151009388Y-41910000D01*
X151031785Y-42137400D01*
X151098115Y-42356060D01*
X151199105Y-42545000D01*
X151098115Y-42733940D01*
X151031785Y-42952600D01*
X151009388Y-43180000D01*
X151031785Y-43407400D01*
X151098115Y-43626060D01*
X151205829Y-43827579D01*
X151350788Y-44004212D01*
X151527421Y-44149171D01*
X151728940Y-44256885D01*
X151947600Y-44323215D01*
X152118021Y-44340000D01*
X152681979Y-44340000D01*
X152852400Y-44323215D01*
X153071060Y-44256885D01*
X153272579Y-44149171D01*
X153449212Y-44004212D01*
X153594171Y-43827579D01*
X153701885Y-43626060D01*
X153768215Y-43407400D01*
X153790612Y-43180000D01*
X153768215Y-42952600D01*
X153701885Y-42733940D01*
X153600895Y-42545000D01*
X153701885Y-42356060D01*
X153768215Y-42137400D01*
X153790612Y-41910000D01*
X157359388Y-41910000D01*
X157381785Y-42137400D01*
X157448115Y-42356060D01*
X157549105Y-42545000D01*
X157448115Y-42733940D01*
X157381785Y-42952600D01*
X157359388Y-43180000D01*
X157381785Y-43407400D01*
X157448115Y-43626060D01*
X157555829Y-43827579D01*
X157700788Y-44004212D01*
X157877421Y-44149171D01*
X158078940Y-44256885D01*
X158297600Y-44323215D01*
X158468021Y-44340000D01*
X159031979Y-44340000D01*
X159202400Y-44323215D01*
X159421060Y-44256885D01*
X159622579Y-44149171D01*
X159799212Y-44004212D01*
X159944171Y-43827579D01*
X160051885Y-43626060D01*
X160118215Y-43407400D01*
X160140612Y-43180000D01*
X160118215Y-42952600D01*
X160051885Y-42733940D01*
X159950895Y-42545000D01*
X160051885Y-42356060D01*
X160118215Y-42137400D01*
X160140612Y-41910000D01*
X160118215Y-41682600D01*
X160054907Y-41473902D01*
X160089502Y-41409180D01*
X160125812Y-41289482D01*
X160138072Y-41165000D01*
X160135000Y-40925750D01*
X159976250Y-40767000D01*
X159203109Y-40767000D01*
X159202400Y-40766785D01*
X159031979Y-40750000D01*
X158468021Y-40750000D01*
X158297600Y-40766785D01*
X158296891Y-40767000D01*
X157523750Y-40767000D01*
X157365000Y-40925750D01*
X157361928Y-41165000D01*
X157374188Y-41289482D01*
X157410498Y-41409180D01*
X157445093Y-41473902D01*
X157381785Y-41682600D01*
X157359388Y-41910000D01*
X153790612Y-41910000D01*
X153768215Y-41682600D01*
X153704907Y-41473902D01*
X153739502Y-41409180D01*
X153775812Y-41289482D01*
X153788072Y-41165000D01*
X153785000Y-40925750D01*
X153626250Y-40767000D01*
X152853109Y-40767000D01*
X152852400Y-40766785D01*
X152681979Y-40750000D01*
X152118021Y-40750000D01*
X151947600Y-40766785D01*
X151946891Y-40767000D01*
X151173750Y-40767000D01*
X151015000Y-40925750D01*
X151011928Y-41165000D01*
X151024188Y-41289482D01*
X151060498Y-41409180D01*
X151095093Y-41473902D01*
X151031785Y-41682600D01*
X151009388Y-41910000D01*
X144475000Y-41910000D01*
X144475000Y-41689872D01*
X144389110Y-41258075D01*
X144220631Y-40851331D01*
X143976038Y-40485271D01*
X143664729Y-40173962D01*
X143576486Y-40115000D01*
X151011928Y-40115000D01*
X151015000Y-40354250D01*
X151173750Y-40513000D01*
X152273000Y-40513000D01*
X152273000Y-39638750D01*
X152527000Y-39638750D01*
X152527000Y-40513000D01*
X153626250Y-40513000D01*
X153785000Y-40354250D01*
X153788072Y-40115000D01*
X157361928Y-40115000D01*
X157365000Y-40354250D01*
X157523750Y-40513000D01*
X158623000Y-40513000D01*
X158623000Y-39638750D01*
X158877000Y-39638750D01*
X158877000Y-40513000D01*
X159976250Y-40513000D01*
X160135000Y-40354250D01*
X160138072Y-40115000D01*
X160125812Y-39990518D01*
X160089502Y-39870820D01*
X160030537Y-39760506D01*
X159951185Y-39663815D01*
X159854494Y-39584463D01*
X159744180Y-39525498D01*
X159624482Y-39489188D01*
X159500000Y-39476928D01*
X159035750Y-39480000D01*
X158877000Y-39638750D01*
X158623000Y-39638750D01*
X158464250Y-39480000D01*
X158000000Y-39476928D01*
X157875518Y-39489188D01*
X157755820Y-39525498D01*
X157645506Y-39584463D01*
X157548815Y-39663815D01*
X157469463Y-39760506D01*
X157410498Y-39870820D01*
X157374188Y-39990518D01*
X157361928Y-40115000D01*
X153788072Y-40115000D01*
X153775812Y-39990518D01*
X153739502Y-39870820D01*
X153680537Y-39760506D01*
X153601185Y-39663815D01*
X153504494Y-39584463D01*
X153394180Y-39525498D01*
X153274482Y-39489188D01*
X153150000Y-39476928D01*
X152685750Y-39480000D01*
X152527000Y-39638750D01*
X152273000Y-39638750D01*
X152114250Y-39480000D01*
X151650000Y-39476928D01*
X151525518Y-39489188D01*
X151405820Y-39525498D01*
X151295506Y-39584463D01*
X151198815Y-39663815D01*
X151119463Y-39760506D01*
X151060498Y-39870820D01*
X151024188Y-39990518D01*
X151011928Y-40115000D01*
X143576486Y-40115000D01*
X143298669Y-39929369D01*
X142891925Y-39760890D01*
X142460128Y-39675000D01*
X142019872Y-39675000D01*
X141588075Y-39760890D01*
X141181331Y-39929369D01*
X140815271Y-40173962D01*
X140503962Y-40485271D01*
X140259369Y-40851331D01*
X140090890Y-41258075D01*
X140005000Y-41689872D01*
X140005000Y-42130128D01*
X140019916Y-42205114D01*
X137154154Y-39339353D01*
X137403996Y-39457571D01*
X137678184Y-39526300D01*
X137960512Y-39540217D01*
X138240130Y-39498787D01*
X138506292Y-39403603D01*
X138631514Y-39336671D01*
X138703097Y-39092702D01*
X137890000Y-38279605D01*
X137875858Y-38293748D01*
X137696253Y-38114143D01*
X137710395Y-38100000D01*
X138069605Y-38100000D01*
X138882702Y-38913097D01*
X139126671Y-38841514D01*
X139247571Y-38586004D01*
X139316300Y-38311816D01*
X139330217Y-38029488D01*
X139288787Y-37749870D01*
X139193603Y-37483708D01*
X139126671Y-37358486D01*
X138882702Y-37286903D01*
X138069605Y-38100000D01*
X137710395Y-38100000D01*
X137696253Y-38085858D01*
X137875858Y-37906253D01*
X137890000Y-37920395D01*
X138703097Y-37107298D01*
X138631514Y-36863329D01*
X138376004Y-36742429D01*
X138101816Y-36673700D01*
X137819488Y-36659783D01*
X137539870Y-36701213D01*
X137273708Y-36796397D01*
X137151691Y-36861616D01*
X137141185Y-36848815D01*
X137044494Y-36769463D01*
X136934180Y-36710498D01*
X136814482Y-36674188D01*
X136690000Y-36661928D01*
X135090000Y-36661928D01*
X134965518Y-36674188D01*
X134845820Y-36710498D01*
X134735506Y-36769463D01*
X134638815Y-36848815D01*
X134559463Y-36945506D01*
X134500498Y-37055820D01*
X134464188Y-37175518D01*
X134451928Y-37300000D01*
X134451928Y-37340000D01*
X132738072Y-37340000D01*
X132738072Y-36900000D01*
X132725812Y-36775518D01*
X132689502Y-36655820D01*
X132630537Y-36545506D01*
X132551185Y-36448815D01*
X132454494Y-36369463D01*
X132344180Y-36310498D01*
X132224482Y-36274188D01*
X132100000Y-36261928D01*
X129900000Y-36261928D01*
X129775518Y-36274188D01*
X129655820Y-36310498D01*
X129545506Y-36369463D01*
X129448815Y-36448815D01*
X129369463Y-36545506D01*
X129310498Y-36655820D01*
X129274188Y-36775518D01*
X129261928Y-36900000D01*
X129261928Y-39100000D01*
X129274188Y-39224482D01*
X129310498Y-39344180D01*
X129369463Y-39454494D01*
X129448815Y-39551185D01*
X129545506Y-39630537D01*
X129655820Y-39689502D01*
X129775518Y-39725812D01*
X129900000Y-39738072D01*
X132100000Y-39738072D01*
X132224482Y-39725812D01*
X132344180Y-39689502D01*
X132454494Y-39630537D01*
X132551185Y-39551185D01*
X132630537Y-39454494D01*
X132689502Y-39344180D01*
X132725812Y-39224482D01*
X132738072Y-39100000D01*
X132738072Y-38860000D01*
X134451928Y-38860000D01*
X134451928Y-38900000D01*
X134464188Y-39024482D01*
X134500498Y-39144180D01*
X134559463Y-39254494D01*
X134638815Y-39351185D01*
X134735506Y-39430537D01*
X134845820Y-39489502D01*
X134965518Y-39525812D01*
X135090000Y-39538072D01*
X135235674Y-39538072D01*
X135255026Y-39574276D01*
X135301199Y-39630537D01*
X135350000Y-39690001D01*
X135378998Y-39713799D01*
X139034999Y-43369801D01*
X139035000Y-46903247D01*
X138863158Y-46832068D01*
X138576260Y-46775000D01*
X138283740Y-46775000D01*
X137996842Y-46832068D01*
X137726589Y-46944010D01*
X137483368Y-47106525D01*
X137276525Y-47313368D01*
X137160000Y-47487760D01*
X137043475Y-47313368D01*
X136836632Y-47106525D01*
X136593411Y-46944010D01*
X136323158Y-46832068D01*
X136036260Y-46775000D01*
X135743740Y-46775000D01*
X135456842Y-46832068D01*
X135186589Y-46944010D01*
X134943368Y-47106525D01*
X134736525Y-47313368D01*
X134574010Y-47556589D01*
X134462068Y-47826842D01*
X134405000Y-48113740D01*
X134405000Y-48406260D01*
X134462068Y-48693158D01*
X134574010Y-48963411D01*
X134736525Y-49206632D01*
X134868380Y-49338487D01*
X134795820Y-49360498D01*
X134685506Y-49419463D01*
X134588815Y-49498815D01*
X134509463Y-49595506D01*
X134450498Y-49705820D01*
X134414188Y-49825518D01*
X134401928Y-49950000D01*
X134401928Y-51650000D01*
X134414188Y-51774482D01*
X134450498Y-51894180D01*
X134509463Y-52004494D01*
X134588815Y-52101185D01*
X134685506Y-52180537D01*
X134795820Y-52239502D01*
X134915518Y-52275812D01*
X135040000Y-52288072D01*
X136740000Y-52288072D01*
X136864482Y-52275812D01*
X136984180Y-52239502D01*
X137094494Y-52180537D01*
X137191185Y-52101185D01*
X137270537Y-52004494D01*
X137329502Y-51894180D01*
X137351513Y-51821620D01*
X137483368Y-51953475D01*
X137726589Y-52115990D01*
X137996842Y-52227932D01*
X138283740Y-52285000D01*
X138576260Y-52285000D01*
X138863158Y-52227932D01*
X139133411Y-52115990D01*
X139376632Y-51953475D01*
X139583475Y-51746632D01*
X139705195Y-51564466D01*
X139774822Y-51681355D01*
X139969731Y-51897588D01*
X140203080Y-52071641D01*
X140465901Y-52196825D01*
X140613110Y-52241476D01*
X140843000Y-52120155D01*
X140843000Y-50927000D01*
X140823000Y-50927000D01*
X140823000Y-50673000D01*
X140843000Y-50673000D01*
X140843000Y-50653000D01*
X141097000Y-50653000D01*
X141097000Y-50673000D01*
X141117000Y-50673000D01*
X141117000Y-50927000D01*
X141097000Y-50927000D01*
X141097000Y-52120155D01*
X141326890Y-52241476D01*
X141474099Y-52196825D01*
X141736920Y-52071641D01*
X141869184Y-51972987D01*
X145016196Y-55120000D01*
X140787322Y-55120000D01*
X140749999Y-55116324D01*
X140712676Y-55120000D01*
X140712667Y-55120000D01*
X140601014Y-55130997D01*
X140457753Y-55174454D01*
X140325724Y-55245026D01*
X140209999Y-55339999D01*
X140186201Y-55368997D01*
X139667563Y-55887636D01*
X139584494Y-55819463D01*
X139474180Y-55760498D01*
X139354482Y-55724188D01*
X139230000Y-55711928D01*
X137630000Y-55711928D01*
X137505518Y-55724188D01*
X137385820Y-55760498D01*
X137275506Y-55819463D01*
X137178815Y-55898815D01*
X137099463Y-55995506D01*
X137064924Y-56060122D01*
X132149231Y-51144430D01*
X132347663Y-50945998D01*
X132537537Y-50661831D01*
X132668325Y-50346081D01*
X132735000Y-50010883D01*
X132735000Y-49669117D01*
X132668325Y-49333919D01*
X132537537Y-49018169D01*
X132347663Y-48734002D01*
X132105998Y-48492337D01*
X131821831Y-48302463D01*
X131779763Y-48285038D01*
X132591004Y-47473798D01*
X132620001Y-47450001D01*
X132714974Y-47334276D01*
X132785546Y-47202247D01*
X132829003Y-47058986D01*
X132840000Y-46947333D01*
X132840000Y-46947324D01*
X132843676Y-46910001D01*
X132840000Y-46872678D01*
X132840000Y-45128043D01*
X132994759Y-45024637D01*
X133194637Y-44824759D01*
X133351680Y-44589727D01*
X133459853Y-44328574D01*
X133515000Y-44051335D01*
X133515000Y-43768665D01*
X133459853Y-43491426D01*
X133351680Y-43230273D01*
X133314607Y-43174790D01*
X133331185Y-43161185D01*
X133410537Y-43064494D01*
X133469502Y-42954180D01*
X133505812Y-42834482D01*
X133518072Y-42710000D01*
X133515000Y-42195750D01*
X133356250Y-42037000D01*
X132207000Y-42037000D01*
X132207000Y-42057000D01*
X131953000Y-42057000D01*
X131953000Y-42037000D01*
X130803750Y-42037000D01*
X130645000Y-42195750D01*
X130641928Y-42710000D01*
X130654188Y-42834482D01*
X130690498Y-42954180D01*
X130749463Y-43064494D01*
X130828815Y-43161185D01*
X130845393Y-43174790D01*
X130808320Y-43230273D01*
X130700147Y-43491426D01*
X130645000Y-43768665D01*
X130645000Y-44051335D01*
X130700147Y-44328574D01*
X130808320Y-44589727D01*
X130965363Y-44824759D01*
X131165241Y-45024637D01*
X131320001Y-45128044D01*
X131320000Y-46595198D01*
X130298998Y-47616201D01*
X130270000Y-47639999D01*
X130246202Y-47668997D01*
X130246201Y-47668998D01*
X130175026Y-47755724D01*
X130104454Y-47887754D01*
X130091420Y-47930723D01*
X130060998Y-48031014D01*
X130052850Y-48113740D01*
X130046324Y-48180000D01*
X130050001Y-48217332D01*
X130050001Y-48388102D01*
X129894002Y-48492337D01*
X129652337Y-48734002D01*
X129462463Y-49018169D01*
X129331675Y-49333919D01*
X129265000Y-49669117D01*
X129265000Y-50010883D01*
X129331675Y-50346081D01*
X129462463Y-50661831D01*
X129652337Y-50945998D01*
X129894002Y-51187663D01*
X130178169Y-51377537D01*
X130264497Y-51413295D01*
X130270000Y-51420001D01*
X130298998Y-51443799D01*
X136544999Y-57689801D01*
X136545000Y-68687667D01*
X136541323Y-68724999D01*
X136555997Y-68873984D01*
X136599453Y-69017245D01*
X136670025Y-69149275D01*
X136723986Y-69215026D01*
X136764999Y-69265000D01*
X136793997Y-69288798D01*
X137031312Y-69526113D01*
X136995000Y-69708665D01*
X136995000Y-69991335D01*
X137050147Y-70268574D01*
X137158320Y-70529727D01*
X137315363Y-70764759D01*
X137315400Y-70764796D01*
X134744003Y-73336194D01*
X134714999Y-73359997D01*
X134659871Y-73427172D01*
X134620026Y-73475722D01*
X134580245Y-73550147D01*
X134549454Y-73607752D01*
X134505997Y-73751013D01*
X134495000Y-73862666D01*
X134495000Y-73862676D01*
X134491324Y-73899998D01*
X134495000Y-73937321D01*
X134495001Y-75616956D01*
X134340241Y-75720363D01*
X134140363Y-75920241D01*
X133983320Y-76155273D01*
X133875147Y-76416426D01*
X133820000Y-76693665D01*
X133820000Y-76976335D01*
X133856312Y-77158887D01*
X133619001Y-77396197D01*
X133589998Y-77420000D01*
X133534870Y-77487175D01*
X133515000Y-77511386D01*
X133515000Y-77328665D01*
X133459853Y-77051426D01*
X133351680Y-76790273D01*
X133194637Y-76555241D01*
X132994759Y-76355363D01*
X132759727Y-76198320D01*
X132498574Y-76090147D01*
X132221335Y-76035000D01*
X131938665Y-76035000D01*
X131661426Y-76090147D01*
X131400273Y-76198320D01*
X131165241Y-76355363D01*
X130965363Y-76555241D01*
X130808320Y-76790273D01*
X130700147Y-77051426D01*
X130645000Y-77328665D01*
X130645000Y-77611335D01*
X130700147Y-77888574D01*
X130808320Y-78149727D01*
X130965363Y-78384759D01*
X131165241Y-78584637D01*
X131400273Y-78741680D01*
X131661426Y-78849853D01*
X131938665Y-78905000D01*
X132221335Y-78905000D01*
X132498574Y-78849853D01*
X132759727Y-78741680D01*
X132994759Y-78584637D01*
X133194637Y-78384759D01*
X133351680Y-78149727D01*
X133369999Y-78105501D01*
X133370000Y-83184501D01*
X133351680Y-83140273D01*
X133194637Y-82905241D01*
X132994759Y-82705363D01*
X132759727Y-82548320D01*
X132498574Y-82440147D01*
X132221335Y-82385000D01*
X131938665Y-82385000D01*
X131661426Y-82440147D01*
X131400273Y-82548320D01*
X131165241Y-82705363D01*
X130965363Y-82905241D01*
X130831308Y-83105869D01*
X130816671Y-83078486D01*
X130572702Y-83006903D01*
X129759605Y-83820000D01*
X130572702Y-84633097D01*
X130816671Y-84561514D01*
X130830324Y-84532659D01*
X130965363Y-84734759D01*
X131165241Y-84934637D01*
X131397759Y-85090000D01*
X131165241Y-85245363D01*
X130965363Y-85445241D01*
X130831308Y-85645869D01*
X130816671Y-85618486D01*
X130572702Y-85546903D01*
X129759605Y-86360000D01*
X129773748Y-86374143D01*
X129594143Y-86553748D01*
X129580000Y-86539605D01*
X128766903Y-87352702D01*
X128838486Y-87596671D01*
X129093996Y-87717571D01*
X129368184Y-87786300D01*
X129650512Y-87800217D01*
X129930130Y-87758787D01*
X130194999Y-87664065D01*
X130195000Y-90703596D01*
X125822056Y-95076541D01*
X125839853Y-95033574D01*
X125895000Y-94756335D01*
X125895000Y-94473665D01*
X125839853Y-94196426D01*
X125731680Y-93935273D01*
X125574637Y-93700241D01*
X125374759Y-93500363D01*
X125139727Y-93343320D01*
X124878574Y-93235147D01*
X124601335Y-93180000D01*
X124318665Y-93180000D01*
X124041426Y-93235147D01*
X123780273Y-93343320D01*
X123545241Y-93500363D01*
X123345363Y-93700241D01*
X123188320Y-93935273D01*
X123080147Y-94196426D01*
X123025000Y-94473665D01*
X123025000Y-94756335D01*
X123080147Y-95033574D01*
X123188320Y-95294727D01*
X123345363Y-95529759D01*
X123545241Y-95729637D01*
X123780273Y-95886680D01*
X124041426Y-95994853D01*
X124318665Y-96050000D01*
X124601335Y-96050000D01*
X124878574Y-95994853D01*
X124921541Y-95977055D01*
X120139003Y-100759594D01*
X120109999Y-100783397D01*
X120054871Y-100850572D01*
X120015026Y-100899122D01*
X119944455Y-101031151D01*
X119944454Y-101031152D01*
X119900997Y-101174413D01*
X119890000Y-101286066D01*
X119890000Y-101286076D01*
X119886324Y-101323398D01*
X119890000Y-101360721D01*
X119890001Y-104191956D01*
X119735241Y-104295363D01*
X119535363Y-104495241D01*
X119378320Y-104730273D01*
X119270147Y-104991426D01*
X119215000Y-105268665D01*
X117525000Y-105268665D01*
X117525000Y-91298665D01*
X123025000Y-91298665D01*
X123025000Y-91581335D01*
X123080147Y-91858574D01*
X123188320Y-92119727D01*
X123345363Y-92354759D01*
X123545241Y-92554637D01*
X123780273Y-92711680D01*
X124041426Y-92819853D01*
X124318665Y-92875000D01*
X124601335Y-92875000D01*
X124878574Y-92819853D01*
X125139727Y-92711680D01*
X125374759Y-92554637D01*
X125574637Y-92354759D01*
X125731680Y-92119727D01*
X125839853Y-91858574D01*
X125895000Y-91581335D01*
X125895000Y-91298665D01*
X125839853Y-91021426D01*
X125731680Y-90760273D01*
X125574637Y-90525241D01*
X125374759Y-90325363D01*
X125139727Y-90168320D01*
X124878574Y-90060147D01*
X124601335Y-90005000D01*
X124318665Y-90005000D01*
X124041426Y-90060147D01*
X123780273Y-90168320D01*
X123545241Y-90325363D01*
X123345363Y-90525241D01*
X123188320Y-90760273D01*
X123080147Y-91021426D01*
X123025000Y-91298665D01*
X117525000Y-91298665D01*
X117525000Y-88614040D01*
X123703091Y-88614040D01*
X123797930Y-88878881D01*
X123942615Y-89120131D01*
X124131586Y-89328519D01*
X124357580Y-89496037D01*
X124611913Y-89616246D01*
X124745961Y-89656904D01*
X124968000Y-89534915D01*
X124968000Y-88392000D01*
X125222000Y-88392000D01*
X125222000Y-89534915D01*
X125444039Y-89656904D01*
X125578087Y-89616246D01*
X125832420Y-89496037D01*
X126058414Y-89328519D01*
X126247385Y-89120131D01*
X126392070Y-88878881D01*
X126486909Y-88614040D01*
X126365624Y-88392000D01*
X125222000Y-88392000D01*
X124968000Y-88392000D01*
X123824376Y-88392000D01*
X123703091Y-88614040D01*
X117525000Y-88614040D01*
X117525000Y-87915960D01*
X123703091Y-87915960D01*
X123824376Y-88138000D01*
X124968000Y-88138000D01*
X124968000Y-86995085D01*
X125222000Y-86995085D01*
X125222000Y-88138000D01*
X126365624Y-88138000D01*
X126486909Y-87915960D01*
X126392070Y-87651119D01*
X126247385Y-87409869D01*
X126058414Y-87201481D01*
X125832420Y-87033963D01*
X125578087Y-86913754D01*
X125444039Y-86873096D01*
X125222000Y-86995085D01*
X124968000Y-86995085D01*
X124745961Y-86873096D01*
X124611913Y-86913754D01*
X124357580Y-87033963D01*
X124131586Y-87201481D01*
X123942615Y-87409869D01*
X123797930Y-87651119D01*
X123703091Y-87915960D01*
X117525000Y-87915960D01*
X117525000Y-86430512D01*
X128139783Y-86430512D01*
X128181213Y-86710130D01*
X128276397Y-86976292D01*
X128343329Y-87101514D01*
X128587298Y-87173097D01*
X129400395Y-86360000D01*
X128587298Y-85546903D01*
X128343329Y-85618486D01*
X128222429Y-85873996D01*
X128153700Y-86148184D01*
X128139783Y-86430512D01*
X117525000Y-86430512D01*
X117525000Y-84812702D01*
X128766903Y-84812702D01*
X128838486Y-85056671D01*
X128904636Y-85087971D01*
X128838486Y-85123329D01*
X128766903Y-85367298D01*
X129580000Y-86180395D01*
X130393097Y-85367298D01*
X130321514Y-85123329D01*
X130255364Y-85092029D01*
X130321514Y-85056671D01*
X130393097Y-84812702D01*
X129580000Y-83999605D01*
X128766903Y-84812702D01*
X117525000Y-84812702D01*
X117525000Y-83890512D01*
X128139783Y-83890512D01*
X128181213Y-84170130D01*
X128276397Y-84436292D01*
X128343329Y-84561514D01*
X128587298Y-84633097D01*
X129400395Y-83820000D01*
X128587298Y-83006903D01*
X128343329Y-83078486D01*
X128222429Y-83333996D01*
X128153700Y-83608184D01*
X128139783Y-83890512D01*
X117525000Y-83890512D01*
X117525000Y-82827298D01*
X128766903Y-82827298D01*
X129580000Y-83640395D01*
X130393097Y-82827298D01*
X130321514Y-82583329D01*
X130066004Y-82462429D01*
X129791816Y-82393700D01*
X129509488Y-82379783D01*
X129229870Y-82421213D01*
X128963708Y-82516397D01*
X128838486Y-82583329D01*
X128766903Y-82827298D01*
X117525000Y-82827298D01*
X117525000Y-78462702D01*
X123646903Y-78462702D01*
X123718486Y-78706671D01*
X123973996Y-78827571D01*
X124248184Y-78896300D01*
X124530512Y-78910217D01*
X124810130Y-78868787D01*
X125076292Y-78773603D01*
X125201514Y-78706671D01*
X125273097Y-78462702D01*
X124460000Y-77649605D01*
X123646903Y-78462702D01*
X117525000Y-78462702D01*
X117525000Y-77540512D01*
X123019783Y-77540512D01*
X123061213Y-77820130D01*
X123156397Y-78086292D01*
X123223329Y-78211514D01*
X123467298Y-78283097D01*
X124280395Y-77470000D01*
X124639605Y-77470000D01*
X125452702Y-78283097D01*
X125696671Y-78211514D01*
X125817571Y-77956004D01*
X125886300Y-77681816D01*
X125900217Y-77399488D01*
X125858787Y-77119870D01*
X125763603Y-76853708D01*
X125696671Y-76728486D01*
X125452702Y-76656903D01*
X124639605Y-77470000D01*
X124280395Y-77470000D01*
X123467298Y-76656903D01*
X123223329Y-76728486D01*
X123102429Y-76983996D01*
X123033700Y-77258184D01*
X123019783Y-77540512D01*
X117525000Y-77540512D01*
X117525000Y-76477298D01*
X123646903Y-76477298D01*
X124460000Y-77290395D01*
X125273097Y-76477298D01*
X125201514Y-76233329D01*
X124946004Y-76112429D01*
X124671816Y-76043700D01*
X124389488Y-76029783D01*
X124109870Y-76071213D01*
X123843708Y-76166397D01*
X123718486Y-76233329D01*
X123646903Y-76477298D01*
X117525000Y-76477298D01*
X117525000Y-73518665D01*
X123025000Y-73518665D01*
X123025000Y-73801335D01*
X123080147Y-74078574D01*
X123188320Y-74339727D01*
X123345363Y-74574759D01*
X123545241Y-74774637D01*
X123780273Y-74931680D01*
X124041426Y-75039853D01*
X124318665Y-75095000D01*
X124601335Y-75095000D01*
X124878574Y-75039853D01*
X125139727Y-74931680D01*
X125374759Y-74774637D01*
X125574637Y-74574759D01*
X125731680Y-74339727D01*
X125839853Y-74078574D01*
X125895000Y-73801335D01*
X125895000Y-73518665D01*
X125839853Y-73241426D01*
X125731680Y-72980273D01*
X125574637Y-72745241D01*
X125374759Y-72545363D01*
X125139727Y-72388320D01*
X124878574Y-72280147D01*
X124601335Y-72225000D01*
X124318665Y-72225000D01*
X124041426Y-72280147D01*
X123780273Y-72388320D01*
X123545241Y-72545363D01*
X123345363Y-72745241D01*
X123188320Y-72980273D01*
X123080147Y-73241426D01*
X123025000Y-73518665D01*
X117525000Y-73518665D01*
X117525000Y-65898665D01*
X123025000Y-65898665D01*
X123025000Y-66181335D01*
X123080147Y-66458574D01*
X123188320Y-66719727D01*
X123345363Y-66954759D01*
X123545241Y-67154637D01*
X123705203Y-67261520D01*
X123710144Y-67311680D01*
X123710998Y-67320355D01*
X123754454Y-67463616D01*
X123825026Y-67595646D01*
X123896201Y-67682372D01*
X123920000Y-67711371D01*
X123948998Y-67735169D01*
X124635656Y-68421827D01*
X124601335Y-68415000D01*
X124318665Y-68415000D01*
X124041426Y-68470147D01*
X123780273Y-68578320D01*
X123545241Y-68735363D01*
X123345363Y-68935241D01*
X123188320Y-69170273D01*
X123080147Y-69431426D01*
X123025000Y-69708665D01*
X123025000Y-69991335D01*
X123080147Y-70268574D01*
X123188320Y-70529727D01*
X123345363Y-70764759D01*
X123545241Y-70964637D01*
X123780273Y-71121680D01*
X124041426Y-71229853D01*
X124318665Y-71285000D01*
X124601335Y-71285000D01*
X124878574Y-71229853D01*
X125139727Y-71121680D01*
X125374759Y-70964637D01*
X125574637Y-70764759D01*
X125731680Y-70529727D01*
X125839853Y-70268574D01*
X125895000Y-69991335D01*
X125895000Y-69708665D01*
X125888173Y-69674345D01*
X126875000Y-70661172D01*
X126875001Y-77790196D01*
X125418886Y-79246312D01*
X125236335Y-79210000D01*
X124953665Y-79210000D01*
X124676426Y-79265147D01*
X124415273Y-79373320D01*
X124180241Y-79530363D01*
X123980363Y-79730241D01*
X123823320Y-79965273D01*
X123715147Y-80226426D01*
X123660000Y-80503665D01*
X123660000Y-80786335D01*
X123715147Y-81063574D01*
X123823320Y-81324727D01*
X123980363Y-81559759D01*
X124180241Y-81759637D01*
X124415273Y-81916680D01*
X124676426Y-82024853D01*
X124953665Y-82080000D01*
X125236335Y-82080000D01*
X125513574Y-82024853D01*
X125774727Y-81916680D01*
X126009759Y-81759637D01*
X126209637Y-81559759D01*
X126366680Y-81324727D01*
X126474853Y-81063574D01*
X126530000Y-80786335D01*
X126530000Y-80503665D01*
X126493688Y-80321114D01*
X128146008Y-78668795D01*
X128175001Y-78645001D01*
X128198795Y-78616008D01*
X128198799Y-78616004D01*
X128269973Y-78529277D01*
X128273915Y-78521903D01*
X128340546Y-78397247D01*
X128384003Y-78253986D01*
X128395000Y-78142333D01*
X128395000Y-78142324D01*
X128398676Y-78105001D01*
X128395000Y-78067678D01*
X128395000Y-73518665D01*
X130645000Y-73518665D01*
X130645000Y-73801335D01*
X130700147Y-74078574D01*
X130808320Y-74339727D01*
X130965363Y-74574759D01*
X131165241Y-74774637D01*
X131400273Y-74931680D01*
X131661426Y-75039853D01*
X131938665Y-75095000D01*
X132221335Y-75095000D01*
X132498574Y-75039853D01*
X132759727Y-74931680D01*
X132994759Y-74774637D01*
X133194637Y-74574759D01*
X133351680Y-74339727D01*
X133459853Y-74078574D01*
X133515000Y-73801335D01*
X133515000Y-73518665D01*
X133459853Y-73241426D01*
X133351680Y-72980273D01*
X133194637Y-72745241D01*
X132994759Y-72545363D01*
X132759727Y-72388320D01*
X132498574Y-72280147D01*
X132221335Y-72225000D01*
X131938665Y-72225000D01*
X131661426Y-72280147D01*
X131400273Y-72388320D01*
X131165241Y-72545363D01*
X130965363Y-72745241D01*
X130808320Y-72980273D01*
X130700147Y-73241426D01*
X130645000Y-73518665D01*
X128395000Y-73518665D01*
X128395000Y-70383692D01*
X128398676Y-70346369D01*
X128395000Y-70309046D01*
X128395000Y-70309037D01*
X128384003Y-70197384D01*
X128340546Y-70054123D01*
X128269975Y-69922095D01*
X128269974Y-69922093D01*
X128198799Y-69835367D01*
X128175001Y-69806369D01*
X128146004Y-69782572D01*
X128072097Y-69708665D01*
X130645000Y-69708665D01*
X130645000Y-69991335D01*
X130700147Y-70268574D01*
X130808320Y-70529727D01*
X130965363Y-70764759D01*
X131165241Y-70964637D01*
X131400273Y-71121680D01*
X131661426Y-71229853D01*
X131938665Y-71285000D01*
X132221335Y-71285000D01*
X132498574Y-71229853D01*
X132759727Y-71121680D01*
X132994759Y-70964637D01*
X133194637Y-70764759D01*
X133351680Y-70529727D01*
X133459853Y-70268574D01*
X133515000Y-69991335D01*
X133515000Y-69708665D01*
X133459853Y-69431426D01*
X133351680Y-69170273D01*
X133194637Y-68935241D01*
X132994759Y-68735363D01*
X132759727Y-68578320D01*
X132498574Y-68470147D01*
X132221335Y-68415000D01*
X131938665Y-68415000D01*
X131661426Y-68470147D01*
X131400273Y-68578320D01*
X131165241Y-68735363D01*
X130965363Y-68935241D01*
X130808320Y-69170273D01*
X130700147Y-69431426D01*
X130645000Y-69708665D01*
X128072097Y-69708665D01*
X125446414Y-67082982D01*
X125574637Y-66954759D01*
X125731680Y-66719727D01*
X125839853Y-66458574D01*
X125895000Y-66181335D01*
X125895000Y-65898665D01*
X130645000Y-65898665D01*
X130645000Y-66181335D01*
X130700147Y-66458574D01*
X130808320Y-66719727D01*
X130965363Y-66954759D01*
X131165241Y-67154637D01*
X131400273Y-67311680D01*
X131661426Y-67419853D01*
X131938665Y-67475000D01*
X132221335Y-67475000D01*
X132498574Y-67419853D01*
X132759727Y-67311680D01*
X132994759Y-67154637D01*
X133194637Y-66954759D01*
X133351680Y-66719727D01*
X133459853Y-66458574D01*
X133515000Y-66181335D01*
X133515000Y-65898665D01*
X133459853Y-65621426D01*
X133351680Y-65360273D01*
X133194637Y-65125241D01*
X132994759Y-64925363D01*
X132759727Y-64768320D01*
X132498574Y-64660147D01*
X132221335Y-64605000D01*
X131938665Y-64605000D01*
X131661426Y-64660147D01*
X131400273Y-64768320D01*
X131165241Y-64925363D01*
X130965363Y-65125241D01*
X130808320Y-65360273D01*
X130700147Y-65621426D01*
X130645000Y-65898665D01*
X125895000Y-65898665D01*
X125839853Y-65621426D01*
X125731680Y-65360273D01*
X125574637Y-65125241D01*
X125374759Y-64925363D01*
X125139727Y-64768320D01*
X124878574Y-64660147D01*
X124601335Y-64605000D01*
X124318665Y-64605000D01*
X124041426Y-64660147D01*
X123780273Y-64768320D01*
X123545241Y-64925363D01*
X123345363Y-65125241D01*
X123188320Y-65360273D01*
X123080147Y-65621426D01*
X123025000Y-65898665D01*
X117525000Y-65898665D01*
X117525000Y-57536400D01*
X120298328Y-57536400D01*
X120298328Y-59263600D01*
X120310588Y-59388082D01*
X120346898Y-59507780D01*
X120405863Y-59618094D01*
X120485215Y-59714785D01*
X120581906Y-59794137D01*
X120692220Y-59853102D01*
X120811918Y-59889412D01*
X120936400Y-59901672D01*
X122663600Y-59901672D01*
X122788082Y-59889412D01*
X122907780Y-59853102D01*
X123018094Y-59794137D01*
X123114785Y-59714785D01*
X123194137Y-59618094D01*
X123253102Y-59507780D01*
X123270636Y-59449977D01*
X123384698Y-59564039D01*
X123630147Y-59728042D01*
X123902875Y-59841010D01*
X124192401Y-59898600D01*
X124487599Y-59898600D01*
X124777125Y-59841010D01*
X125049853Y-59728042D01*
X125295302Y-59564039D01*
X125504039Y-59355302D01*
X125621171Y-59180000D01*
X129225199Y-59180000D01*
X129261928Y-59216729D01*
X129261928Y-61100000D01*
X129274188Y-61224482D01*
X129310498Y-61344180D01*
X129369463Y-61454494D01*
X129448815Y-61551185D01*
X129545506Y-61630537D01*
X129655820Y-61689502D01*
X129775518Y-61725812D01*
X129900000Y-61738072D01*
X132100000Y-61738072D01*
X132224482Y-61725812D01*
X132344180Y-61689502D01*
X132454494Y-61630537D01*
X132551185Y-61551185D01*
X132630537Y-61454494D01*
X132689502Y-61344180D01*
X132725812Y-61224482D01*
X132738072Y-61100000D01*
X132738072Y-58900000D01*
X132725812Y-58775518D01*
X132689502Y-58655820D01*
X132630537Y-58545506D01*
X132551185Y-58448815D01*
X132454494Y-58369463D01*
X132344180Y-58310498D01*
X132224482Y-58274188D01*
X132100000Y-58261928D01*
X130456729Y-58261928D01*
X130103804Y-57909003D01*
X130080001Y-57879999D01*
X129964276Y-57785026D01*
X129832247Y-57714454D01*
X129688986Y-57670997D01*
X129577333Y-57660000D01*
X129577322Y-57660000D01*
X129540000Y-57656324D01*
X129502678Y-57660000D01*
X125647899Y-57660000D01*
X125504039Y-57444698D01*
X125295302Y-57235961D01*
X125129897Y-57125441D01*
X125228488Y-57066817D01*
X125446854Y-56870293D01*
X125622684Y-56634944D01*
X125749222Y-56369814D01*
X125794958Y-56219026D01*
X125673817Y-55987000D01*
X124467000Y-55987000D01*
X124467000Y-56007000D01*
X124213000Y-56007000D01*
X124213000Y-55987000D01*
X121927000Y-55987000D01*
X121927000Y-56007000D01*
X121673000Y-56007000D01*
X121673000Y-55987000D01*
X120466183Y-55987000D01*
X120345042Y-56219026D01*
X120390778Y-56369814D01*
X120517316Y-56634944D01*
X120693146Y-56870293D01*
X120756574Y-56927376D01*
X120692220Y-56946898D01*
X120581906Y-57005863D01*
X120485215Y-57085215D01*
X120405863Y-57181906D01*
X120346898Y-57292220D01*
X120310588Y-57411918D01*
X120298328Y-57536400D01*
X117525000Y-57536400D01*
X117525000Y-53679026D01*
X120345042Y-53679026D01*
X120390778Y-53829814D01*
X120517316Y-54094944D01*
X120693146Y-54330293D01*
X120911512Y-54526817D01*
X121017770Y-54590000D01*
X120911512Y-54653183D01*
X120693146Y-54849707D01*
X120517316Y-55085056D01*
X120390778Y-55350186D01*
X120345042Y-55500974D01*
X120466183Y-55733000D01*
X121673000Y-55733000D01*
X121673000Y-53447000D01*
X121927000Y-53447000D01*
X121927000Y-55733000D01*
X124213000Y-55733000D01*
X124213000Y-53447000D01*
X124467000Y-53447000D01*
X124467000Y-55733000D01*
X125673817Y-55733000D01*
X125794958Y-55500974D01*
X125749222Y-55350186D01*
X125622684Y-55085056D01*
X125446854Y-54849707D01*
X125228488Y-54653183D01*
X125122230Y-54590000D01*
X125228488Y-54526817D01*
X125446854Y-54330293D01*
X125622684Y-54094944D01*
X125749222Y-53829814D01*
X125794958Y-53679026D01*
X125673817Y-53447000D01*
X124467000Y-53447000D01*
X124213000Y-53447000D01*
X121927000Y-53447000D01*
X121673000Y-53447000D01*
X120466183Y-53447000D01*
X120345042Y-53679026D01*
X117525000Y-53679026D01*
X117525000Y-51139026D01*
X120345042Y-51139026D01*
X120390778Y-51289814D01*
X120517316Y-51554944D01*
X120693146Y-51790293D01*
X120911512Y-51986817D01*
X121017770Y-52050000D01*
X120911512Y-52113183D01*
X120693146Y-52309707D01*
X120517316Y-52545056D01*
X120390778Y-52810186D01*
X120345042Y-52960974D01*
X120466183Y-53193000D01*
X121673000Y-53193000D01*
X121673000Y-50907000D01*
X121927000Y-50907000D01*
X121927000Y-53193000D01*
X124213000Y-53193000D01*
X124213000Y-50907000D01*
X124467000Y-50907000D01*
X124467000Y-53193000D01*
X125673817Y-53193000D01*
X125794958Y-52960974D01*
X125749222Y-52810186D01*
X125622684Y-52545056D01*
X125446854Y-52309707D01*
X125228488Y-52113183D01*
X125122230Y-52050000D01*
X125228488Y-51986817D01*
X125446854Y-51790293D01*
X125622684Y-51554944D01*
X125749222Y-51289814D01*
X125794958Y-51139026D01*
X125673817Y-50907000D01*
X124467000Y-50907000D01*
X124213000Y-50907000D01*
X121927000Y-50907000D01*
X121673000Y-50907000D01*
X120466183Y-50907000D01*
X120345042Y-51139026D01*
X117525000Y-51139026D01*
X117525000Y-37829117D01*
X119105000Y-37829117D01*
X119105000Y-38170883D01*
X119171675Y-38506081D01*
X119302463Y-38821831D01*
X119492337Y-39105998D01*
X119734002Y-39347663D01*
X120018169Y-39537537D01*
X120333919Y-39668325D01*
X120669117Y-39735000D01*
X121010883Y-39735000D01*
X121160001Y-39705339D01*
X121160000Y-46883024D01*
X121090147Y-46911958D01*
X120844698Y-47075961D01*
X120635961Y-47284698D01*
X120471958Y-47530147D01*
X120358990Y-47802875D01*
X120301400Y-48092401D01*
X120301400Y-48387599D01*
X120358990Y-48677125D01*
X120471958Y-48949853D01*
X120635961Y-49195302D01*
X120844698Y-49404039D01*
X121010103Y-49514559D01*
X120911512Y-49573183D01*
X120693146Y-49769707D01*
X120517316Y-50005056D01*
X120390778Y-50270186D01*
X120345042Y-50420974D01*
X120466183Y-50653000D01*
X121673000Y-50653000D01*
X121673000Y-50633000D01*
X121927000Y-50633000D01*
X121927000Y-50653000D01*
X124213000Y-50653000D01*
X124213000Y-50633000D01*
X124467000Y-50633000D01*
X124467000Y-50653000D01*
X125673817Y-50653000D01*
X125794958Y-50420974D01*
X125749222Y-50270186D01*
X125622684Y-50005056D01*
X125446854Y-49769707D01*
X125228488Y-49573183D01*
X125129897Y-49514559D01*
X125295302Y-49404039D01*
X125504039Y-49195302D01*
X125668042Y-48949853D01*
X125781010Y-48677125D01*
X125838600Y-48387599D01*
X125838600Y-48092401D01*
X125781010Y-47802875D01*
X125668042Y-47530147D01*
X125504039Y-47284698D01*
X125295302Y-47075961D01*
X125049853Y-46911958D01*
X124777125Y-46798990D01*
X124487599Y-46741400D01*
X124192401Y-46741400D01*
X123902875Y-46798990D01*
X123630147Y-46911958D01*
X123384698Y-47075961D01*
X123175961Y-47284698D01*
X123070000Y-47443281D01*
X122964039Y-47284698D01*
X122755302Y-47075961D01*
X122680000Y-47025646D01*
X122680000Y-41110000D01*
X130641928Y-41110000D01*
X130645000Y-41624250D01*
X130803750Y-41783000D01*
X131953000Y-41783000D01*
X131953000Y-40633750D01*
X132207000Y-40633750D01*
X132207000Y-41783000D01*
X133356250Y-41783000D01*
X133515000Y-41624250D01*
X133518072Y-41110000D01*
X133505812Y-40985518D01*
X133469502Y-40865820D01*
X133410537Y-40755506D01*
X133331185Y-40658815D01*
X133234494Y-40579463D01*
X133124180Y-40520498D01*
X133004482Y-40484188D01*
X132880000Y-40471928D01*
X132365750Y-40475000D01*
X132207000Y-40633750D01*
X131953000Y-40633750D01*
X131794250Y-40475000D01*
X131280000Y-40471928D01*
X131155518Y-40484188D01*
X131035820Y-40520498D01*
X130925506Y-40579463D01*
X130828815Y-40658815D01*
X130749463Y-40755506D01*
X130690498Y-40865820D01*
X130654188Y-40985518D01*
X130641928Y-41110000D01*
X122680000Y-41110000D01*
X122680000Y-39407322D01*
X122683676Y-39369999D01*
X122680000Y-39332676D01*
X122680000Y-39332667D01*
X122669003Y-39221014D01*
X122625546Y-39077753D01*
X122554974Y-38945724D01*
X122460001Y-38829999D01*
X122431003Y-38806201D01*
X122397775Y-38772973D01*
X122508325Y-38506081D01*
X122575000Y-38170883D01*
X122575000Y-37829117D01*
X122508325Y-37493919D01*
X122377537Y-37178169D01*
X122187663Y-36894002D01*
X121945998Y-36652337D01*
X121661831Y-36462463D01*
X121346081Y-36331675D01*
X121010883Y-36265000D01*
X120669117Y-36265000D01*
X120333919Y-36331675D01*
X120018169Y-36462463D01*
X119734002Y-36652337D01*
X119492337Y-36894002D01*
X119302463Y-37178169D01*
X119171675Y-37493919D01*
X119105000Y-37829117D01*
X117525000Y-37829117D01*
X117525000Y-34975000D01*
X166955001Y-34975000D01*
X166955000Y-109805000D01*
M02*
