G04 #@! TF.GenerationSoftware,KiCad,Pcbnew,5.1.5-52549c5~84~ubuntu18.04.1*
G04 #@! TF.CreationDate,2020-03-18T19:12:43-04:00*
G04 #@! TF.ProjectId,OBG-SVF-mainpcb,4f42472d-5356-4462-9d6d-61696e706362,rev?*
G04 #@! TF.SameCoordinates,Original*
G04 #@! TF.FileFunction,Legend,Bot*
G04 #@! TF.FilePolarity,Positive*
%FSLAX46Y46*%
G04 Gerber Fmt 4.6, Leading zero omitted, Abs format (unit mm)*
G04 Created by KiCad (PCBNEW 5.1.5-52549c5~84~ubuntu18.04.1) date 2020-03-18 19:12:43*
%MOMM*%
%LPD*%
G04 APERTURE LIST*
%ADD10C,0.150000*%
%ADD11C,0.120000*%
G04 APERTURE END LIST*
D10*
X162457380Y-56881904D02*
X162457380Y-57072380D01*
X162505000Y-57167619D01*
X162600238Y-57262857D01*
X162790714Y-57310476D01*
X163124047Y-57310476D01*
X163314523Y-57262857D01*
X163409761Y-57167619D01*
X163457380Y-57072380D01*
X163457380Y-56881904D01*
X163409761Y-56786666D01*
X163314523Y-56691428D01*
X163124047Y-56643809D01*
X162790714Y-56643809D01*
X162600238Y-56691428D01*
X162505000Y-56786666D01*
X162457380Y-56881904D01*
X162933571Y-58072380D02*
X162981190Y-58215238D01*
X163028809Y-58262857D01*
X163124047Y-58310476D01*
X163266904Y-58310476D01*
X163362142Y-58262857D01*
X163409761Y-58215238D01*
X163457380Y-58120000D01*
X163457380Y-57739047D01*
X162457380Y-57739047D01*
X162457380Y-58072380D01*
X162505000Y-58167619D01*
X162552619Y-58215238D01*
X162647857Y-58262857D01*
X162743095Y-58262857D01*
X162838333Y-58215238D01*
X162885952Y-58167619D01*
X162933571Y-58072380D01*
X162933571Y-57739047D01*
X162505000Y-59262857D02*
X162457380Y-59167619D01*
X162457380Y-59024761D01*
X162505000Y-58881904D01*
X162600238Y-58786666D01*
X162695476Y-58739047D01*
X162885952Y-58691428D01*
X163028809Y-58691428D01*
X163219285Y-58739047D01*
X163314523Y-58786666D01*
X163409761Y-58881904D01*
X163457380Y-59024761D01*
X163457380Y-59120000D01*
X163409761Y-59262857D01*
X163362142Y-59310476D01*
X163028809Y-59310476D01*
X163028809Y-59120000D01*
X163409761Y-60453333D02*
X163457380Y-60596190D01*
X163457380Y-60834285D01*
X163409761Y-60929523D01*
X163362142Y-60977142D01*
X163266904Y-61024761D01*
X163171666Y-61024761D01*
X163076428Y-60977142D01*
X163028809Y-60929523D01*
X162981190Y-60834285D01*
X162933571Y-60643809D01*
X162885952Y-60548571D01*
X162838333Y-60500952D01*
X162743095Y-60453333D01*
X162647857Y-60453333D01*
X162552619Y-60500952D01*
X162505000Y-60548571D01*
X162457380Y-60643809D01*
X162457380Y-60881904D01*
X162505000Y-61024761D01*
X162790714Y-61310476D02*
X162790714Y-61691428D01*
X162457380Y-61453333D02*
X163314523Y-61453333D01*
X163409761Y-61500952D01*
X163457380Y-61596190D01*
X163457380Y-61691428D01*
X163457380Y-62453333D02*
X162933571Y-62453333D01*
X162838333Y-62405714D01*
X162790714Y-62310476D01*
X162790714Y-62120000D01*
X162838333Y-62024761D01*
X163409761Y-62453333D02*
X163457380Y-62358095D01*
X163457380Y-62120000D01*
X163409761Y-62024761D01*
X163314523Y-61977142D01*
X163219285Y-61977142D01*
X163124047Y-62024761D01*
X163076428Y-62120000D01*
X163076428Y-62358095D01*
X163028809Y-62453333D01*
X162790714Y-62786666D02*
X162790714Y-63167619D01*
X162457380Y-62929523D02*
X163314523Y-62929523D01*
X163409761Y-62977142D01*
X163457380Y-63072380D01*
X163457380Y-63167619D01*
X163409761Y-63881904D02*
X163457380Y-63786666D01*
X163457380Y-63596190D01*
X163409761Y-63500952D01*
X163314523Y-63453333D01*
X162933571Y-63453333D01*
X162838333Y-63500952D01*
X162790714Y-63596190D01*
X162790714Y-63786666D01*
X162838333Y-63881904D01*
X162933571Y-63929523D01*
X163028809Y-63929523D01*
X163124047Y-63453333D01*
X162457380Y-64977142D02*
X163457380Y-65310476D01*
X162457380Y-65643809D01*
X163457380Y-66405714D02*
X162933571Y-66405714D01*
X162838333Y-66358095D01*
X162790714Y-66262857D01*
X162790714Y-66072380D01*
X162838333Y-65977142D01*
X163409761Y-66405714D02*
X163457380Y-66310476D01*
X163457380Y-66072380D01*
X163409761Y-65977142D01*
X163314523Y-65929523D01*
X163219285Y-65929523D01*
X163124047Y-65977142D01*
X163076428Y-66072380D01*
X163076428Y-66310476D01*
X163028809Y-66405714D01*
X163457380Y-66881904D02*
X162790714Y-66881904D01*
X162981190Y-66881904D02*
X162885952Y-66929523D01*
X162838333Y-66977142D01*
X162790714Y-67072380D01*
X162790714Y-67167619D01*
X163457380Y-67500952D02*
X162790714Y-67500952D01*
X162457380Y-67500952D02*
X162505000Y-67453333D01*
X162552619Y-67500952D01*
X162505000Y-67548571D01*
X162457380Y-67500952D01*
X162552619Y-67500952D01*
X163457380Y-68405714D02*
X162933571Y-68405714D01*
X162838333Y-68358095D01*
X162790714Y-68262857D01*
X162790714Y-68072380D01*
X162838333Y-67977142D01*
X163409761Y-68405714D02*
X163457380Y-68310476D01*
X163457380Y-68072380D01*
X163409761Y-67977142D01*
X163314523Y-67929523D01*
X163219285Y-67929523D01*
X163124047Y-67977142D01*
X163076428Y-68072380D01*
X163076428Y-68310476D01*
X163028809Y-68405714D01*
X163457380Y-68881904D02*
X162457380Y-68881904D01*
X162838333Y-68881904D02*
X162790714Y-68977142D01*
X162790714Y-69167619D01*
X162838333Y-69262857D01*
X162885952Y-69310476D01*
X162981190Y-69358095D01*
X163266904Y-69358095D01*
X163362142Y-69310476D01*
X163409761Y-69262857D01*
X163457380Y-69167619D01*
X163457380Y-68977142D01*
X163409761Y-68881904D01*
X163457380Y-69929523D02*
X163409761Y-69834285D01*
X163314523Y-69786666D01*
X162457380Y-69786666D01*
X163409761Y-70691428D02*
X163457380Y-70596190D01*
X163457380Y-70405714D01*
X163409761Y-70310476D01*
X163314523Y-70262857D01*
X162933571Y-70262857D01*
X162838333Y-70310476D01*
X162790714Y-70405714D01*
X162790714Y-70596190D01*
X162838333Y-70691428D01*
X162933571Y-70739047D01*
X163028809Y-70739047D01*
X163124047Y-70262857D01*
X162457380Y-71786666D02*
X163457380Y-72119999D01*
X162457380Y-72453333D01*
X163362142Y-73358095D02*
X163409761Y-73310476D01*
X163457380Y-73167619D01*
X163457380Y-73072380D01*
X163409761Y-72929523D01*
X163314523Y-72834285D01*
X163219285Y-72786666D01*
X163028809Y-72739047D01*
X162885952Y-72739047D01*
X162695476Y-72786666D01*
X162600238Y-72834285D01*
X162505000Y-72929523D01*
X162457380Y-73072380D01*
X162457380Y-73167619D01*
X162505000Y-73310476D01*
X162552619Y-73358095D01*
X162933571Y-74119999D02*
X162933571Y-73786666D01*
X163457380Y-73786666D02*
X162457380Y-73786666D01*
X162457380Y-74262857D01*
X163457380Y-75405714D02*
X162457380Y-75405714D01*
X162838333Y-75405714D02*
X162790714Y-75500952D01*
X162790714Y-75691428D01*
X162838333Y-75786666D01*
X162885952Y-75834285D01*
X162981190Y-75881904D01*
X163266904Y-75881904D01*
X163362142Y-75834285D01*
X163409761Y-75786666D01*
X163457380Y-75691428D01*
X163457380Y-75500952D01*
X163409761Y-75405714D01*
X162790714Y-76215238D02*
X163457380Y-76453333D01*
X162790714Y-76691428D02*
X163457380Y-76453333D01*
X163695476Y-76358095D01*
X163743095Y-76310476D01*
X163790714Y-76215238D01*
X163457380Y-78405714D02*
X162981190Y-78072380D01*
X163457380Y-77834285D02*
X162457380Y-77834285D01*
X162457380Y-78215238D01*
X162505000Y-78310476D01*
X162552619Y-78358095D01*
X162647857Y-78405714D01*
X162790714Y-78405714D01*
X162885952Y-78358095D01*
X162933571Y-78310476D01*
X162981190Y-78215238D01*
X162981190Y-77834285D01*
X163457380Y-79262857D02*
X162933571Y-79262857D01*
X162838333Y-79215238D01*
X162790714Y-79119999D01*
X162790714Y-78929523D01*
X162838333Y-78834285D01*
X163409761Y-79262857D02*
X163457380Y-79167619D01*
X163457380Y-78929523D01*
X163409761Y-78834285D01*
X163314523Y-78786666D01*
X163219285Y-78786666D01*
X163124047Y-78834285D01*
X163076428Y-78929523D01*
X163076428Y-79167619D01*
X163028809Y-79262857D01*
X162790714Y-79643809D02*
X163457380Y-79881904D01*
X162790714Y-80119999D02*
X163457380Y-79881904D01*
X163695476Y-79786666D01*
X163743095Y-79739047D01*
X163790714Y-79643809D01*
X162457380Y-81167619D02*
X163457380Y-81405714D01*
X162743095Y-81596190D01*
X163457380Y-81786666D01*
X162457380Y-82024761D01*
X163457380Y-82405714D02*
X162790714Y-82405714D01*
X162457380Y-82405714D02*
X162505000Y-82358095D01*
X162552619Y-82405714D01*
X162505000Y-82453333D01*
X162457380Y-82405714D01*
X162552619Y-82405714D01*
X163457380Y-83024761D02*
X163409761Y-82929523D01*
X163314523Y-82881904D01*
X162457380Y-82881904D01*
X163409761Y-83358095D02*
X163457380Y-83453333D01*
X163457380Y-83643809D01*
X163409761Y-83739047D01*
X163314523Y-83786666D01*
X163266904Y-83786666D01*
X163171666Y-83739047D01*
X163124047Y-83643809D01*
X163124047Y-83500952D01*
X163076428Y-83405714D01*
X162981190Y-83358095D01*
X162933571Y-83358095D01*
X162838333Y-83405714D01*
X162790714Y-83500952D01*
X162790714Y-83643809D01*
X162838333Y-83739047D01*
X163457380Y-84358095D02*
X163409761Y-84262857D01*
X163362142Y-84215238D01*
X163266904Y-84167619D01*
X162981190Y-84167619D01*
X162885952Y-84215238D01*
X162838333Y-84262857D01*
X162790714Y-84358095D01*
X162790714Y-84500952D01*
X162838333Y-84596190D01*
X162885952Y-84643809D01*
X162981190Y-84691428D01*
X163266904Y-84691428D01*
X163362142Y-84643809D01*
X163409761Y-84596190D01*
X163457380Y-84500952D01*
X163457380Y-84358095D01*
X162790714Y-85119999D02*
X163457380Y-85119999D01*
X162885952Y-85119999D02*
X162838333Y-85167619D01*
X162790714Y-85262857D01*
X162790714Y-85405714D01*
X162838333Y-85500952D01*
X162933571Y-85548571D01*
X163457380Y-85548571D01*
X165107380Y-49929523D02*
X164107380Y-49929523D01*
X165107380Y-50500952D01*
X164107380Y-50500952D01*
X165107380Y-51120000D02*
X165059761Y-51024761D01*
X165012142Y-50977142D01*
X164916904Y-50929523D01*
X164631190Y-50929523D01*
X164535952Y-50977142D01*
X164488333Y-51024761D01*
X164440714Y-51120000D01*
X164440714Y-51262857D01*
X164488333Y-51358095D01*
X164535952Y-51405714D01*
X164631190Y-51453333D01*
X164916904Y-51453333D01*
X165012142Y-51405714D01*
X165059761Y-51358095D01*
X165107380Y-51262857D01*
X165107380Y-51120000D01*
X164726428Y-51881904D02*
X164726428Y-52643809D01*
X164440714Y-53024761D02*
X165107380Y-53215238D01*
X164631190Y-53405714D01*
X165107380Y-53596190D01*
X164440714Y-53786666D01*
X165107380Y-54167619D02*
X164440714Y-54167619D01*
X164107380Y-54167619D02*
X164155000Y-54120000D01*
X164202619Y-54167619D01*
X164155000Y-54215238D01*
X164107380Y-54167619D01*
X164202619Y-54167619D01*
X165107380Y-54643809D02*
X164440714Y-54643809D01*
X164631190Y-54643809D02*
X164535952Y-54691428D01*
X164488333Y-54739047D01*
X164440714Y-54834285D01*
X164440714Y-54929523D01*
X165107380Y-55262857D02*
X164440714Y-55262857D01*
X164107380Y-55262857D02*
X164155000Y-55215238D01*
X164202619Y-55262857D01*
X164155000Y-55310476D01*
X164107380Y-55262857D01*
X164202619Y-55262857D01*
X164440714Y-55739047D02*
X165107380Y-55739047D01*
X164535952Y-55739047D02*
X164488333Y-55786666D01*
X164440714Y-55881904D01*
X164440714Y-56024761D01*
X164488333Y-56120000D01*
X164583571Y-56167619D01*
X165107380Y-56167619D01*
X164440714Y-57072380D02*
X165250238Y-57072380D01*
X165345476Y-57024761D01*
X165393095Y-56977142D01*
X165440714Y-56881904D01*
X165440714Y-56739047D01*
X165393095Y-56643809D01*
X165059761Y-57072380D02*
X165107380Y-56977142D01*
X165107380Y-56786666D01*
X165059761Y-56691428D01*
X165012142Y-56643809D01*
X164916904Y-56596190D01*
X164631190Y-56596190D01*
X164535952Y-56643809D01*
X164488333Y-56691428D01*
X164440714Y-56786666D01*
X164440714Y-56977142D01*
X164488333Y-57072380D01*
X164583571Y-58310476D02*
X164583571Y-58643809D01*
X165107380Y-58786666D02*
X165107380Y-58310476D01*
X164107380Y-58310476D01*
X164107380Y-58786666D01*
X164440714Y-59643809D02*
X165107380Y-59643809D01*
X164440714Y-59215238D02*
X164964523Y-59215238D01*
X165059761Y-59262857D01*
X165107380Y-59358095D01*
X165107380Y-59500952D01*
X165059761Y-59596190D01*
X165012142Y-59643809D01*
X165107380Y-60120000D02*
X164440714Y-60120000D01*
X164631190Y-60120000D02*
X164535952Y-60167619D01*
X164488333Y-60215238D01*
X164440714Y-60310476D01*
X164440714Y-60405714D01*
X165107380Y-60881904D02*
X165059761Y-60786666D01*
X165012142Y-60739047D01*
X164916904Y-60691428D01*
X164631190Y-60691428D01*
X164535952Y-60739047D01*
X164488333Y-60786666D01*
X164440714Y-60881904D01*
X164440714Y-61024761D01*
X164488333Y-61120000D01*
X164535952Y-61167619D01*
X164631190Y-61215238D01*
X164916904Y-61215238D01*
X165012142Y-61167619D01*
X165059761Y-61120000D01*
X165107380Y-61024761D01*
X165107380Y-60881904D01*
X165107380Y-61643809D02*
X164440714Y-61643809D01*
X164631190Y-61643809D02*
X164535952Y-61691428D01*
X164488333Y-61739047D01*
X164440714Y-61834285D01*
X164440714Y-61929523D01*
X165107380Y-62691428D02*
X164583571Y-62691428D01*
X164488333Y-62643809D01*
X164440714Y-62548571D01*
X164440714Y-62358095D01*
X164488333Y-62262857D01*
X165059761Y-62691428D02*
X165107380Y-62596190D01*
X165107380Y-62358095D01*
X165059761Y-62262857D01*
X164964523Y-62215238D01*
X164869285Y-62215238D01*
X164774047Y-62262857D01*
X164726428Y-62358095D01*
X164726428Y-62596190D01*
X164678809Y-62691428D01*
X165059761Y-63596190D02*
X165107380Y-63500952D01*
X165107380Y-63310476D01*
X165059761Y-63215238D01*
X165012142Y-63167619D01*
X164916904Y-63120000D01*
X164631190Y-63120000D01*
X164535952Y-63167619D01*
X164488333Y-63215238D01*
X164440714Y-63310476D01*
X164440714Y-63500952D01*
X164488333Y-63596190D01*
X165107380Y-64024761D02*
X164107380Y-64024761D01*
X164726428Y-64120000D02*
X165107380Y-64405714D01*
X164440714Y-64405714D02*
X164821666Y-64024761D01*
X165107380Y-66024761D02*
X164583571Y-66024761D01*
X164488333Y-65977142D01*
X164440714Y-65881904D01*
X164440714Y-65691428D01*
X164488333Y-65596190D01*
X165059761Y-66024761D02*
X165107380Y-65929523D01*
X165107380Y-65691428D01*
X165059761Y-65596190D01*
X164964523Y-65548571D01*
X164869285Y-65548571D01*
X164774047Y-65596190D01*
X164726428Y-65691428D01*
X164726428Y-65929523D01*
X164678809Y-66024761D01*
X165107380Y-66929523D02*
X164107380Y-66929523D01*
X165059761Y-66929523D02*
X165107380Y-66834285D01*
X165107380Y-66643809D01*
X165059761Y-66548571D01*
X165012142Y-66500952D01*
X164916904Y-66453333D01*
X164631190Y-66453333D01*
X164535952Y-66500952D01*
X164488333Y-66548571D01*
X164440714Y-66643809D01*
X164440714Y-66834285D01*
X164488333Y-66929523D01*
X165107380Y-67834285D02*
X164583571Y-67834285D01*
X164488333Y-67786666D01*
X164440714Y-67691428D01*
X164440714Y-67500952D01*
X164488333Y-67405714D01*
X165059761Y-67834285D02*
X165107380Y-67739047D01*
X165107380Y-67500952D01*
X165059761Y-67405714D01*
X164964523Y-67358095D01*
X164869285Y-67358095D01*
X164774047Y-67405714D01*
X164726428Y-67500952D01*
X164726428Y-67739047D01*
X164678809Y-67834285D01*
X164440714Y-68310476D02*
X165440714Y-68310476D01*
X164488333Y-68310476D02*
X164440714Y-68405714D01*
X164440714Y-68596190D01*
X164488333Y-68691428D01*
X164535952Y-68739047D01*
X164631190Y-68786666D01*
X164916904Y-68786666D01*
X165012142Y-68739047D01*
X165059761Y-68691428D01*
X165107380Y-68596190D01*
X165107380Y-68405714D01*
X165059761Y-68310476D01*
X164440714Y-69072380D02*
X164440714Y-69453333D01*
X164107380Y-69215238D02*
X164964523Y-69215238D01*
X165059761Y-69262857D01*
X165107380Y-69358095D01*
X165107380Y-69453333D01*
X165107380Y-70215238D02*
X164583571Y-70215238D01*
X164488333Y-70167619D01*
X164440714Y-70072380D01*
X164440714Y-69881904D01*
X164488333Y-69786666D01*
X165059761Y-70215238D02*
X165107380Y-70120000D01*
X165107380Y-69881904D01*
X165059761Y-69786666D01*
X164964523Y-69739047D01*
X164869285Y-69739047D01*
X164774047Y-69786666D01*
X164726428Y-69881904D01*
X164726428Y-70120000D01*
X164678809Y-70215238D01*
X164440714Y-70548571D02*
X164440714Y-70929523D01*
X164107380Y-70691428D02*
X164964523Y-70691428D01*
X165059761Y-70739047D01*
X165107380Y-70834285D01*
X165107380Y-70929523D01*
X165107380Y-71262857D02*
X164440714Y-71262857D01*
X164107380Y-71262857D02*
X164155000Y-71215238D01*
X164202619Y-71262857D01*
X164155000Y-71310476D01*
X164107380Y-71262857D01*
X164202619Y-71262857D01*
X165107380Y-71881904D02*
X165059761Y-71786666D01*
X165012142Y-71739047D01*
X164916904Y-71691428D01*
X164631190Y-71691428D01*
X164535952Y-71739047D01*
X164488333Y-71786666D01*
X164440714Y-71881904D01*
X164440714Y-72024761D01*
X164488333Y-72120000D01*
X164535952Y-72167619D01*
X164631190Y-72215238D01*
X164916904Y-72215238D01*
X165012142Y-72167619D01*
X165059761Y-72120000D01*
X165107380Y-72024761D01*
X165107380Y-71881904D01*
X164440714Y-72643809D02*
X165107380Y-72643809D01*
X164535952Y-72643809D02*
X164488333Y-72691428D01*
X164440714Y-72786666D01*
X164440714Y-72929523D01*
X164488333Y-73024761D01*
X164583571Y-73072380D01*
X165107380Y-73072380D01*
X165107380Y-74310476D02*
X164107380Y-74310476D01*
X164488333Y-74310476D02*
X164440714Y-74405714D01*
X164440714Y-74596190D01*
X164488333Y-74691428D01*
X164535952Y-74739047D01*
X164631190Y-74786666D01*
X164916904Y-74786666D01*
X165012142Y-74739047D01*
X165059761Y-74691428D01*
X165107380Y-74596190D01*
X165107380Y-74405714D01*
X165059761Y-74310476D01*
X164440714Y-75120000D02*
X165107380Y-75358095D01*
X164440714Y-75596190D02*
X165107380Y-75358095D01*
X165345476Y-75262857D01*
X165393095Y-75215238D01*
X165440714Y-75120000D01*
X165107380Y-77310476D02*
X164631190Y-76977142D01*
X165107380Y-76739047D02*
X164107380Y-76739047D01*
X164107380Y-77120000D01*
X164155000Y-77215238D01*
X164202619Y-77262857D01*
X164297857Y-77310476D01*
X164440714Y-77310476D01*
X164535952Y-77262857D01*
X164583571Y-77215238D01*
X164631190Y-77120000D01*
X164631190Y-76739047D01*
X165107380Y-77739047D02*
X164440714Y-77739047D01*
X164107380Y-77739047D02*
X164155000Y-77691428D01*
X164202619Y-77739047D01*
X164155000Y-77786666D01*
X164107380Y-77739047D01*
X164202619Y-77739047D01*
X165059761Y-78643809D02*
X165107380Y-78548571D01*
X165107380Y-78358095D01*
X165059761Y-78262857D01*
X165012142Y-78215238D01*
X164916904Y-78167619D01*
X164631190Y-78167619D01*
X164535952Y-78215238D01*
X164488333Y-78262857D01*
X164440714Y-78358095D01*
X164440714Y-78548571D01*
X164488333Y-78643809D01*
X165107380Y-79072380D02*
X164107380Y-79072380D01*
X165107380Y-79500952D02*
X164583571Y-79500952D01*
X164488333Y-79453333D01*
X164440714Y-79358095D01*
X164440714Y-79215238D01*
X164488333Y-79120000D01*
X164535952Y-79072380D01*
X165107380Y-80739047D02*
X164107380Y-80739047D01*
X164583571Y-80739047D02*
X164583571Y-81310476D01*
X165107380Y-81310476D02*
X164107380Y-81310476D01*
X165107380Y-81929523D02*
X165059761Y-81834285D01*
X165012142Y-81786666D01*
X164916904Y-81739047D01*
X164631190Y-81739047D01*
X164535952Y-81786666D01*
X164488333Y-81834285D01*
X164440714Y-81929523D01*
X164440714Y-82072380D01*
X164488333Y-82167619D01*
X164535952Y-82215238D01*
X164631190Y-82262857D01*
X164916904Y-82262857D01*
X165012142Y-82215238D01*
X165059761Y-82167619D01*
X165107380Y-82072380D01*
X165107380Y-81929523D01*
X165107380Y-82834285D02*
X165059761Y-82739047D01*
X164964523Y-82691428D01*
X164107380Y-82691428D01*
X165107380Y-83215238D02*
X164440714Y-83215238D01*
X164535952Y-83215238D02*
X164488333Y-83262857D01*
X164440714Y-83358095D01*
X164440714Y-83500952D01*
X164488333Y-83596190D01*
X164583571Y-83643809D01*
X165107380Y-83643809D01*
X164583571Y-83643809D02*
X164488333Y-83691428D01*
X164440714Y-83786666D01*
X164440714Y-83929523D01*
X164488333Y-84024761D01*
X164583571Y-84072380D01*
X165107380Y-84072380D01*
X165059761Y-84929523D02*
X165107380Y-84834285D01*
X165107380Y-84643809D01*
X165059761Y-84548571D01*
X164964523Y-84500952D01*
X164583571Y-84500952D01*
X164488333Y-84548571D01*
X164440714Y-84643809D01*
X164440714Y-84834285D01*
X164488333Y-84929523D01*
X164583571Y-84977142D01*
X164678809Y-84977142D01*
X164774047Y-84500952D01*
X165059761Y-85358095D02*
X165107380Y-85453333D01*
X165107380Y-85643809D01*
X165059761Y-85739047D01*
X164964523Y-85786666D01*
X164916904Y-85786666D01*
X164821666Y-85739047D01*
X164774047Y-85643809D01*
X164774047Y-85500952D01*
X164726428Y-85405714D01*
X164631190Y-85358095D01*
X164583571Y-85358095D01*
X164488333Y-85405714D01*
X164440714Y-85500952D01*
X164440714Y-85643809D01*
X164488333Y-85739047D01*
X164202619Y-86929523D02*
X164155000Y-86977142D01*
X164107380Y-87072380D01*
X164107380Y-87310476D01*
X164155000Y-87405714D01*
X164202619Y-87453333D01*
X164297857Y-87500952D01*
X164393095Y-87500952D01*
X164535952Y-87453333D01*
X165107380Y-86881904D01*
X165107380Y-87500952D01*
X164059761Y-88643809D02*
X165345476Y-87786666D01*
X164202619Y-88929523D02*
X164155000Y-88977142D01*
X164107380Y-89072380D01*
X164107380Y-89310476D01*
X164155000Y-89405714D01*
X164202619Y-89453333D01*
X164297857Y-89500952D01*
X164393095Y-89500952D01*
X164535952Y-89453333D01*
X165107380Y-88881904D01*
X165107380Y-89500952D01*
X164107380Y-90120000D02*
X164107380Y-90215238D01*
X164155000Y-90310476D01*
X164202619Y-90358095D01*
X164297857Y-90405714D01*
X164488333Y-90453333D01*
X164726428Y-90453333D01*
X164916904Y-90405714D01*
X165012142Y-90358095D01*
X165059761Y-90310476D01*
X165107380Y-90215238D01*
X165107380Y-90120000D01*
X165059761Y-90024761D01*
X165012142Y-89977142D01*
X164916904Y-89929523D01*
X164726428Y-89881904D01*
X164488333Y-89881904D01*
X164297857Y-89929523D01*
X164202619Y-89977142D01*
X164155000Y-90024761D01*
X164107380Y-90120000D01*
X164202619Y-90834285D02*
X164155000Y-90881904D01*
X164107380Y-90977142D01*
X164107380Y-91215238D01*
X164155000Y-91310476D01*
X164202619Y-91358095D01*
X164297857Y-91405714D01*
X164393095Y-91405714D01*
X164535952Y-91358095D01*
X165107380Y-90786666D01*
X165107380Y-91405714D01*
X164107380Y-92024761D02*
X164107380Y-92120000D01*
X164155000Y-92215238D01*
X164202619Y-92262857D01*
X164297857Y-92310476D01*
X164488333Y-92358095D01*
X164726428Y-92358095D01*
X164916904Y-92310476D01*
X165012142Y-92262857D01*
X165059761Y-92215238D01*
X165107380Y-92120000D01*
X165107380Y-92024761D01*
X165059761Y-91929523D01*
X165012142Y-91881904D01*
X164916904Y-91834285D01*
X164726428Y-91786666D01*
X164488333Y-91786666D01*
X164297857Y-91834285D01*
X164202619Y-91881904D01*
X164155000Y-91929523D01*
X164107380Y-92024761D01*
D11*
X118145000Y-64000000D02*
X120685000Y-64000000D01*
X118145000Y-64000000D02*
X118145000Y-61460000D01*
X118395000Y-63750000D02*
X127745000Y-63750000D01*
X118395000Y-42890000D02*
X118395000Y-63750000D01*
X127745000Y-42890000D02*
X118395000Y-42890000D01*
X127745000Y-63750000D02*
X127745000Y-42890000D01*
X123385000Y-96530000D02*
X123385000Y-101600000D01*
X133155000Y-96530000D02*
X133155000Y-101600000D01*
X133155000Y-101600000D02*
X123385000Y-101600000D01*
X133155000Y-96530000D02*
X123385000Y-96530000D01*
D10*
X120933333Y-64452380D02*
X120933333Y-65166666D01*
X120980952Y-65309523D01*
X121076190Y-65404761D01*
X121219047Y-65452380D01*
X121314285Y-65452380D01*
X120552380Y-64452380D02*
X119885714Y-64452380D01*
X120314285Y-65452380D01*
X127942857Y-65552380D02*
X128276190Y-65076190D01*
X128514285Y-65552380D02*
X128514285Y-64552380D01*
X128133333Y-64552380D01*
X128038095Y-64600000D01*
X127990476Y-64647619D01*
X127942857Y-64742857D01*
X127942857Y-64885714D01*
X127990476Y-64980952D01*
X128038095Y-65028571D01*
X128133333Y-65076190D01*
X128514285Y-65076190D01*
X127514285Y-65028571D02*
X127180952Y-65028571D01*
X127038095Y-65552380D02*
X127514285Y-65552380D01*
X127514285Y-64552380D01*
X127038095Y-64552380D01*
X126609523Y-65552380D02*
X126609523Y-64552380D01*
X126371428Y-64552380D01*
X126228571Y-64600000D01*
X126133333Y-64695238D01*
X126085714Y-64790476D01*
X126038095Y-64980952D01*
X126038095Y-65123809D01*
X126085714Y-65314285D01*
X126133333Y-65409523D01*
X126228571Y-65504761D01*
X126371428Y-65552380D01*
X126609523Y-65552380D01*
X128436666Y-95852380D02*
X128770000Y-95376190D01*
X129008095Y-95852380D02*
X129008095Y-94852380D01*
X128627142Y-94852380D01*
X128531904Y-94900000D01*
X128484285Y-94947619D01*
X128436666Y-95042857D01*
X128436666Y-95185714D01*
X128484285Y-95280952D01*
X128531904Y-95328571D01*
X128627142Y-95376190D01*
X129008095Y-95376190D01*
X128103333Y-94852380D02*
X127436666Y-94852380D01*
X127865238Y-95852380D01*
M02*
