G04 #@! TF.GenerationSoftware,KiCad,Pcbnew,5.1.5-52549c5~84~ubuntu18.04.1*
G04 #@! TF.CreationDate,2020-03-18T19:12:43-04:00*
G04 #@! TF.ProjectId,OBG-SVF-mainpcb,4f42472d-5356-4462-9d6d-61696e706362,rev?*
G04 #@! TF.SameCoordinates,Original*
G04 #@! TF.FileFunction,Legend,Top*
G04 #@! TF.FilePolarity,Positive*
%FSLAX46Y46*%
G04 Gerber Fmt 4.6, Leading zero omitted, Abs format (unit mm)*
G04 Created by KiCad (PCBNEW 5.1.5-52549c5~84~ubuntu18.04.1) date 2020-03-18 19:12:43*
%MOMM*%
%LPD*%
G04 APERTURE LIST*
%ADD10C,0.150000*%
%ADD11C,0.120000*%
G04 APERTURE END LIST*
D10*
X136175714Y-53792380D02*
X135604285Y-53792380D01*
X135890000Y-53792380D02*
X135890000Y-52792380D01*
X135794761Y-52935238D01*
X135699523Y-53030476D01*
X135604285Y-53078095D01*
D11*
X147380000Y-55760000D02*
X137100000Y-55760000D01*
X147380000Y-76320000D02*
X147380000Y-55760000D01*
X137100000Y-76320000D02*
X147380000Y-76320000D01*
X137100000Y-55760000D02*
X137100000Y-76320000D01*
X144890000Y-55820000D02*
X143240000Y-55820000D01*
X144890000Y-76260000D02*
X144890000Y-55820000D01*
X139590000Y-76260000D02*
X144890000Y-76260000D01*
X139590000Y-55820000D02*
X139590000Y-76260000D01*
X141240000Y-55820000D02*
X139590000Y-55820000D01*
X143240000Y-55820000D02*
G75*
G02X141240000Y-55820000I-1000000J0D01*
G01*
X127730000Y-106780000D02*
X127730000Y-106450000D01*
X121190000Y-106780000D02*
X127730000Y-106780000D01*
X121190000Y-106450000D02*
X121190000Y-106780000D01*
X127730000Y-104040000D02*
X127730000Y-104370000D01*
X121190000Y-104040000D02*
X127730000Y-104040000D01*
X121190000Y-104370000D02*
X121190000Y-104040000D01*
X131540000Y-92810000D02*
X131540000Y-92480000D01*
X125000000Y-92810000D02*
X131540000Y-92810000D01*
X125000000Y-92480000D02*
X125000000Y-92810000D01*
X131540000Y-90070000D02*
X131540000Y-90400000D01*
X125000000Y-90070000D02*
X131540000Y-90070000D01*
X125000000Y-90400000D02*
X125000000Y-90070000D01*
X131540000Y-95985000D02*
X131540000Y-95655000D01*
X125000000Y-95985000D02*
X131540000Y-95985000D01*
X125000000Y-95655000D02*
X125000000Y-95985000D01*
X131540000Y-93245000D02*
X131540000Y-93575000D01*
X125000000Y-93245000D02*
X131540000Y-93245000D01*
X125000000Y-93575000D02*
X125000000Y-93245000D01*
X131540000Y-75030000D02*
X131540000Y-74700000D01*
X125000000Y-75030000D02*
X131540000Y-75030000D01*
X125000000Y-74700000D02*
X125000000Y-75030000D01*
X131540000Y-72290000D02*
X131540000Y-72620000D01*
X125000000Y-72290000D02*
X131540000Y-72290000D01*
X125000000Y-72620000D02*
X125000000Y-72290000D01*
X129530000Y-57640000D02*
X132470000Y-57640000D01*
X132470000Y-57640000D02*
X132470000Y-52200000D01*
X132470000Y-52200000D02*
X129530000Y-52200000D01*
X129530000Y-52200000D02*
X129530000Y-57640000D01*
X131000000Y-58660000D02*
X131000000Y-57640000D01*
X131000000Y-51180000D02*
X131000000Y-52200000D01*
X129530000Y-56740000D02*
X132470000Y-56740000D01*
X129530000Y-56620000D02*
X132470000Y-56620000D01*
X129530000Y-56860000D02*
X132470000Y-56860000D01*
X133805000Y-40355225D02*
X133305000Y-40355225D01*
X133555000Y-40105225D02*
X133555000Y-40605225D01*
X132364000Y-45511000D02*
X131796000Y-45511000D01*
X132598000Y-45471000D02*
X131562000Y-45471000D01*
X132757000Y-45431000D02*
X131403000Y-45431000D01*
X132885000Y-45391000D02*
X131275000Y-45391000D01*
X132995000Y-45351000D02*
X131165000Y-45351000D01*
X133091000Y-45311000D02*
X131069000Y-45311000D01*
X133178000Y-45271000D02*
X130982000Y-45271000D01*
X133258000Y-45231000D02*
X130902000Y-45231000D01*
X133331000Y-45191000D02*
X130829000Y-45191000D01*
X133399000Y-45151000D02*
X130761000Y-45151000D01*
X133463000Y-45111000D02*
X130697000Y-45111000D01*
X133523000Y-45071000D02*
X130637000Y-45071000D01*
X133580000Y-45031000D02*
X130580000Y-45031000D01*
X133634000Y-44991000D02*
X130526000Y-44991000D01*
X133685000Y-44951000D02*
X130475000Y-44951000D01*
X131040000Y-44911000D02*
X130427000Y-44911000D01*
X133733000Y-44911000D02*
X133120000Y-44911000D01*
X131040000Y-44871000D02*
X130381000Y-44871000D01*
X133779000Y-44871000D02*
X133120000Y-44871000D01*
X131040000Y-44831000D02*
X130337000Y-44831000D01*
X133823000Y-44831000D02*
X133120000Y-44831000D01*
X131040000Y-44791000D02*
X130295000Y-44791000D01*
X133865000Y-44791000D02*
X133120000Y-44791000D01*
X131040000Y-44751000D02*
X130254000Y-44751000D01*
X133906000Y-44751000D02*
X133120000Y-44751000D01*
X131040000Y-44711000D02*
X130216000Y-44711000D01*
X133944000Y-44711000D02*
X133120000Y-44711000D01*
X131040000Y-44671000D02*
X130179000Y-44671000D01*
X133981000Y-44671000D02*
X133120000Y-44671000D01*
X131040000Y-44631000D02*
X130143000Y-44631000D01*
X134017000Y-44631000D02*
X133120000Y-44631000D01*
X131040000Y-44591000D02*
X130109000Y-44591000D01*
X134051000Y-44591000D02*
X133120000Y-44591000D01*
X131040000Y-44551000D02*
X130076000Y-44551000D01*
X134084000Y-44551000D02*
X133120000Y-44551000D01*
X131040000Y-44511000D02*
X130045000Y-44511000D01*
X134115000Y-44511000D02*
X133120000Y-44511000D01*
X131040000Y-44471000D02*
X130015000Y-44471000D01*
X134145000Y-44471000D02*
X133120000Y-44471000D01*
X131040000Y-44431000D02*
X129985000Y-44431000D01*
X134175000Y-44431000D02*
X133120000Y-44431000D01*
X131040000Y-44391000D02*
X129958000Y-44391000D01*
X134202000Y-44391000D02*
X133120000Y-44391000D01*
X131040000Y-44351000D02*
X129931000Y-44351000D01*
X134229000Y-44351000D02*
X133120000Y-44351000D01*
X131040000Y-44311000D02*
X129905000Y-44311000D01*
X134255000Y-44311000D02*
X133120000Y-44311000D01*
X131040000Y-44271000D02*
X129880000Y-44271000D01*
X134280000Y-44271000D02*
X133120000Y-44271000D01*
X131040000Y-44231000D02*
X129856000Y-44231000D01*
X134304000Y-44231000D02*
X133120000Y-44231000D01*
X131040000Y-44191000D02*
X129833000Y-44191000D01*
X134327000Y-44191000D02*
X133120000Y-44191000D01*
X131040000Y-44151000D02*
X129812000Y-44151000D01*
X134348000Y-44151000D02*
X133120000Y-44151000D01*
X131040000Y-44111000D02*
X129790000Y-44111000D01*
X134370000Y-44111000D02*
X133120000Y-44111000D01*
X131040000Y-44071000D02*
X129770000Y-44071000D01*
X134390000Y-44071000D02*
X133120000Y-44071000D01*
X131040000Y-44031000D02*
X129751000Y-44031000D01*
X134409000Y-44031000D02*
X133120000Y-44031000D01*
X131040000Y-43991000D02*
X129732000Y-43991000D01*
X134428000Y-43991000D02*
X133120000Y-43991000D01*
X131040000Y-43951000D02*
X129715000Y-43951000D01*
X134445000Y-43951000D02*
X133120000Y-43951000D01*
X131040000Y-43911000D02*
X129698000Y-43911000D01*
X134462000Y-43911000D02*
X133120000Y-43911000D01*
X131040000Y-43871000D02*
X129682000Y-43871000D01*
X134478000Y-43871000D02*
X133120000Y-43871000D01*
X131040000Y-43831000D02*
X129666000Y-43831000D01*
X134494000Y-43831000D02*
X133120000Y-43831000D01*
X131040000Y-43791000D02*
X129652000Y-43791000D01*
X134508000Y-43791000D02*
X133120000Y-43791000D01*
X131040000Y-43751000D02*
X129638000Y-43751000D01*
X134522000Y-43751000D02*
X133120000Y-43751000D01*
X131040000Y-43711000D02*
X129625000Y-43711000D01*
X134535000Y-43711000D02*
X133120000Y-43711000D01*
X131040000Y-43671000D02*
X129612000Y-43671000D01*
X134548000Y-43671000D02*
X133120000Y-43671000D01*
X131040000Y-43631000D02*
X129600000Y-43631000D01*
X134560000Y-43631000D02*
X133120000Y-43631000D01*
X131040000Y-43590000D02*
X129589000Y-43590000D01*
X134571000Y-43590000D02*
X133120000Y-43590000D01*
X131040000Y-43550000D02*
X129579000Y-43550000D01*
X134581000Y-43550000D02*
X133120000Y-43550000D01*
X131040000Y-43510000D02*
X129569000Y-43510000D01*
X134591000Y-43510000D02*
X133120000Y-43510000D01*
X131040000Y-43470000D02*
X129560000Y-43470000D01*
X134600000Y-43470000D02*
X133120000Y-43470000D01*
X131040000Y-43430000D02*
X129552000Y-43430000D01*
X134608000Y-43430000D02*
X133120000Y-43430000D01*
X131040000Y-43390000D02*
X129544000Y-43390000D01*
X134616000Y-43390000D02*
X133120000Y-43390000D01*
X131040000Y-43350000D02*
X129537000Y-43350000D01*
X134623000Y-43350000D02*
X133120000Y-43350000D01*
X131040000Y-43310000D02*
X129530000Y-43310000D01*
X134630000Y-43310000D02*
X133120000Y-43310000D01*
X131040000Y-43270000D02*
X129524000Y-43270000D01*
X134636000Y-43270000D02*
X133120000Y-43270000D01*
X131040000Y-43230000D02*
X129519000Y-43230000D01*
X134641000Y-43230000D02*
X133120000Y-43230000D01*
X131040000Y-43190000D02*
X129515000Y-43190000D01*
X134645000Y-43190000D02*
X133120000Y-43190000D01*
X131040000Y-43150000D02*
X129511000Y-43150000D01*
X134649000Y-43150000D02*
X133120000Y-43150000D01*
X131040000Y-43110000D02*
X129507000Y-43110000D01*
X134653000Y-43110000D02*
X133120000Y-43110000D01*
X131040000Y-43070000D02*
X129504000Y-43070000D01*
X134656000Y-43070000D02*
X133120000Y-43070000D01*
X131040000Y-43030000D02*
X129502000Y-43030000D01*
X134658000Y-43030000D02*
X133120000Y-43030000D01*
X131040000Y-42990000D02*
X129501000Y-42990000D01*
X134659000Y-42990000D02*
X133120000Y-42990000D01*
X134660000Y-42950000D02*
X133120000Y-42950000D01*
X131040000Y-42950000D02*
X129500000Y-42950000D01*
X134660000Y-42910000D02*
X133120000Y-42910000D01*
X131040000Y-42910000D02*
X129500000Y-42910000D01*
X134700000Y-42910000D02*
G75*
G03X134700000Y-42910000I-2620000J0D01*
G01*
X150561522Y-43748478D02*
G75*
G03X155000000Y-41910000I1838478J1838478D01*
G01*
X150561522Y-40071522D02*
G75*
G02X155000000Y-41910000I1838478J-1838478D01*
G01*
X150550000Y-40110000D02*
X150550000Y-43710000D01*
X156911522Y-43748478D02*
G75*
G03X161350000Y-41910000I1838478J1838478D01*
G01*
X156911522Y-40071522D02*
G75*
G02X161350000Y-41910000I1838478J-1838478D01*
G01*
X156900000Y-40110000D02*
X156900000Y-43710000D01*
X152940000Y-101500000D02*
X152940000Y-101830000D01*
X159480000Y-101500000D02*
X152940000Y-101500000D01*
X159480000Y-101830000D02*
X159480000Y-101500000D01*
X152940000Y-104240000D02*
X152940000Y-103910000D01*
X159480000Y-104240000D02*
X152940000Y-104240000D01*
X159480000Y-103910000D02*
X159480000Y-104240000D01*
X159480000Y-100430000D02*
X159480000Y-100100000D01*
X152940000Y-100430000D02*
X159480000Y-100430000D01*
X152940000Y-100100000D02*
X152940000Y-100430000D01*
X159480000Y-97690000D02*
X159480000Y-98020000D01*
X152940000Y-97690000D02*
X159480000Y-97690000D01*
X152940000Y-98020000D02*
X152940000Y-97690000D01*
X159480000Y-81380000D02*
X159480000Y-81050000D01*
X152940000Y-81380000D02*
X159480000Y-81380000D01*
X152940000Y-81050000D02*
X152940000Y-81380000D01*
X159480000Y-78640000D02*
X159480000Y-78970000D01*
X152940000Y-78640000D02*
X159480000Y-78640000D01*
X152940000Y-78970000D02*
X152940000Y-78640000D01*
X159480000Y-96620000D02*
X159480000Y-96290000D01*
X152940000Y-96620000D02*
X159480000Y-96620000D01*
X152940000Y-96290000D02*
X152940000Y-96620000D01*
X159480000Y-93880000D02*
X159480000Y-94210000D01*
X152940000Y-93880000D02*
X159480000Y-93880000D01*
X152940000Y-94210000D02*
X152940000Y-93880000D01*
X131540000Y-78840000D02*
X131540000Y-78510000D01*
X125000000Y-78840000D02*
X131540000Y-78840000D01*
X125000000Y-78510000D02*
X125000000Y-78840000D01*
X131540000Y-76100000D02*
X131540000Y-76430000D01*
X125000000Y-76100000D02*
X131540000Y-76100000D01*
X125000000Y-76430000D02*
X125000000Y-76100000D01*
X125000000Y-64670000D02*
X125000000Y-65000000D01*
X131540000Y-64670000D02*
X125000000Y-64670000D01*
X131540000Y-65000000D02*
X131540000Y-64670000D01*
X125000000Y-67410000D02*
X125000000Y-67080000D01*
X131540000Y-67410000D02*
X125000000Y-67410000D01*
X131540000Y-67080000D02*
X131540000Y-67410000D01*
X131540000Y-71220000D02*
X131540000Y-70890000D01*
X125000000Y-71220000D02*
X131540000Y-71220000D01*
X125000000Y-70890000D02*
X125000000Y-71220000D01*
X131540000Y-68480000D02*
X131540000Y-68810000D01*
X125000000Y-68480000D02*
X131540000Y-68480000D01*
X125000000Y-68810000D02*
X125000000Y-68480000D01*
X123725000Y-87725000D02*
X124055000Y-87725000D01*
X123725000Y-81185000D02*
X123725000Y-87725000D01*
X124055000Y-81185000D02*
X123725000Y-81185000D01*
X126465000Y-87725000D02*
X126135000Y-87725000D01*
X126465000Y-81185000D02*
X126465000Y-87725000D01*
X126135000Y-81185000D02*
X126465000Y-81185000D01*
X149920000Y-52130000D02*
X149920000Y-46930000D01*
X137160000Y-52130000D02*
X149920000Y-52130000D01*
X134560000Y-46930000D02*
X149920000Y-46930000D01*
X137160000Y-52130000D02*
X137160000Y-49530000D01*
X137160000Y-49530000D02*
X134560000Y-49530000D01*
X134560000Y-49530000D02*
X134560000Y-46930000D01*
X135890000Y-52130000D02*
X134560000Y-52130000D01*
X134560000Y-52130000D02*
X134560000Y-50800000D01*
X137100000Y-96640000D02*
X147380000Y-96640000D01*
X137100000Y-78620000D02*
X137100000Y-96640000D01*
X147380000Y-78620000D02*
X137100000Y-78620000D01*
X147380000Y-96640000D02*
X147380000Y-78620000D01*
X139590000Y-96580000D02*
X141240000Y-96580000D01*
X139590000Y-78680000D02*
X139590000Y-96580000D01*
X144890000Y-78680000D02*
X139590000Y-78680000D01*
X144890000Y-96580000D02*
X144890000Y-78680000D01*
X143240000Y-96580000D02*
X144890000Y-96580000D01*
X141240000Y-96580000D02*
G75*
G02X143240000Y-96580000I1000000J0D01*
G01*
X159480000Y-85190000D02*
X159480000Y-84860000D01*
X152940000Y-85190000D02*
X159480000Y-85190000D01*
X152940000Y-84860000D02*
X152940000Y-85190000D01*
X159480000Y-82450000D02*
X159480000Y-82780000D01*
X152940000Y-82450000D02*
X159480000Y-82450000D01*
X152940000Y-82780000D02*
X152940000Y-82450000D01*
X152940000Y-65940000D02*
X152940000Y-66270000D01*
X159480000Y-65940000D02*
X152940000Y-65940000D01*
X159480000Y-66270000D02*
X159480000Y-65940000D01*
X152940000Y-68680000D02*
X152940000Y-68350000D01*
X159480000Y-68680000D02*
X152940000Y-68680000D01*
X159480000Y-68350000D02*
X159480000Y-68680000D01*
X159480000Y-64870000D02*
X159480000Y-64540000D01*
X152940000Y-64870000D02*
X159480000Y-64870000D01*
X152940000Y-64540000D02*
X152940000Y-64870000D01*
X159480000Y-62130000D02*
X159480000Y-62460000D01*
X152940000Y-62130000D02*
X159480000Y-62130000D01*
X152940000Y-62460000D02*
X152940000Y-62130000D01*
X152940000Y-58320000D02*
X152940000Y-58650000D01*
X159480000Y-58320000D02*
X152940000Y-58320000D01*
X159480000Y-58650000D02*
X159480000Y-58320000D01*
X152940000Y-61060000D02*
X152940000Y-60730000D01*
X159480000Y-61060000D02*
X152940000Y-61060000D01*
X159480000Y-60730000D02*
X159480000Y-61060000D01*
X152940000Y-54510000D02*
X152940000Y-54840000D01*
X159480000Y-54510000D02*
X152940000Y-54510000D01*
X159480000Y-54840000D02*
X159480000Y-54510000D01*
X152940000Y-57250000D02*
X152940000Y-56920000D01*
X159480000Y-57250000D02*
X152940000Y-57250000D01*
X159480000Y-56920000D02*
X159480000Y-57250000D01*
X152940000Y-90070000D02*
X152940000Y-90400000D01*
X159480000Y-90070000D02*
X152940000Y-90070000D01*
X159480000Y-90400000D02*
X159480000Y-90070000D01*
X152940000Y-92810000D02*
X152940000Y-92480000D01*
X159480000Y-92810000D02*
X152940000Y-92810000D01*
X159480000Y-92480000D02*
X159480000Y-92810000D01*
X135188478Y-102301522D02*
G75*
G03X130750000Y-104140000I-1838478J-1838478D01*
G01*
X135188478Y-105978478D02*
G75*
G02X130750000Y-104140000I-1838478J1838478D01*
G01*
X135200000Y-105940000D02*
X135200000Y-102340000D01*
X128640000Y-39470000D02*
X128640000Y-36530000D01*
X128640000Y-36530000D02*
X123200000Y-36530000D01*
X123200000Y-36530000D02*
X123200000Y-39470000D01*
X123200000Y-39470000D02*
X128640000Y-39470000D01*
X129660000Y-38000000D02*
X128640000Y-38000000D01*
X122180000Y-38000000D02*
X123200000Y-38000000D01*
X127740000Y-39470000D02*
X127740000Y-36530000D01*
X127620000Y-39470000D02*
X127620000Y-36530000D01*
X127860000Y-39470000D02*
X127860000Y-36530000D01*
X134335000Y-77456000D02*
X134335000Y-78714000D01*
X136175000Y-77456000D02*
X136175000Y-78714000D01*
X131459000Y-85440000D02*
X130201000Y-85440000D01*
X131459000Y-87280000D02*
X130201000Y-87280000D01*
X154319000Y-74010000D02*
X153061000Y-74010000D01*
X154319000Y-75850000D02*
X153061000Y-75850000D01*
X154319000Y-86710000D02*
X153061000Y-86710000D01*
X154319000Y-88550000D02*
X153061000Y-88550000D01*
X134335225Y-36375000D02*
X134335225Y-36875000D01*
X134085225Y-36625000D02*
X134585225Y-36625000D01*
X139491000Y-37816000D02*
X139491000Y-38384000D01*
X139451000Y-37582000D02*
X139451000Y-38618000D01*
X139411000Y-37423000D02*
X139411000Y-38777000D01*
X139371000Y-37295000D02*
X139371000Y-38905000D01*
X139331000Y-37185000D02*
X139331000Y-39015000D01*
X139291000Y-37089000D02*
X139291000Y-39111000D01*
X139251000Y-37002000D02*
X139251000Y-39198000D01*
X139211000Y-36922000D02*
X139211000Y-39278000D01*
X139171000Y-36849000D02*
X139171000Y-39351000D01*
X139131000Y-36781000D02*
X139131000Y-39419000D01*
X139091000Y-36717000D02*
X139091000Y-39483000D01*
X139051000Y-36657000D02*
X139051000Y-39543000D01*
X139011000Y-36600000D02*
X139011000Y-39600000D01*
X138971000Y-36546000D02*
X138971000Y-39654000D01*
X138931000Y-36495000D02*
X138931000Y-39705000D01*
X138891000Y-39140000D02*
X138891000Y-39753000D01*
X138891000Y-36447000D02*
X138891000Y-37060000D01*
X138851000Y-39140000D02*
X138851000Y-39799000D01*
X138851000Y-36401000D02*
X138851000Y-37060000D01*
X138811000Y-39140000D02*
X138811000Y-39843000D01*
X138811000Y-36357000D02*
X138811000Y-37060000D01*
X138771000Y-39140000D02*
X138771000Y-39885000D01*
X138771000Y-36315000D02*
X138771000Y-37060000D01*
X138731000Y-39140000D02*
X138731000Y-39926000D01*
X138731000Y-36274000D02*
X138731000Y-37060000D01*
X138691000Y-39140000D02*
X138691000Y-39964000D01*
X138691000Y-36236000D02*
X138691000Y-37060000D01*
X138651000Y-39140000D02*
X138651000Y-40001000D01*
X138651000Y-36199000D02*
X138651000Y-37060000D01*
X138611000Y-39140000D02*
X138611000Y-40037000D01*
X138611000Y-36163000D02*
X138611000Y-37060000D01*
X138571000Y-39140000D02*
X138571000Y-40071000D01*
X138571000Y-36129000D02*
X138571000Y-37060000D01*
X138531000Y-39140000D02*
X138531000Y-40104000D01*
X138531000Y-36096000D02*
X138531000Y-37060000D01*
X138491000Y-39140000D02*
X138491000Y-40135000D01*
X138491000Y-36065000D02*
X138491000Y-37060000D01*
X138451000Y-39140000D02*
X138451000Y-40165000D01*
X138451000Y-36035000D02*
X138451000Y-37060000D01*
X138411000Y-39140000D02*
X138411000Y-40195000D01*
X138411000Y-36005000D02*
X138411000Y-37060000D01*
X138371000Y-39140000D02*
X138371000Y-40222000D01*
X138371000Y-35978000D02*
X138371000Y-37060000D01*
X138331000Y-39140000D02*
X138331000Y-40249000D01*
X138331000Y-35951000D02*
X138331000Y-37060000D01*
X138291000Y-39140000D02*
X138291000Y-40275000D01*
X138291000Y-35925000D02*
X138291000Y-37060000D01*
X138251000Y-39140000D02*
X138251000Y-40300000D01*
X138251000Y-35900000D02*
X138251000Y-37060000D01*
X138211000Y-39140000D02*
X138211000Y-40324000D01*
X138211000Y-35876000D02*
X138211000Y-37060000D01*
X138171000Y-39140000D02*
X138171000Y-40347000D01*
X138171000Y-35853000D02*
X138171000Y-37060000D01*
X138131000Y-39140000D02*
X138131000Y-40368000D01*
X138131000Y-35832000D02*
X138131000Y-37060000D01*
X138091000Y-39140000D02*
X138091000Y-40390000D01*
X138091000Y-35810000D02*
X138091000Y-37060000D01*
X138051000Y-39140000D02*
X138051000Y-40410000D01*
X138051000Y-35790000D02*
X138051000Y-37060000D01*
X138011000Y-39140000D02*
X138011000Y-40429000D01*
X138011000Y-35771000D02*
X138011000Y-37060000D01*
X137971000Y-39140000D02*
X137971000Y-40448000D01*
X137971000Y-35752000D02*
X137971000Y-37060000D01*
X137931000Y-39140000D02*
X137931000Y-40465000D01*
X137931000Y-35735000D02*
X137931000Y-37060000D01*
X137891000Y-39140000D02*
X137891000Y-40482000D01*
X137891000Y-35718000D02*
X137891000Y-37060000D01*
X137851000Y-39140000D02*
X137851000Y-40498000D01*
X137851000Y-35702000D02*
X137851000Y-37060000D01*
X137811000Y-39140000D02*
X137811000Y-40514000D01*
X137811000Y-35686000D02*
X137811000Y-37060000D01*
X137771000Y-39140000D02*
X137771000Y-40528000D01*
X137771000Y-35672000D02*
X137771000Y-37060000D01*
X137731000Y-39140000D02*
X137731000Y-40542000D01*
X137731000Y-35658000D02*
X137731000Y-37060000D01*
X137691000Y-39140000D02*
X137691000Y-40555000D01*
X137691000Y-35645000D02*
X137691000Y-37060000D01*
X137651000Y-39140000D02*
X137651000Y-40568000D01*
X137651000Y-35632000D02*
X137651000Y-37060000D01*
X137611000Y-39140000D02*
X137611000Y-40580000D01*
X137611000Y-35620000D02*
X137611000Y-37060000D01*
X137570000Y-39140000D02*
X137570000Y-40591000D01*
X137570000Y-35609000D02*
X137570000Y-37060000D01*
X137530000Y-39140000D02*
X137530000Y-40601000D01*
X137530000Y-35599000D02*
X137530000Y-37060000D01*
X137490000Y-39140000D02*
X137490000Y-40611000D01*
X137490000Y-35589000D02*
X137490000Y-37060000D01*
X137450000Y-39140000D02*
X137450000Y-40620000D01*
X137450000Y-35580000D02*
X137450000Y-37060000D01*
X137410000Y-39140000D02*
X137410000Y-40628000D01*
X137410000Y-35572000D02*
X137410000Y-37060000D01*
X137370000Y-39140000D02*
X137370000Y-40636000D01*
X137370000Y-35564000D02*
X137370000Y-37060000D01*
X137330000Y-39140000D02*
X137330000Y-40643000D01*
X137330000Y-35557000D02*
X137330000Y-37060000D01*
X137290000Y-39140000D02*
X137290000Y-40650000D01*
X137290000Y-35550000D02*
X137290000Y-37060000D01*
X137250000Y-39140000D02*
X137250000Y-40656000D01*
X137250000Y-35544000D02*
X137250000Y-37060000D01*
X137210000Y-39140000D02*
X137210000Y-40661000D01*
X137210000Y-35539000D02*
X137210000Y-37060000D01*
X137170000Y-39140000D02*
X137170000Y-40665000D01*
X137170000Y-35535000D02*
X137170000Y-37060000D01*
X137130000Y-39140000D02*
X137130000Y-40669000D01*
X137130000Y-35531000D02*
X137130000Y-37060000D01*
X137090000Y-39140000D02*
X137090000Y-40673000D01*
X137090000Y-35527000D02*
X137090000Y-37060000D01*
X137050000Y-39140000D02*
X137050000Y-40676000D01*
X137050000Y-35524000D02*
X137050000Y-37060000D01*
X137010000Y-39140000D02*
X137010000Y-40678000D01*
X137010000Y-35522000D02*
X137010000Y-37060000D01*
X136970000Y-39140000D02*
X136970000Y-40679000D01*
X136970000Y-35521000D02*
X136970000Y-37060000D01*
X136930000Y-35520000D02*
X136930000Y-37060000D01*
X136930000Y-39140000D02*
X136930000Y-40680000D01*
X136890000Y-35520000D02*
X136890000Y-37060000D01*
X136890000Y-39140000D02*
X136890000Y-40680000D01*
X139510000Y-38100000D02*
G75*
G03X139510000Y-38100000I-2620000J0D01*
G01*
X154319000Y-70200000D02*
X153061000Y-70200000D01*
X154319000Y-72040000D02*
X153061000Y-72040000D01*
X131459000Y-82900000D02*
X130201000Y-82900000D01*
X131459000Y-84740000D02*
X130201000Y-84740000D01*
D10*
X140906666Y-100392380D02*
X140573333Y-99916190D01*
X140335238Y-100392380D02*
X140335238Y-99392380D01*
X140716190Y-99392380D01*
X140811428Y-99440000D01*
X140859047Y-99487619D01*
X140906666Y-99582857D01*
X140906666Y-99725714D01*
X140859047Y-99820952D01*
X140811428Y-99868571D01*
X140716190Y-99916190D01*
X140335238Y-99916190D01*
X141335238Y-99868571D02*
X141668571Y-99868571D01*
X141811428Y-100392380D02*
X141335238Y-100392380D01*
X141335238Y-99392380D01*
X141811428Y-99392380D01*
X142573333Y-99868571D02*
X142240000Y-99868571D01*
X142240000Y-100392380D02*
X142240000Y-99392380D01*
X142716190Y-99392380D01*
X143240000Y-99392380D02*
X143240000Y-99630476D01*
X143001904Y-99535238D02*
X143240000Y-99630476D01*
X143478095Y-99535238D01*
X143097142Y-99820952D02*
X143240000Y-99630476D01*
X143382857Y-99820952D01*
X144001904Y-99392380D02*
X144001904Y-99630476D01*
X143763809Y-99535238D02*
X144001904Y-99630476D01*
X144240000Y-99535238D01*
X143859047Y-99820952D02*
X144001904Y-99630476D01*
X144144761Y-99820952D01*
X140906666Y-38162380D02*
X140573333Y-37686190D01*
X140335238Y-38162380D02*
X140335238Y-37162380D01*
X140716190Y-37162380D01*
X140811428Y-37210000D01*
X140859047Y-37257619D01*
X140906666Y-37352857D01*
X140906666Y-37495714D01*
X140859047Y-37590952D01*
X140811428Y-37638571D01*
X140716190Y-37686190D01*
X140335238Y-37686190D01*
X141335238Y-37638571D02*
X141668571Y-37638571D01*
X141811428Y-38162380D02*
X141335238Y-38162380D01*
X141335238Y-37162380D01*
X141811428Y-37162380D01*
X142573333Y-37638571D02*
X142240000Y-37638571D01*
X142240000Y-38162380D02*
X142240000Y-37162380D01*
X142716190Y-37162380D01*
X143240000Y-37162380D02*
X143240000Y-37400476D01*
X143001904Y-37305238D02*
X143240000Y-37400476D01*
X143478095Y-37305238D01*
X143097142Y-37590952D02*
X143240000Y-37400476D01*
X143382857Y-37590952D01*
X144001904Y-37162380D02*
X144001904Y-37400476D01*
X143763809Y-37305238D02*
X144001904Y-37400476D01*
X144240000Y-37305238D01*
X143859047Y-37590952D02*
X144001904Y-37400476D01*
X144144761Y-37590952D01*
X141478095Y-54272380D02*
X141478095Y-55081904D01*
X141525714Y-55177142D01*
X141573333Y-55224761D01*
X141668571Y-55272380D01*
X141859047Y-55272380D01*
X141954285Y-55224761D01*
X142001904Y-55177142D01*
X142049523Y-55081904D01*
X142049523Y-54272380D01*
X142478095Y-54367619D02*
X142525714Y-54320000D01*
X142620952Y-54272380D01*
X142859047Y-54272380D01*
X142954285Y-54320000D01*
X143001904Y-54367619D01*
X143049523Y-54462857D01*
X143049523Y-54558095D01*
X143001904Y-54700952D01*
X142430476Y-55272380D01*
X143049523Y-55272380D01*
X123817142Y-103492380D02*
X123483809Y-103016190D01*
X123245714Y-103492380D02*
X123245714Y-102492380D01*
X123626666Y-102492380D01*
X123721904Y-102540000D01*
X123769523Y-102587619D01*
X123817142Y-102682857D01*
X123817142Y-102825714D01*
X123769523Y-102920952D01*
X123721904Y-102968571D01*
X123626666Y-103016190D01*
X123245714Y-103016190D01*
X124769523Y-103492380D02*
X124198095Y-103492380D01*
X124483809Y-103492380D02*
X124483809Y-102492380D01*
X124388571Y-102635238D01*
X124293333Y-102730476D01*
X124198095Y-102778095D01*
X125626666Y-102825714D02*
X125626666Y-103492380D01*
X125388571Y-102444761D02*
X125150476Y-103159047D01*
X125769523Y-103159047D01*
X127627142Y-89522380D02*
X127293809Y-89046190D01*
X127055714Y-89522380D02*
X127055714Y-88522380D01*
X127436666Y-88522380D01*
X127531904Y-88570000D01*
X127579523Y-88617619D01*
X127627142Y-88712857D01*
X127627142Y-88855714D01*
X127579523Y-88950952D01*
X127531904Y-88998571D01*
X127436666Y-89046190D01*
X127055714Y-89046190D01*
X128579523Y-89522380D02*
X128008095Y-89522380D01*
X128293809Y-89522380D02*
X128293809Y-88522380D01*
X128198571Y-88665238D01*
X128103333Y-88760476D01*
X128008095Y-88808095D01*
X129484285Y-88522380D02*
X129008095Y-88522380D01*
X128960476Y-88998571D01*
X129008095Y-88950952D01*
X129103333Y-88903333D01*
X129341428Y-88903333D01*
X129436666Y-88950952D01*
X129484285Y-88998571D01*
X129531904Y-89093809D01*
X129531904Y-89331904D01*
X129484285Y-89427142D01*
X129436666Y-89474761D01*
X129341428Y-89522380D01*
X129103333Y-89522380D01*
X129008095Y-89474761D01*
X128960476Y-89427142D01*
X127627142Y-92697380D02*
X127293809Y-92221190D01*
X127055714Y-92697380D02*
X127055714Y-91697380D01*
X127436666Y-91697380D01*
X127531904Y-91745000D01*
X127579523Y-91792619D01*
X127627142Y-91887857D01*
X127627142Y-92030714D01*
X127579523Y-92125952D01*
X127531904Y-92173571D01*
X127436666Y-92221190D01*
X127055714Y-92221190D01*
X128579523Y-92697380D02*
X128008095Y-92697380D01*
X128293809Y-92697380D02*
X128293809Y-91697380D01*
X128198571Y-91840238D01*
X128103333Y-91935476D01*
X128008095Y-91983095D01*
X129198571Y-91697380D02*
X129293809Y-91697380D01*
X129389047Y-91745000D01*
X129436666Y-91792619D01*
X129484285Y-91887857D01*
X129531904Y-92078333D01*
X129531904Y-92316428D01*
X129484285Y-92506904D01*
X129436666Y-92602142D01*
X129389047Y-92649761D01*
X129293809Y-92697380D01*
X129198571Y-92697380D01*
X129103333Y-92649761D01*
X129055714Y-92602142D01*
X129008095Y-92506904D01*
X128960476Y-92316428D01*
X128960476Y-92078333D01*
X129008095Y-91887857D01*
X129055714Y-91792619D01*
X129103333Y-91745000D01*
X129198571Y-91697380D01*
X127627142Y-71742380D02*
X127293809Y-71266190D01*
X127055714Y-71742380D02*
X127055714Y-70742380D01*
X127436666Y-70742380D01*
X127531904Y-70790000D01*
X127579523Y-70837619D01*
X127627142Y-70932857D01*
X127627142Y-71075714D01*
X127579523Y-71170952D01*
X127531904Y-71218571D01*
X127436666Y-71266190D01*
X127055714Y-71266190D01*
X128579523Y-71742380D02*
X128008095Y-71742380D01*
X128293809Y-71742380D02*
X128293809Y-70742380D01*
X128198571Y-70885238D01*
X128103333Y-70980476D01*
X128008095Y-71028095D01*
X128912857Y-70742380D02*
X129579523Y-70742380D01*
X129150952Y-71742380D01*
X128912380Y-52483095D02*
X127912380Y-52483095D01*
X127912380Y-52245000D01*
X127960000Y-52102142D01*
X128055238Y-52006904D01*
X128150476Y-51959285D01*
X128340952Y-51911666D01*
X128483809Y-51911666D01*
X128674285Y-51959285D01*
X128769523Y-52006904D01*
X128864761Y-52102142D01*
X128912380Y-52245000D01*
X128912380Y-52483095D01*
X128007619Y-51530714D02*
X127960000Y-51483095D01*
X127912380Y-51387857D01*
X127912380Y-51149761D01*
X127960000Y-51054523D01*
X128007619Y-51006904D01*
X128102857Y-50959285D01*
X128198095Y-50959285D01*
X128340952Y-51006904D01*
X128912380Y-51578333D01*
X128912380Y-50959285D01*
X129352380Y-60261904D02*
X128352380Y-60261904D01*
X129352380Y-59690476D02*
X128780952Y-60119047D01*
X128352380Y-59690476D02*
X128923809Y-60261904D01*
X136187142Y-43076666D02*
X136234761Y-43124285D01*
X136282380Y-43267142D01*
X136282380Y-43362380D01*
X136234761Y-43505238D01*
X136139523Y-43600476D01*
X136044285Y-43648095D01*
X135853809Y-43695714D01*
X135710952Y-43695714D01*
X135520476Y-43648095D01*
X135425238Y-43600476D01*
X135330000Y-43505238D01*
X135282380Y-43362380D01*
X135282380Y-43267142D01*
X135330000Y-43124285D01*
X135377619Y-43076666D01*
X135615714Y-42219523D02*
X136282380Y-42219523D01*
X135234761Y-42457619D02*
X135949047Y-42695714D01*
X135949047Y-42076666D01*
X156507619Y-42005238D02*
X156460000Y-42100476D01*
X156364761Y-42195714D01*
X156221904Y-42338571D01*
X156174285Y-42433809D01*
X156174285Y-42529047D01*
X156412380Y-42481428D02*
X156364761Y-42576666D01*
X156269523Y-42671904D01*
X156079047Y-42719523D01*
X155745714Y-42719523D01*
X155555238Y-42671904D01*
X155460000Y-42576666D01*
X155412380Y-42481428D01*
X155412380Y-42290952D01*
X155460000Y-42195714D01*
X155555238Y-42100476D01*
X155745714Y-42052857D01*
X156079047Y-42052857D01*
X156269523Y-42100476D01*
X156364761Y-42195714D01*
X156412380Y-42290952D01*
X156412380Y-42481428D01*
X155412380Y-41719523D02*
X155412380Y-41100476D01*
X155793333Y-41433809D01*
X155793333Y-41290952D01*
X155840952Y-41195714D01*
X155888571Y-41148095D01*
X155983809Y-41100476D01*
X156221904Y-41100476D01*
X156317142Y-41148095D01*
X156364761Y-41195714D01*
X156412380Y-41290952D01*
X156412380Y-41576666D01*
X156364761Y-41671904D01*
X156317142Y-41719523D01*
X162857619Y-42005238D02*
X162810000Y-42100476D01*
X162714761Y-42195714D01*
X162571904Y-42338571D01*
X162524285Y-42433809D01*
X162524285Y-42529047D01*
X162762380Y-42481428D02*
X162714761Y-42576666D01*
X162619523Y-42671904D01*
X162429047Y-42719523D01*
X162095714Y-42719523D01*
X161905238Y-42671904D01*
X161810000Y-42576666D01*
X161762380Y-42481428D01*
X161762380Y-42290952D01*
X161810000Y-42195714D01*
X161905238Y-42100476D01*
X162095714Y-42052857D01*
X162429047Y-42052857D01*
X162619523Y-42100476D01*
X162714761Y-42195714D01*
X162762380Y-42290952D01*
X162762380Y-42481428D01*
X161857619Y-41671904D02*
X161810000Y-41624285D01*
X161762380Y-41529047D01*
X161762380Y-41290952D01*
X161810000Y-41195714D01*
X161857619Y-41148095D01*
X161952857Y-41100476D01*
X162048095Y-41100476D01*
X162190952Y-41148095D01*
X162762380Y-41719523D01*
X162762380Y-41100476D01*
X155567142Y-101417380D02*
X155233809Y-100941190D01*
X154995714Y-101417380D02*
X154995714Y-100417380D01*
X155376666Y-100417380D01*
X155471904Y-100465000D01*
X155519523Y-100512619D01*
X155567142Y-100607857D01*
X155567142Y-100750714D01*
X155519523Y-100845952D01*
X155471904Y-100893571D01*
X155376666Y-100941190D01*
X154995714Y-100941190D01*
X156519523Y-101417380D02*
X155948095Y-101417380D01*
X156233809Y-101417380D02*
X156233809Y-100417380D01*
X156138571Y-100560238D01*
X156043333Y-100655476D01*
X155948095Y-100703095D01*
X156852857Y-100417380D02*
X157471904Y-100417380D01*
X157138571Y-100798333D01*
X157281428Y-100798333D01*
X157376666Y-100845952D01*
X157424285Y-100893571D01*
X157471904Y-100988809D01*
X157471904Y-101226904D01*
X157424285Y-101322142D01*
X157376666Y-101369761D01*
X157281428Y-101417380D01*
X156995714Y-101417380D01*
X156900476Y-101369761D01*
X156852857Y-101322142D01*
X156043333Y-98242380D02*
X155710000Y-97766190D01*
X155471904Y-98242380D02*
X155471904Y-97242380D01*
X155852857Y-97242380D01*
X155948095Y-97290000D01*
X155995714Y-97337619D01*
X156043333Y-97432857D01*
X156043333Y-97575714D01*
X155995714Y-97670952D01*
X155948095Y-97718571D01*
X155852857Y-97766190D01*
X155471904Y-97766190D01*
X156376666Y-97242380D02*
X156995714Y-97242380D01*
X156662380Y-97623333D01*
X156805238Y-97623333D01*
X156900476Y-97670952D01*
X156948095Y-97718571D01*
X156995714Y-97813809D01*
X156995714Y-98051904D01*
X156948095Y-98147142D01*
X156900476Y-98194761D01*
X156805238Y-98242380D01*
X156519523Y-98242380D01*
X156424285Y-98194761D01*
X156376666Y-98147142D01*
X155567142Y-78092380D02*
X155233809Y-77616190D01*
X154995714Y-78092380D02*
X154995714Y-77092380D01*
X155376666Y-77092380D01*
X155471904Y-77140000D01*
X155519523Y-77187619D01*
X155567142Y-77282857D01*
X155567142Y-77425714D01*
X155519523Y-77520952D01*
X155471904Y-77568571D01*
X155376666Y-77616190D01*
X154995714Y-77616190D01*
X155948095Y-77187619D02*
X155995714Y-77140000D01*
X156090952Y-77092380D01*
X156329047Y-77092380D01*
X156424285Y-77140000D01*
X156471904Y-77187619D01*
X156519523Y-77282857D01*
X156519523Y-77378095D01*
X156471904Y-77520952D01*
X155900476Y-78092380D01*
X156519523Y-78092380D01*
X157090952Y-77520952D02*
X156995714Y-77473333D01*
X156948095Y-77425714D01*
X156900476Y-77330476D01*
X156900476Y-77282857D01*
X156948095Y-77187619D01*
X156995714Y-77140000D01*
X157090952Y-77092380D01*
X157281428Y-77092380D01*
X157376666Y-77140000D01*
X157424285Y-77187619D01*
X157471904Y-77282857D01*
X157471904Y-77330476D01*
X157424285Y-77425714D01*
X157376666Y-77473333D01*
X157281428Y-77520952D01*
X157090952Y-77520952D01*
X156995714Y-77568571D01*
X156948095Y-77616190D01*
X156900476Y-77711428D01*
X156900476Y-77901904D01*
X156948095Y-77997142D01*
X156995714Y-78044761D01*
X157090952Y-78092380D01*
X157281428Y-78092380D01*
X157376666Y-78044761D01*
X157424285Y-77997142D01*
X157471904Y-77901904D01*
X157471904Y-77711428D01*
X157424285Y-77616190D01*
X157376666Y-77568571D01*
X157281428Y-77520952D01*
X154297142Y-93797380D02*
X153963809Y-93321190D01*
X153725714Y-93797380D02*
X153725714Y-92797380D01*
X154106666Y-92797380D01*
X154201904Y-92845000D01*
X154249523Y-92892619D01*
X154297142Y-92987857D01*
X154297142Y-93130714D01*
X154249523Y-93225952D01*
X154201904Y-93273571D01*
X154106666Y-93321190D01*
X153725714Y-93321190D01*
X155249523Y-93797380D02*
X154678095Y-93797380D01*
X154963809Y-93797380D02*
X154963809Y-92797380D01*
X154868571Y-92940238D01*
X154773333Y-93035476D01*
X154678095Y-93083095D01*
X156201904Y-93797380D02*
X155630476Y-93797380D01*
X155916190Y-93797380D02*
X155916190Y-92797380D01*
X155820952Y-92940238D01*
X155725714Y-93035476D01*
X155630476Y-93083095D01*
X127627142Y-75552380D02*
X127293809Y-75076190D01*
X127055714Y-75552380D02*
X127055714Y-74552380D01*
X127436666Y-74552380D01*
X127531904Y-74600000D01*
X127579523Y-74647619D01*
X127627142Y-74742857D01*
X127627142Y-74885714D01*
X127579523Y-74980952D01*
X127531904Y-75028571D01*
X127436666Y-75076190D01*
X127055714Y-75076190D01*
X128008095Y-74647619D02*
X128055714Y-74600000D01*
X128150952Y-74552380D01*
X128389047Y-74552380D01*
X128484285Y-74600000D01*
X128531904Y-74647619D01*
X128579523Y-74742857D01*
X128579523Y-74838095D01*
X128531904Y-74980952D01*
X127960476Y-75552380D01*
X128579523Y-75552380D01*
X129531904Y-75552380D02*
X128960476Y-75552380D01*
X129246190Y-75552380D02*
X129246190Y-74552380D01*
X129150952Y-74695238D01*
X129055714Y-74790476D01*
X128960476Y-74838095D01*
X127627142Y-64587380D02*
X127293809Y-64111190D01*
X127055714Y-64587380D02*
X127055714Y-63587380D01*
X127436666Y-63587380D01*
X127531904Y-63635000D01*
X127579523Y-63682619D01*
X127627142Y-63777857D01*
X127627142Y-63920714D01*
X127579523Y-64015952D01*
X127531904Y-64063571D01*
X127436666Y-64111190D01*
X127055714Y-64111190D01*
X128008095Y-63682619D02*
X128055714Y-63635000D01*
X128150952Y-63587380D01*
X128389047Y-63587380D01*
X128484285Y-63635000D01*
X128531904Y-63682619D01*
X128579523Y-63777857D01*
X128579523Y-63873095D01*
X128531904Y-64015952D01*
X127960476Y-64587380D01*
X128579523Y-64587380D01*
X129436666Y-63587380D02*
X129246190Y-63587380D01*
X129150952Y-63635000D01*
X129103333Y-63682619D01*
X129008095Y-63825476D01*
X128960476Y-64015952D01*
X128960476Y-64396904D01*
X129008095Y-64492142D01*
X129055714Y-64539761D01*
X129150952Y-64587380D01*
X129341428Y-64587380D01*
X129436666Y-64539761D01*
X129484285Y-64492142D01*
X129531904Y-64396904D01*
X129531904Y-64158809D01*
X129484285Y-64063571D01*
X129436666Y-64015952D01*
X129341428Y-63968333D01*
X129150952Y-63968333D01*
X129055714Y-64015952D01*
X129008095Y-64063571D01*
X128960476Y-64158809D01*
X128103333Y-67932380D02*
X127770000Y-67456190D01*
X127531904Y-67932380D02*
X127531904Y-66932380D01*
X127912857Y-66932380D01*
X128008095Y-66980000D01*
X128055714Y-67027619D01*
X128103333Y-67122857D01*
X128103333Y-67265714D01*
X128055714Y-67360952D01*
X128008095Y-67408571D01*
X127912857Y-67456190D01*
X127531904Y-67456190D01*
X128960476Y-67265714D02*
X128960476Y-67932380D01*
X128722380Y-66884761D02*
X128484285Y-67599047D01*
X129103333Y-67599047D01*
X127917380Y-85097857D02*
X127441190Y-85431190D01*
X127917380Y-85669285D02*
X126917380Y-85669285D01*
X126917380Y-85288333D01*
X126965000Y-85193095D01*
X127012619Y-85145476D01*
X127107857Y-85097857D01*
X127250714Y-85097857D01*
X127345952Y-85145476D01*
X127393571Y-85193095D01*
X127441190Y-85288333D01*
X127441190Y-85669285D01*
X127012619Y-84716904D02*
X126965000Y-84669285D01*
X126917380Y-84574047D01*
X126917380Y-84335952D01*
X126965000Y-84240714D01*
X127012619Y-84193095D01*
X127107857Y-84145476D01*
X127203095Y-84145476D01*
X127345952Y-84193095D01*
X127917380Y-84764523D01*
X127917380Y-84145476D01*
X126917380Y-83240714D02*
X126917380Y-83716904D01*
X127393571Y-83764523D01*
X127345952Y-83716904D01*
X127298333Y-83621666D01*
X127298333Y-83383571D01*
X127345952Y-83288333D01*
X127393571Y-83240714D01*
X127488809Y-83193095D01*
X127726904Y-83193095D01*
X127822142Y-83240714D01*
X127869761Y-83288333D01*
X127917380Y-83383571D01*
X127917380Y-83621666D01*
X127869761Y-83716904D01*
X127822142Y-83764523D01*
X133012380Y-48593333D02*
X133726666Y-48593333D01*
X133869523Y-48640952D01*
X133964761Y-48736190D01*
X134012380Y-48879047D01*
X134012380Y-48974285D01*
X133440952Y-47974285D02*
X133393333Y-48069523D01*
X133345714Y-48117142D01*
X133250476Y-48164761D01*
X133202857Y-48164761D01*
X133107619Y-48117142D01*
X133060000Y-48069523D01*
X133012380Y-47974285D01*
X133012380Y-47783809D01*
X133060000Y-47688571D01*
X133107619Y-47640952D01*
X133202857Y-47593333D01*
X133250476Y-47593333D01*
X133345714Y-47640952D01*
X133393333Y-47688571D01*
X133440952Y-47783809D01*
X133440952Y-47974285D01*
X133488571Y-48069523D01*
X133536190Y-48117142D01*
X133631428Y-48164761D01*
X133821904Y-48164761D01*
X133917142Y-48117142D01*
X133964761Y-48069523D01*
X134012380Y-47974285D01*
X134012380Y-47783809D01*
X133964761Y-47688571D01*
X133917142Y-47640952D01*
X133821904Y-47593333D01*
X133631428Y-47593333D01*
X133536190Y-47640952D01*
X133488571Y-47688571D01*
X133440952Y-47783809D01*
X141478095Y-96607380D02*
X141478095Y-97416904D01*
X141525714Y-97512142D01*
X141573333Y-97559761D01*
X141668571Y-97607380D01*
X141859047Y-97607380D01*
X141954285Y-97559761D01*
X142001904Y-97512142D01*
X142049523Y-97416904D01*
X142049523Y-96607380D01*
X143049523Y-97607380D02*
X142478095Y-97607380D01*
X142763809Y-97607380D02*
X142763809Y-96607380D01*
X142668571Y-96750238D01*
X142573333Y-96845476D01*
X142478095Y-96893095D01*
X155567142Y-81902380D02*
X155233809Y-81426190D01*
X154995714Y-81902380D02*
X154995714Y-80902380D01*
X155376666Y-80902380D01*
X155471904Y-80950000D01*
X155519523Y-80997619D01*
X155567142Y-81092857D01*
X155567142Y-81235714D01*
X155519523Y-81330952D01*
X155471904Y-81378571D01*
X155376666Y-81426190D01*
X154995714Y-81426190D01*
X155948095Y-80997619D02*
X155995714Y-80950000D01*
X156090952Y-80902380D01*
X156329047Y-80902380D01*
X156424285Y-80950000D01*
X156471904Y-80997619D01*
X156519523Y-81092857D01*
X156519523Y-81188095D01*
X156471904Y-81330952D01*
X155900476Y-81902380D01*
X156519523Y-81902380D01*
X156852857Y-80902380D02*
X157519523Y-80902380D01*
X157090952Y-81902380D01*
X156202142Y-65857380D02*
X155868809Y-65381190D01*
X155630714Y-65857380D02*
X155630714Y-64857380D01*
X156011666Y-64857380D01*
X156106904Y-64905000D01*
X156154523Y-64952619D01*
X156202142Y-65047857D01*
X156202142Y-65190714D01*
X156154523Y-65285952D01*
X156106904Y-65333571D01*
X156011666Y-65381190D01*
X155630714Y-65381190D01*
X156583095Y-64952619D02*
X156630714Y-64905000D01*
X156725952Y-64857380D01*
X156964047Y-64857380D01*
X157059285Y-64905000D01*
X157106904Y-64952619D01*
X157154523Y-65047857D01*
X157154523Y-65143095D01*
X157106904Y-65285952D01*
X156535476Y-65857380D01*
X157154523Y-65857380D01*
X157535476Y-64952619D02*
X157583095Y-64905000D01*
X157678333Y-64857380D01*
X157916428Y-64857380D01*
X158011666Y-64905000D01*
X158059285Y-64952619D01*
X158106904Y-65047857D01*
X158106904Y-65143095D01*
X158059285Y-65285952D01*
X157487857Y-65857380D01*
X158106904Y-65857380D01*
X155567142Y-61582380D02*
X155233809Y-61106190D01*
X154995714Y-61582380D02*
X154995714Y-60582380D01*
X155376666Y-60582380D01*
X155471904Y-60630000D01*
X155519523Y-60677619D01*
X155567142Y-60772857D01*
X155567142Y-60915714D01*
X155519523Y-61010952D01*
X155471904Y-61058571D01*
X155376666Y-61106190D01*
X154995714Y-61106190D01*
X155948095Y-60677619D02*
X155995714Y-60630000D01*
X156090952Y-60582380D01*
X156329047Y-60582380D01*
X156424285Y-60630000D01*
X156471904Y-60677619D01*
X156519523Y-60772857D01*
X156519523Y-60868095D01*
X156471904Y-61010952D01*
X155900476Y-61582380D01*
X156519523Y-61582380D01*
X157138571Y-60582380D02*
X157233809Y-60582380D01*
X157329047Y-60630000D01*
X157376666Y-60677619D01*
X157424285Y-60772857D01*
X157471904Y-60963333D01*
X157471904Y-61201428D01*
X157424285Y-61391904D01*
X157376666Y-61487142D01*
X157329047Y-61534761D01*
X157233809Y-61582380D01*
X157138571Y-61582380D01*
X157043333Y-61534761D01*
X156995714Y-61487142D01*
X156948095Y-61391904D01*
X156900476Y-61201428D01*
X156900476Y-60963333D01*
X156948095Y-60772857D01*
X156995714Y-60677619D01*
X157043333Y-60630000D01*
X157138571Y-60582380D01*
X156202142Y-58237380D02*
X155868809Y-57761190D01*
X155630714Y-58237380D02*
X155630714Y-57237380D01*
X156011666Y-57237380D01*
X156106904Y-57285000D01*
X156154523Y-57332619D01*
X156202142Y-57427857D01*
X156202142Y-57570714D01*
X156154523Y-57665952D01*
X156106904Y-57713571D01*
X156011666Y-57761190D01*
X155630714Y-57761190D01*
X157154523Y-58237380D02*
X156583095Y-58237380D01*
X156868809Y-58237380D02*
X156868809Y-57237380D01*
X156773571Y-57380238D01*
X156678333Y-57475476D01*
X156583095Y-57523095D01*
X157630714Y-58237380D02*
X157821190Y-58237380D01*
X157916428Y-58189761D01*
X157964047Y-58142142D01*
X158059285Y-57999285D01*
X158106904Y-57808809D01*
X158106904Y-57427857D01*
X158059285Y-57332619D01*
X158011666Y-57285000D01*
X157916428Y-57237380D01*
X157725952Y-57237380D01*
X157630714Y-57285000D01*
X157583095Y-57332619D01*
X157535476Y-57427857D01*
X157535476Y-57665952D01*
X157583095Y-57761190D01*
X157630714Y-57808809D01*
X157725952Y-57856428D01*
X157916428Y-57856428D01*
X158011666Y-57808809D01*
X158059285Y-57761190D01*
X158106904Y-57665952D01*
X148582142Y-55062380D02*
X148248809Y-54586190D01*
X148010714Y-55062380D02*
X148010714Y-54062380D01*
X148391666Y-54062380D01*
X148486904Y-54110000D01*
X148534523Y-54157619D01*
X148582142Y-54252857D01*
X148582142Y-54395714D01*
X148534523Y-54490952D01*
X148486904Y-54538571D01*
X148391666Y-54586190D01*
X148010714Y-54586190D01*
X149534523Y-55062380D02*
X148963095Y-55062380D01*
X149248809Y-55062380D02*
X149248809Y-54062380D01*
X149153571Y-54205238D01*
X149058333Y-54300476D01*
X148963095Y-54348095D01*
X150105952Y-54490952D02*
X150010714Y-54443333D01*
X149963095Y-54395714D01*
X149915476Y-54300476D01*
X149915476Y-54252857D01*
X149963095Y-54157619D01*
X150010714Y-54110000D01*
X150105952Y-54062380D01*
X150296428Y-54062380D01*
X150391666Y-54110000D01*
X150439285Y-54157619D01*
X150486904Y-54252857D01*
X150486904Y-54300476D01*
X150439285Y-54395714D01*
X150391666Y-54443333D01*
X150296428Y-54490952D01*
X150105952Y-54490952D01*
X150010714Y-54538571D01*
X149963095Y-54586190D01*
X149915476Y-54681428D01*
X149915476Y-54871904D01*
X149963095Y-54967142D01*
X150010714Y-55014761D01*
X150105952Y-55062380D01*
X150296428Y-55062380D01*
X150391666Y-55014761D01*
X150439285Y-54967142D01*
X150486904Y-54871904D01*
X150486904Y-54681428D01*
X150439285Y-54586190D01*
X150391666Y-54538571D01*
X150296428Y-54490952D01*
X156837142Y-89987380D02*
X156503809Y-89511190D01*
X156265714Y-89987380D02*
X156265714Y-88987380D01*
X156646666Y-88987380D01*
X156741904Y-89035000D01*
X156789523Y-89082619D01*
X156837142Y-89177857D01*
X156837142Y-89320714D01*
X156789523Y-89415952D01*
X156741904Y-89463571D01*
X156646666Y-89511190D01*
X156265714Y-89511190D01*
X157789523Y-89987380D02*
X157218095Y-89987380D01*
X157503809Y-89987380D02*
X157503809Y-88987380D01*
X157408571Y-89130238D01*
X157313333Y-89225476D01*
X157218095Y-89273095D01*
X158170476Y-89082619D02*
X158218095Y-89035000D01*
X158313333Y-88987380D01*
X158551428Y-88987380D01*
X158646666Y-89035000D01*
X158694285Y-89082619D01*
X158741904Y-89177857D01*
X158741904Y-89273095D01*
X158694285Y-89415952D01*
X158122857Y-89987380D01*
X158741904Y-89987380D01*
X130337619Y-103600238D02*
X130290000Y-103695476D01*
X130194761Y-103790714D01*
X130051904Y-103933571D01*
X130004285Y-104028809D01*
X130004285Y-104124047D01*
X130242380Y-104076428D02*
X130194761Y-104171666D01*
X130099523Y-104266904D01*
X129909047Y-104314523D01*
X129575714Y-104314523D01*
X129385238Y-104266904D01*
X129290000Y-104171666D01*
X129242380Y-104076428D01*
X129242380Y-103885952D01*
X129290000Y-103790714D01*
X129385238Y-103695476D01*
X129575714Y-103647857D01*
X129909047Y-103647857D01*
X130099523Y-103695476D01*
X130194761Y-103790714D01*
X130242380Y-103885952D01*
X130242380Y-104076428D01*
X130242380Y-102695476D02*
X130242380Y-103266904D01*
X130242380Y-102981190D02*
X129242380Y-102981190D01*
X129385238Y-103076428D01*
X129480476Y-103171666D01*
X129528095Y-103266904D01*
X125181904Y-40922380D02*
X125181904Y-39922380D01*
X125420000Y-39922380D01*
X125562857Y-39970000D01*
X125658095Y-40065238D01*
X125705714Y-40160476D01*
X125753333Y-40350952D01*
X125753333Y-40493809D01*
X125705714Y-40684285D01*
X125658095Y-40779523D01*
X125562857Y-40874761D01*
X125420000Y-40922380D01*
X125181904Y-40922380D01*
X126705714Y-40922380D02*
X126134285Y-40922380D01*
X126420000Y-40922380D02*
X126420000Y-39922380D01*
X126324761Y-40065238D01*
X126229523Y-40160476D01*
X126134285Y-40208095D01*
X130738095Y-40552380D02*
X130738095Y-39552380D01*
X131309523Y-40552380D02*
X130880952Y-39980952D01*
X131309523Y-39552380D02*
X130738095Y-40123809D01*
X137662142Y-77636666D02*
X137709761Y-77684285D01*
X137757380Y-77827142D01*
X137757380Y-77922380D01*
X137709761Y-78065238D01*
X137614523Y-78160476D01*
X137519285Y-78208095D01*
X137328809Y-78255714D01*
X137185952Y-78255714D01*
X136995476Y-78208095D01*
X136900238Y-78160476D01*
X136805000Y-78065238D01*
X136757380Y-77922380D01*
X136757380Y-77827142D01*
X136805000Y-77684285D01*
X136852619Y-77636666D01*
X137185952Y-77065238D02*
X137138333Y-77160476D01*
X137090714Y-77208095D01*
X136995476Y-77255714D01*
X136947857Y-77255714D01*
X136852619Y-77208095D01*
X136805000Y-77160476D01*
X136757380Y-77065238D01*
X136757380Y-76874761D01*
X136805000Y-76779523D01*
X136852619Y-76731904D01*
X136947857Y-76684285D01*
X136995476Y-76684285D01*
X137090714Y-76731904D01*
X137138333Y-76779523D01*
X137185952Y-76874761D01*
X137185952Y-77065238D01*
X137233571Y-77160476D01*
X137281190Y-77208095D01*
X137376428Y-77255714D01*
X137566904Y-77255714D01*
X137662142Y-77208095D01*
X137709761Y-77160476D01*
X137757380Y-77065238D01*
X137757380Y-76874761D01*
X137709761Y-76779523D01*
X137662142Y-76731904D01*
X137566904Y-76684285D01*
X137376428Y-76684285D01*
X137281190Y-76731904D01*
X137233571Y-76779523D01*
X137185952Y-76874761D01*
X132548333Y-88767142D02*
X132500714Y-88814761D01*
X132357857Y-88862380D01*
X132262619Y-88862380D01*
X132119761Y-88814761D01*
X132024523Y-88719523D01*
X131976904Y-88624285D01*
X131929285Y-88433809D01*
X131929285Y-88290952D01*
X131976904Y-88100476D01*
X132024523Y-88005238D01*
X132119761Y-87910000D01*
X132262619Y-87862380D01*
X132357857Y-87862380D01*
X132500714Y-87910000D01*
X132548333Y-87957619D01*
X132881666Y-87862380D02*
X133548333Y-87862380D01*
X133119761Y-88862380D01*
X151598333Y-77192142D02*
X151550714Y-77239761D01*
X151407857Y-77287380D01*
X151312619Y-77287380D01*
X151169761Y-77239761D01*
X151074523Y-77144523D01*
X151026904Y-77049285D01*
X150979285Y-76858809D01*
X150979285Y-76715952D01*
X151026904Y-76525476D01*
X151074523Y-76430238D01*
X151169761Y-76335000D01*
X151312619Y-76287380D01*
X151407857Y-76287380D01*
X151550714Y-76335000D01*
X151598333Y-76382619D01*
X152455476Y-76287380D02*
X152265000Y-76287380D01*
X152169761Y-76335000D01*
X152122142Y-76382619D01*
X152026904Y-76525476D01*
X151979285Y-76715952D01*
X151979285Y-77096904D01*
X152026904Y-77192142D01*
X152074523Y-77239761D01*
X152169761Y-77287380D01*
X152360238Y-77287380D01*
X152455476Y-77239761D01*
X152503095Y-77192142D01*
X152550714Y-77096904D01*
X152550714Y-76858809D01*
X152503095Y-76763571D01*
X152455476Y-76715952D01*
X152360238Y-76668333D01*
X152169761Y-76668333D01*
X152074523Y-76715952D01*
X152026904Y-76763571D01*
X151979285Y-76858809D01*
X157313333Y-87987142D02*
X157265714Y-88034761D01*
X157122857Y-88082380D01*
X157027619Y-88082380D01*
X156884761Y-88034761D01*
X156789523Y-87939523D01*
X156741904Y-87844285D01*
X156694285Y-87653809D01*
X156694285Y-87510952D01*
X156741904Y-87320476D01*
X156789523Y-87225238D01*
X156884761Y-87130000D01*
X157027619Y-87082380D01*
X157122857Y-87082380D01*
X157265714Y-87130000D01*
X157313333Y-87177619D01*
X158218095Y-87082380D02*
X157741904Y-87082380D01*
X157694285Y-87558571D01*
X157741904Y-87510952D01*
X157837142Y-87463333D01*
X158075238Y-87463333D01*
X158170476Y-87510952D01*
X158218095Y-87558571D01*
X158265714Y-87653809D01*
X158265714Y-87891904D01*
X158218095Y-87987142D01*
X158170476Y-88034761D01*
X158075238Y-88082380D01*
X157837142Y-88082380D01*
X157741904Y-88034761D01*
X157694285Y-87987142D01*
X140168333Y-36552142D02*
X140120714Y-36599761D01*
X139977857Y-36647380D01*
X139882619Y-36647380D01*
X139739761Y-36599761D01*
X139644523Y-36504523D01*
X139596904Y-36409285D01*
X139549285Y-36218809D01*
X139549285Y-36075952D01*
X139596904Y-35885476D01*
X139644523Y-35790238D01*
X139739761Y-35695000D01*
X139882619Y-35647380D01*
X139977857Y-35647380D01*
X140120714Y-35695000D01*
X140168333Y-35742619D01*
X140501666Y-35647380D02*
X141120714Y-35647380D01*
X140787380Y-36028333D01*
X140930238Y-36028333D01*
X141025476Y-36075952D01*
X141073095Y-36123571D01*
X141120714Y-36218809D01*
X141120714Y-36456904D01*
X141073095Y-36552142D01*
X141025476Y-36599761D01*
X140930238Y-36647380D01*
X140644523Y-36647380D01*
X140549285Y-36599761D01*
X140501666Y-36552142D01*
X156678333Y-73382142D02*
X156630714Y-73429761D01*
X156487857Y-73477380D01*
X156392619Y-73477380D01*
X156249761Y-73429761D01*
X156154523Y-73334523D01*
X156106904Y-73239285D01*
X156059285Y-73048809D01*
X156059285Y-72905952D01*
X156106904Y-72715476D01*
X156154523Y-72620238D01*
X156249761Y-72525000D01*
X156392619Y-72477380D01*
X156487857Y-72477380D01*
X156630714Y-72525000D01*
X156678333Y-72572619D01*
X157059285Y-72572619D02*
X157106904Y-72525000D01*
X157202142Y-72477380D01*
X157440238Y-72477380D01*
X157535476Y-72525000D01*
X157583095Y-72572619D01*
X157630714Y-72667857D01*
X157630714Y-72763095D01*
X157583095Y-72905952D01*
X157011666Y-73477380D01*
X157630714Y-73477380D01*
X130663333Y-82272142D02*
X130615714Y-82319761D01*
X130472857Y-82367380D01*
X130377619Y-82367380D01*
X130234761Y-82319761D01*
X130139523Y-82224523D01*
X130091904Y-82129285D01*
X130044285Y-81938809D01*
X130044285Y-81795952D01*
X130091904Y-81605476D01*
X130139523Y-81510238D01*
X130234761Y-81415000D01*
X130377619Y-81367380D01*
X130472857Y-81367380D01*
X130615714Y-81415000D01*
X130663333Y-81462619D01*
X131615714Y-82367380D02*
X131044285Y-82367380D01*
X131330000Y-82367380D02*
X131330000Y-81367380D01*
X131234761Y-81510238D01*
X131139523Y-81605476D01*
X131044285Y-81653095D01*
M02*
