G04 #@! TF.GenerationSoftware,KiCad,Pcbnew,5.1.5-52549c5~84~ubuntu18.04.1*
G04 #@! TF.CreationDate,2020-03-18T19:12:43-04:00*
G04 #@! TF.ProjectId,OBG-SVF-mainpcb,4f42472d-5356-4462-9d6d-61696e706362,rev?*
G04 #@! TF.SameCoordinates,Original*
G04 #@! TF.FileFunction,Copper,L1,Top*
G04 #@! TF.FilePolarity,Positive*
%FSLAX46Y46*%
G04 Gerber Fmt 4.6, Leading zero omitted, Abs format (unit mm)*
G04 Created by KiCad (PCBNEW 5.1.5-52549c5~84~ubuntu18.04.1) date 2020-03-18 19:12:43*
%MOMM*%
%LPD*%
G04 APERTURE LIST*
%ADD10O,1.727200X1.727200*%
%ADD11R,1.727200X1.727200*%
%ADD12O,1.600000X1.600000*%
%ADD13R,1.600000X1.600000*%
%ADD14C,1.440000*%
%ADD15C,1.600000*%
%ADD16R,2.200000X2.200000*%
%ADD17O,2.200000X2.200000*%
%ADD18R,1.500000X1.050000*%
%ADD19O,1.500000X1.050000*%
%ADD20R,1.700000X1.700000*%
%ADD21O,1.700000X1.700000*%
%ADD22C,0.250000*%
%ADD23C,0.254000*%
G04 APERTURE END LIST*
D10*
X124340000Y-48240000D03*
X121800000Y-48240000D03*
X124340000Y-50780000D03*
X121800000Y-50780000D03*
X124340000Y-53320000D03*
X121800000Y-53320000D03*
X124340000Y-55860000D03*
X121800000Y-55860000D03*
X124340000Y-58400000D03*
D11*
X121800000Y-58400000D03*
D12*
X146050000Y-57150000D03*
X138430000Y-74930000D03*
X146050000Y-59690000D03*
X138430000Y-72390000D03*
X146050000Y-62230000D03*
X138430000Y-69850000D03*
X146050000Y-64770000D03*
X138430000Y-67310000D03*
X146050000Y-67310000D03*
X138430000Y-64770000D03*
X146050000Y-69850000D03*
X138430000Y-62230000D03*
X146050000Y-72390000D03*
X138430000Y-59690000D03*
X146050000Y-74930000D03*
D13*
X138430000Y-57150000D03*
D14*
X130810000Y-99060000D03*
X128270000Y-99060000D03*
X125730000Y-99060000D03*
D12*
X128270000Y-105410000D03*
D15*
X120650000Y-105410000D03*
D12*
X132080000Y-91440000D03*
D15*
X124460000Y-91440000D03*
D12*
X132080000Y-94615000D03*
D15*
X124460000Y-94615000D03*
D12*
X132080000Y-73660000D03*
D15*
X124460000Y-73660000D03*
D16*
X131000000Y-60000000D03*
D17*
X131000000Y-49840000D03*
D15*
X132080000Y-43910000D03*
D13*
X132080000Y-41910000D03*
D18*
X152400000Y-40640000D03*
D19*
X152400000Y-43180000D03*
X152400000Y-41910000D03*
D18*
X158750000Y-40640000D03*
D19*
X158750000Y-43180000D03*
X158750000Y-41910000D03*
D12*
X152400000Y-102870000D03*
D15*
X160020000Y-102870000D03*
D12*
X160020000Y-99060000D03*
D15*
X152400000Y-99060000D03*
D12*
X160020000Y-80010000D03*
D15*
X152400000Y-80010000D03*
D12*
X160020000Y-95250000D03*
D15*
X152400000Y-95250000D03*
D12*
X132080000Y-77470000D03*
D15*
X124460000Y-77470000D03*
D12*
X124460000Y-66040000D03*
D15*
X132080000Y-66040000D03*
D12*
X132080000Y-69850000D03*
D15*
X124460000Y-69850000D03*
D12*
X125095000Y-88265000D03*
D15*
X125095000Y-80645000D03*
D20*
X135890000Y-50800000D03*
D21*
X135890000Y-48260000D03*
X138430000Y-50800000D03*
X138430000Y-48260000D03*
X140970000Y-50800000D03*
X140970000Y-48260000D03*
X143510000Y-50800000D03*
X143510000Y-48260000D03*
X146050000Y-50800000D03*
X146050000Y-48260000D03*
X148590000Y-50800000D03*
X148590000Y-48260000D03*
D12*
X138430000Y-95250000D03*
X146050000Y-80010000D03*
X138430000Y-92710000D03*
X146050000Y-82550000D03*
X138430000Y-90170000D03*
X146050000Y-85090000D03*
X138430000Y-87630000D03*
X146050000Y-87630000D03*
X138430000Y-85090000D03*
X146050000Y-90170000D03*
X138430000Y-82550000D03*
X146050000Y-92710000D03*
X138430000Y-80010000D03*
D13*
X146050000Y-95250000D03*
D12*
X160020000Y-83820000D03*
D15*
X152400000Y-83820000D03*
D12*
X152400000Y-67310000D03*
D15*
X160020000Y-67310000D03*
D12*
X160020000Y-63500000D03*
D15*
X152400000Y-63500000D03*
D12*
X152400000Y-59690000D03*
D15*
X160020000Y-59690000D03*
D12*
X152400000Y-55880000D03*
D15*
X160020000Y-55880000D03*
D12*
X152400000Y-91440000D03*
D15*
X160020000Y-91440000D03*
D18*
X133350000Y-105410000D03*
D19*
X133350000Y-102870000D03*
X133350000Y-104140000D03*
D16*
X131000000Y-38000000D03*
D17*
X120840000Y-38000000D03*
D15*
X135255000Y-79335000D03*
X135255000Y-76835000D03*
X129580000Y-86360000D03*
X132080000Y-86360000D03*
X152440000Y-74930000D03*
X154940000Y-74930000D03*
X152440000Y-87630000D03*
X154940000Y-87630000D03*
X137890000Y-38100000D03*
D13*
X135890000Y-38100000D03*
D15*
X152440000Y-71120000D03*
X154940000Y-71120000D03*
X129580000Y-83820000D03*
X132080000Y-83820000D03*
D22*
X139700000Y-83820000D02*
X138430000Y-85090000D01*
X139700000Y-68580000D02*
X139700000Y-83820000D01*
X138430000Y-67310000D02*
X139700000Y-68580000D01*
X137160000Y-83820000D02*
X138430000Y-85090000D01*
X132080000Y-83820000D02*
X137160000Y-83820000D01*
X148630000Y-67310000D02*
X152440000Y-71120000D01*
X146050000Y-67310000D02*
X148630000Y-67310000D01*
X153239999Y-71919999D02*
X152440000Y-71120000D01*
X161145001Y-79469999D02*
X153595001Y-71919999D01*
X161145001Y-80550001D02*
X161145001Y-79469999D01*
X156605002Y-85090000D02*
X161145001Y-80550001D01*
X153595001Y-71919999D02*
X153239999Y-71919999D01*
X146050000Y-85090000D02*
X156605002Y-85090000D01*
X135890000Y-50800000D02*
X138430000Y-48260000D01*
X132080000Y-93980000D02*
X133350000Y-92710000D01*
X133350000Y-92710000D02*
X138430000Y-92710000D01*
X127635000Y-94615000D02*
X124460000Y-91440000D01*
X132080000Y-94615000D02*
X127635000Y-94615000D01*
X123660001Y-90640001D02*
X124460000Y-91440000D01*
X123660001Y-80414997D02*
X123660001Y-90640001D01*
X126365000Y-77709998D02*
X123660001Y-80414997D01*
X124460000Y-69850000D02*
X126365000Y-71755000D01*
X126365000Y-71755000D02*
X126365000Y-77709998D01*
X126365000Y-67945000D02*
X124460000Y-69850000D01*
X126365000Y-61425000D02*
X126365000Y-67945000D01*
X135890000Y-50800000D02*
X135890000Y-51900000D01*
X135890000Y-51900000D02*
X126365000Y-61425000D01*
X133110002Y-95250000D02*
X138430000Y-95250000D01*
X132620001Y-95740001D02*
X133110002Y-95250000D01*
X131539999Y-95740001D02*
X132620001Y-95740001D01*
X131049998Y-95250000D02*
X131539999Y-95740001D01*
X124460000Y-93980000D02*
X125730000Y-95250000D01*
X125730000Y-95250000D02*
X131049998Y-95250000D01*
X123209992Y-93364992D02*
X124460000Y-94615000D01*
X123209992Y-76041378D02*
X123209992Y-93364992D01*
X124460000Y-74791370D02*
X123209992Y-76041378D01*
X124460000Y-73660000D02*
X124460000Y-74791370D01*
X133985000Y-50165000D02*
X135890000Y-48260000D01*
X124460000Y-73660000D02*
X124460000Y-71515002D01*
X122555000Y-62792065D02*
X133985000Y-51362065D01*
X122555000Y-69610002D02*
X122555000Y-62792065D01*
X124460000Y-71515002D02*
X122555000Y-69610002D01*
X133985000Y-51362065D02*
X133985000Y-50165000D01*
X157335001Y-96375001D02*
X160020000Y-99060000D01*
X149715001Y-96375001D02*
X157335001Y-96375001D01*
X146050000Y-92710000D02*
X149715001Y-96375001D01*
X148590000Y-48260000D02*
X146050000Y-48260000D01*
X161595011Y-97484989D02*
X160020000Y-99060000D01*
X161595011Y-79283599D02*
X161595011Y-97484989D01*
X148590000Y-48260000D02*
X150495000Y-48260000D01*
X154940000Y-68580000D02*
X158894999Y-72534999D01*
X154940000Y-52705000D02*
X154940000Y-68580000D01*
X158894999Y-72534999D02*
X158894999Y-76583587D01*
X150495000Y-48260000D02*
X154940000Y-52705000D01*
X158894999Y-76583587D02*
X161595011Y-79283599D01*
X142334999Y-49435001D02*
X143510000Y-48260000D01*
X139794999Y-49435001D02*
X142334999Y-49435001D01*
X138430000Y-50800000D02*
X139794999Y-49435001D01*
X138430000Y-52002081D02*
X135890000Y-54542081D01*
X138430000Y-50800000D02*
X138430000Y-52002081D01*
X135890000Y-62230000D02*
X132080000Y-66040000D01*
X135890000Y-54542081D02*
X135890000Y-62230000D01*
X133754997Y-80809999D02*
X137630001Y-80809999D01*
X130175000Y-77230002D02*
X133754997Y-80809999D01*
X137630001Y-80809999D02*
X138430000Y-80010000D01*
X132080000Y-66040000D02*
X132080000Y-67171370D01*
X130175000Y-69076370D02*
X130175000Y-77230002D01*
X132080000Y-67171370D02*
X130175000Y-69076370D01*
X158894999Y-62374999D02*
X160020000Y-63500000D01*
X158894999Y-55783591D02*
X158894999Y-62374999D01*
X143510000Y-48260000D02*
X145415000Y-46355000D01*
X149466408Y-46355000D02*
X158894999Y-55783591D01*
X145415000Y-46355000D02*
X149466408Y-46355000D01*
X146050000Y-80010000D02*
X152400000Y-80010000D01*
X148590000Y-50800000D02*
X142240000Y-57150000D01*
X142240000Y-76200000D02*
X146050000Y-80010000D01*
X142240000Y-57150000D02*
X142240000Y-76200000D01*
X144924999Y-81135001D02*
X146050000Y-80010000D01*
X138680003Y-89044999D02*
X144924999Y-82800003D01*
X134475001Y-89044999D02*
X138680003Y-89044999D01*
X144924999Y-82800003D02*
X144924999Y-81135001D01*
X132080000Y-91440000D02*
X134475001Y-89044999D01*
X152400000Y-41910000D02*
X158750000Y-41910000D01*
X128270000Y-105410000D02*
X133350000Y-105410000D01*
X159750000Y-41910000D02*
X162045020Y-44205020D01*
X162045020Y-44205020D02*
X162045020Y-102509982D01*
X158750000Y-41910000D02*
X159750000Y-41910000D01*
X134350000Y-105410000D02*
X133350000Y-105410000D01*
X157875002Y-106680000D02*
X135620000Y-106680000D01*
X162045020Y-102509982D02*
X157875002Y-106680000D01*
X135620000Y-106680000D02*
X134350000Y-105410000D01*
X128270000Y-100078233D02*
X128270000Y-99060000D01*
X131911777Y-103720010D02*
X128270000Y-100078233D01*
X132930010Y-103720010D02*
X131911777Y-103720010D01*
X133350000Y-104140000D02*
X132930010Y-103720010D01*
X161145001Y-58564999D02*
X160020000Y-59690000D01*
X159750000Y-43180000D02*
X161145001Y-44575001D01*
X161145001Y-44575001D02*
X161145001Y-58564999D01*
X158750000Y-43180000D02*
X159750000Y-43180000D01*
X152400000Y-48260000D02*
X160020000Y-55880000D01*
X152400000Y-43180000D02*
X152400000Y-48260000D01*
X150910000Y-99060000D02*
X152400000Y-99060000D01*
X147100000Y-95250000D02*
X150910000Y-99060000D01*
X146050000Y-95250000D02*
X147100000Y-95250000D01*
X145974999Y-96375001D02*
X146050000Y-96300000D01*
X146050000Y-96300000D02*
X146050000Y-95250000D01*
X144335001Y-98014999D02*
X146050000Y-96300000D01*
X126775001Y-98014999D02*
X144335001Y-98014999D01*
X125730000Y-99060000D02*
X126775001Y-98014999D01*
X139065000Y-55245000D02*
X143510000Y-50800000D01*
X137654999Y-55245000D02*
X139065000Y-55245000D01*
X136340009Y-56559990D02*
X137654999Y-55245000D01*
X132080000Y-69850000D02*
X136340009Y-65589991D01*
X136340009Y-65589991D02*
X136340009Y-56559990D01*
X148590000Y-99060000D02*
X152400000Y-102870000D01*
X130810000Y-99060000D02*
X148590000Y-99060000D01*
X151130000Y-90170000D02*
X152400000Y-91440000D01*
X146050000Y-90170000D02*
X151130000Y-90170000D01*
X152400000Y-91440000D02*
X152400000Y-95250000D01*
X132080000Y-73660000D02*
X132080000Y-77470000D01*
X137304999Y-63355001D02*
X138430000Y-62230000D01*
X137304999Y-68435001D02*
X137304999Y-63355001D01*
X132080000Y-73660000D02*
X137304999Y-68435001D01*
X149860000Y-57150000D02*
X152400000Y-59690000D01*
X146050000Y-57150000D02*
X149860000Y-57150000D01*
X151130000Y-62230000D02*
X152400000Y-63500000D01*
X146050000Y-62230000D02*
X151130000Y-62230000D01*
X152400000Y-63500000D02*
X152400000Y-67310000D01*
X126365000Y-81915000D02*
X137795000Y-81915000D01*
X137795000Y-81915000D02*
X138430000Y-82550000D01*
X125119980Y-81280000D02*
X125424990Y-80974990D01*
X125424990Y-80974990D02*
X126365000Y-81915000D01*
X151130000Y-82550000D02*
X152400000Y-83820000D01*
X146050000Y-82550000D02*
X151130000Y-82550000D01*
X156210000Y-83820000D02*
X160020000Y-80010000D01*
X152400000Y-83820000D02*
X156210000Y-83820000D01*
D23*
G36*
X166955000Y-109805000D02*
G01*
X117525000Y-109805000D01*
X117525000Y-105268665D01*
X119215000Y-105268665D01*
X119215000Y-105551335D01*
X119270147Y-105828574D01*
X119378320Y-106089727D01*
X119535363Y-106324759D01*
X119735241Y-106524637D01*
X119970273Y-106681680D01*
X120231426Y-106789853D01*
X120508665Y-106845000D01*
X120791335Y-106845000D01*
X121068574Y-106789853D01*
X121329727Y-106681680D01*
X121564759Y-106524637D01*
X121764637Y-106324759D01*
X121921680Y-106089727D01*
X122029853Y-105828574D01*
X122085000Y-105551335D01*
X122085000Y-105268665D01*
X122029853Y-104991426D01*
X121921680Y-104730273D01*
X121764637Y-104495241D01*
X121564759Y-104295363D01*
X121329727Y-104138320D01*
X121068574Y-104030147D01*
X120791335Y-103975000D01*
X120508665Y-103975000D01*
X120231426Y-104030147D01*
X119970273Y-104138320D01*
X119735241Y-104295363D01*
X119535363Y-104495241D01*
X119378320Y-104730273D01*
X119270147Y-104991426D01*
X119215000Y-105268665D01*
X117525000Y-105268665D01*
X117525000Y-57536400D01*
X120298328Y-57536400D01*
X120298328Y-59263600D01*
X120310588Y-59388082D01*
X120346898Y-59507780D01*
X120405863Y-59618094D01*
X120485215Y-59714785D01*
X120581906Y-59794137D01*
X120692220Y-59853102D01*
X120811918Y-59889412D01*
X120936400Y-59901672D01*
X122663600Y-59901672D01*
X122788082Y-59889412D01*
X122907780Y-59853102D01*
X123018094Y-59794137D01*
X123114785Y-59714785D01*
X123194137Y-59618094D01*
X123253102Y-59507780D01*
X123270636Y-59449977D01*
X123384698Y-59564039D01*
X123630147Y-59728042D01*
X123902875Y-59841010D01*
X124192401Y-59898600D01*
X124373664Y-59898600D01*
X122043998Y-62228266D01*
X122015000Y-62252064D01*
X121991202Y-62281062D01*
X121991201Y-62281063D01*
X121920026Y-62367789D01*
X121849454Y-62499819D01*
X121805998Y-62643080D01*
X121791324Y-62792065D01*
X121795001Y-62829397D01*
X121795000Y-69572679D01*
X121791324Y-69610002D01*
X121795000Y-69647324D01*
X121795000Y-69647334D01*
X121805997Y-69758987D01*
X121833605Y-69850000D01*
X121849454Y-69902248D01*
X121920026Y-70034278D01*
X121959871Y-70082828D01*
X122014999Y-70150003D01*
X122044003Y-70173806D01*
X123700001Y-71829805D01*
X123700001Y-72441956D01*
X123545241Y-72545363D01*
X123345363Y-72745241D01*
X123188320Y-72980273D01*
X123080147Y-73241426D01*
X123025000Y-73518665D01*
X123025000Y-73801335D01*
X123080147Y-74078574D01*
X123188320Y-74339727D01*
X123345363Y-74574759D01*
X123473586Y-74702982D01*
X122698995Y-75477574D01*
X122669991Y-75501377D01*
X122633131Y-75546292D01*
X122575018Y-75617102D01*
X122507672Y-75743097D01*
X122504446Y-75749132D01*
X122460989Y-75892393D01*
X122449992Y-76004046D01*
X122449992Y-76004056D01*
X122446316Y-76041378D01*
X122449992Y-76078700D01*
X122449993Y-93327659D01*
X122446316Y-93364992D01*
X122449993Y-93402325D01*
X122456659Y-93470000D01*
X122460990Y-93513977D01*
X122504446Y-93657238D01*
X122575018Y-93789268D01*
X122646193Y-93875994D01*
X122669992Y-93904993D01*
X122698990Y-93928791D01*
X123061312Y-94291114D01*
X123025000Y-94473665D01*
X123025000Y-94756335D01*
X123080147Y-95033574D01*
X123188320Y-95294727D01*
X123345363Y-95529759D01*
X123545241Y-95729637D01*
X123780273Y-95886680D01*
X124041426Y-95994853D01*
X124318665Y-96050000D01*
X124601335Y-96050000D01*
X124878574Y-95994853D01*
X125139727Y-95886680D01*
X125232373Y-95824776D01*
X125305724Y-95884974D01*
X125437753Y-95955546D01*
X125581014Y-95999003D01*
X125692667Y-96010000D01*
X125692676Y-96010000D01*
X125729999Y-96013676D01*
X125767322Y-96010000D01*
X130735197Y-96010000D01*
X130976195Y-96250998D01*
X130999998Y-96280002D01*
X131069855Y-96337332D01*
X131115722Y-96374975D01*
X131170948Y-96404494D01*
X131247752Y-96445547D01*
X131391013Y-96489004D01*
X131502666Y-96500001D01*
X131502675Y-96500001D01*
X131539998Y-96503677D01*
X131577321Y-96500001D01*
X132582679Y-96500001D01*
X132620001Y-96503677D01*
X132657323Y-96500001D01*
X132657334Y-96500001D01*
X132768987Y-96489004D01*
X132912248Y-96445547D01*
X133044277Y-96374975D01*
X133160002Y-96280002D01*
X133183805Y-96250998D01*
X133424803Y-96010000D01*
X137211957Y-96010000D01*
X137315363Y-96164759D01*
X137515241Y-96364637D01*
X137750273Y-96521680D01*
X138011426Y-96629853D01*
X138288665Y-96685000D01*
X138571335Y-96685000D01*
X138848574Y-96629853D01*
X139109727Y-96521680D01*
X139344759Y-96364637D01*
X139544637Y-96164759D01*
X139701680Y-95929727D01*
X139809853Y-95668574D01*
X139865000Y-95391335D01*
X139865000Y-95108665D01*
X139809853Y-94831426D01*
X139701680Y-94570273D01*
X139544637Y-94335241D01*
X139344759Y-94135363D01*
X139112241Y-93980000D01*
X139344759Y-93824637D01*
X139544637Y-93624759D01*
X139701680Y-93389727D01*
X139809853Y-93128574D01*
X139865000Y-92851335D01*
X139865000Y-92568665D01*
X139809853Y-92291426D01*
X139701680Y-92030273D01*
X139544637Y-91795241D01*
X139344759Y-91595363D01*
X139109727Y-91438320D01*
X139099135Y-91433933D01*
X139285131Y-91322385D01*
X139493519Y-91133414D01*
X139661037Y-90907420D01*
X139781246Y-90653087D01*
X139821904Y-90519039D01*
X139699915Y-90297000D01*
X138557000Y-90297000D01*
X138557000Y-90317000D01*
X138303000Y-90317000D01*
X138303000Y-90297000D01*
X137160085Y-90297000D01*
X137038096Y-90519039D01*
X137078754Y-90653087D01*
X137198963Y-90907420D01*
X137366481Y-91133414D01*
X137574869Y-91322385D01*
X137760865Y-91433933D01*
X137750273Y-91438320D01*
X137515241Y-91595363D01*
X137315363Y-91795241D01*
X137211957Y-91950000D01*
X133421983Y-91950000D01*
X133459853Y-91858574D01*
X133515000Y-91581335D01*
X133515000Y-91298665D01*
X133478688Y-91116114D01*
X134789803Y-89804999D01*
X137042937Y-89804999D01*
X137038096Y-89820961D01*
X137160085Y-90043000D01*
X138303000Y-90043000D01*
X138303000Y-90023000D01*
X138557000Y-90023000D01*
X138557000Y-90043000D01*
X139699915Y-90043000D01*
X139821904Y-89820961D01*
X139781246Y-89686913D01*
X139661037Y-89432580D01*
X139535960Y-89263843D01*
X145135204Y-83664600D01*
X145135241Y-83664637D01*
X145367759Y-83820000D01*
X145135241Y-83975363D01*
X144935363Y-84175241D01*
X144778320Y-84410273D01*
X144670147Y-84671426D01*
X144615000Y-84948665D01*
X144615000Y-85231335D01*
X144670147Y-85508574D01*
X144778320Y-85769727D01*
X144935363Y-86004759D01*
X145135241Y-86204637D01*
X145367759Y-86360000D01*
X145135241Y-86515363D01*
X144935363Y-86715241D01*
X144778320Y-86950273D01*
X144670147Y-87211426D01*
X144615000Y-87488665D01*
X144615000Y-87771335D01*
X144670147Y-88048574D01*
X144778320Y-88309727D01*
X144935363Y-88544759D01*
X145135241Y-88744637D01*
X145367759Y-88900000D01*
X145135241Y-89055363D01*
X144935363Y-89255241D01*
X144778320Y-89490273D01*
X144670147Y-89751426D01*
X144615000Y-90028665D01*
X144615000Y-90311335D01*
X144670147Y-90588574D01*
X144778320Y-90849727D01*
X144935363Y-91084759D01*
X145135241Y-91284637D01*
X145367759Y-91440000D01*
X145135241Y-91595363D01*
X144935363Y-91795241D01*
X144778320Y-92030273D01*
X144670147Y-92291426D01*
X144615000Y-92568665D01*
X144615000Y-92851335D01*
X144670147Y-93128574D01*
X144778320Y-93389727D01*
X144935363Y-93624759D01*
X145133961Y-93823357D01*
X145125518Y-93824188D01*
X145005820Y-93860498D01*
X144895506Y-93919463D01*
X144798815Y-93998815D01*
X144719463Y-94095506D01*
X144660498Y-94205820D01*
X144624188Y-94325518D01*
X144611928Y-94450000D01*
X144611928Y-96050000D01*
X144624188Y-96174482D01*
X144660498Y-96294180D01*
X144719463Y-96404494D01*
X144787636Y-96487563D01*
X144020200Y-97254999D01*
X126812334Y-97254999D01*
X126775001Y-97251322D01*
X126737668Y-97254999D01*
X126626015Y-97265996D01*
X126482754Y-97309453D01*
X126350725Y-97380025D01*
X126235000Y-97474998D01*
X126211202Y-97503996D01*
X125985852Y-97729346D01*
X125863456Y-97705000D01*
X125596544Y-97705000D01*
X125334761Y-97757072D01*
X125088167Y-97859215D01*
X124866238Y-98007503D01*
X124677503Y-98196238D01*
X124529215Y-98418167D01*
X124427072Y-98664761D01*
X124375000Y-98926544D01*
X124375000Y-99193456D01*
X124427072Y-99455239D01*
X124529215Y-99701833D01*
X124677503Y-99923762D01*
X124866238Y-100112497D01*
X125088167Y-100260785D01*
X125334761Y-100362928D01*
X125596544Y-100415000D01*
X125863456Y-100415000D01*
X126125239Y-100362928D01*
X126371833Y-100260785D01*
X126593762Y-100112497D01*
X126782497Y-99923762D01*
X126930785Y-99701833D01*
X127000000Y-99534734D01*
X127069215Y-99701833D01*
X127217503Y-99923762D01*
X127406238Y-100112497D01*
X127516986Y-100186496D01*
X127520997Y-100227218D01*
X127564454Y-100370479D01*
X127635026Y-100502509D01*
X127674871Y-100551059D01*
X127729999Y-100618234D01*
X127759003Y-100642037D01*
X131347982Y-104231018D01*
X131371776Y-104260011D01*
X131400769Y-104283805D01*
X131400773Y-104283809D01*
X131415994Y-104296300D01*
X131487501Y-104354984D01*
X131619530Y-104425556D01*
X131762791Y-104469013D01*
X131874444Y-104480010D01*
X131874453Y-104480010D01*
X131911776Y-104483686D01*
X131949099Y-104480010D01*
X132015945Y-104480010D01*
X132045093Y-104576098D01*
X132010498Y-104640820D01*
X132007713Y-104650000D01*
X129488043Y-104650000D01*
X129384637Y-104495241D01*
X129184759Y-104295363D01*
X128949727Y-104138320D01*
X128688574Y-104030147D01*
X128411335Y-103975000D01*
X128128665Y-103975000D01*
X127851426Y-104030147D01*
X127590273Y-104138320D01*
X127355241Y-104295363D01*
X127155363Y-104495241D01*
X126998320Y-104730273D01*
X126890147Y-104991426D01*
X126835000Y-105268665D01*
X126835000Y-105551335D01*
X126890147Y-105828574D01*
X126998320Y-106089727D01*
X127155363Y-106324759D01*
X127355241Y-106524637D01*
X127590273Y-106681680D01*
X127851426Y-106789853D01*
X128128665Y-106845000D01*
X128411335Y-106845000D01*
X128688574Y-106789853D01*
X128949727Y-106681680D01*
X129184759Y-106524637D01*
X129384637Y-106324759D01*
X129488043Y-106170000D01*
X132007713Y-106170000D01*
X132010498Y-106179180D01*
X132069463Y-106289494D01*
X132148815Y-106386185D01*
X132245506Y-106465537D01*
X132355820Y-106524502D01*
X132475518Y-106560812D01*
X132600000Y-106573072D01*
X134100000Y-106573072D01*
X134224482Y-106560812D01*
X134344180Y-106524502D01*
X134373844Y-106508646D01*
X135056201Y-107191003D01*
X135079999Y-107220001D01*
X135195724Y-107314974D01*
X135327753Y-107385546D01*
X135471014Y-107429003D01*
X135582667Y-107440000D01*
X135582676Y-107440000D01*
X135619999Y-107443676D01*
X135657322Y-107440000D01*
X157837680Y-107440000D01*
X157875002Y-107443676D01*
X157912324Y-107440000D01*
X157912335Y-107440000D01*
X158023988Y-107429003D01*
X158167249Y-107385546D01*
X158299278Y-107314974D01*
X158415003Y-107220001D01*
X158438806Y-107190997D01*
X162556023Y-103073781D01*
X162585021Y-103049983D01*
X162616739Y-103011335D01*
X162679994Y-102934259D01*
X162750566Y-102802229D01*
X162751397Y-102799488D01*
X162794023Y-102658968D01*
X162805020Y-102547315D01*
X162805020Y-102547305D01*
X162808696Y-102509983D01*
X162805020Y-102472660D01*
X162805020Y-44242342D01*
X162808696Y-44205019D01*
X162805020Y-44167696D01*
X162805020Y-44167687D01*
X162794023Y-44056034D01*
X162750566Y-43912773D01*
X162679994Y-43780744D01*
X162630144Y-43720001D01*
X162608819Y-43694016D01*
X162608815Y-43694012D01*
X162585021Y-43665019D01*
X162556029Y-43641226D01*
X160313804Y-41399002D01*
X160290001Y-41369999D01*
X160174276Y-41275026D01*
X160129588Y-41251140D01*
X160138072Y-41165000D01*
X160135000Y-40925750D01*
X159976250Y-40767000D01*
X159203109Y-40767000D01*
X159202400Y-40766785D01*
X159031979Y-40750000D01*
X158468021Y-40750000D01*
X158297600Y-40766785D01*
X158296891Y-40767000D01*
X157523750Y-40767000D01*
X157365000Y-40925750D01*
X157362121Y-41150000D01*
X153787879Y-41150000D01*
X153785000Y-40925750D01*
X153626250Y-40767000D01*
X152853109Y-40767000D01*
X152852400Y-40766785D01*
X152681979Y-40750000D01*
X152118021Y-40750000D01*
X151947600Y-40766785D01*
X151946891Y-40767000D01*
X151173750Y-40767000D01*
X151015000Y-40925750D01*
X151011928Y-41165000D01*
X151024188Y-41289482D01*
X151060498Y-41409180D01*
X151095093Y-41473902D01*
X151031785Y-41682600D01*
X151009388Y-41910000D01*
X151031785Y-42137400D01*
X151098115Y-42356060D01*
X151199105Y-42545000D01*
X151098115Y-42733940D01*
X151031785Y-42952600D01*
X151009388Y-43180000D01*
X151031785Y-43407400D01*
X151098115Y-43626060D01*
X151205829Y-43827579D01*
X151350788Y-44004212D01*
X151527421Y-44149171D01*
X151640000Y-44209346D01*
X151640001Y-47453792D01*
X150030212Y-45844003D01*
X150006409Y-45814999D01*
X149890684Y-45720026D01*
X149758655Y-45649454D01*
X149615394Y-45605997D01*
X149503741Y-45595000D01*
X149503730Y-45595000D01*
X149466408Y-45591324D01*
X149429086Y-45595000D01*
X145452323Y-45595000D01*
X145415000Y-45591324D01*
X145377677Y-45595000D01*
X145377667Y-45595000D01*
X145266014Y-45605997D01*
X145122753Y-45649454D01*
X144990724Y-45720026D01*
X144874999Y-45814999D01*
X144851201Y-45843997D01*
X143876408Y-46818791D01*
X143656260Y-46775000D01*
X143363740Y-46775000D01*
X143076842Y-46832068D01*
X142806589Y-46944010D01*
X142563368Y-47106525D01*
X142356525Y-47313368D01*
X142240000Y-47487760D01*
X142123475Y-47313368D01*
X141916632Y-47106525D01*
X141673411Y-46944010D01*
X141403158Y-46832068D01*
X141116260Y-46775000D01*
X140823740Y-46775000D01*
X140536842Y-46832068D01*
X140266589Y-46944010D01*
X140023368Y-47106525D01*
X139816525Y-47313368D01*
X139700000Y-47487760D01*
X139583475Y-47313368D01*
X139376632Y-47106525D01*
X139133411Y-46944010D01*
X138863158Y-46832068D01*
X138576260Y-46775000D01*
X138283740Y-46775000D01*
X137996842Y-46832068D01*
X137726589Y-46944010D01*
X137483368Y-47106525D01*
X137276525Y-47313368D01*
X137160000Y-47487760D01*
X137043475Y-47313368D01*
X136836632Y-47106525D01*
X136593411Y-46944010D01*
X136323158Y-46832068D01*
X136036260Y-46775000D01*
X135743740Y-46775000D01*
X135456842Y-46832068D01*
X135186589Y-46944010D01*
X134943368Y-47106525D01*
X134736525Y-47313368D01*
X134574010Y-47556589D01*
X134462068Y-47826842D01*
X134405000Y-48113740D01*
X134405000Y-48406260D01*
X134448790Y-48626408D01*
X133473998Y-49601201D01*
X133445000Y-49624999D01*
X133421202Y-49653997D01*
X133421201Y-49653998D01*
X133350026Y-49740724D01*
X133279454Y-49872754D01*
X133265534Y-49918645D01*
X133235998Y-50016014D01*
X133232552Y-50050998D01*
X133221324Y-50165000D01*
X133225001Y-50202332D01*
X133225000Y-51047263D01*
X125838600Y-58433664D01*
X125838600Y-58252401D01*
X125781010Y-57962875D01*
X125668042Y-57690147D01*
X125504039Y-57444698D01*
X125295302Y-57235961D01*
X125129897Y-57125441D01*
X125228488Y-57066817D01*
X125446854Y-56870293D01*
X125622684Y-56634944D01*
X125749222Y-56369814D01*
X125794958Y-56219026D01*
X125673817Y-55987000D01*
X124467000Y-55987000D01*
X124467000Y-56007000D01*
X124213000Y-56007000D01*
X124213000Y-55987000D01*
X121927000Y-55987000D01*
X121927000Y-56007000D01*
X121673000Y-56007000D01*
X121673000Y-55987000D01*
X120466183Y-55987000D01*
X120345042Y-56219026D01*
X120390778Y-56369814D01*
X120517316Y-56634944D01*
X120693146Y-56870293D01*
X120756574Y-56927376D01*
X120692220Y-56946898D01*
X120581906Y-57005863D01*
X120485215Y-57085215D01*
X120405863Y-57181906D01*
X120346898Y-57292220D01*
X120310588Y-57411918D01*
X120298328Y-57536400D01*
X117525000Y-57536400D01*
X117525000Y-53679026D01*
X120345042Y-53679026D01*
X120390778Y-53829814D01*
X120517316Y-54094944D01*
X120693146Y-54330293D01*
X120911512Y-54526817D01*
X121017770Y-54590000D01*
X120911512Y-54653183D01*
X120693146Y-54849707D01*
X120517316Y-55085056D01*
X120390778Y-55350186D01*
X120345042Y-55500974D01*
X120466183Y-55733000D01*
X121673000Y-55733000D01*
X121673000Y-53447000D01*
X121927000Y-53447000D01*
X121927000Y-55733000D01*
X124213000Y-55733000D01*
X124213000Y-53447000D01*
X124467000Y-53447000D01*
X124467000Y-55733000D01*
X125673817Y-55733000D01*
X125794958Y-55500974D01*
X125749222Y-55350186D01*
X125622684Y-55085056D01*
X125446854Y-54849707D01*
X125228488Y-54653183D01*
X125122230Y-54590000D01*
X125228488Y-54526817D01*
X125446854Y-54330293D01*
X125622684Y-54094944D01*
X125749222Y-53829814D01*
X125794958Y-53679026D01*
X125673817Y-53447000D01*
X124467000Y-53447000D01*
X124213000Y-53447000D01*
X121927000Y-53447000D01*
X121673000Y-53447000D01*
X120466183Y-53447000D01*
X120345042Y-53679026D01*
X117525000Y-53679026D01*
X117525000Y-51139026D01*
X120345042Y-51139026D01*
X120390778Y-51289814D01*
X120517316Y-51554944D01*
X120693146Y-51790293D01*
X120911512Y-51986817D01*
X121017770Y-52050000D01*
X120911512Y-52113183D01*
X120693146Y-52309707D01*
X120517316Y-52545056D01*
X120390778Y-52810186D01*
X120345042Y-52960974D01*
X120466183Y-53193000D01*
X121673000Y-53193000D01*
X121673000Y-50907000D01*
X121927000Y-50907000D01*
X121927000Y-53193000D01*
X124213000Y-53193000D01*
X124213000Y-50907000D01*
X124467000Y-50907000D01*
X124467000Y-53193000D01*
X125673817Y-53193000D01*
X125794958Y-52960974D01*
X125749222Y-52810186D01*
X125622684Y-52545056D01*
X125446854Y-52309707D01*
X125228488Y-52113183D01*
X125122230Y-52050000D01*
X125228488Y-51986817D01*
X125446854Y-51790293D01*
X125622684Y-51554944D01*
X125749222Y-51289814D01*
X125794958Y-51139026D01*
X125673817Y-50907000D01*
X124467000Y-50907000D01*
X124213000Y-50907000D01*
X121927000Y-50907000D01*
X121673000Y-50907000D01*
X120466183Y-50907000D01*
X120345042Y-51139026D01*
X117525000Y-51139026D01*
X117525000Y-48092401D01*
X120301400Y-48092401D01*
X120301400Y-48387599D01*
X120358990Y-48677125D01*
X120471958Y-48949853D01*
X120635961Y-49195302D01*
X120844698Y-49404039D01*
X121010103Y-49514559D01*
X120911512Y-49573183D01*
X120693146Y-49769707D01*
X120517316Y-50005056D01*
X120390778Y-50270186D01*
X120345042Y-50420974D01*
X120466183Y-50653000D01*
X121673000Y-50653000D01*
X121673000Y-50633000D01*
X121927000Y-50633000D01*
X121927000Y-50653000D01*
X124213000Y-50653000D01*
X124213000Y-50633000D01*
X124467000Y-50633000D01*
X124467000Y-50653000D01*
X125673817Y-50653000D01*
X125794958Y-50420974D01*
X125749222Y-50270186D01*
X125622684Y-50005056D01*
X125446854Y-49769707D01*
X125335085Y-49669117D01*
X129265000Y-49669117D01*
X129265000Y-50010883D01*
X129331675Y-50346081D01*
X129462463Y-50661831D01*
X129652337Y-50945998D01*
X129894002Y-51187663D01*
X130178169Y-51377537D01*
X130493919Y-51508325D01*
X130829117Y-51575000D01*
X131170883Y-51575000D01*
X131506081Y-51508325D01*
X131821831Y-51377537D01*
X132105998Y-51187663D01*
X132347663Y-50945998D01*
X132537537Y-50661831D01*
X132668325Y-50346081D01*
X132735000Y-50010883D01*
X132735000Y-49669117D01*
X132668325Y-49333919D01*
X132537537Y-49018169D01*
X132347663Y-48734002D01*
X132105998Y-48492337D01*
X131821831Y-48302463D01*
X131506081Y-48171675D01*
X131170883Y-48105000D01*
X130829117Y-48105000D01*
X130493919Y-48171675D01*
X130178169Y-48302463D01*
X129894002Y-48492337D01*
X129652337Y-48734002D01*
X129462463Y-49018169D01*
X129331675Y-49333919D01*
X129265000Y-49669117D01*
X125335085Y-49669117D01*
X125228488Y-49573183D01*
X125129897Y-49514559D01*
X125295302Y-49404039D01*
X125504039Y-49195302D01*
X125668042Y-48949853D01*
X125781010Y-48677125D01*
X125838600Y-48387599D01*
X125838600Y-48092401D01*
X125781010Y-47802875D01*
X125668042Y-47530147D01*
X125504039Y-47284698D01*
X125295302Y-47075961D01*
X125049853Y-46911958D01*
X124777125Y-46798990D01*
X124487599Y-46741400D01*
X124192401Y-46741400D01*
X123902875Y-46798990D01*
X123630147Y-46911958D01*
X123384698Y-47075961D01*
X123175961Y-47284698D01*
X123070000Y-47443281D01*
X122964039Y-47284698D01*
X122755302Y-47075961D01*
X122509853Y-46911958D01*
X122237125Y-46798990D01*
X121947599Y-46741400D01*
X121652401Y-46741400D01*
X121362875Y-46798990D01*
X121090147Y-46911958D01*
X120844698Y-47075961D01*
X120635961Y-47284698D01*
X120471958Y-47530147D01*
X120358990Y-47802875D01*
X120301400Y-48092401D01*
X117525000Y-48092401D01*
X117525000Y-42710000D01*
X130641928Y-42710000D01*
X130654188Y-42834482D01*
X130690498Y-42954180D01*
X130749463Y-43064494D01*
X130828815Y-43161185D01*
X130845393Y-43174790D01*
X130808320Y-43230273D01*
X130700147Y-43491426D01*
X130645000Y-43768665D01*
X130645000Y-44051335D01*
X130700147Y-44328574D01*
X130808320Y-44589727D01*
X130965363Y-44824759D01*
X131165241Y-45024637D01*
X131400273Y-45181680D01*
X131661426Y-45289853D01*
X131938665Y-45345000D01*
X132221335Y-45345000D01*
X132498574Y-45289853D01*
X132759727Y-45181680D01*
X132994759Y-45024637D01*
X133194637Y-44824759D01*
X133351680Y-44589727D01*
X133459853Y-44328574D01*
X133515000Y-44051335D01*
X133515000Y-43768665D01*
X133459853Y-43491426D01*
X133351680Y-43230273D01*
X133314607Y-43174790D01*
X133331185Y-43161185D01*
X133410537Y-43064494D01*
X133469502Y-42954180D01*
X133505812Y-42834482D01*
X133518072Y-42710000D01*
X133515000Y-42195750D01*
X133356250Y-42037000D01*
X132207000Y-42037000D01*
X132207000Y-42057000D01*
X131953000Y-42057000D01*
X131953000Y-42037000D01*
X130803750Y-42037000D01*
X130645000Y-42195750D01*
X130641928Y-42710000D01*
X117525000Y-42710000D01*
X117525000Y-41110000D01*
X130641928Y-41110000D01*
X130645000Y-41624250D01*
X130803750Y-41783000D01*
X131953000Y-41783000D01*
X131953000Y-40633750D01*
X132207000Y-40633750D01*
X132207000Y-41783000D01*
X133356250Y-41783000D01*
X133449378Y-41689872D01*
X140005000Y-41689872D01*
X140005000Y-42130128D01*
X140090890Y-42561925D01*
X140259369Y-42968669D01*
X140503962Y-43334729D01*
X140815271Y-43646038D01*
X141181331Y-43890631D01*
X141588075Y-44059110D01*
X142019872Y-44145000D01*
X142460128Y-44145000D01*
X142891925Y-44059110D01*
X143298669Y-43890631D01*
X143664729Y-43646038D01*
X143976038Y-43334729D01*
X144220631Y-42968669D01*
X144389110Y-42561925D01*
X144475000Y-42130128D01*
X144475000Y-41689872D01*
X144389110Y-41258075D01*
X144220631Y-40851331D01*
X143976038Y-40485271D01*
X143664729Y-40173962D01*
X143576486Y-40115000D01*
X151011928Y-40115000D01*
X151015000Y-40354250D01*
X151173750Y-40513000D01*
X152273000Y-40513000D01*
X152273000Y-39638750D01*
X152527000Y-39638750D01*
X152527000Y-40513000D01*
X153626250Y-40513000D01*
X153785000Y-40354250D01*
X153788072Y-40115000D01*
X157361928Y-40115000D01*
X157365000Y-40354250D01*
X157523750Y-40513000D01*
X158623000Y-40513000D01*
X158623000Y-39638750D01*
X158877000Y-39638750D01*
X158877000Y-40513000D01*
X159976250Y-40513000D01*
X160135000Y-40354250D01*
X160138072Y-40115000D01*
X160125812Y-39990518D01*
X160089502Y-39870820D01*
X160030537Y-39760506D01*
X159951185Y-39663815D01*
X159854494Y-39584463D01*
X159744180Y-39525498D01*
X159624482Y-39489188D01*
X159500000Y-39476928D01*
X159035750Y-39480000D01*
X158877000Y-39638750D01*
X158623000Y-39638750D01*
X158464250Y-39480000D01*
X158000000Y-39476928D01*
X157875518Y-39489188D01*
X157755820Y-39525498D01*
X157645506Y-39584463D01*
X157548815Y-39663815D01*
X157469463Y-39760506D01*
X157410498Y-39870820D01*
X157374188Y-39990518D01*
X157361928Y-40115000D01*
X153788072Y-40115000D01*
X153775812Y-39990518D01*
X153739502Y-39870820D01*
X153680537Y-39760506D01*
X153601185Y-39663815D01*
X153504494Y-39584463D01*
X153394180Y-39525498D01*
X153274482Y-39489188D01*
X153150000Y-39476928D01*
X152685750Y-39480000D01*
X152527000Y-39638750D01*
X152273000Y-39638750D01*
X152114250Y-39480000D01*
X151650000Y-39476928D01*
X151525518Y-39489188D01*
X151405820Y-39525498D01*
X151295506Y-39584463D01*
X151198815Y-39663815D01*
X151119463Y-39760506D01*
X151060498Y-39870820D01*
X151024188Y-39990518D01*
X151011928Y-40115000D01*
X143576486Y-40115000D01*
X143298669Y-39929369D01*
X142891925Y-39760890D01*
X142460128Y-39675000D01*
X142019872Y-39675000D01*
X141588075Y-39760890D01*
X141181331Y-39929369D01*
X140815271Y-40173962D01*
X140503962Y-40485271D01*
X140259369Y-40851331D01*
X140090890Y-41258075D01*
X140005000Y-41689872D01*
X133449378Y-41689872D01*
X133515000Y-41624250D01*
X133518072Y-41110000D01*
X133505812Y-40985518D01*
X133469502Y-40865820D01*
X133410537Y-40755506D01*
X133331185Y-40658815D01*
X133234494Y-40579463D01*
X133124180Y-40520498D01*
X133004482Y-40484188D01*
X132880000Y-40471928D01*
X132365750Y-40475000D01*
X132207000Y-40633750D01*
X131953000Y-40633750D01*
X131794250Y-40475000D01*
X131280000Y-40471928D01*
X131155518Y-40484188D01*
X131035820Y-40520498D01*
X130925506Y-40579463D01*
X130828815Y-40658815D01*
X130749463Y-40755506D01*
X130690498Y-40865820D01*
X130654188Y-40985518D01*
X130641928Y-41110000D01*
X117525000Y-41110000D01*
X117525000Y-37829117D01*
X119105000Y-37829117D01*
X119105000Y-38170883D01*
X119171675Y-38506081D01*
X119302463Y-38821831D01*
X119492337Y-39105998D01*
X119734002Y-39347663D01*
X120018169Y-39537537D01*
X120333919Y-39668325D01*
X120669117Y-39735000D01*
X121010883Y-39735000D01*
X121346081Y-39668325D01*
X121661831Y-39537537D01*
X121945998Y-39347663D01*
X122187663Y-39105998D01*
X122377537Y-38821831D01*
X122508325Y-38506081D01*
X122575000Y-38170883D01*
X122575000Y-37829117D01*
X122508325Y-37493919D01*
X122377537Y-37178169D01*
X122191671Y-36900000D01*
X129261928Y-36900000D01*
X129261928Y-39100000D01*
X129274188Y-39224482D01*
X129310498Y-39344180D01*
X129369463Y-39454494D01*
X129448815Y-39551185D01*
X129545506Y-39630537D01*
X129655820Y-39689502D01*
X129775518Y-39725812D01*
X129900000Y-39738072D01*
X132100000Y-39738072D01*
X132224482Y-39725812D01*
X132344180Y-39689502D01*
X132454494Y-39630537D01*
X132551185Y-39551185D01*
X132630537Y-39454494D01*
X132689502Y-39344180D01*
X132725812Y-39224482D01*
X132738072Y-39100000D01*
X132738072Y-37300000D01*
X134451928Y-37300000D01*
X134451928Y-38900000D01*
X134464188Y-39024482D01*
X134500498Y-39144180D01*
X134559463Y-39254494D01*
X134638815Y-39351185D01*
X134735506Y-39430537D01*
X134845820Y-39489502D01*
X134965518Y-39525812D01*
X135090000Y-39538072D01*
X136690000Y-39538072D01*
X136814482Y-39525812D01*
X136934180Y-39489502D01*
X137044494Y-39430537D01*
X137141185Y-39351185D01*
X137151807Y-39338242D01*
X137403996Y-39457571D01*
X137678184Y-39526300D01*
X137960512Y-39540217D01*
X138240130Y-39498787D01*
X138506292Y-39403603D01*
X138631514Y-39336671D01*
X138703097Y-39092702D01*
X137890000Y-38279605D01*
X137875858Y-38293748D01*
X137696253Y-38114143D01*
X137710395Y-38100000D01*
X138069605Y-38100000D01*
X138882702Y-38913097D01*
X139126671Y-38841514D01*
X139247571Y-38586004D01*
X139316300Y-38311816D01*
X139330217Y-38029488D01*
X139288787Y-37749870D01*
X139193603Y-37483708D01*
X139126671Y-37358486D01*
X138882702Y-37286903D01*
X138069605Y-38100000D01*
X137710395Y-38100000D01*
X137696253Y-38085858D01*
X137875858Y-37906253D01*
X137890000Y-37920395D01*
X138703097Y-37107298D01*
X138631514Y-36863329D01*
X138376004Y-36742429D01*
X138101816Y-36673700D01*
X137819488Y-36659783D01*
X137539870Y-36701213D01*
X137273708Y-36796397D01*
X137151691Y-36861616D01*
X137141185Y-36848815D01*
X137044494Y-36769463D01*
X136934180Y-36710498D01*
X136814482Y-36674188D01*
X136690000Y-36661928D01*
X135090000Y-36661928D01*
X134965518Y-36674188D01*
X134845820Y-36710498D01*
X134735506Y-36769463D01*
X134638815Y-36848815D01*
X134559463Y-36945506D01*
X134500498Y-37055820D01*
X134464188Y-37175518D01*
X134451928Y-37300000D01*
X132738072Y-37300000D01*
X132738072Y-36900000D01*
X132725812Y-36775518D01*
X132689502Y-36655820D01*
X132630537Y-36545506D01*
X132551185Y-36448815D01*
X132454494Y-36369463D01*
X132344180Y-36310498D01*
X132224482Y-36274188D01*
X132100000Y-36261928D01*
X129900000Y-36261928D01*
X129775518Y-36274188D01*
X129655820Y-36310498D01*
X129545506Y-36369463D01*
X129448815Y-36448815D01*
X129369463Y-36545506D01*
X129310498Y-36655820D01*
X129274188Y-36775518D01*
X129261928Y-36900000D01*
X122191671Y-36900000D01*
X122187663Y-36894002D01*
X121945998Y-36652337D01*
X121661831Y-36462463D01*
X121346081Y-36331675D01*
X121010883Y-36265000D01*
X120669117Y-36265000D01*
X120333919Y-36331675D01*
X120018169Y-36462463D01*
X119734002Y-36652337D01*
X119492337Y-36894002D01*
X119302463Y-37178169D01*
X119171675Y-37493919D01*
X119105000Y-37829117D01*
X117525000Y-37829117D01*
X117525000Y-34975000D01*
X166955001Y-34975000D01*
X166955000Y-109805000D01*
G37*
X166955000Y-109805000D02*
X117525000Y-109805000D01*
X117525000Y-105268665D01*
X119215000Y-105268665D01*
X119215000Y-105551335D01*
X119270147Y-105828574D01*
X119378320Y-106089727D01*
X119535363Y-106324759D01*
X119735241Y-106524637D01*
X119970273Y-106681680D01*
X120231426Y-106789853D01*
X120508665Y-106845000D01*
X120791335Y-106845000D01*
X121068574Y-106789853D01*
X121329727Y-106681680D01*
X121564759Y-106524637D01*
X121764637Y-106324759D01*
X121921680Y-106089727D01*
X122029853Y-105828574D01*
X122085000Y-105551335D01*
X122085000Y-105268665D01*
X122029853Y-104991426D01*
X121921680Y-104730273D01*
X121764637Y-104495241D01*
X121564759Y-104295363D01*
X121329727Y-104138320D01*
X121068574Y-104030147D01*
X120791335Y-103975000D01*
X120508665Y-103975000D01*
X120231426Y-104030147D01*
X119970273Y-104138320D01*
X119735241Y-104295363D01*
X119535363Y-104495241D01*
X119378320Y-104730273D01*
X119270147Y-104991426D01*
X119215000Y-105268665D01*
X117525000Y-105268665D01*
X117525000Y-57536400D01*
X120298328Y-57536400D01*
X120298328Y-59263600D01*
X120310588Y-59388082D01*
X120346898Y-59507780D01*
X120405863Y-59618094D01*
X120485215Y-59714785D01*
X120581906Y-59794137D01*
X120692220Y-59853102D01*
X120811918Y-59889412D01*
X120936400Y-59901672D01*
X122663600Y-59901672D01*
X122788082Y-59889412D01*
X122907780Y-59853102D01*
X123018094Y-59794137D01*
X123114785Y-59714785D01*
X123194137Y-59618094D01*
X123253102Y-59507780D01*
X123270636Y-59449977D01*
X123384698Y-59564039D01*
X123630147Y-59728042D01*
X123902875Y-59841010D01*
X124192401Y-59898600D01*
X124373664Y-59898600D01*
X122043998Y-62228266D01*
X122015000Y-62252064D01*
X121991202Y-62281062D01*
X121991201Y-62281063D01*
X121920026Y-62367789D01*
X121849454Y-62499819D01*
X121805998Y-62643080D01*
X121791324Y-62792065D01*
X121795001Y-62829397D01*
X121795000Y-69572679D01*
X121791324Y-69610002D01*
X121795000Y-69647324D01*
X121795000Y-69647334D01*
X121805997Y-69758987D01*
X121833605Y-69850000D01*
X121849454Y-69902248D01*
X121920026Y-70034278D01*
X121959871Y-70082828D01*
X122014999Y-70150003D01*
X122044003Y-70173806D01*
X123700001Y-71829805D01*
X123700001Y-72441956D01*
X123545241Y-72545363D01*
X123345363Y-72745241D01*
X123188320Y-72980273D01*
X123080147Y-73241426D01*
X123025000Y-73518665D01*
X123025000Y-73801335D01*
X123080147Y-74078574D01*
X123188320Y-74339727D01*
X123345363Y-74574759D01*
X123473586Y-74702982D01*
X122698995Y-75477574D01*
X122669991Y-75501377D01*
X122633131Y-75546292D01*
X122575018Y-75617102D01*
X122507672Y-75743097D01*
X122504446Y-75749132D01*
X122460989Y-75892393D01*
X122449992Y-76004046D01*
X122449992Y-76004056D01*
X122446316Y-76041378D01*
X122449992Y-76078700D01*
X122449993Y-93327659D01*
X122446316Y-93364992D01*
X122449993Y-93402325D01*
X122456659Y-93470000D01*
X122460990Y-93513977D01*
X122504446Y-93657238D01*
X122575018Y-93789268D01*
X122646193Y-93875994D01*
X122669992Y-93904993D01*
X122698990Y-93928791D01*
X123061312Y-94291114D01*
X123025000Y-94473665D01*
X123025000Y-94756335D01*
X123080147Y-95033574D01*
X123188320Y-95294727D01*
X123345363Y-95529759D01*
X123545241Y-95729637D01*
X123780273Y-95886680D01*
X124041426Y-95994853D01*
X124318665Y-96050000D01*
X124601335Y-96050000D01*
X124878574Y-95994853D01*
X125139727Y-95886680D01*
X125232373Y-95824776D01*
X125305724Y-95884974D01*
X125437753Y-95955546D01*
X125581014Y-95999003D01*
X125692667Y-96010000D01*
X125692676Y-96010000D01*
X125729999Y-96013676D01*
X125767322Y-96010000D01*
X130735197Y-96010000D01*
X130976195Y-96250998D01*
X130999998Y-96280002D01*
X131069855Y-96337332D01*
X131115722Y-96374975D01*
X131170948Y-96404494D01*
X131247752Y-96445547D01*
X131391013Y-96489004D01*
X131502666Y-96500001D01*
X131502675Y-96500001D01*
X131539998Y-96503677D01*
X131577321Y-96500001D01*
X132582679Y-96500001D01*
X132620001Y-96503677D01*
X132657323Y-96500001D01*
X132657334Y-96500001D01*
X132768987Y-96489004D01*
X132912248Y-96445547D01*
X133044277Y-96374975D01*
X133160002Y-96280002D01*
X133183805Y-96250998D01*
X133424803Y-96010000D01*
X137211957Y-96010000D01*
X137315363Y-96164759D01*
X137515241Y-96364637D01*
X137750273Y-96521680D01*
X138011426Y-96629853D01*
X138288665Y-96685000D01*
X138571335Y-96685000D01*
X138848574Y-96629853D01*
X139109727Y-96521680D01*
X139344759Y-96364637D01*
X139544637Y-96164759D01*
X139701680Y-95929727D01*
X139809853Y-95668574D01*
X139865000Y-95391335D01*
X139865000Y-95108665D01*
X139809853Y-94831426D01*
X139701680Y-94570273D01*
X139544637Y-94335241D01*
X139344759Y-94135363D01*
X139112241Y-93980000D01*
X139344759Y-93824637D01*
X139544637Y-93624759D01*
X139701680Y-93389727D01*
X139809853Y-93128574D01*
X139865000Y-92851335D01*
X139865000Y-92568665D01*
X139809853Y-92291426D01*
X139701680Y-92030273D01*
X139544637Y-91795241D01*
X139344759Y-91595363D01*
X139109727Y-91438320D01*
X139099135Y-91433933D01*
X139285131Y-91322385D01*
X139493519Y-91133414D01*
X139661037Y-90907420D01*
X139781246Y-90653087D01*
X139821904Y-90519039D01*
X139699915Y-90297000D01*
X138557000Y-90297000D01*
X138557000Y-90317000D01*
X138303000Y-90317000D01*
X138303000Y-90297000D01*
X137160085Y-90297000D01*
X137038096Y-90519039D01*
X137078754Y-90653087D01*
X137198963Y-90907420D01*
X137366481Y-91133414D01*
X137574869Y-91322385D01*
X137760865Y-91433933D01*
X137750273Y-91438320D01*
X137515241Y-91595363D01*
X137315363Y-91795241D01*
X137211957Y-91950000D01*
X133421983Y-91950000D01*
X133459853Y-91858574D01*
X133515000Y-91581335D01*
X133515000Y-91298665D01*
X133478688Y-91116114D01*
X134789803Y-89804999D01*
X137042937Y-89804999D01*
X137038096Y-89820961D01*
X137160085Y-90043000D01*
X138303000Y-90043000D01*
X138303000Y-90023000D01*
X138557000Y-90023000D01*
X138557000Y-90043000D01*
X139699915Y-90043000D01*
X139821904Y-89820961D01*
X139781246Y-89686913D01*
X139661037Y-89432580D01*
X139535960Y-89263843D01*
X145135204Y-83664600D01*
X145135241Y-83664637D01*
X145367759Y-83820000D01*
X145135241Y-83975363D01*
X144935363Y-84175241D01*
X144778320Y-84410273D01*
X144670147Y-84671426D01*
X144615000Y-84948665D01*
X144615000Y-85231335D01*
X144670147Y-85508574D01*
X144778320Y-85769727D01*
X144935363Y-86004759D01*
X145135241Y-86204637D01*
X145367759Y-86360000D01*
X145135241Y-86515363D01*
X144935363Y-86715241D01*
X144778320Y-86950273D01*
X144670147Y-87211426D01*
X144615000Y-87488665D01*
X144615000Y-87771335D01*
X144670147Y-88048574D01*
X144778320Y-88309727D01*
X144935363Y-88544759D01*
X145135241Y-88744637D01*
X145367759Y-88900000D01*
X145135241Y-89055363D01*
X144935363Y-89255241D01*
X144778320Y-89490273D01*
X144670147Y-89751426D01*
X144615000Y-90028665D01*
X144615000Y-90311335D01*
X144670147Y-90588574D01*
X144778320Y-90849727D01*
X144935363Y-91084759D01*
X145135241Y-91284637D01*
X145367759Y-91440000D01*
X145135241Y-91595363D01*
X144935363Y-91795241D01*
X144778320Y-92030273D01*
X144670147Y-92291426D01*
X144615000Y-92568665D01*
X144615000Y-92851335D01*
X144670147Y-93128574D01*
X144778320Y-93389727D01*
X144935363Y-93624759D01*
X145133961Y-93823357D01*
X145125518Y-93824188D01*
X145005820Y-93860498D01*
X144895506Y-93919463D01*
X144798815Y-93998815D01*
X144719463Y-94095506D01*
X144660498Y-94205820D01*
X144624188Y-94325518D01*
X144611928Y-94450000D01*
X144611928Y-96050000D01*
X144624188Y-96174482D01*
X144660498Y-96294180D01*
X144719463Y-96404494D01*
X144787636Y-96487563D01*
X144020200Y-97254999D01*
X126812334Y-97254999D01*
X126775001Y-97251322D01*
X126737668Y-97254999D01*
X126626015Y-97265996D01*
X126482754Y-97309453D01*
X126350725Y-97380025D01*
X126235000Y-97474998D01*
X126211202Y-97503996D01*
X125985852Y-97729346D01*
X125863456Y-97705000D01*
X125596544Y-97705000D01*
X125334761Y-97757072D01*
X125088167Y-97859215D01*
X124866238Y-98007503D01*
X124677503Y-98196238D01*
X124529215Y-98418167D01*
X124427072Y-98664761D01*
X124375000Y-98926544D01*
X124375000Y-99193456D01*
X124427072Y-99455239D01*
X124529215Y-99701833D01*
X124677503Y-99923762D01*
X124866238Y-100112497D01*
X125088167Y-100260785D01*
X125334761Y-100362928D01*
X125596544Y-100415000D01*
X125863456Y-100415000D01*
X126125239Y-100362928D01*
X126371833Y-100260785D01*
X126593762Y-100112497D01*
X126782497Y-99923762D01*
X126930785Y-99701833D01*
X127000000Y-99534734D01*
X127069215Y-99701833D01*
X127217503Y-99923762D01*
X127406238Y-100112497D01*
X127516986Y-100186496D01*
X127520997Y-100227218D01*
X127564454Y-100370479D01*
X127635026Y-100502509D01*
X127674871Y-100551059D01*
X127729999Y-100618234D01*
X127759003Y-100642037D01*
X131347982Y-104231018D01*
X131371776Y-104260011D01*
X131400769Y-104283805D01*
X131400773Y-104283809D01*
X131415994Y-104296300D01*
X131487501Y-104354984D01*
X131619530Y-104425556D01*
X131762791Y-104469013D01*
X131874444Y-104480010D01*
X131874453Y-104480010D01*
X131911776Y-104483686D01*
X131949099Y-104480010D01*
X132015945Y-104480010D01*
X132045093Y-104576098D01*
X132010498Y-104640820D01*
X132007713Y-104650000D01*
X129488043Y-104650000D01*
X129384637Y-104495241D01*
X129184759Y-104295363D01*
X128949727Y-104138320D01*
X128688574Y-104030147D01*
X128411335Y-103975000D01*
X128128665Y-103975000D01*
X127851426Y-104030147D01*
X127590273Y-104138320D01*
X127355241Y-104295363D01*
X127155363Y-104495241D01*
X126998320Y-104730273D01*
X126890147Y-104991426D01*
X126835000Y-105268665D01*
X126835000Y-105551335D01*
X126890147Y-105828574D01*
X126998320Y-106089727D01*
X127155363Y-106324759D01*
X127355241Y-106524637D01*
X127590273Y-106681680D01*
X127851426Y-106789853D01*
X128128665Y-106845000D01*
X128411335Y-106845000D01*
X128688574Y-106789853D01*
X128949727Y-106681680D01*
X129184759Y-106524637D01*
X129384637Y-106324759D01*
X129488043Y-106170000D01*
X132007713Y-106170000D01*
X132010498Y-106179180D01*
X132069463Y-106289494D01*
X132148815Y-106386185D01*
X132245506Y-106465537D01*
X132355820Y-106524502D01*
X132475518Y-106560812D01*
X132600000Y-106573072D01*
X134100000Y-106573072D01*
X134224482Y-106560812D01*
X134344180Y-106524502D01*
X134373844Y-106508646D01*
X135056201Y-107191003D01*
X135079999Y-107220001D01*
X135195724Y-107314974D01*
X135327753Y-107385546D01*
X135471014Y-107429003D01*
X135582667Y-107440000D01*
X135582676Y-107440000D01*
X135619999Y-107443676D01*
X135657322Y-107440000D01*
X157837680Y-107440000D01*
X157875002Y-107443676D01*
X157912324Y-107440000D01*
X157912335Y-107440000D01*
X158023988Y-107429003D01*
X158167249Y-107385546D01*
X158299278Y-107314974D01*
X158415003Y-107220001D01*
X158438806Y-107190997D01*
X162556023Y-103073781D01*
X162585021Y-103049983D01*
X162616739Y-103011335D01*
X162679994Y-102934259D01*
X162750566Y-102802229D01*
X162751397Y-102799488D01*
X162794023Y-102658968D01*
X162805020Y-102547315D01*
X162805020Y-102547305D01*
X162808696Y-102509983D01*
X162805020Y-102472660D01*
X162805020Y-44242342D01*
X162808696Y-44205019D01*
X162805020Y-44167696D01*
X162805020Y-44167687D01*
X162794023Y-44056034D01*
X162750566Y-43912773D01*
X162679994Y-43780744D01*
X162630144Y-43720001D01*
X162608819Y-43694016D01*
X162608815Y-43694012D01*
X162585021Y-43665019D01*
X162556029Y-43641226D01*
X160313804Y-41399002D01*
X160290001Y-41369999D01*
X160174276Y-41275026D01*
X160129588Y-41251140D01*
X160138072Y-41165000D01*
X160135000Y-40925750D01*
X159976250Y-40767000D01*
X159203109Y-40767000D01*
X159202400Y-40766785D01*
X159031979Y-40750000D01*
X158468021Y-40750000D01*
X158297600Y-40766785D01*
X158296891Y-40767000D01*
X157523750Y-40767000D01*
X157365000Y-40925750D01*
X157362121Y-41150000D01*
X153787879Y-41150000D01*
X153785000Y-40925750D01*
X153626250Y-40767000D01*
X152853109Y-40767000D01*
X152852400Y-40766785D01*
X152681979Y-40750000D01*
X152118021Y-40750000D01*
X151947600Y-40766785D01*
X151946891Y-40767000D01*
X151173750Y-40767000D01*
X151015000Y-40925750D01*
X151011928Y-41165000D01*
X151024188Y-41289482D01*
X151060498Y-41409180D01*
X151095093Y-41473902D01*
X151031785Y-41682600D01*
X151009388Y-41910000D01*
X151031785Y-42137400D01*
X151098115Y-42356060D01*
X151199105Y-42545000D01*
X151098115Y-42733940D01*
X151031785Y-42952600D01*
X151009388Y-43180000D01*
X151031785Y-43407400D01*
X151098115Y-43626060D01*
X151205829Y-43827579D01*
X151350788Y-44004212D01*
X151527421Y-44149171D01*
X151640000Y-44209346D01*
X151640001Y-47453792D01*
X150030212Y-45844003D01*
X150006409Y-45814999D01*
X149890684Y-45720026D01*
X149758655Y-45649454D01*
X149615394Y-45605997D01*
X149503741Y-45595000D01*
X149503730Y-45595000D01*
X149466408Y-45591324D01*
X149429086Y-45595000D01*
X145452323Y-45595000D01*
X145415000Y-45591324D01*
X145377677Y-45595000D01*
X145377667Y-45595000D01*
X145266014Y-45605997D01*
X145122753Y-45649454D01*
X144990724Y-45720026D01*
X144874999Y-45814999D01*
X144851201Y-45843997D01*
X143876408Y-46818791D01*
X143656260Y-46775000D01*
X143363740Y-46775000D01*
X143076842Y-46832068D01*
X142806589Y-46944010D01*
X142563368Y-47106525D01*
X142356525Y-47313368D01*
X142240000Y-47487760D01*
X142123475Y-47313368D01*
X141916632Y-47106525D01*
X141673411Y-46944010D01*
X141403158Y-46832068D01*
X141116260Y-46775000D01*
X140823740Y-46775000D01*
X140536842Y-46832068D01*
X140266589Y-46944010D01*
X140023368Y-47106525D01*
X139816525Y-47313368D01*
X139700000Y-47487760D01*
X139583475Y-47313368D01*
X139376632Y-47106525D01*
X139133411Y-46944010D01*
X138863158Y-46832068D01*
X138576260Y-46775000D01*
X138283740Y-46775000D01*
X137996842Y-46832068D01*
X137726589Y-46944010D01*
X137483368Y-47106525D01*
X137276525Y-47313368D01*
X137160000Y-47487760D01*
X137043475Y-47313368D01*
X136836632Y-47106525D01*
X136593411Y-46944010D01*
X136323158Y-46832068D01*
X136036260Y-46775000D01*
X135743740Y-46775000D01*
X135456842Y-46832068D01*
X135186589Y-46944010D01*
X134943368Y-47106525D01*
X134736525Y-47313368D01*
X134574010Y-47556589D01*
X134462068Y-47826842D01*
X134405000Y-48113740D01*
X134405000Y-48406260D01*
X134448790Y-48626408D01*
X133473998Y-49601201D01*
X133445000Y-49624999D01*
X133421202Y-49653997D01*
X133421201Y-49653998D01*
X133350026Y-49740724D01*
X133279454Y-49872754D01*
X133265534Y-49918645D01*
X133235998Y-50016014D01*
X133232552Y-50050998D01*
X133221324Y-50165000D01*
X133225001Y-50202332D01*
X133225000Y-51047263D01*
X125838600Y-58433664D01*
X125838600Y-58252401D01*
X125781010Y-57962875D01*
X125668042Y-57690147D01*
X125504039Y-57444698D01*
X125295302Y-57235961D01*
X125129897Y-57125441D01*
X125228488Y-57066817D01*
X125446854Y-56870293D01*
X125622684Y-56634944D01*
X125749222Y-56369814D01*
X125794958Y-56219026D01*
X125673817Y-55987000D01*
X124467000Y-55987000D01*
X124467000Y-56007000D01*
X124213000Y-56007000D01*
X124213000Y-55987000D01*
X121927000Y-55987000D01*
X121927000Y-56007000D01*
X121673000Y-56007000D01*
X121673000Y-55987000D01*
X120466183Y-55987000D01*
X120345042Y-56219026D01*
X120390778Y-56369814D01*
X120517316Y-56634944D01*
X120693146Y-56870293D01*
X120756574Y-56927376D01*
X120692220Y-56946898D01*
X120581906Y-57005863D01*
X120485215Y-57085215D01*
X120405863Y-57181906D01*
X120346898Y-57292220D01*
X120310588Y-57411918D01*
X120298328Y-57536400D01*
X117525000Y-57536400D01*
X117525000Y-53679026D01*
X120345042Y-53679026D01*
X120390778Y-53829814D01*
X120517316Y-54094944D01*
X120693146Y-54330293D01*
X120911512Y-54526817D01*
X121017770Y-54590000D01*
X120911512Y-54653183D01*
X120693146Y-54849707D01*
X120517316Y-55085056D01*
X120390778Y-55350186D01*
X120345042Y-55500974D01*
X120466183Y-55733000D01*
X121673000Y-55733000D01*
X121673000Y-53447000D01*
X121927000Y-53447000D01*
X121927000Y-55733000D01*
X124213000Y-55733000D01*
X124213000Y-53447000D01*
X124467000Y-53447000D01*
X124467000Y-55733000D01*
X125673817Y-55733000D01*
X125794958Y-55500974D01*
X125749222Y-55350186D01*
X125622684Y-55085056D01*
X125446854Y-54849707D01*
X125228488Y-54653183D01*
X125122230Y-54590000D01*
X125228488Y-54526817D01*
X125446854Y-54330293D01*
X125622684Y-54094944D01*
X125749222Y-53829814D01*
X125794958Y-53679026D01*
X125673817Y-53447000D01*
X124467000Y-53447000D01*
X124213000Y-53447000D01*
X121927000Y-53447000D01*
X121673000Y-53447000D01*
X120466183Y-53447000D01*
X120345042Y-53679026D01*
X117525000Y-53679026D01*
X117525000Y-51139026D01*
X120345042Y-51139026D01*
X120390778Y-51289814D01*
X120517316Y-51554944D01*
X120693146Y-51790293D01*
X120911512Y-51986817D01*
X121017770Y-52050000D01*
X120911512Y-52113183D01*
X120693146Y-52309707D01*
X120517316Y-52545056D01*
X120390778Y-52810186D01*
X120345042Y-52960974D01*
X120466183Y-53193000D01*
X121673000Y-53193000D01*
X121673000Y-50907000D01*
X121927000Y-50907000D01*
X121927000Y-53193000D01*
X124213000Y-53193000D01*
X124213000Y-50907000D01*
X124467000Y-50907000D01*
X124467000Y-53193000D01*
X125673817Y-53193000D01*
X125794958Y-52960974D01*
X125749222Y-52810186D01*
X125622684Y-52545056D01*
X125446854Y-52309707D01*
X125228488Y-52113183D01*
X125122230Y-52050000D01*
X125228488Y-51986817D01*
X125446854Y-51790293D01*
X125622684Y-51554944D01*
X125749222Y-51289814D01*
X125794958Y-51139026D01*
X125673817Y-50907000D01*
X124467000Y-50907000D01*
X124213000Y-50907000D01*
X121927000Y-50907000D01*
X121673000Y-50907000D01*
X120466183Y-50907000D01*
X120345042Y-51139026D01*
X117525000Y-51139026D01*
X117525000Y-48092401D01*
X120301400Y-48092401D01*
X120301400Y-48387599D01*
X120358990Y-48677125D01*
X120471958Y-48949853D01*
X120635961Y-49195302D01*
X120844698Y-49404039D01*
X121010103Y-49514559D01*
X120911512Y-49573183D01*
X120693146Y-49769707D01*
X120517316Y-50005056D01*
X120390778Y-50270186D01*
X120345042Y-50420974D01*
X120466183Y-50653000D01*
X121673000Y-50653000D01*
X121673000Y-50633000D01*
X121927000Y-50633000D01*
X121927000Y-50653000D01*
X124213000Y-50653000D01*
X124213000Y-50633000D01*
X124467000Y-50633000D01*
X124467000Y-50653000D01*
X125673817Y-50653000D01*
X125794958Y-50420974D01*
X125749222Y-50270186D01*
X125622684Y-50005056D01*
X125446854Y-49769707D01*
X125335085Y-49669117D01*
X129265000Y-49669117D01*
X129265000Y-50010883D01*
X129331675Y-50346081D01*
X129462463Y-50661831D01*
X129652337Y-50945998D01*
X129894002Y-51187663D01*
X130178169Y-51377537D01*
X130493919Y-51508325D01*
X130829117Y-51575000D01*
X131170883Y-51575000D01*
X131506081Y-51508325D01*
X131821831Y-51377537D01*
X132105998Y-51187663D01*
X132347663Y-50945998D01*
X132537537Y-50661831D01*
X132668325Y-50346081D01*
X132735000Y-50010883D01*
X132735000Y-49669117D01*
X132668325Y-49333919D01*
X132537537Y-49018169D01*
X132347663Y-48734002D01*
X132105998Y-48492337D01*
X131821831Y-48302463D01*
X131506081Y-48171675D01*
X131170883Y-48105000D01*
X130829117Y-48105000D01*
X130493919Y-48171675D01*
X130178169Y-48302463D01*
X129894002Y-48492337D01*
X129652337Y-48734002D01*
X129462463Y-49018169D01*
X129331675Y-49333919D01*
X129265000Y-49669117D01*
X125335085Y-49669117D01*
X125228488Y-49573183D01*
X125129897Y-49514559D01*
X125295302Y-49404039D01*
X125504039Y-49195302D01*
X125668042Y-48949853D01*
X125781010Y-48677125D01*
X125838600Y-48387599D01*
X125838600Y-48092401D01*
X125781010Y-47802875D01*
X125668042Y-47530147D01*
X125504039Y-47284698D01*
X125295302Y-47075961D01*
X125049853Y-46911958D01*
X124777125Y-46798990D01*
X124487599Y-46741400D01*
X124192401Y-46741400D01*
X123902875Y-46798990D01*
X123630147Y-46911958D01*
X123384698Y-47075961D01*
X123175961Y-47284698D01*
X123070000Y-47443281D01*
X122964039Y-47284698D01*
X122755302Y-47075961D01*
X122509853Y-46911958D01*
X122237125Y-46798990D01*
X121947599Y-46741400D01*
X121652401Y-46741400D01*
X121362875Y-46798990D01*
X121090147Y-46911958D01*
X120844698Y-47075961D01*
X120635961Y-47284698D01*
X120471958Y-47530147D01*
X120358990Y-47802875D01*
X120301400Y-48092401D01*
X117525000Y-48092401D01*
X117525000Y-42710000D01*
X130641928Y-42710000D01*
X130654188Y-42834482D01*
X130690498Y-42954180D01*
X130749463Y-43064494D01*
X130828815Y-43161185D01*
X130845393Y-43174790D01*
X130808320Y-43230273D01*
X130700147Y-43491426D01*
X130645000Y-43768665D01*
X130645000Y-44051335D01*
X130700147Y-44328574D01*
X130808320Y-44589727D01*
X130965363Y-44824759D01*
X131165241Y-45024637D01*
X131400273Y-45181680D01*
X131661426Y-45289853D01*
X131938665Y-45345000D01*
X132221335Y-45345000D01*
X132498574Y-45289853D01*
X132759727Y-45181680D01*
X132994759Y-45024637D01*
X133194637Y-44824759D01*
X133351680Y-44589727D01*
X133459853Y-44328574D01*
X133515000Y-44051335D01*
X133515000Y-43768665D01*
X133459853Y-43491426D01*
X133351680Y-43230273D01*
X133314607Y-43174790D01*
X133331185Y-43161185D01*
X133410537Y-43064494D01*
X133469502Y-42954180D01*
X133505812Y-42834482D01*
X133518072Y-42710000D01*
X133515000Y-42195750D01*
X133356250Y-42037000D01*
X132207000Y-42037000D01*
X132207000Y-42057000D01*
X131953000Y-42057000D01*
X131953000Y-42037000D01*
X130803750Y-42037000D01*
X130645000Y-42195750D01*
X130641928Y-42710000D01*
X117525000Y-42710000D01*
X117525000Y-41110000D01*
X130641928Y-41110000D01*
X130645000Y-41624250D01*
X130803750Y-41783000D01*
X131953000Y-41783000D01*
X131953000Y-40633750D01*
X132207000Y-40633750D01*
X132207000Y-41783000D01*
X133356250Y-41783000D01*
X133449378Y-41689872D01*
X140005000Y-41689872D01*
X140005000Y-42130128D01*
X140090890Y-42561925D01*
X140259369Y-42968669D01*
X140503962Y-43334729D01*
X140815271Y-43646038D01*
X141181331Y-43890631D01*
X141588075Y-44059110D01*
X142019872Y-44145000D01*
X142460128Y-44145000D01*
X142891925Y-44059110D01*
X143298669Y-43890631D01*
X143664729Y-43646038D01*
X143976038Y-43334729D01*
X144220631Y-42968669D01*
X144389110Y-42561925D01*
X144475000Y-42130128D01*
X144475000Y-41689872D01*
X144389110Y-41258075D01*
X144220631Y-40851331D01*
X143976038Y-40485271D01*
X143664729Y-40173962D01*
X143576486Y-40115000D01*
X151011928Y-40115000D01*
X151015000Y-40354250D01*
X151173750Y-40513000D01*
X152273000Y-40513000D01*
X152273000Y-39638750D01*
X152527000Y-39638750D01*
X152527000Y-40513000D01*
X153626250Y-40513000D01*
X153785000Y-40354250D01*
X153788072Y-40115000D01*
X157361928Y-40115000D01*
X157365000Y-40354250D01*
X157523750Y-40513000D01*
X158623000Y-40513000D01*
X158623000Y-39638750D01*
X158877000Y-39638750D01*
X158877000Y-40513000D01*
X159976250Y-40513000D01*
X160135000Y-40354250D01*
X160138072Y-40115000D01*
X160125812Y-39990518D01*
X160089502Y-39870820D01*
X160030537Y-39760506D01*
X159951185Y-39663815D01*
X159854494Y-39584463D01*
X159744180Y-39525498D01*
X159624482Y-39489188D01*
X159500000Y-39476928D01*
X159035750Y-39480000D01*
X158877000Y-39638750D01*
X158623000Y-39638750D01*
X158464250Y-39480000D01*
X158000000Y-39476928D01*
X157875518Y-39489188D01*
X157755820Y-39525498D01*
X157645506Y-39584463D01*
X157548815Y-39663815D01*
X157469463Y-39760506D01*
X157410498Y-39870820D01*
X157374188Y-39990518D01*
X157361928Y-40115000D01*
X153788072Y-40115000D01*
X153775812Y-39990518D01*
X153739502Y-39870820D01*
X153680537Y-39760506D01*
X153601185Y-39663815D01*
X153504494Y-39584463D01*
X153394180Y-39525498D01*
X153274482Y-39489188D01*
X153150000Y-39476928D01*
X152685750Y-39480000D01*
X152527000Y-39638750D01*
X152273000Y-39638750D01*
X152114250Y-39480000D01*
X151650000Y-39476928D01*
X151525518Y-39489188D01*
X151405820Y-39525498D01*
X151295506Y-39584463D01*
X151198815Y-39663815D01*
X151119463Y-39760506D01*
X151060498Y-39870820D01*
X151024188Y-39990518D01*
X151011928Y-40115000D01*
X143576486Y-40115000D01*
X143298669Y-39929369D01*
X142891925Y-39760890D01*
X142460128Y-39675000D01*
X142019872Y-39675000D01*
X141588075Y-39760890D01*
X141181331Y-39929369D01*
X140815271Y-40173962D01*
X140503962Y-40485271D01*
X140259369Y-40851331D01*
X140090890Y-41258075D01*
X140005000Y-41689872D01*
X133449378Y-41689872D01*
X133515000Y-41624250D01*
X133518072Y-41110000D01*
X133505812Y-40985518D01*
X133469502Y-40865820D01*
X133410537Y-40755506D01*
X133331185Y-40658815D01*
X133234494Y-40579463D01*
X133124180Y-40520498D01*
X133004482Y-40484188D01*
X132880000Y-40471928D01*
X132365750Y-40475000D01*
X132207000Y-40633750D01*
X131953000Y-40633750D01*
X131794250Y-40475000D01*
X131280000Y-40471928D01*
X131155518Y-40484188D01*
X131035820Y-40520498D01*
X130925506Y-40579463D01*
X130828815Y-40658815D01*
X130749463Y-40755506D01*
X130690498Y-40865820D01*
X130654188Y-40985518D01*
X130641928Y-41110000D01*
X117525000Y-41110000D01*
X117525000Y-37829117D01*
X119105000Y-37829117D01*
X119105000Y-38170883D01*
X119171675Y-38506081D01*
X119302463Y-38821831D01*
X119492337Y-39105998D01*
X119734002Y-39347663D01*
X120018169Y-39537537D01*
X120333919Y-39668325D01*
X120669117Y-39735000D01*
X121010883Y-39735000D01*
X121346081Y-39668325D01*
X121661831Y-39537537D01*
X121945998Y-39347663D01*
X122187663Y-39105998D01*
X122377537Y-38821831D01*
X122508325Y-38506081D01*
X122575000Y-38170883D01*
X122575000Y-37829117D01*
X122508325Y-37493919D01*
X122377537Y-37178169D01*
X122191671Y-36900000D01*
X129261928Y-36900000D01*
X129261928Y-39100000D01*
X129274188Y-39224482D01*
X129310498Y-39344180D01*
X129369463Y-39454494D01*
X129448815Y-39551185D01*
X129545506Y-39630537D01*
X129655820Y-39689502D01*
X129775518Y-39725812D01*
X129900000Y-39738072D01*
X132100000Y-39738072D01*
X132224482Y-39725812D01*
X132344180Y-39689502D01*
X132454494Y-39630537D01*
X132551185Y-39551185D01*
X132630537Y-39454494D01*
X132689502Y-39344180D01*
X132725812Y-39224482D01*
X132738072Y-39100000D01*
X132738072Y-37300000D01*
X134451928Y-37300000D01*
X134451928Y-38900000D01*
X134464188Y-39024482D01*
X134500498Y-39144180D01*
X134559463Y-39254494D01*
X134638815Y-39351185D01*
X134735506Y-39430537D01*
X134845820Y-39489502D01*
X134965518Y-39525812D01*
X135090000Y-39538072D01*
X136690000Y-39538072D01*
X136814482Y-39525812D01*
X136934180Y-39489502D01*
X137044494Y-39430537D01*
X137141185Y-39351185D01*
X137151807Y-39338242D01*
X137403996Y-39457571D01*
X137678184Y-39526300D01*
X137960512Y-39540217D01*
X138240130Y-39498787D01*
X138506292Y-39403603D01*
X138631514Y-39336671D01*
X138703097Y-39092702D01*
X137890000Y-38279605D01*
X137875858Y-38293748D01*
X137696253Y-38114143D01*
X137710395Y-38100000D01*
X138069605Y-38100000D01*
X138882702Y-38913097D01*
X139126671Y-38841514D01*
X139247571Y-38586004D01*
X139316300Y-38311816D01*
X139330217Y-38029488D01*
X139288787Y-37749870D01*
X139193603Y-37483708D01*
X139126671Y-37358486D01*
X138882702Y-37286903D01*
X138069605Y-38100000D01*
X137710395Y-38100000D01*
X137696253Y-38085858D01*
X137875858Y-37906253D01*
X137890000Y-37920395D01*
X138703097Y-37107298D01*
X138631514Y-36863329D01*
X138376004Y-36742429D01*
X138101816Y-36673700D01*
X137819488Y-36659783D01*
X137539870Y-36701213D01*
X137273708Y-36796397D01*
X137151691Y-36861616D01*
X137141185Y-36848815D01*
X137044494Y-36769463D01*
X136934180Y-36710498D01*
X136814482Y-36674188D01*
X136690000Y-36661928D01*
X135090000Y-36661928D01*
X134965518Y-36674188D01*
X134845820Y-36710498D01*
X134735506Y-36769463D01*
X134638815Y-36848815D01*
X134559463Y-36945506D01*
X134500498Y-37055820D01*
X134464188Y-37175518D01*
X134451928Y-37300000D01*
X132738072Y-37300000D01*
X132738072Y-36900000D01*
X132725812Y-36775518D01*
X132689502Y-36655820D01*
X132630537Y-36545506D01*
X132551185Y-36448815D01*
X132454494Y-36369463D01*
X132344180Y-36310498D01*
X132224482Y-36274188D01*
X132100000Y-36261928D01*
X129900000Y-36261928D01*
X129775518Y-36274188D01*
X129655820Y-36310498D01*
X129545506Y-36369463D01*
X129448815Y-36448815D01*
X129369463Y-36545506D01*
X129310498Y-36655820D01*
X129274188Y-36775518D01*
X129261928Y-36900000D01*
X122191671Y-36900000D01*
X122187663Y-36894002D01*
X121945998Y-36652337D01*
X121661831Y-36462463D01*
X121346081Y-36331675D01*
X121010883Y-36265000D01*
X120669117Y-36265000D01*
X120333919Y-36331675D01*
X120018169Y-36462463D01*
X119734002Y-36652337D01*
X119492337Y-36894002D01*
X119302463Y-37178169D01*
X119171675Y-37493919D01*
X119105000Y-37829117D01*
X117525000Y-37829117D01*
X117525000Y-34975000D01*
X166955001Y-34975000D01*
X166955000Y-109805000D01*
G36*
X150346200Y-99571002D02*
G01*
X150369999Y-99600001D01*
X150485724Y-99694974D01*
X150617753Y-99765546D01*
X150761014Y-99809003D01*
X150872667Y-99820000D01*
X150872675Y-99820000D01*
X150910000Y-99823676D01*
X150947325Y-99820000D01*
X151181957Y-99820000D01*
X151285363Y-99974759D01*
X151485241Y-100174637D01*
X151720273Y-100331680D01*
X151981426Y-100439853D01*
X152258665Y-100495000D01*
X152541335Y-100495000D01*
X152818574Y-100439853D01*
X153079727Y-100331680D01*
X153314759Y-100174637D01*
X153514637Y-99974759D01*
X153671680Y-99739727D01*
X153779853Y-99478574D01*
X153835000Y-99201335D01*
X153835000Y-98918665D01*
X153779853Y-98641426D01*
X153671680Y-98380273D01*
X153514637Y-98145241D01*
X153314759Y-97945363D01*
X153079727Y-97788320D01*
X152818574Y-97680147D01*
X152541335Y-97625000D01*
X152258665Y-97625000D01*
X151981426Y-97680147D01*
X151720273Y-97788320D01*
X151485241Y-97945363D01*
X151285363Y-98145241D01*
X151199118Y-98274316D01*
X150059803Y-97135001D01*
X157020200Y-97135001D01*
X158621312Y-98736114D01*
X158585000Y-98918665D01*
X158585000Y-99201335D01*
X158640147Y-99478574D01*
X158748320Y-99739727D01*
X158905363Y-99974759D01*
X159105241Y-100174637D01*
X159340273Y-100331680D01*
X159601426Y-100439853D01*
X159878665Y-100495000D01*
X160161335Y-100495000D01*
X160438574Y-100439853D01*
X160699727Y-100331680D01*
X160934759Y-100174637D01*
X161134637Y-99974759D01*
X161285021Y-99749693D01*
X161285021Y-102181526D01*
X161256671Y-102128486D01*
X161012702Y-102056903D01*
X160199605Y-102870000D01*
X160213748Y-102884143D01*
X160034143Y-103063748D01*
X160020000Y-103049605D01*
X159206903Y-103862702D01*
X159278486Y-104106671D01*
X159343002Y-104137198D01*
X157560201Y-105920000D01*
X143598935Y-105920000D01*
X143664729Y-105876038D01*
X143976038Y-105564729D01*
X144220631Y-105198669D01*
X144389110Y-104791925D01*
X144475000Y-104360128D01*
X144475000Y-103919872D01*
X144389110Y-103488075D01*
X144220631Y-103081331D01*
X143976038Y-102715271D01*
X143664729Y-102403962D01*
X143298669Y-102159369D01*
X142891925Y-101990890D01*
X142460128Y-101905000D01*
X142019872Y-101905000D01*
X141588075Y-101990890D01*
X141181331Y-102159369D01*
X140815271Y-102403962D01*
X140503962Y-102715271D01*
X140259369Y-103081331D01*
X140090890Y-103488075D01*
X140005000Y-103919872D01*
X140005000Y-104360128D01*
X140090890Y-104791925D01*
X140259369Y-105198669D01*
X140503962Y-105564729D01*
X140815271Y-105876038D01*
X140881065Y-105920000D01*
X135934802Y-105920000D01*
X134913804Y-104899003D01*
X134890001Y-104869999D01*
X134774276Y-104775026D01*
X134721686Y-104746916D01*
X134689502Y-104640820D01*
X134654907Y-104576098D01*
X134718215Y-104367400D01*
X134740612Y-104140000D01*
X134718215Y-103912600D01*
X134651885Y-103693940D01*
X134550895Y-103505000D01*
X134651885Y-103316060D01*
X134718215Y-103097400D01*
X134740612Y-102870000D01*
X134718215Y-102642600D01*
X134651885Y-102423940D01*
X134544171Y-102222421D01*
X134399212Y-102045788D01*
X134222579Y-101900829D01*
X134021060Y-101793115D01*
X133802400Y-101726785D01*
X133631979Y-101710000D01*
X133068021Y-101710000D01*
X132897600Y-101726785D01*
X132678940Y-101793115D01*
X132477421Y-101900829D01*
X132300788Y-102045788D01*
X132155829Y-102222421D01*
X132048115Y-102423940D01*
X131981785Y-102642600D01*
X131975274Y-102708705D01*
X129256414Y-99989845D01*
X129322497Y-99923762D01*
X129470785Y-99701833D01*
X129540000Y-99534734D01*
X129609215Y-99701833D01*
X129757503Y-99923762D01*
X129946238Y-100112497D01*
X130168167Y-100260785D01*
X130414761Y-100362928D01*
X130676544Y-100415000D01*
X130943456Y-100415000D01*
X131205239Y-100362928D01*
X131451833Y-100260785D01*
X131673762Y-100112497D01*
X131862497Y-99923762D01*
X131931828Y-99820000D01*
X148275199Y-99820000D01*
X151001312Y-102546114D01*
X150965000Y-102728665D01*
X150965000Y-103011335D01*
X151020147Y-103288574D01*
X151128320Y-103549727D01*
X151285363Y-103784759D01*
X151485241Y-103984637D01*
X151720273Y-104141680D01*
X151981426Y-104249853D01*
X152258665Y-104305000D01*
X152541335Y-104305000D01*
X152818574Y-104249853D01*
X153079727Y-104141680D01*
X153314759Y-103984637D01*
X153514637Y-103784759D01*
X153671680Y-103549727D01*
X153779853Y-103288574D01*
X153835000Y-103011335D01*
X153835000Y-102940512D01*
X158579783Y-102940512D01*
X158621213Y-103220130D01*
X158716397Y-103486292D01*
X158783329Y-103611514D01*
X159027298Y-103683097D01*
X159840395Y-102870000D01*
X159027298Y-102056903D01*
X158783329Y-102128486D01*
X158662429Y-102383996D01*
X158593700Y-102658184D01*
X158579783Y-102940512D01*
X153835000Y-102940512D01*
X153835000Y-102728665D01*
X153779853Y-102451426D01*
X153671680Y-102190273D01*
X153514637Y-101955241D01*
X153436694Y-101877298D01*
X159206903Y-101877298D01*
X160020000Y-102690395D01*
X160833097Y-101877298D01*
X160761514Y-101633329D01*
X160506004Y-101512429D01*
X160231816Y-101443700D01*
X159949488Y-101429783D01*
X159669870Y-101471213D01*
X159403708Y-101566397D01*
X159278486Y-101633329D01*
X159206903Y-101877298D01*
X153436694Y-101877298D01*
X153314759Y-101755363D01*
X153079727Y-101598320D01*
X152818574Y-101490147D01*
X152541335Y-101435000D01*
X152258665Y-101435000D01*
X152076114Y-101471312D01*
X149153804Y-98549003D01*
X149130001Y-98519999D01*
X149014276Y-98425026D01*
X148882247Y-98354454D01*
X148738986Y-98310997D01*
X148627333Y-98300000D01*
X148627322Y-98300000D01*
X148590000Y-98296324D01*
X148552678Y-98300000D01*
X145124801Y-98300000D01*
X146561004Y-96863798D01*
X146590001Y-96840001D01*
X146684974Y-96724276D01*
X146704326Y-96688072D01*
X146850000Y-96688072D01*
X146974482Y-96675812D01*
X147094180Y-96639502D01*
X147204494Y-96580537D01*
X147287563Y-96512364D01*
X150346200Y-99571002D01*
G37*
X150346200Y-99571002D02*
X150369999Y-99600001D01*
X150485724Y-99694974D01*
X150617753Y-99765546D01*
X150761014Y-99809003D01*
X150872667Y-99820000D01*
X150872675Y-99820000D01*
X150910000Y-99823676D01*
X150947325Y-99820000D01*
X151181957Y-99820000D01*
X151285363Y-99974759D01*
X151485241Y-100174637D01*
X151720273Y-100331680D01*
X151981426Y-100439853D01*
X152258665Y-100495000D01*
X152541335Y-100495000D01*
X152818574Y-100439853D01*
X153079727Y-100331680D01*
X153314759Y-100174637D01*
X153514637Y-99974759D01*
X153671680Y-99739727D01*
X153779853Y-99478574D01*
X153835000Y-99201335D01*
X153835000Y-98918665D01*
X153779853Y-98641426D01*
X153671680Y-98380273D01*
X153514637Y-98145241D01*
X153314759Y-97945363D01*
X153079727Y-97788320D01*
X152818574Y-97680147D01*
X152541335Y-97625000D01*
X152258665Y-97625000D01*
X151981426Y-97680147D01*
X151720273Y-97788320D01*
X151485241Y-97945363D01*
X151285363Y-98145241D01*
X151199118Y-98274316D01*
X150059803Y-97135001D01*
X157020200Y-97135001D01*
X158621312Y-98736114D01*
X158585000Y-98918665D01*
X158585000Y-99201335D01*
X158640147Y-99478574D01*
X158748320Y-99739727D01*
X158905363Y-99974759D01*
X159105241Y-100174637D01*
X159340273Y-100331680D01*
X159601426Y-100439853D01*
X159878665Y-100495000D01*
X160161335Y-100495000D01*
X160438574Y-100439853D01*
X160699727Y-100331680D01*
X160934759Y-100174637D01*
X161134637Y-99974759D01*
X161285021Y-99749693D01*
X161285021Y-102181526D01*
X161256671Y-102128486D01*
X161012702Y-102056903D01*
X160199605Y-102870000D01*
X160213748Y-102884143D01*
X160034143Y-103063748D01*
X160020000Y-103049605D01*
X159206903Y-103862702D01*
X159278486Y-104106671D01*
X159343002Y-104137198D01*
X157560201Y-105920000D01*
X143598935Y-105920000D01*
X143664729Y-105876038D01*
X143976038Y-105564729D01*
X144220631Y-105198669D01*
X144389110Y-104791925D01*
X144475000Y-104360128D01*
X144475000Y-103919872D01*
X144389110Y-103488075D01*
X144220631Y-103081331D01*
X143976038Y-102715271D01*
X143664729Y-102403962D01*
X143298669Y-102159369D01*
X142891925Y-101990890D01*
X142460128Y-101905000D01*
X142019872Y-101905000D01*
X141588075Y-101990890D01*
X141181331Y-102159369D01*
X140815271Y-102403962D01*
X140503962Y-102715271D01*
X140259369Y-103081331D01*
X140090890Y-103488075D01*
X140005000Y-103919872D01*
X140005000Y-104360128D01*
X140090890Y-104791925D01*
X140259369Y-105198669D01*
X140503962Y-105564729D01*
X140815271Y-105876038D01*
X140881065Y-105920000D01*
X135934802Y-105920000D01*
X134913804Y-104899003D01*
X134890001Y-104869999D01*
X134774276Y-104775026D01*
X134721686Y-104746916D01*
X134689502Y-104640820D01*
X134654907Y-104576098D01*
X134718215Y-104367400D01*
X134740612Y-104140000D01*
X134718215Y-103912600D01*
X134651885Y-103693940D01*
X134550895Y-103505000D01*
X134651885Y-103316060D01*
X134718215Y-103097400D01*
X134740612Y-102870000D01*
X134718215Y-102642600D01*
X134651885Y-102423940D01*
X134544171Y-102222421D01*
X134399212Y-102045788D01*
X134222579Y-101900829D01*
X134021060Y-101793115D01*
X133802400Y-101726785D01*
X133631979Y-101710000D01*
X133068021Y-101710000D01*
X132897600Y-101726785D01*
X132678940Y-101793115D01*
X132477421Y-101900829D01*
X132300788Y-102045788D01*
X132155829Y-102222421D01*
X132048115Y-102423940D01*
X131981785Y-102642600D01*
X131975274Y-102708705D01*
X129256414Y-99989845D01*
X129322497Y-99923762D01*
X129470785Y-99701833D01*
X129540000Y-99534734D01*
X129609215Y-99701833D01*
X129757503Y-99923762D01*
X129946238Y-100112497D01*
X130168167Y-100260785D01*
X130414761Y-100362928D01*
X130676544Y-100415000D01*
X130943456Y-100415000D01*
X131205239Y-100362928D01*
X131451833Y-100260785D01*
X131673762Y-100112497D01*
X131862497Y-99923762D01*
X131931828Y-99820000D01*
X148275199Y-99820000D01*
X151001312Y-102546114D01*
X150965000Y-102728665D01*
X150965000Y-103011335D01*
X151020147Y-103288574D01*
X151128320Y-103549727D01*
X151285363Y-103784759D01*
X151485241Y-103984637D01*
X151720273Y-104141680D01*
X151981426Y-104249853D01*
X152258665Y-104305000D01*
X152541335Y-104305000D01*
X152818574Y-104249853D01*
X153079727Y-104141680D01*
X153314759Y-103984637D01*
X153514637Y-103784759D01*
X153671680Y-103549727D01*
X153779853Y-103288574D01*
X153835000Y-103011335D01*
X153835000Y-102940512D01*
X158579783Y-102940512D01*
X158621213Y-103220130D01*
X158716397Y-103486292D01*
X158783329Y-103611514D01*
X159027298Y-103683097D01*
X159840395Y-102870000D01*
X159027298Y-102056903D01*
X158783329Y-102128486D01*
X158662429Y-102383996D01*
X158593700Y-102658184D01*
X158579783Y-102940512D01*
X153835000Y-102940512D01*
X153835000Y-102728665D01*
X153779853Y-102451426D01*
X153671680Y-102190273D01*
X153514637Y-101955241D01*
X153436694Y-101877298D01*
X159206903Y-101877298D01*
X160020000Y-102690395D01*
X160833097Y-101877298D01*
X160761514Y-101633329D01*
X160506004Y-101512429D01*
X160231816Y-101443700D01*
X159949488Y-101429783D01*
X159669870Y-101471213D01*
X159403708Y-101566397D01*
X159278486Y-101633329D01*
X159206903Y-101877298D01*
X153436694Y-101877298D01*
X153314759Y-101755363D01*
X153079727Y-101598320D01*
X152818574Y-101490147D01*
X152541335Y-101435000D01*
X152258665Y-101435000D01*
X152076114Y-101471312D01*
X149153804Y-98549003D01*
X149130001Y-98519999D01*
X149014276Y-98425026D01*
X148882247Y-98354454D01*
X148738986Y-98310997D01*
X148627333Y-98300000D01*
X148627322Y-98300000D01*
X148590000Y-98296324D01*
X148552678Y-98300000D01*
X145124801Y-98300000D01*
X146561004Y-96863798D01*
X146590001Y-96840001D01*
X146684974Y-96724276D01*
X146704326Y-96688072D01*
X146850000Y-96688072D01*
X146974482Y-96675812D01*
X147094180Y-96639502D01*
X147204494Y-96580537D01*
X147287563Y-96512364D01*
X150346200Y-99571002D01*
G36*
X160147000Y-83693000D02*
G01*
X160167000Y-83693000D01*
X160167000Y-83947000D01*
X160147000Y-83947000D01*
X160147000Y-85090624D01*
X160369040Y-85211909D01*
X160633881Y-85117070D01*
X160835011Y-84996446D01*
X160835012Y-90445381D01*
X160833097Y-90447296D01*
X160761514Y-90203329D01*
X160506004Y-90082429D01*
X160231816Y-90013700D01*
X159949488Y-89999783D01*
X159669870Y-90041213D01*
X159403708Y-90136397D01*
X159278486Y-90203329D01*
X159206903Y-90447298D01*
X160020000Y-91260395D01*
X160034143Y-91246253D01*
X160213748Y-91425858D01*
X160199605Y-91440000D01*
X160213748Y-91454143D01*
X160034143Y-91633748D01*
X160020000Y-91619605D01*
X159206903Y-92432702D01*
X159278486Y-92676671D01*
X159533996Y-92797571D01*
X159808184Y-92866300D01*
X160090512Y-92880217D01*
X160370130Y-92838787D01*
X160636292Y-92743603D01*
X160761514Y-92676671D01*
X160833097Y-92432704D01*
X160835012Y-92434619D01*
X160835012Y-94068714D01*
X160699727Y-93978320D01*
X160438574Y-93870147D01*
X160161335Y-93815000D01*
X159878665Y-93815000D01*
X159601426Y-93870147D01*
X159340273Y-93978320D01*
X159105241Y-94135363D01*
X158905363Y-94335241D01*
X158748320Y-94570273D01*
X158640147Y-94831426D01*
X158585000Y-95108665D01*
X158585000Y-95391335D01*
X158640147Y-95668574D01*
X158748320Y-95929727D01*
X158905363Y-96164759D01*
X159105241Y-96364637D01*
X159340273Y-96521680D01*
X159601426Y-96629853D01*
X159878665Y-96685000D01*
X160161335Y-96685000D01*
X160438574Y-96629853D01*
X160699727Y-96521680D01*
X160835012Y-96431286D01*
X160835012Y-97170186D01*
X160343886Y-97661312D01*
X160161335Y-97625000D01*
X159878665Y-97625000D01*
X159696114Y-97661312D01*
X157898805Y-95864004D01*
X157875002Y-95835000D01*
X157759277Y-95740027D01*
X157627248Y-95669455D01*
X157483987Y-95625998D01*
X157372334Y-95615001D01*
X157372323Y-95615001D01*
X157335001Y-95611325D01*
X157297679Y-95615001D01*
X153790509Y-95615001D01*
X153835000Y-95391335D01*
X153835000Y-95108665D01*
X153779853Y-94831426D01*
X153671680Y-94570273D01*
X153514637Y-94335241D01*
X153314759Y-94135363D01*
X153160000Y-94031957D01*
X153160000Y-92658043D01*
X153314759Y-92554637D01*
X153514637Y-92354759D01*
X153671680Y-92119727D01*
X153779853Y-91858574D01*
X153835000Y-91581335D01*
X153835000Y-91510512D01*
X158579783Y-91510512D01*
X158621213Y-91790130D01*
X158716397Y-92056292D01*
X158783329Y-92181514D01*
X159027298Y-92253097D01*
X159840395Y-91440000D01*
X159027298Y-90626903D01*
X158783329Y-90698486D01*
X158662429Y-90953996D01*
X158593700Y-91228184D01*
X158579783Y-91510512D01*
X153835000Y-91510512D01*
X153835000Y-91298665D01*
X153779853Y-91021426D01*
X153671680Y-90760273D01*
X153514637Y-90525241D01*
X153314759Y-90325363D01*
X153079727Y-90168320D01*
X152818574Y-90060147D01*
X152541335Y-90005000D01*
X152258665Y-90005000D01*
X152076114Y-90041312D01*
X151693804Y-89659003D01*
X151670001Y-89629999D01*
X151554276Y-89535026D01*
X151422247Y-89464454D01*
X151278986Y-89420997D01*
X151167333Y-89410000D01*
X151167322Y-89410000D01*
X151130000Y-89406324D01*
X151092678Y-89410000D01*
X147268043Y-89410000D01*
X147164637Y-89255241D01*
X146964759Y-89055363D01*
X146732241Y-88900000D01*
X146964759Y-88744637D01*
X147164637Y-88544759D01*
X147321680Y-88309727D01*
X147429853Y-88048574D01*
X147485000Y-87771335D01*
X147485000Y-87488665D01*
X151005000Y-87488665D01*
X151005000Y-87771335D01*
X151060147Y-88048574D01*
X151168320Y-88309727D01*
X151325363Y-88544759D01*
X151525241Y-88744637D01*
X151760273Y-88901680D01*
X152021426Y-89009853D01*
X152298665Y-89065000D01*
X152581335Y-89065000D01*
X152858574Y-89009853D01*
X153119727Y-88901680D01*
X153354759Y-88744637D01*
X153476694Y-88622702D01*
X154126903Y-88622702D01*
X154198486Y-88866671D01*
X154453996Y-88987571D01*
X154728184Y-89056300D01*
X155010512Y-89070217D01*
X155290130Y-89028787D01*
X155556292Y-88933603D01*
X155681514Y-88866671D01*
X155753097Y-88622702D01*
X154940000Y-87809605D01*
X154126903Y-88622702D01*
X153476694Y-88622702D01*
X153554637Y-88544759D01*
X153688692Y-88344131D01*
X153703329Y-88371514D01*
X153947298Y-88443097D01*
X154760395Y-87630000D01*
X155119605Y-87630000D01*
X155932702Y-88443097D01*
X156176671Y-88371514D01*
X156297571Y-88116004D01*
X156366300Y-87841816D01*
X156380217Y-87559488D01*
X156338787Y-87279870D01*
X156243603Y-87013708D01*
X156176671Y-86888486D01*
X155932702Y-86816903D01*
X155119605Y-87630000D01*
X154760395Y-87630000D01*
X153947298Y-86816903D01*
X153703329Y-86888486D01*
X153689676Y-86917341D01*
X153554637Y-86715241D01*
X153476694Y-86637298D01*
X154126903Y-86637298D01*
X154940000Y-87450395D01*
X155753097Y-86637298D01*
X155681514Y-86393329D01*
X155426004Y-86272429D01*
X155151816Y-86203700D01*
X154869488Y-86189783D01*
X154589870Y-86231213D01*
X154323708Y-86326397D01*
X154198486Y-86393329D01*
X154126903Y-86637298D01*
X153476694Y-86637298D01*
X153354759Y-86515363D01*
X153119727Y-86358320D01*
X152858574Y-86250147D01*
X152581335Y-86195000D01*
X152298665Y-86195000D01*
X152021426Y-86250147D01*
X151760273Y-86358320D01*
X151525241Y-86515363D01*
X151325363Y-86715241D01*
X151168320Y-86950273D01*
X151060147Y-87211426D01*
X151005000Y-87488665D01*
X147485000Y-87488665D01*
X147429853Y-87211426D01*
X147321680Y-86950273D01*
X147164637Y-86715241D01*
X146964759Y-86515363D01*
X146732241Y-86360000D01*
X146964759Y-86204637D01*
X147164637Y-86004759D01*
X147268043Y-85850000D01*
X156567680Y-85850000D01*
X156605002Y-85853676D01*
X156642324Y-85850000D01*
X156642335Y-85850000D01*
X156753988Y-85839003D01*
X156897249Y-85795546D01*
X157029278Y-85724974D01*
X157145003Y-85630001D01*
X157168806Y-85600997D01*
X158661421Y-84108382D01*
X158628096Y-84169039D01*
X158668754Y-84303087D01*
X158788963Y-84557420D01*
X158956481Y-84783414D01*
X159164869Y-84972385D01*
X159406119Y-85117070D01*
X159670960Y-85211909D01*
X159893000Y-85090624D01*
X159893000Y-83947000D01*
X159873000Y-83947000D01*
X159873000Y-83693000D01*
X159893000Y-83693000D01*
X159893000Y-83673000D01*
X160147000Y-83673000D01*
X160147000Y-83693000D01*
G37*
X160147000Y-83693000D02*
X160167000Y-83693000D01*
X160167000Y-83947000D01*
X160147000Y-83947000D01*
X160147000Y-85090624D01*
X160369040Y-85211909D01*
X160633881Y-85117070D01*
X160835011Y-84996446D01*
X160835012Y-90445381D01*
X160833097Y-90447296D01*
X160761514Y-90203329D01*
X160506004Y-90082429D01*
X160231816Y-90013700D01*
X159949488Y-89999783D01*
X159669870Y-90041213D01*
X159403708Y-90136397D01*
X159278486Y-90203329D01*
X159206903Y-90447298D01*
X160020000Y-91260395D01*
X160034143Y-91246253D01*
X160213748Y-91425858D01*
X160199605Y-91440000D01*
X160213748Y-91454143D01*
X160034143Y-91633748D01*
X160020000Y-91619605D01*
X159206903Y-92432702D01*
X159278486Y-92676671D01*
X159533996Y-92797571D01*
X159808184Y-92866300D01*
X160090512Y-92880217D01*
X160370130Y-92838787D01*
X160636292Y-92743603D01*
X160761514Y-92676671D01*
X160833097Y-92432704D01*
X160835012Y-92434619D01*
X160835012Y-94068714D01*
X160699727Y-93978320D01*
X160438574Y-93870147D01*
X160161335Y-93815000D01*
X159878665Y-93815000D01*
X159601426Y-93870147D01*
X159340273Y-93978320D01*
X159105241Y-94135363D01*
X158905363Y-94335241D01*
X158748320Y-94570273D01*
X158640147Y-94831426D01*
X158585000Y-95108665D01*
X158585000Y-95391335D01*
X158640147Y-95668574D01*
X158748320Y-95929727D01*
X158905363Y-96164759D01*
X159105241Y-96364637D01*
X159340273Y-96521680D01*
X159601426Y-96629853D01*
X159878665Y-96685000D01*
X160161335Y-96685000D01*
X160438574Y-96629853D01*
X160699727Y-96521680D01*
X160835012Y-96431286D01*
X160835012Y-97170186D01*
X160343886Y-97661312D01*
X160161335Y-97625000D01*
X159878665Y-97625000D01*
X159696114Y-97661312D01*
X157898805Y-95864004D01*
X157875002Y-95835000D01*
X157759277Y-95740027D01*
X157627248Y-95669455D01*
X157483987Y-95625998D01*
X157372334Y-95615001D01*
X157372323Y-95615001D01*
X157335001Y-95611325D01*
X157297679Y-95615001D01*
X153790509Y-95615001D01*
X153835000Y-95391335D01*
X153835000Y-95108665D01*
X153779853Y-94831426D01*
X153671680Y-94570273D01*
X153514637Y-94335241D01*
X153314759Y-94135363D01*
X153160000Y-94031957D01*
X153160000Y-92658043D01*
X153314759Y-92554637D01*
X153514637Y-92354759D01*
X153671680Y-92119727D01*
X153779853Y-91858574D01*
X153835000Y-91581335D01*
X153835000Y-91510512D01*
X158579783Y-91510512D01*
X158621213Y-91790130D01*
X158716397Y-92056292D01*
X158783329Y-92181514D01*
X159027298Y-92253097D01*
X159840395Y-91440000D01*
X159027298Y-90626903D01*
X158783329Y-90698486D01*
X158662429Y-90953996D01*
X158593700Y-91228184D01*
X158579783Y-91510512D01*
X153835000Y-91510512D01*
X153835000Y-91298665D01*
X153779853Y-91021426D01*
X153671680Y-90760273D01*
X153514637Y-90525241D01*
X153314759Y-90325363D01*
X153079727Y-90168320D01*
X152818574Y-90060147D01*
X152541335Y-90005000D01*
X152258665Y-90005000D01*
X152076114Y-90041312D01*
X151693804Y-89659003D01*
X151670001Y-89629999D01*
X151554276Y-89535026D01*
X151422247Y-89464454D01*
X151278986Y-89420997D01*
X151167333Y-89410000D01*
X151167322Y-89410000D01*
X151130000Y-89406324D01*
X151092678Y-89410000D01*
X147268043Y-89410000D01*
X147164637Y-89255241D01*
X146964759Y-89055363D01*
X146732241Y-88900000D01*
X146964759Y-88744637D01*
X147164637Y-88544759D01*
X147321680Y-88309727D01*
X147429853Y-88048574D01*
X147485000Y-87771335D01*
X147485000Y-87488665D01*
X151005000Y-87488665D01*
X151005000Y-87771335D01*
X151060147Y-88048574D01*
X151168320Y-88309727D01*
X151325363Y-88544759D01*
X151525241Y-88744637D01*
X151760273Y-88901680D01*
X152021426Y-89009853D01*
X152298665Y-89065000D01*
X152581335Y-89065000D01*
X152858574Y-89009853D01*
X153119727Y-88901680D01*
X153354759Y-88744637D01*
X153476694Y-88622702D01*
X154126903Y-88622702D01*
X154198486Y-88866671D01*
X154453996Y-88987571D01*
X154728184Y-89056300D01*
X155010512Y-89070217D01*
X155290130Y-89028787D01*
X155556292Y-88933603D01*
X155681514Y-88866671D01*
X155753097Y-88622702D01*
X154940000Y-87809605D01*
X154126903Y-88622702D01*
X153476694Y-88622702D01*
X153554637Y-88544759D01*
X153688692Y-88344131D01*
X153703329Y-88371514D01*
X153947298Y-88443097D01*
X154760395Y-87630000D01*
X155119605Y-87630000D01*
X155932702Y-88443097D01*
X156176671Y-88371514D01*
X156297571Y-88116004D01*
X156366300Y-87841816D01*
X156380217Y-87559488D01*
X156338787Y-87279870D01*
X156243603Y-87013708D01*
X156176671Y-86888486D01*
X155932702Y-86816903D01*
X155119605Y-87630000D01*
X154760395Y-87630000D01*
X153947298Y-86816903D01*
X153703329Y-86888486D01*
X153689676Y-86917341D01*
X153554637Y-86715241D01*
X153476694Y-86637298D01*
X154126903Y-86637298D01*
X154940000Y-87450395D01*
X155753097Y-86637298D01*
X155681514Y-86393329D01*
X155426004Y-86272429D01*
X155151816Y-86203700D01*
X154869488Y-86189783D01*
X154589870Y-86231213D01*
X154323708Y-86326397D01*
X154198486Y-86393329D01*
X154126903Y-86637298D01*
X153476694Y-86637298D01*
X153354759Y-86515363D01*
X153119727Y-86358320D01*
X152858574Y-86250147D01*
X152581335Y-86195000D01*
X152298665Y-86195000D01*
X152021426Y-86250147D01*
X151760273Y-86358320D01*
X151525241Y-86515363D01*
X151325363Y-86715241D01*
X151168320Y-86950273D01*
X151060147Y-87211426D01*
X151005000Y-87488665D01*
X147485000Y-87488665D01*
X147429853Y-87211426D01*
X147321680Y-86950273D01*
X147164637Y-86715241D01*
X146964759Y-86515363D01*
X146732241Y-86360000D01*
X146964759Y-86204637D01*
X147164637Y-86004759D01*
X147268043Y-85850000D01*
X156567680Y-85850000D01*
X156605002Y-85853676D01*
X156642324Y-85850000D01*
X156642335Y-85850000D01*
X156753988Y-85839003D01*
X156897249Y-85795546D01*
X157029278Y-85724974D01*
X157145003Y-85630001D01*
X157168806Y-85600997D01*
X158661421Y-84108382D01*
X158628096Y-84169039D01*
X158668754Y-84303087D01*
X158788963Y-84557420D01*
X158956481Y-84783414D01*
X159164869Y-84972385D01*
X159406119Y-85117070D01*
X159670960Y-85211909D01*
X159893000Y-85090624D01*
X159893000Y-83947000D01*
X159873000Y-83947000D01*
X159873000Y-83693000D01*
X159893000Y-83693000D01*
X159893000Y-83673000D01*
X160147000Y-83673000D01*
X160147000Y-83693000D01*
G36*
X124676426Y-82024853D02*
G01*
X124953665Y-82080000D01*
X125236335Y-82080000D01*
X125418886Y-82043688D01*
X125801200Y-82426002D01*
X125824999Y-82455001D01*
X125853997Y-82478799D01*
X125940723Y-82549974D01*
X126072753Y-82620546D01*
X126216014Y-82664003D01*
X126327667Y-82675000D01*
X126327677Y-82675000D01*
X126365000Y-82678676D01*
X126402323Y-82675000D01*
X128811589Y-82675000D01*
X128766903Y-82827298D01*
X129580000Y-83640395D01*
X130393097Y-82827298D01*
X130348411Y-82675000D01*
X131210683Y-82675000D01*
X131165241Y-82705363D01*
X130965363Y-82905241D01*
X130831308Y-83105869D01*
X130816671Y-83078486D01*
X130572702Y-83006903D01*
X129759605Y-83820000D01*
X130572702Y-84633097D01*
X130816671Y-84561514D01*
X130830324Y-84532659D01*
X130965363Y-84734759D01*
X131165241Y-84934637D01*
X131397759Y-85090000D01*
X131165241Y-85245363D01*
X130965363Y-85445241D01*
X130831308Y-85645869D01*
X130816671Y-85618486D01*
X130572702Y-85546903D01*
X129759605Y-86360000D01*
X130572702Y-87173097D01*
X130816671Y-87101514D01*
X130830324Y-87072659D01*
X130965363Y-87274759D01*
X131165241Y-87474637D01*
X131400273Y-87631680D01*
X131661426Y-87739853D01*
X131938665Y-87795000D01*
X132221335Y-87795000D01*
X132498574Y-87739853D01*
X132759727Y-87631680D01*
X132994759Y-87474637D01*
X133194637Y-87274759D01*
X133351680Y-87039727D01*
X133459853Y-86778574D01*
X133515000Y-86501335D01*
X133515000Y-86218665D01*
X133459853Y-85941426D01*
X133351680Y-85680273D01*
X133194637Y-85445241D01*
X132994759Y-85245363D01*
X132762241Y-85090000D01*
X132994759Y-84934637D01*
X133194637Y-84734759D01*
X133298043Y-84580000D01*
X136845199Y-84580000D01*
X137031312Y-84766114D01*
X136995000Y-84948665D01*
X136995000Y-85231335D01*
X137050147Y-85508574D01*
X137158320Y-85769727D01*
X137315363Y-86004759D01*
X137515241Y-86204637D01*
X137747759Y-86360000D01*
X137515241Y-86515363D01*
X137315363Y-86715241D01*
X137158320Y-86950273D01*
X137050147Y-87211426D01*
X136995000Y-87488665D01*
X136995000Y-87771335D01*
X137050147Y-88048574D01*
X137148077Y-88284999D01*
X134512324Y-88284999D01*
X134475001Y-88281323D01*
X134437678Y-88284999D01*
X134437668Y-88284999D01*
X134326015Y-88295996D01*
X134182754Y-88339453D01*
X134050724Y-88410025D01*
X133967084Y-88478667D01*
X133935000Y-88504998D01*
X133911202Y-88533996D01*
X132403886Y-90041312D01*
X132221335Y-90005000D01*
X131938665Y-90005000D01*
X131661426Y-90060147D01*
X131400273Y-90168320D01*
X131165241Y-90325363D01*
X130965363Y-90525241D01*
X130808320Y-90760273D01*
X130700147Y-91021426D01*
X130645000Y-91298665D01*
X130645000Y-91581335D01*
X130700147Y-91858574D01*
X130808320Y-92119727D01*
X130965363Y-92354759D01*
X131165241Y-92554637D01*
X131400273Y-92711680D01*
X131661426Y-92819853D01*
X131938665Y-92875000D01*
X132110199Y-92875000D01*
X131772058Y-93213141D01*
X131661426Y-93235147D01*
X131400273Y-93343320D01*
X131165241Y-93500363D01*
X130965363Y-93700241D01*
X130861957Y-93855000D01*
X127949802Y-93855000D01*
X125858688Y-91763886D01*
X125895000Y-91581335D01*
X125895000Y-91298665D01*
X125839853Y-91021426D01*
X125731680Y-90760273D01*
X125574637Y-90525241D01*
X125374759Y-90325363D01*
X125139727Y-90168320D01*
X124878574Y-90060147D01*
X124601335Y-90005000D01*
X124420001Y-90005000D01*
X124420001Y-89525540D01*
X124611913Y-89616246D01*
X124745961Y-89656904D01*
X124968000Y-89534915D01*
X124968000Y-88392000D01*
X125222000Y-88392000D01*
X125222000Y-89534915D01*
X125444039Y-89656904D01*
X125578087Y-89616246D01*
X125832420Y-89496037D01*
X126058414Y-89328519D01*
X126247385Y-89120131D01*
X126392070Y-88878881D01*
X126486909Y-88614040D01*
X126365624Y-88392000D01*
X125222000Y-88392000D01*
X124968000Y-88392000D01*
X124948000Y-88392000D01*
X124948000Y-88138000D01*
X124968000Y-88138000D01*
X124968000Y-86995085D01*
X125222000Y-86995085D01*
X125222000Y-88138000D01*
X126365624Y-88138000D01*
X126486909Y-87915960D01*
X126392070Y-87651119D01*
X126247385Y-87409869D01*
X126195545Y-87352702D01*
X128766903Y-87352702D01*
X128838486Y-87596671D01*
X129093996Y-87717571D01*
X129368184Y-87786300D01*
X129650512Y-87800217D01*
X129930130Y-87758787D01*
X130196292Y-87663603D01*
X130321514Y-87596671D01*
X130393097Y-87352702D01*
X129580000Y-86539605D01*
X128766903Y-87352702D01*
X126195545Y-87352702D01*
X126058414Y-87201481D01*
X125832420Y-87033963D01*
X125578087Y-86913754D01*
X125444039Y-86873096D01*
X125222000Y-86995085D01*
X124968000Y-86995085D01*
X124745961Y-86873096D01*
X124611913Y-86913754D01*
X124420001Y-87004460D01*
X124420001Y-86430512D01*
X128139783Y-86430512D01*
X128181213Y-86710130D01*
X128276397Y-86976292D01*
X128343329Y-87101514D01*
X128587298Y-87173097D01*
X129400395Y-86360000D01*
X128587298Y-85546903D01*
X128343329Y-85618486D01*
X128222429Y-85873996D01*
X128153700Y-86148184D01*
X128139783Y-86430512D01*
X124420001Y-86430512D01*
X124420001Y-84812702D01*
X128766903Y-84812702D01*
X128838486Y-85056671D01*
X128904636Y-85087971D01*
X128838486Y-85123329D01*
X128766903Y-85367298D01*
X129580000Y-86180395D01*
X130393097Y-85367298D01*
X130321514Y-85123329D01*
X130255364Y-85092029D01*
X130321514Y-85056671D01*
X130393097Y-84812702D01*
X129580000Y-83999605D01*
X128766903Y-84812702D01*
X124420001Y-84812702D01*
X124420001Y-83890512D01*
X128139783Y-83890512D01*
X128181213Y-84170130D01*
X128276397Y-84436292D01*
X128343329Y-84561514D01*
X128587298Y-84633097D01*
X129400395Y-83820000D01*
X128587298Y-83006903D01*
X128343329Y-83078486D01*
X128222429Y-83333996D01*
X128153700Y-83608184D01*
X128139783Y-83890512D01*
X124420001Y-83890512D01*
X124420001Y-81918638D01*
X124676426Y-82024853D01*
G37*
X124676426Y-82024853D02*
X124953665Y-82080000D01*
X125236335Y-82080000D01*
X125418886Y-82043688D01*
X125801200Y-82426002D01*
X125824999Y-82455001D01*
X125853997Y-82478799D01*
X125940723Y-82549974D01*
X126072753Y-82620546D01*
X126216014Y-82664003D01*
X126327667Y-82675000D01*
X126327677Y-82675000D01*
X126365000Y-82678676D01*
X126402323Y-82675000D01*
X128811589Y-82675000D01*
X128766903Y-82827298D01*
X129580000Y-83640395D01*
X130393097Y-82827298D01*
X130348411Y-82675000D01*
X131210683Y-82675000D01*
X131165241Y-82705363D01*
X130965363Y-82905241D01*
X130831308Y-83105869D01*
X130816671Y-83078486D01*
X130572702Y-83006903D01*
X129759605Y-83820000D01*
X130572702Y-84633097D01*
X130816671Y-84561514D01*
X130830324Y-84532659D01*
X130965363Y-84734759D01*
X131165241Y-84934637D01*
X131397759Y-85090000D01*
X131165241Y-85245363D01*
X130965363Y-85445241D01*
X130831308Y-85645869D01*
X130816671Y-85618486D01*
X130572702Y-85546903D01*
X129759605Y-86360000D01*
X130572702Y-87173097D01*
X130816671Y-87101514D01*
X130830324Y-87072659D01*
X130965363Y-87274759D01*
X131165241Y-87474637D01*
X131400273Y-87631680D01*
X131661426Y-87739853D01*
X131938665Y-87795000D01*
X132221335Y-87795000D01*
X132498574Y-87739853D01*
X132759727Y-87631680D01*
X132994759Y-87474637D01*
X133194637Y-87274759D01*
X133351680Y-87039727D01*
X133459853Y-86778574D01*
X133515000Y-86501335D01*
X133515000Y-86218665D01*
X133459853Y-85941426D01*
X133351680Y-85680273D01*
X133194637Y-85445241D01*
X132994759Y-85245363D01*
X132762241Y-85090000D01*
X132994759Y-84934637D01*
X133194637Y-84734759D01*
X133298043Y-84580000D01*
X136845199Y-84580000D01*
X137031312Y-84766114D01*
X136995000Y-84948665D01*
X136995000Y-85231335D01*
X137050147Y-85508574D01*
X137158320Y-85769727D01*
X137315363Y-86004759D01*
X137515241Y-86204637D01*
X137747759Y-86360000D01*
X137515241Y-86515363D01*
X137315363Y-86715241D01*
X137158320Y-86950273D01*
X137050147Y-87211426D01*
X136995000Y-87488665D01*
X136995000Y-87771335D01*
X137050147Y-88048574D01*
X137148077Y-88284999D01*
X134512324Y-88284999D01*
X134475001Y-88281323D01*
X134437678Y-88284999D01*
X134437668Y-88284999D01*
X134326015Y-88295996D01*
X134182754Y-88339453D01*
X134050724Y-88410025D01*
X133967084Y-88478667D01*
X133935000Y-88504998D01*
X133911202Y-88533996D01*
X132403886Y-90041312D01*
X132221335Y-90005000D01*
X131938665Y-90005000D01*
X131661426Y-90060147D01*
X131400273Y-90168320D01*
X131165241Y-90325363D01*
X130965363Y-90525241D01*
X130808320Y-90760273D01*
X130700147Y-91021426D01*
X130645000Y-91298665D01*
X130645000Y-91581335D01*
X130700147Y-91858574D01*
X130808320Y-92119727D01*
X130965363Y-92354759D01*
X131165241Y-92554637D01*
X131400273Y-92711680D01*
X131661426Y-92819853D01*
X131938665Y-92875000D01*
X132110199Y-92875000D01*
X131772058Y-93213141D01*
X131661426Y-93235147D01*
X131400273Y-93343320D01*
X131165241Y-93500363D01*
X130965363Y-93700241D01*
X130861957Y-93855000D01*
X127949802Y-93855000D01*
X125858688Y-91763886D01*
X125895000Y-91581335D01*
X125895000Y-91298665D01*
X125839853Y-91021426D01*
X125731680Y-90760273D01*
X125574637Y-90525241D01*
X125374759Y-90325363D01*
X125139727Y-90168320D01*
X124878574Y-90060147D01*
X124601335Y-90005000D01*
X124420001Y-90005000D01*
X124420001Y-89525540D01*
X124611913Y-89616246D01*
X124745961Y-89656904D01*
X124968000Y-89534915D01*
X124968000Y-88392000D01*
X125222000Y-88392000D01*
X125222000Y-89534915D01*
X125444039Y-89656904D01*
X125578087Y-89616246D01*
X125832420Y-89496037D01*
X126058414Y-89328519D01*
X126247385Y-89120131D01*
X126392070Y-88878881D01*
X126486909Y-88614040D01*
X126365624Y-88392000D01*
X125222000Y-88392000D01*
X124968000Y-88392000D01*
X124948000Y-88392000D01*
X124948000Y-88138000D01*
X124968000Y-88138000D01*
X124968000Y-86995085D01*
X125222000Y-86995085D01*
X125222000Y-88138000D01*
X126365624Y-88138000D01*
X126486909Y-87915960D01*
X126392070Y-87651119D01*
X126247385Y-87409869D01*
X126195545Y-87352702D01*
X128766903Y-87352702D01*
X128838486Y-87596671D01*
X129093996Y-87717571D01*
X129368184Y-87786300D01*
X129650512Y-87800217D01*
X129930130Y-87758787D01*
X130196292Y-87663603D01*
X130321514Y-87596671D01*
X130393097Y-87352702D01*
X129580000Y-86539605D01*
X128766903Y-87352702D01*
X126195545Y-87352702D01*
X126058414Y-87201481D01*
X125832420Y-87033963D01*
X125578087Y-86913754D01*
X125444039Y-86873096D01*
X125222000Y-86995085D01*
X124968000Y-86995085D01*
X124745961Y-86873096D01*
X124611913Y-86913754D01*
X124420001Y-87004460D01*
X124420001Y-86430512D01*
X128139783Y-86430512D01*
X128181213Y-86710130D01*
X128276397Y-86976292D01*
X128343329Y-87101514D01*
X128587298Y-87173097D01*
X129400395Y-86360000D01*
X128587298Y-85546903D01*
X128343329Y-85618486D01*
X128222429Y-85873996D01*
X128153700Y-86148184D01*
X128139783Y-86430512D01*
X124420001Y-86430512D01*
X124420001Y-84812702D01*
X128766903Y-84812702D01*
X128838486Y-85056671D01*
X128904636Y-85087971D01*
X128838486Y-85123329D01*
X128766903Y-85367298D01*
X129580000Y-86180395D01*
X130393097Y-85367298D01*
X130321514Y-85123329D01*
X130255364Y-85092029D01*
X130321514Y-85056671D01*
X130393097Y-84812702D01*
X129580000Y-83999605D01*
X128766903Y-84812702D01*
X124420001Y-84812702D01*
X124420001Y-83890512D01*
X128139783Y-83890512D01*
X128181213Y-84170130D01*
X128276397Y-84436292D01*
X128343329Y-84561514D01*
X128587298Y-84633097D01*
X129400395Y-83820000D01*
X128587298Y-83006903D01*
X128343329Y-83078486D01*
X128222429Y-83333996D01*
X128153700Y-83608184D01*
X128139783Y-83890512D01*
X124420001Y-83890512D01*
X124420001Y-81918638D01*
X124676426Y-82024853D01*
G36*
X144896525Y-51746632D02*
G01*
X145103368Y-51953475D01*
X145346589Y-52115990D01*
X145616842Y-52227932D01*
X145903740Y-52285000D01*
X146030198Y-52285000D01*
X141729003Y-56586196D01*
X141699999Y-56609999D01*
X141644871Y-56677174D01*
X141605026Y-56725724D01*
X141568126Y-56794759D01*
X141534454Y-56857754D01*
X141490997Y-57001015D01*
X141480000Y-57112668D01*
X141480000Y-57112678D01*
X141476324Y-57150000D01*
X141480000Y-57187322D01*
X141480001Y-76162667D01*
X141476324Y-76200000D01*
X141480001Y-76237333D01*
X141490998Y-76348986D01*
X141493217Y-76356300D01*
X141534454Y-76492246D01*
X141605026Y-76624276D01*
X141658966Y-76690001D01*
X141700000Y-76740001D01*
X141728998Y-76763799D01*
X144651312Y-79686114D01*
X144615000Y-79868665D01*
X144615000Y-80151335D01*
X144651312Y-80333887D01*
X144413997Y-80571202D01*
X144384999Y-80595000D01*
X144361201Y-80623998D01*
X144361200Y-80623999D01*
X144290025Y-80710725D01*
X144219453Y-80842755D01*
X144194578Y-80924759D01*
X144179342Y-80974990D01*
X144175997Y-80986016D01*
X144161323Y-81135001D01*
X144165000Y-81172333D01*
X144164999Y-82485201D01*
X139700978Y-86949223D01*
X139544637Y-86715241D01*
X139344759Y-86515363D01*
X139112241Y-86360000D01*
X139344759Y-86204637D01*
X139544637Y-86004759D01*
X139701680Y-85769727D01*
X139809853Y-85508574D01*
X139865000Y-85231335D01*
X139865000Y-84948665D01*
X139828688Y-84766114D01*
X140211003Y-84383799D01*
X140240001Y-84360001D01*
X140334974Y-84244276D01*
X140405546Y-84112247D01*
X140449003Y-83968986D01*
X140460000Y-83857333D01*
X140460000Y-83857324D01*
X140463676Y-83820001D01*
X140460000Y-83782678D01*
X140460000Y-68617322D01*
X140463676Y-68579999D01*
X140460000Y-68542676D01*
X140460000Y-68542667D01*
X140449003Y-68431014D01*
X140405546Y-68287753D01*
X140334974Y-68155724D01*
X140240001Y-68039999D01*
X140211003Y-68016201D01*
X139828688Y-67633886D01*
X139865000Y-67451335D01*
X139865000Y-67168665D01*
X139809853Y-66891426D01*
X139701680Y-66630273D01*
X139544637Y-66395241D01*
X139344759Y-66195363D01*
X139109727Y-66038320D01*
X139099135Y-66033933D01*
X139285131Y-65922385D01*
X139493519Y-65733414D01*
X139661037Y-65507420D01*
X139781246Y-65253087D01*
X139821904Y-65119039D01*
X139699915Y-64897000D01*
X138557000Y-64897000D01*
X138557000Y-64917000D01*
X138303000Y-64917000D01*
X138303000Y-64897000D01*
X138283000Y-64897000D01*
X138283000Y-64643000D01*
X138303000Y-64643000D01*
X138303000Y-64623000D01*
X138557000Y-64623000D01*
X138557000Y-64643000D01*
X139699915Y-64643000D01*
X139821904Y-64420961D01*
X139781246Y-64286913D01*
X139661037Y-64032580D01*
X139493519Y-63806586D01*
X139285131Y-63617615D01*
X139099135Y-63506067D01*
X139109727Y-63501680D01*
X139344759Y-63344637D01*
X139544637Y-63144759D01*
X139701680Y-62909727D01*
X139809853Y-62648574D01*
X139865000Y-62371335D01*
X139865000Y-62088665D01*
X139809853Y-61811426D01*
X139701680Y-61550273D01*
X139544637Y-61315241D01*
X139344759Y-61115363D01*
X139112241Y-60960000D01*
X139344759Y-60804637D01*
X139544637Y-60604759D01*
X139701680Y-60369727D01*
X139809853Y-60108574D01*
X139865000Y-59831335D01*
X139865000Y-59548665D01*
X139809853Y-59271426D01*
X139701680Y-59010273D01*
X139544637Y-58775241D01*
X139346039Y-58576643D01*
X139354482Y-58575812D01*
X139474180Y-58539502D01*
X139584494Y-58480537D01*
X139681185Y-58401185D01*
X139760537Y-58304494D01*
X139819502Y-58194180D01*
X139855812Y-58074482D01*
X139868072Y-57950000D01*
X139868072Y-56350000D01*
X139855812Y-56225518D01*
X139819502Y-56105820D01*
X139760537Y-55995506D01*
X139681185Y-55898815D01*
X139584494Y-55819463D01*
X139571483Y-55812508D01*
X139605001Y-55785001D01*
X139628804Y-55755997D01*
X143143592Y-52241210D01*
X143363740Y-52285000D01*
X143656260Y-52285000D01*
X143943158Y-52227932D01*
X144213411Y-52115990D01*
X144456632Y-51953475D01*
X144663475Y-51746632D01*
X144780000Y-51572240D01*
X144896525Y-51746632D01*
G37*
X144896525Y-51746632D02*
X145103368Y-51953475D01*
X145346589Y-52115990D01*
X145616842Y-52227932D01*
X145903740Y-52285000D01*
X146030198Y-52285000D01*
X141729003Y-56586196D01*
X141699999Y-56609999D01*
X141644871Y-56677174D01*
X141605026Y-56725724D01*
X141568126Y-56794759D01*
X141534454Y-56857754D01*
X141490997Y-57001015D01*
X141480000Y-57112668D01*
X141480000Y-57112678D01*
X141476324Y-57150000D01*
X141480000Y-57187322D01*
X141480001Y-76162667D01*
X141476324Y-76200000D01*
X141480001Y-76237333D01*
X141490998Y-76348986D01*
X141493217Y-76356300D01*
X141534454Y-76492246D01*
X141605026Y-76624276D01*
X141658966Y-76690001D01*
X141700000Y-76740001D01*
X141728998Y-76763799D01*
X144651312Y-79686114D01*
X144615000Y-79868665D01*
X144615000Y-80151335D01*
X144651312Y-80333887D01*
X144413997Y-80571202D01*
X144384999Y-80595000D01*
X144361201Y-80623998D01*
X144361200Y-80623999D01*
X144290025Y-80710725D01*
X144219453Y-80842755D01*
X144194578Y-80924759D01*
X144179342Y-80974990D01*
X144175997Y-80986016D01*
X144161323Y-81135001D01*
X144165000Y-81172333D01*
X144164999Y-82485201D01*
X139700978Y-86949223D01*
X139544637Y-86715241D01*
X139344759Y-86515363D01*
X139112241Y-86360000D01*
X139344759Y-86204637D01*
X139544637Y-86004759D01*
X139701680Y-85769727D01*
X139809853Y-85508574D01*
X139865000Y-85231335D01*
X139865000Y-84948665D01*
X139828688Y-84766114D01*
X140211003Y-84383799D01*
X140240001Y-84360001D01*
X140334974Y-84244276D01*
X140405546Y-84112247D01*
X140449003Y-83968986D01*
X140460000Y-83857333D01*
X140460000Y-83857324D01*
X140463676Y-83820001D01*
X140460000Y-83782678D01*
X140460000Y-68617322D01*
X140463676Y-68579999D01*
X140460000Y-68542676D01*
X140460000Y-68542667D01*
X140449003Y-68431014D01*
X140405546Y-68287753D01*
X140334974Y-68155724D01*
X140240001Y-68039999D01*
X140211003Y-68016201D01*
X139828688Y-67633886D01*
X139865000Y-67451335D01*
X139865000Y-67168665D01*
X139809853Y-66891426D01*
X139701680Y-66630273D01*
X139544637Y-66395241D01*
X139344759Y-66195363D01*
X139109727Y-66038320D01*
X139099135Y-66033933D01*
X139285131Y-65922385D01*
X139493519Y-65733414D01*
X139661037Y-65507420D01*
X139781246Y-65253087D01*
X139821904Y-65119039D01*
X139699915Y-64897000D01*
X138557000Y-64897000D01*
X138557000Y-64917000D01*
X138303000Y-64917000D01*
X138303000Y-64897000D01*
X138283000Y-64897000D01*
X138283000Y-64643000D01*
X138303000Y-64643000D01*
X138303000Y-64623000D01*
X138557000Y-64623000D01*
X138557000Y-64643000D01*
X139699915Y-64643000D01*
X139821904Y-64420961D01*
X139781246Y-64286913D01*
X139661037Y-64032580D01*
X139493519Y-63806586D01*
X139285131Y-63617615D01*
X139099135Y-63506067D01*
X139109727Y-63501680D01*
X139344759Y-63344637D01*
X139544637Y-63144759D01*
X139701680Y-62909727D01*
X139809853Y-62648574D01*
X139865000Y-62371335D01*
X139865000Y-62088665D01*
X139809853Y-61811426D01*
X139701680Y-61550273D01*
X139544637Y-61315241D01*
X139344759Y-61115363D01*
X139112241Y-60960000D01*
X139344759Y-60804637D01*
X139544637Y-60604759D01*
X139701680Y-60369727D01*
X139809853Y-60108574D01*
X139865000Y-59831335D01*
X139865000Y-59548665D01*
X139809853Y-59271426D01*
X139701680Y-59010273D01*
X139544637Y-58775241D01*
X139346039Y-58576643D01*
X139354482Y-58575812D01*
X139474180Y-58539502D01*
X139584494Y-58480537D01*
X139681185Y-58401185D01*
X139760537Y-58304494D01*
X139819502Y-58194180D01*
X139855812Y-58074482D01*
X139868072Y-57950000D01*
X139868072Y-56350000D01*
X139855812Y-56225518D01*
X139819502Y-56105820D01*
X139760537Y-55995506D01*
X139681185Y-55898815D01*
X139584494Y-55819463D01*
X139571483Y-55812508D01*
X139605001Y-55785001D01*
X139628804Y-55755997D01*
X143143592Y-52241210D01*
X143363740Y-52285000D01*
X143656260Y-52285000D01*
X143943158Y-52227932D01*
X144213411Y-52115990D01*
X144456632Y-51953475D01*
X144663475Y-51746632D01*
X144780000Y-51572240D01*
X144896525Y-51746632D01*
G36*
X154180000Y-53019802D02*
G01*
X154180001Y-68542667D01*
X154176324Y-68580000D01*
X154180001Y-68617333D01*
X154190998Y-68728986D01*
X154193217Y-68736300D01*
X154234454Y-68872246D01*
X154305026Y-69004276D01*
X154358966Y-69070001D01*
X154400000Y-69120001D01*
X154428998Y-69143799D01*
X154969933Y-69684734D01*
X154869488Y-69679783D01*
X154589870Y-69721213D01*
X154323708Y-69816397D01*
X154198486Y-69883329D01*
X154126903Y-70127298D01*
X154940000Y-70940395D01*
X154954143Y-70926253D01*
X155133748Y-71105858D01*
X155119605Y-71120000D01*
X155932702Y-71933097D01*
X156176671Y-71861514D01*
X156297571Y-71606004D01*
X156366300Y-71331816D01*
X156378078Y-71092880D01*
X158134999Y-72849801D01*
X158135000Y-75385196D01*
X155271370Y-72521567D01*
X155290130Y-72518787D01*
X155556292Y-72423603D01*
X155681514Y-72356671D01*
X155753097Y-72112702D01*
X154940000Y-71299605D01*
X154925858Y-71313748D01*
X154746253Y-71134143D01*
X154760395Y-71120000D01*
X153947298Y-70306903D01*
X153703329Y-70378486D01*
X153689676Y-70407341D01*
X153554637Y-70205241D01*
X153354759Y-70005363D01*
X153119727Y-69848320D01*
X152858574Y-69740147D01*
X152581335Y-69685000D01*
X152298665Y-69685000D01*
X152116114Y-69721312D01*
X149193804Y-66799003D01*
X149170001Y-66769999D01*
X149054276Y-66675026D01*
X148922247Y-66604454D01*
X148778986Y-66560997D01*
X148667333Y-66550000D01*
X148667322Y-66550000D01*
X148630000Y-66546324D01*
X148592678Y-66550000D01*
X147268043Y-66550000D01*
X147164637Y-66395241D01*
X146964759Y-66195363D01*
X146729727Y-66038320D01*
X146719135Y-66033933D01*
X146905131Y-65922385D01*
X147113519Y-65733414D01*
X147281037Y-65507420D01*
X147401246Y-65253087D01*
X147441904Y-65119039D01*
X147319915Y-64897000D01*
X146177000Y-64897000D01*
X146177000Y-64917000D01*
X145923000Y-64917000D01*
X145923000Y-64897000D01*
X144780085Y-64897000D01*
X144658096Y-65119039D01*
X144698754Y-65253087D01*
X144818963Y-65507420D01*
X144986481Y-65733414D01*
X145194869Y-65922385D01*
X145380865Y-66033933D01*
X145370273Y-66038320D01*
X145135241Y-66195363D01*
X144935363Y-66395241D01*
X144778320Y-66630273D01*
X144670147Y-66891426D01*
X144615000Y-67168665D01*
X144615000Y-67451335D01*
X144670147Y-67728574D01*
X144778320Y-67989727D01*
X144935363Y-68224759D01*
X145135241Y-68424637D01*
X145367759Y-68580000D01*
X145135241Y-68735363D01*
X144935363Y-68935241D01*
X144778320Y-69170273D01*
X144670147Y-69431426D01*
X144615000Y-69708665D01*
X144615000Y-69991335D01*
X144670147Y-70268574D01*
X144778320Y-70529727D01*
X144935363Y-70764759D01*
X145135241Y-70964637D01*
X145367759Y-71120000D01*
X145135241Y-71275363D01*
X144935363Y-71475241D01*
X144778320Y-71710273D01*
X144670147Y-71971426D01*
X144615000Y-72248665D01*
X144615000Y-72531335D01*
X144670147Y-72808574D01*
X144778320Y-73069727D01*
X144935363Y-73304759D01*
X145135241Y-73504637D01*
X145367759Y-73660000D01*
X145135241Y-73815363D01*
X144935363Y-74015241D01*
X144778320Y-74250273D01*
X144670147Y-74511426D01*
X144615000Y-74788665D01*
X144615000Y-75071335D01*
X144670147Y-75348574D01*
X144778320Y-75609727D01*
X144935363Y-75844759D01*
X145135241Y-76044637D01*
X145370273Y-76201680D01*
X145631426Y-76309853D01*
X145908665Y-76365000D01*
X146191335Y-76365000D01*
X146468574Y-76309853D01*
X146729727Y-76201680D01*
X146964759Y-76044637D01*
X147164637Y-75844759D01*
X147321680Y-75609727D01*
X147429853Y-75348574D01*
X147485000Y-75071335D01*
X147485000Y-74788665D01*
X151005000Y-74788665D01*
X151005000Y-75071335D01*
X151060147Y-75348574D01*
X151168320Y-75609727D01*
X151325363Y-75844759D01*
X151525241Y-76044637D01*
X151760273Y-76201680D01*
X152021426Y-76309853D01*
X152298665Y-76365000D01*
X152581335Y-76365000D01*
X152858574Y-76309853D01*
X153119727Y-76201680D01*
X153354759Y-76044637D01*
X153476694Y-75922702D01*
X154126903Y-75922702D01*
X154198486Y-76166671D01*
X154453996Y-76287571D01*
X154728184Y-76356300D01*
X155010512Y-76370217D01*
X155290130Y-76328787D01*
X155556292Y-76233603D01*
X155681514Y-76166671D01*
X155753097Y-75922702D01*
X154940000Y-75109605D01*
X154126903Y-75922702D01*
X153476694Y-75922702D01*
X153554637Y-75844759D01*
X153688692Y-75644131D01*
X153703329Y-75671514D01*
X153947298Y-75743097D01*
X154760395Y-74930000D01*
X153947298Y-74116903D01*
X153703329Y-74188486D01*
X153689676Y-74217341D01*
X153554637Y-74015241D01*
X153354759Y-73815363D01*
X153119727Y-73658320D01*
X152858574Y-73550147D01*
X152581335Y-73495000D01*
X152298665Y-73495000D01*
X152021426Y-73550147D01*
X151760273Y-73658320D01*
X151525241Y-73815363D01*
X151325363Y-74015241D01*
X151168320Y-74250273D01*
X151060147Y-74511426D01*
X151005000Y-74788665D01*
X147485000Y-74788665D01*
X147429853Y-74511426D01*
X147321680Y-74250273D01*
X147164637Y-74015241D01*
X146964759Y-73815363D01*
X146732241Y-73660000D01*
X146964759Y-73504637D01*
X147164637Y-73304759D01*
X147321680Y-73069727D01*
X147429853Y-72808574D01*
X147485000Y-72531335D01*
X147485000Y-72248665D01*
X147429853Y-71971426D01*
X147321680Y-71710273D01*
X147164637Y-71475241D01*
X146964759Y-71275363D01*
X146732241Y-71120000D01*
X146964759Y-70964637D01*
X147164637Y-70764759D01*
X147321680Y-70529727D01*
X147429853Y-70268574D01*
X147485000Y-69991335D01*
X147485000Y-69708665D01*
X147429853Y-69431426D01*
X147321680Y-69170273D01*
X147164637Y-68935241D01*
X146964759Y-68735363D01*
X146732241Y-68580000D01*
X146964759Y-68424637D01*
X147164637Y-68224759D01*
X147268043Y-68070000D01*
X148315199Y-68070000D01*
X151041312Y-70796114D01*
X151005000Y-70978665D01*
X151005000Y-71261335D01*
X151060147Y-71538574D01*
X151168320Y-71799727D01*
X151325363Y-72034759D01*
X151525241Y-72234637D01*
X151760273Y-72391680D01*
X152021426Y-72499853D01*
X152298665Y-72555000D01*
X152581335Y-72555000D01*
X152770022Y-72517467D01*
X152771495Y-72518676D01*
X152815723Y-72554973D01*
X152947752Y-72625545D01*
X153091013Y-72669002D01*
X153202666Y-72679999D01*
X153202675Y-72679999D01*
X153239998Y-72683675D01*
X153277321Y-72679999D01*
X153280200Y-72679999D01*
X154260424Y-73660223D01*
X154198486Y-73693329D01*
X154126903Y-73937298D01*
X154940000Y-74750395D01*
X154954143Y-74736253D01*
X155133748Y-74915858D01*
X155119605Y-74930000D01*
X155932702Y-75743097D01*
X156176671Y-75671514D01*
X156207198Y-75606998D01*
X159339222Y-78739022D01*
X159105241Y-78895363D01*
X158905363Y-79095241D01*
X158748320Y-79330273D01*
X158640147Y-79591426D01*
X158585000Y-79868665D01*
X158585000Y-80151335D01*
X158621312Y-80333886D01*
X155895199Y-83060000D01*
X153618043Y-83060000D01*
X153514637Y-82905241D01*
X153314759Y-82705363D01*
X153079727Y-82548320D01*
X152818574Y-82440147D01*
X152541335Y-82385000D01*
X152258665Y-82385000D01*
X152076114Y-82421312D01*
X151693804Y-82039003D01*
X151670001Y-82009999D01*
X151554276Y-81915026D01*
X151422247Y-81844454D01*
X151278986Y-81800997D01*
X151167333Y-81790000D01*
X151167322Y-81790000D01*
X151130000Y-81786324D01*
X151092678Y-81790000D01*
X147268043Y-81790000D01*
X147164637Y-81635241D01*
X146964759Y-81435363D01*
X146732241Y-81280000D01*
X146964759Y-81124637D01*
X147164637Y-80924759D01*
X147268043Y-80770000D01*
X151181957Y-80770000D01*
X151285363Y-80924759D01*
X151485241Y-81124637D01*
X151720273Y-81281680D01*
X151981426Y-81389853D01*
X152258665Y-81445000D01*
X152541335Y-81445000D01*
X152818574Y-81389853D01*
X153079727Y-81281680D01*
X153314759Y-81124637D01*
X153514637Y-80924759D01*
X153671680Y-80689727D01*
X153779853Y-80428574D01*
X153835000Y-80151335D01*
X153835000Y-79868665D01*
X153779853Y-79591426D01*
X153671680Y-79330273D01*
X153514637Y-79095241D01*
X153314759Y-78895363D01*
X153079727Y-78738320D01*
X152818574Y-78630147D01*
X152541335Y-78575000D01*
X152258665Y-78575000D01*
X151981426Y-78630147D01*
X151720273Y-78738320D01*
X151485241Y-78895363D01*
X151285363Y-79095241D01*
X151181957Y-79250000D01*
X147268043Y-79250000D01*
X147164637Y-79095241D01*
X146964759Y-78895363D01*
X146729727Y-78738320D01*
X146468574Y-78630147D01*
X146191335Y-78575000D01*
X145908665Y-78575000D01*
X145726114Y-78611312D01*
X143000000Y-75885199D01*
X143000000Y-57464801D01*
X143456136Y-57008665D01*
X144615000Y-57008665D01*
X144615000Y-57291335D01*
X144670147Y-57568574D01*
X144778320Y-57829727D01*
X144935363Y-58064759D01*
X145135241Y-58264637D01*
X145367759Y-58420000D01*
X145135241Y-58575363D01*
X144935363Y-58775241D01*
X144778320Y-59010273D01*
X144670147Y-59271426D01*
X144615000Y-59548665D01*
X144615000Y-59831335D01*
X144670147Y-60108574D01*
X144778320Y-60369727D01*
X144935363Y-60604759D01*
X145135241Y-60804637D01*
X145367759Y-60960000D01*
X145135241Y-61115363D01*
X144935363Y-61315241D01*
X144778320Y-61550273D01*
X144670147Y-61811426D01*
X144615000Y-62088665D01*
X144615000Y-62371335D01*
X144670147Y-62648574D01*
X144778320Y-62909727D01*
X144935363Y-63144759D01*
X145135241Y-63344637D01*
X145370273Y-63501680D01*
X145380865Y-63506067D01*
X145194869Y-63617615D01*
X144986481Y-63806586D01*
X144818963Y-64032580D01*
X144698754Y-64286913D01*
X144658096Y-64420961D01*
X144780085Y-64643000D01*
X145923000Y-64643000D01*
X145923000Y-64623000D01*
X146177000Y-64623000D01*
X146177000Y-64643000D01*
X147319915Y-64643000D01*
X147441904Y-64420961D01*
X147401246Y-64286913D01*
X147281037Y-64032580D01*
X147113519Y-63806586D01*
X146905131Y-63617615D01*
X146719135Y-63506067D01*
X146729727Y-63501680D01*
X146964759Y-63344637D01*
X147164637Y-63144759D01*
X147268043Y-62990000D01*
X150815199Y-62990000D01*
X151001312Y-63176114D01*
X150965000Y-63358665D01*
X150965000Y-63641335D01*
X151020147Y-63918574D01*
X151128320Y-64179727D01*
X151285363Y-64414759D01*
X151485241Y-64614637D01*
X151640000Y-64718044D01*
X151640001Y-66091956D01*
X151485241Y-66195363D01*
X151285363Y-66395241D01*
X151128320Y-66630273D01*
X151020147Y-66891426D01*
X150965000Y-67168665D01*
X150965000Y-67451335D01*
X151020147Y-67728574D01*
X151128320Y-67989727D01*
X151285363Y-68224759D01*
X151485241Y-68424637D01*
X151720273Y-68581680D01*
X151981426Y-68689853D01*
X152258665Y-68745000D01*
X152541335Y-68745000D01*
X152818574Y-68689853D01*
X153079727Y-68581680D01*
X153314759Y-68424637D01*
X153514637Y-68224759D01*
X153671680Y-67989727D01*
X153779853Y-67728574D01*
X153835000Y-67451335D01*
X153835000Y-67168665D01*
X153779853Y-66891426D01*
X153671680Y-66630273D01*
X153514637Y-66395241D01*
X153314759Y-66195363D01*
X153160000Y-66091957D01*
X153160000Y-64718043D01*
X153314759Y-64614637D01*
X153514637Y-64414759D01*
X153671680Y-64179727D01*
X153779853Y-63918574D01*
X153835000Y-63641335D01*
X153835000Y-63358665D01*
X153779853Y-63081426D01*
X153671680Y-62820273D01*
X153514637Y-62585241D01*
X153314759Y-62385363D01*
X153079727Y-62228320D01*
X152818574Y-62120147D01*
X152541335Y-62065000D01*
X152258665Y-62065000D01*
X152076114Y-62101312D01*
X151693804Y-61719003D01*
X151670001Y-61689999D01*
X151554276Y-61595026D01*
X151422247Y-61524454D01*
X151278986Y-61480997D01*
X151167333Y-61470000D01*
X151167322Y-61470000D01*
X151130000Y-61466324D01*
X151092678Y-61470000D01*
X147268043Y-61470000D01*
X147164637Y-61315241D01*
X146964759Y-61115363D01*
X146732241Y-60960000D01*
X146964759Y-60804637D01*
X147164637Y-60604759D01*
X147321680Y-60369727D01*
X147429853Y-60108574D01*
X147485000Y-59831335D01*
X147485000Y-59548665D01*
X147429853Y-59271426D01*
X147321680Y-59010273D01*
X147164637Y-58775241D01*
X146964759Y-58575363D01*
X146732241Y-58420000D01*
X146964759Y-58264637D01*
X147164637Y-58064759D01*
X147268043Y-57910000D01*
X149545199Y-57910000D01*
X151001312Y-59366114D01*
X150965000Y-59548665D01*
X150965000Y-59831335D01*
X151020147Y-60108574D01*
X151128320Y-60369727D01*
X151285363Y-60604759D01*
X151485241Y-60804637D01*
X151720273Y-60961680D01*
X151981426Y-61069853D01*
X152258665Y-61125000D01*
X152541335Y-61125000D01*
X152818574Y-61069853D01*
X153079727Y-60961680D01*
X153314759Y-60804637D01*
X153514637Y-60604759D01*
X153671680Y-60369727D01*
X153779853Y-60108574D01*
X153835000Y-59831335D01*
X153835000Y-59548665D01*
X153779853Y-59271426D01*
X153671680Y-59010273D01*
X153514637Y-58775241D01*
X153314759Y-58575363D01*
X153079727Y-58418320D01*
X152818574Y-58310147D01*
X152541335Y-58255000D01*
X152258665Y-58255000D01*
X152076114Y-58291312D01*
X150423804Y-56639003D01*
X150400001Y-56609999D01*
X150284276Y-56515026D01*
X150152247Y-56444454D01*
X150008986Y-56400997D01*
X149897333Y-56390000D01*
X149897322Y-56390000D01*
X149860000Y-56386324D01*
X149822678Y-56390000D01*
X147268043Y-56390000D01*
X147164637Y-56235241D01*
X146964759Y-56035363D01*
X146729727Y-55878320D01*
X146468574Y-55770147D01*
X146310306Y-55738665D01*
X150965000Y-55738665D01*
X150965000Y-56021335D01*
X151020147Y-56298574D01*
X151128320Y-56559727D01*
X151285363Y-56794759D01*
X151485241Y-56994637D01*
X151720273Y-57151680D01*
X151981426Y-57259853D01*
X152258665Y-57315000D01*
X152541335Y-57315000D01*
X152818574Y-57259853D01*
X153079727Y-57151680D01*
X153314759Y-56994637D01*
X153514637Y-56794759D01*
X153671680Y-56559727D01*
X153779853Y-56298574D01*
X153835000Y-56021335D01*
X153835000Y-55738665D01*
X153779853Y-55461426D01*
X153671680Y-55200273D01*
X153514637Y-54965241D01*
X153314759Y-54765363D01*
X153079727Y-54608320D01*
X152818574Y-54500147D01*
X152541335Y-54445000D01*
X152258665Y-54445000D01*
X151981426Y-54500147D01*
X151720273Y-54608320D01*
X151485241Y-54765363D01*
X151285363Y-54965241D01*
X151128320Y-55200273D01*
X151020147Y-55461426D01*
X150965000Y-55738665D01*
X146310306Y-55738665D01*
X146191335Y-55715000D01*
X145908665Y-55715000D01*
X145631426Y-55770147D01*
X145370273Y-55878320D01*
X145135241Y-56035363D01*
X144935363Y-56235241D01*
X144778320Y-56470273D01*
X144670147Y-56731426D01*
X144615000Y-57008665D01*
X143456136Y-57008665D01*
X148223592Y-52241210D01*
X148443740Y-52285000D01*
X148736260Y-52285000D01*
X149023158Y-52227932D01*
X149293411Y-52115990D01*
X149536632Y-51953475D01*
X149743475Y-51746632D01*
X149905990Y-51503411D01*
X150017932Y-51233158D01*
X150075000Y-50946260D01*
X150075000Y-50653740D01*
X150017932Y-50366842D01*
X149905990Y-50096589D01*
X149743475Y-49853368D01*
X149536632Y-49646525D01*
X149362240Y-49530000D01*
X149536632Y-49413475D01*
X149743475Y-49206632D01*
X149868178Y-49020000D01*
X150180199Y-49020000D01*
X154180000Y-53019802D01*
G37*
X154180000Y-53019802D02*
X154180001Y-68542667D01*
X154176324Y-68580000D01*
X154180001Y-68617333D01*
X154190998Y-68728986D01*
X154193217Y-68736300D01*
X154234454Y-68872246D01*
X154305026Y-69004276D01*
X154358966Y-69070001D01*
X154400000Y-69120001D01*
X154428998Y-69143799D01*
X154969933Y-69684734D01*
X154869488Y-69679783D01*
X154589870Y-69721213D01*
X154323708Y-69816397D01*
X154198486Y-69883329D01*
X154126903Y-70127298D01*
X154940000Y-70940395D01*
X154954143Y-70926253D01*
X155133748Y-71105858D01*
X155119605Y-71120000D01*
X155932702Y-71933097D01*
X156176671Y-71861514D01*
X156297571Y-71606004D01*
X156366300Y-71331816D01*
X156378078Y-71092880D01*
X158134999Y-72849801D01*
X158135000Y-75385196D01*
X155271370Y-72521567D01*
X155290130Y-72518787D01*
X155556292Y-72423603D01*
X155681514Y-72356671D01*
X155753097Y-72112702D01*
X154940000Y-71299605D01*
X154925858Y-71313748D01*
X154746253Y-71134143D01*
X154760395Y-71120000D01*
X153947298Y-70306903D01*
X153703329Y-70378486D01*
X153689676Y-70407341D01*
X153554637Y-70205241D01*
X153354759Y-70005363D01*
X153119727Y-69848320D01*
X152858574Y-69740147D01*
X152581335Y-69685000D01*
X152298665Y-69685000D01*
X152116114Y-69721312D01*
X149193804Y-66799003D01*
X149170001Y-66769999D01*
X149054276Y-66675026D01*
X148922247Y-66604454D01*
X148778986Y-66560997D01*
X148667333Y-66550000D01*
X148667322Y-66550000D01*
X148630000Y-66546324D01*
X148592678Y-66550000D01*
X147268043Y-66550000D01*
X147164637Y-66395241D01*
X146964759Y-66195363D01*
X146729727Y-66038320D01*
X146719135Y-66033933D01*
X146905131Y-65922385D01*
X147113519Y-65733414D01*
X147281037Y-65507420D01*
X147401246Y-65253087D01*
X147441904Y-65119039D01*
X147319915Y-64897000D01*
X146177000Y-64897000D01*
X146177000Y-64917000D01*
X145923000Y-64917000D01*
X145923000Y-64897000D01*
X144780085Y-64897000D01*
X144658096Y-65119039D01*
X144698754Y-65253087D01*
X144818963Y-65507420D01*
X144986481Y-65733414D01*
X145194869Y-65922385D01*
X145380865Y-66033933D01*
X145370273Y-66038320D01*
X145135241Y-66195363D01*
X144935363Y-66395241D01*
X144778320Y-66630273D01*
X144670147Y-66891426D01*
X144615000Y-67168665D01*
X144615000Y-67451335D01*
X144670147Y-67728574D01*
X144778320Y-67989727D01*
X144935363Y-68224759D01*
X145135241Y-68424637D01*
X145367759Y-68580000D01*
X145135241Y-68735363D01*
X144935363Y-68935241D01*
X144778320Y-69170273D01*
X144670147Y-69431426D01*
X144615000Y-69708665D01*
X144615000Y-69991335D01*
X144670147Y-70268574D01*
X144778320Y-70529727D01*
X144935363Y-70764759D01*
X145135241Y-70964637D01*
X145367759Y-71120000D01*
X145135241Y-71275363D01*
X144935363Y-71475241D01*
X144778320Y-71710273D01*
X144670147Y-71971426D01*
X144615000Y-72248665D01*
X144615000Y-72531335D01*
X144670147Y-72808574D01*
X144778320Y-73069727D01*
X144935363Y-73304759D01*
X145135241Y-73504637D01*
X145367759Y-73660000D01*
X145135241Y-73815363D01*
X144935363Y-74015241D01*
X144778320Y-74250273D01*
X144670147Y-74511426D01*
X144615000Y-74788665D01*
X144615000Y-75071335D01*
X144670147Y-75348574D01*
X144778320Y-75609727D01*
X144935363Y-75844759D01*
X145135241Y-76044637D01*
X145370273Y-76201680D01*
X145631426Y-76309853D01*
X145908665Y-76365000D01*
X146191335Y-76365000D01*
X146468574Y-76309853D01*
X146729727Y-76201680D01*
X146964759Y-76044637D01*
X147164637Y-75844759D01*
X147321680Y-75609727D01*
X147429853Y-75348574D01*
X147485000Y-75071335D01*
X147485000Y-74788665D01*
X151005000Y-74788665D01*
X151005000Y-75071335D01*
X151060147Y-75348574D01*
X151168320Y-75609727D01*
X151325363Y-75844759D01*
X151525241Y-76044637D01*
X151760273Y-76201680D01*
X152021426Y-76309853D01*
X152298665Y-76365000D01*
X152581335Y-76365000D01*
X152858574Y-76309853D01*
X153119727Y-76201680D01*
X153354759Y-76044637D01*
X153476694Y-75922702D01*
X154126903Y-75922702D01*
X154198486Y-76166671D01*
X154453996Y-76287571D01*
X154728184Y-76356300D01*
X155010512Y-76370217D01*
X155290130Y-76328787D01*
X155556292Y-76233603D01*
X155681514Y-76166671D01*
X155753097Y-75922702D01*
X154940000Y-75109605D01*
X154126903Y-75922702D01*
X153476694Y-75922702D01*
X153554637Y-75844759D01*
X153688692Y-75644131D01*
X153703329Y-75671514D01*
X153947298Y-75743097D01*
X154760395Y-74930000D01*
X153947298Y-74116903D01*
X153703329Y-74188486D01*
X153689676Y-74217341D01*
X153554637Y-74015241D01*
X153354759Y-73815363D01*
X153119727Y-73658320D01*
X152858574Y-73550147D01*
X152581335Y-73495000D01*
X152298665Y-73495000D01*
X152021426Y-73550147D01*
X151760273Y-73658320D01*
X151525241Y-73815363D01*
X151325363Y-74015241D01*
X151168320Y-74250273D01*
X151060147Y-74511426D01*
X151005000Y-74788665D01*
X147485000Y-74788665D01*
X147429853Y-74511426D01*
X147321680Y-74250273D01*
X147164637Y-74015241D01*
X146964759Y-73815363D01*
X146732241Y-73660000D01*
X146964759Y-73504637D01*
X147164637Y-73304759D01*
X147321680Y-73069727D01*
X147429853Y-72808574D01*
X147485000Y-72531335D01*
X147485000Y-72248665D01*
X147429853Y-71971426D01*
X147321680Y-71710273D01*
X147164637Y-71475241D01*
X146964759Y-71275363D01*
X146732241Y-71120000D01*
X146964759Y-70964637D01*
X147164637Y-70764759D01*
X147321680Y-70529727D01*
X147429853Y-70268574D01*
X147485000Y-69991335D01*
X147485000Y-69708665D01*
X147429853Y-69431426D01*
X147321680Y-69170273D01*
X147164637Y-68935241D01*
X146964759Y-68735363D01*
X146732241Y-68580000D01*
X146964759Y-68424637D01*
X147164637Y-68224759D01*
X147268043Y-68070000D01*
X148315199Y-68070000D01*
X151041312Y-70796114D01*
X151005000Y-70978665D01*
X151005000Y-71261335D01*
X151060147Y-71538574D01*
X151168320Y-71799727D01*
X151325363Y-72034759D01*
X151525241Y-72234637D01*
X151760273Y-72391680D01*
X152021426Y-72499853D01*
X152298665Y-72555000D01*
X152581335Y-72555000D01*
X152770022Y-72517467D01*
X152771495Y-72518676D01*
X152815723Y-72554973D01*
X152947752Y-72625545D01*
X153091013Y-72669002D01*
X153202666Y-72679999D01*
X153202675Y-72679999D01*
X153239998Y-72683675D01*
X153277321Y-72679999D01*
X153280200Y-72679999D01*
X154260424Y-73660223D01*
X154198486Y-73693329D01*
X154126903Y-73937298D01*
X154940000Y-74750395D01*
X154954143Y-74736253D01*
X155133748Y-74915858D01*
X155119605Y-74930000D01*
X155932702Y-75743097D01*
X156176671Y-75671514D01*
X156207198Y-75606998D01*
X159339222Y-78739022D01*
X159105241Y-78895363D01*
X158905363Y-79095241D01*
X158748320Y-79330273D01*
X158640147Y-79591426D01*
X158585000Y-79868665D01*
X158585000Y-80151335D01*
X158621312Y-80333886D01*
X155895199Y-83060000D01*
X153618043Y-83060000D01*
X153514637Y-82905241D01*
X153314759Y-82705363D01*
X153079727Y-82548320D01*
X152818574Y-82440147D01*
X152541335Y-82385000D01*
X152258665Y-82385000D01*
X152076114Y-82421312D01*
X151693804Y-82039003D01*
X151670001Y-82009999D01*
X151554276Y-81915026D01*
X151422247Y-81844454D01*
X151278986Y-81800997D01*
X151167333Y-81790000D01*
X151167322Y-81790000D01*
X151130000Y-81786324D01*
X151092678Y-81790000D01*
X147268043Y-81790000D01*
X147164637Y-81635241D01*
X146964759Y-81435363D01*
X146732241Y-81280000D01*
X146964759Y-81124637D01*
X147164637Y-80924759D01*
X147268043Y-80770000D01*
X151181957Y-80770000D01*
X151285363Y-80924759D01*
X151485241Y-81124637D01*
X151720273Y-81281680D01*
X151981426Y-81389853D01*
X152258665Y-81445000D01*
X152541335Y-81445000D01*
X152818574Y-81389853D01*
X153079727Y-81281680D01*
X153314759Y-81124637D01*
X153514637Y-80924759D01*
X153671680Y-80689727D01*
X153779853Y-80428574D01*
X153835000Y-80151335D01*
X153835000Y-79868665D01*
X153779853Y-79591426D01*
X153671680Y-79330273D01*
X153514637Y-79095241D01*
X153314759Y-78895363D01*
X153079727Y-78738320D01*
X152818574Y-78630147D01*
X152541335Y-78575000D01*
X152258665Y-78575000D01*
X151981426Y-78630147D01*
X151720273Y-78738320D01*
X151485241Y-78895363D01*
X151285363Y-79095241D01*
X151181957Y-79250000D01*
X147268043Y-79250000D01*
X147164637Y-79095241D01*
X146964759Y-78895363D01*
X146729727Y-78738320D01*
X146468574Y-78630147D01*
X146191335Y-78575000D01*
X145908665Y-78575000D01*
X145726114Y-78611312D01*
X143000000Y-75885199D01*
X143000000Y-57464801D01*
X143456136Y-57008665D01*
X144615000Y-57008665D01*
X144615000Y-57291335D01*
X144670147Y-57568574D01*
X144778320Y-57829727D01*
X144935363Y-58064759D01*
X145135241Y-58264637D01*
X145367759Y-58420000D01*
X145135241Y-58575363D01*
X144935363Y-58775241D01*
X144778320Y-59010273D01*
X144670147Y-59271426D01*
X144615000Y-59548665D01*
X144615000Y-59831335D01*
X144670147Y-60108574D01*
X144778320Y-60369727D01*
X144935363Y-60604759D01*
X145135241Y-60804637D01*
X145367759Y-60960000D01*
X145135241Y-61115363D01*
X144935363Y-61315241D01*
X144778320Y-61550273D01*
X144670147Y-61811426D01*
X144615000Y-62088665D01*
X144615000Y-62371335D01*
X144670147Y-62648574D01*
X144778320Y-62909727D01*
X144935363Y-63144759D01*
X145135241Y-63344637D01*
X145370273Y-63501680D01*
X145380865Y-63506067D01*
X145194869Y-63617615D01*
X144986481Y-63806586D01*
X144818963Y-64032580D01*
X144698754Y-64286913D01*
X144658096Y-64420961D01*
X144780085Y-64643000D01*
X145923000Y-64643000D01*
X145923000Y-64623000D01*
X146177000Y-64623000D01*
X146177000Y-64643000D01*
X147319915Y-64643000D01*
X147441904Y-64420961D01*
X147401246Y-64286913D01*
X147281037Y-64032580D01*
X147113519Y-63806586D01*
X146905131Y-63617615D01*
X146719135Y-63506067D01*
X146729727Y-63501680D01*
X146964759Y-63344637D01*
X147164637Y-63144759D01*
X147268043Y-62990000D01*
X150815199Y-62990000D01*
X151001312Y-63176114D01*
X150965000Y-63358665D01*
X150965000Y-63641335D01*
X151020147Y-63918574D01*
X151128320Y-64179727D01*
X151285363Y-64414759D01*
X151485241Y-64614637D01*
X151640000Y-64718044D01*
X151640001Y-66091956D01*
X151485241Y-66195363D01*
X151285363Y-66395241D01*
X151128320Y-66630273D01*
X151020147Y-66891426D01*
X150965000Y-67168665D01*
X150965000Y-67451335D01*
X151020147Y-67728574D01*
X151128320Y-67989727D01*
X151285363Y-68224759D01*
X151485241Y-68424637D01*
X151720273Y-68581680D01*
X151981426Y-68689853D01*
X152258665Y-68745000D01*
X152541335Y-68745000D01*
X152818574Y-68689853D01*
X153079727Y-68581680D01*
X153314759Y-68424637D01*
X153514637Y-68224759D01*
X153671680Y-67989727D01*
X153779853Y-67728574D01*
X153835000Y-67451335D01*
X153835000Y-67168665D01*
X153779853Y-66891426D01*
X153671680Y-66630273D01*
X153514637Y-66395241D01*
X153314759Y-66195363D01*
X153160000Y-66091957D01*
X153160000Y-64718043D01*
X153314759Y-64614637D01*
X153514637Y-64414759D01*
X153671680Y-64179727D01*
X153779853Y-63918574D01*
X153835000Y-63641335D01*
X153835000Y-63358665D01*
X153779853Y-63081426D01*
X153671680Y-62820273D01*
X153514637Y-62585241D01*
X153314759Y-62385363D01*
X153079727Y-62228320D01*
X152818574Y-62120147D01*
X152541335Y-62065000D01*
X152258665Y-62065000D01*
X152076114Y-62101312D01*
X151693804Y-61719003D01*
X151670001Y-61689999D01*
X151554276Y-61595026D01*
X151422247Y-61524454D01*
X151278986Y-61480997D01*
X151167333Y-61470000D01*
X151167322Y-61470000D01*
X151130000Y-61466324D01*
X151092678Y-61470000D01*
X147268043Y-61470000D01*
X147164637Y-61315241D01*
X146964759Y-61115363D01*
X146732241Y-60960000D01*
X146964759Y-60804637D01*
X147164637Y-60604759D01*
X147321680Y-60369727D01*
X147429853Y-60108574D01*
X147485000Y-59831335D01*
X147485000Y-59548665D01*
X147429853Y-59271426D01*
X147321680Y-59010273D01*
X147164637Y-58775241D01*
X146964759Y-58575363D01*
X146732241Y-58420000D01*
X146964759Y-58264637D01*
X147164637Y-58064759D01*
X147268043Y-57910000D01*
X149545199Y-57910000D01*
X151001312Y-59366114D01*
X150965000Y-59548665D01*
X150965000Y-59831335D01*
X151020147Y-60108574D01*
X151128320Y-60369727D01*
X151285363Y-60604759D01*
X151485241Y-60804637D01*
X151720273Y-60961680D01*
X151981426Y-61069853D01*
X152258665Y-61125000D01*
X152541335Y-61125000D01*
X152818574Y-61069853D01*
X153079727Y-60961680D01*
X153314759Y-60804637D01*
X153514637Y-60604759D01*
X153671680Y-60369727D01*
X153779853Y-60108574D01*
X153835000Y-59831335D01*
X153835000Y-59548665D01*
X153779853Y-59271426D01*
X153671680Y-59010273D01*
X153514637Y-58775241D01*
X153314759Y-58575363D01*
X153079727Y-58418320D01*
X152818574Y-58310147D01*
X152541335Y-58255000D01*
X152258665Y-58255000D01*
X152076114Y-58291312D01*
X150423804Y-56639003D01*
X150400001Y-56609999D01*
X150284276Y-56515026D01*
X150152247Y-56444454D01*
X150008986Y-56400997D01*
X149897333Y-56390000D01*
X149897322Y-56390000D01*
X149860000Y-56386324D01*
X149822678Y-56390000D01*
X147268043Y-56390000D01*
X147164637Y-56235241D01*
X146964759Y-56035363D01*
X146729727Y-55878320D01*
X146468574Y-55770147D01*
X146310306Y-55738665D01*
X150965000Y-55738665D01*
X150965000Y-56021335D01*
X151020147Y-56298574D01*
X151128320Y-56559727D01*
X151285363Y-56794759D01*
X151485241Y-56994637D01*
X151720273Y-57151680D01*
X151981426Y-57259853D01*
X152258665Y-57315000D01*
X152541335Y-57315000D01*
X152818574Y-57259853D01*
X153079727Y-57151680D01*
X153314759Y-56994637D01*
X153514637Y-56794759D01*
X153671680Y-56559727D01*
X153779853Y-56298574D01*
X153835000Y-56021335D01*
X153835000Y-55738665D01*
X153779853Y-55461426D01*
X153671680Y-55200273D01*
X153514637Y-54965241D01*
X153314759Y-54765363D01*
X153079727Y-54608320D01*
X152818574Y-54500147D01*
X152541335Y-54445000D01*
X152258665Y-54445000D01*
X151981426Y-54500147D01*
X151720273Y-54608320D01*
X151485241Y-54765363D01*
X151285363Y-54965241D01*
X151128320Y-55200273D01*
X151020147Y-55461426D01*
X150965000Y-55738665D01*
X146310306Y-55738665D01*
X146191335Y-55715000D01*
X145908665Y-55715000D01*
X145631426Y-55770147D01*
X145370273Y-55878320D01*
X145135241Y-56035363D01*
X144935363Y-56235241D01*
X144778320Y-56470273D01*
X144670147Y-56731426D01*
X144615000Y-57008665D01*
X143456136Y-57008665D01*
X148223592Y-52241210D01*
X148443740Y-52285000D01*
X148736260Y-52285000D01*
X149023158Y-52227932D01*
X149293411Y-52115990D01*
X149536632Y-51953475D01*
X149743475Y-51746632D01*
X149905990Y-51503411D01*
X150017932Y-51233158D01*
X150075000Y-50946260D01*
X150075000Y-50653740D01*
X150017932Y-50366842D01*
X149905990Y-50096589D01*
X149743475Y-49853368D01*
X149536632Y-49646525D01*
X149362240Y-49530000D01*
X149536632Y-49413475D01*
X149743475Y-49206632D01*
X149868178Y-49020000D01*
X150180199Y-49020000D01*
X154180000Y-53019802D01*
G36*
X136995000Y-69991335D02*
G01*
X137050147Y-70268574D01*
X137158320Y-70529727D01*
X137315363Y-70764759D01*
X137515241Y-70964637D01*
X137747759Y-71120000D01*
X137515241Y-71275363D01*
X137315363Y-71475241D01*
X137158320Y-71710273D01*
X137050147Y-71971426D01*
X136995000Y-72248665D01*
X136995000Y-72531335D01*
X137050147Y-72808574D01*
X137158320Y-73069727D01*
X137315363Y-73304759D01*
X137515241Y-73504637D01*
X137747759Y-73660000D01*
X137515241Y-73815363D01*
X137315363Y-74015241D01*
X137158320Y-74250273D01*
X137050147Y-74511426D01*
X136995000Y-74788665D01*
X136995000Y-75071335D01*
X137050147Y-75348574D01*
X137158320Y-75609727D01*
X137315363Y-75844759D01*
X137515241Y-76044637D01*
X137750273Y-76201680D01*
X138011426Y-76309853D01*
X138288665Y-76365000D01*
X138571335Y-76365000D01*
X138848574Y-76309853D01*
X138940001Y-76271983D01*
X138940001Y-78668017D01*
X138848574Y-78630147D01*
X138571335Y-78575000D01*
X138288665Y-78575000D01*
X138011426Y-78630147D01*
X137750273Y-78738320D01*
X137515241Y-78895363D01*
X137315363Y-79095241D01*
X137158320Y-79330273D01*
X137050147Y-79591426D01*
X136995000Y-79868665D01*
X136995000Y-80049999D01*
X136504217Y-80049999D01*
X136612571Y-79821004D01*
X136681300Y-79546816D01*
X136695217Y-79264488D01*
X136653787Y-78984870D01*
X136558603Y-78718708D01*
X136491671Y-78593486D01*
X136247702Y-78521903D01*
X135434605Y-79335000D01*
X135448748Y-79349143D01*
X135269143Y-79528748D01*
X135255000Y-79514605D01*
X135240858Y-79528748D01*
X135061253Y-79349143D01*
X135075395Y-79335000D01*
X134262298Y-78521903D01*
X134018329Y-78593486D01*
X133897429Y-78848996D01*
X133828700Y-79123184D01*
X133814783Y-79405512D01*
X133856213Y-79685130D01*
X133940433Y-79920633D01*
X132760778Y-78740978D01*
X132994759Y-78584637D01*
X133194637Y-78384759D01*
X133351680Y-78149727D01*
X133459853Y-77888574D01*
X133515000Y-77611335D01*
X133515000Y-77328665D01*
X133459853Y-77051426D01*
X133351680Y-76790273D01*
X133287129Y-76693665D01*
X133820000Y-76693665D01*
X133820000Y-76976335D01*
X133875147Y-77253574D01*
X133983320Y-77514727D01*
X134140363Y-77749759D01*
X134340241Y-77949637D01*
X134540869Y-78083692D01*
X134513486Y-78098329D01*
X134441903Y-78342298D01*
X135255000Y-79155395D01*
X136068097Y-78342298D01*
X135996514Y-78098329D01*
X135967659Y-78084676D01*
X136169759Y-77949637D01*
X136369637Y-77749759D01*
X136526680Y-77514727D01*
X136634853Y-77253574D01*
X136690000Y-76976335D01*
X136690000Y-76693665D01*
X136634853Y-76416426D01*
X136526680Y-76155273D01*
X136369637Y-75920241D01*
X136169759Y-75720363D01*
X135934727Y-75563320D01*
X135673574Y-75455147D01*
X135396335Y-75400000D01*
X135113665Y-75400000D01*
X134836426Y-75455147D01*
X134575273Y-75563320D01*
X134340241Y-75720363D01*
X134140363Y-75920241D01*
X133983320Y-76155273D01*
X133875147Y-76416426D01*
X133820000Y-76693665D01*
X133287129Y-76693665D01*
X133194637Y-76555241D01*
X132994759Y-76355363D01*
X132840000Y-76251957D01*
X132840000Y-74878043D01*
X132994759Y-74774637D01*
X133194637Y-74574759D01*
X133351680Y-74339727D01*
X133459853Y-74078574D01*
X133515000Y-73801335D01*
X133515000Y-73518665D01*
X133478688Y-73336114D01*
X136995000Y-69819803D01*
X136995000Y-69991335D01*
G37*
X136995000Y-69991335D02*
X137050147Y-70268574D01*
X137158320Y-70529727D01*
X137315363Y-70764759D01*
X137515241Y-70964637D01*
X137747759Y-71120000D01*
X137515241Y-71275363D01*
X137315363Y-71475241D01*
X137158320Y-71710273D01*
X137050147Y-71971426D01*
X136995000Y-72248665D01*
X136995000Y-72531335D01*
X137050147Y-72808574D01*
X137158320Y-73069727D01*
X137315363Y-73304759D01*
X137515241Y-73504637D01*
X137747759Y-73660000D01*
X137515241Y-73815363D01*
X137315363Y-74015241D01*
X137158320Y-74250273D01*
X137050147Y-74511426D01*
X136995000Y-74788665D01*
X136995000Y-75071335D01*
X137050147Y-75348574D01*
X137158320Y-75609727D01*
X137315363Y-75844759D01*
X137515241Y-76044637D01*
X137750273Y-76201680D01*
X138011426Y-76309853D01*
X138288665Y-76365000D01*
X138571335Y-76365000D01*
X138848574Y-76309853D01*
X138940001Y-76271983D01*
X138940001Y-78668017D01*
X138848574Y-78630147D01*
X138571335Y-78575000D01*
X138288665Y-78575000D01*
X138011426Y-78630147D01*
X137750273Y-78738320D01*
X137515241Y-78895363D01*
X137315363Y-79095241D01*
X137158320Y-79330273D01*
X137050147Y-79591426D01*
X136995000Y-79868665D01*
X136995000Y-80049999D01*
X136504217Y-80049999D01*
X136612571Y-79821004D01*
X136681300Y-79546816D01*
X136695217Y-79264488D01*
X136653787Y-78984870D01*
X136558603Y-78718708D01*
X136491671Y-78593486D01*
X136247702Y-78521903D01*
X135434605Y-79335000D01*
X135448748Y-79349143D01*
X135269143Y-79528748D01*
X135255000Y-79514605D01*
X135240858Y-79528748D01*
X135061253Y-79349143D01*
X135075395Y-79335000D01*
X134262298Y-78521903D01*
X134018329Y-78593486D01*
X133897429Y-78848996D01*
X133828700Y-79123184D01*
X133814783Y-79405512D01*
X133856213Y-79685130D01*
X133940433Y-79920633D01*
X132760778Y-78740978D01*
X132994759Y-78584637D01*
X133194637Y-78384759D01*
X133351680Y-78149727D01*
X133459853Y-77888574D01*
X133515000Y-77611335D01*
X133515000Y-77328665D01*
X133459853Y-77051426D01*
X133351680Y-76790273D01*
X133287129Y-76693665D01*
X133820000Y-76693665D01*
X133820000Y-76976335D01*
X133875147Y-77253574D01*
X133983320Y-77514727D01*
X134140363Y-77749759D01*
X134340241Y-77949637D01*
X134540869Y-78083692D01*
X134513486Y-78098329D01*
X134441903Y-78342298D01*
X135255000Y-79155395D01*
X136068097Y-78342298D01*
X135996514Y-78098329D01*
X135967659Y-78084676D01*
X136169759Y-77949637D01*
X136369637Y-77749759D01*
X136526680Y-77514727D01*
X136634853Y-77253574D01*
X136690000Y-76976335D01*
X136690000Y-76693665D01*
X136634853Y-76416426D01*
X136526680Y-76155273D01*
X136369637Y-75920241D01*
X136169759Y-75720363D01*
X135934727Y-75563320D01*
X135673574Y-75455147D01*
X135396335Y-75400000D01*
X135113665Y-75400000D01*
X134836426Y-75455147D01*
X134575273Y-75563320D01*
X134340241Y-75720363D01*
X134140363Y-75920241D01*
X133983320Y-76155273D01*
X133875147Y-76416426D01*
X133820000Y-76693665D01*
X133287129Y-76693665D01*
X133194637Y-76555241D01*
X132994759Y-76355363D01*
X132840000Y-76251957D01*
X132840000Y-74878043D01*
X132994759Y-74774637D01*
X133194637Y-74574759D01*
X133351680Y-74339727D01*
X133459853Y-74078574D01*
X133515000Y-73801335D01*
X133515000Y-73518665D01*
X133478688Y-73336114D01*
X136995000Y-69819803D01*
X136995000Y-69991335D01*
G36*
X158134999Y-56098393D02*
G01*
X158135000Y-62337667D01*
X158131323Y-62374999D01*
X158145997Y-62523984D01*
X158189453Y-62667245D01*
X158260025Y-62799275D01*
X158313986Y-62865026D01*
X158354999Y-62915000D01*
X158383997Y-62938798D01*
X158621312Y-63176113D01*
X158585000Y-63358665D01*
X158585000Y-63641335D01*
X158640147Y-63918574D01*
X158748320Y-64179727D01*
X158905363Y-64414759D01*
X159105241Y-64614637D01*
X159340273Y-64771680D01*
X159601426Y-64879853D01*
X159878665Y-64935000D01*
X160161335Y-64935000D01*
X160438574Y-64879853D01*
X160699727Y-64771680D01*
X160934759Y-64614637D01*
X161134637Y-64414759D01*
X161285020Y-64189694D01*
X161285020Y-66621524D01*
X161256671Y-66568486D01*
X161012702Y-66496903D01*
X160199605Y-67310000D01*
X161012702Y-68123097D01*
X161256671Y-68051514D01*
X161285020Y-67991600D01*
X161285021Y-77898807D01*
X159654999Y-76268786D01*
X159654999Y-72572321D01*
X159658675Y-72534998D01*
X159654999Y-72497675D01*
X159654999Y-72497666D01*
X159644002Y-72386013D01*
X159600545Y-72242752D01*
X159529973Y-72110723D01*
X159435000Y-71994998D01*
X159406003Y-71971201D01*
X155737504Y-68302702D01*
X159206903Y-68302702D01*
X159278486Y-68546671D01*
X159533996Y-68667571D01*
X159808184Y-68736300D01*
X160090512Y-68750217D01*
X160370130Y-68708787D01*
X160636292Y-68613603D01*
X160761514Y-68546671D01*
X160833097Y-68302702D01*
X160020000Y-67489605D01*
X159206903Y-68302702D01*
X155737504Y-68302702D01*
X155700000Y-68265199D01*
X155700000Y-67380512D01*
X158579783Y-67380512D01*
X158621213Y-67660130D01*
X158716397Y-67926292D01*
X158783329Y-68051514D01*
X159027298Y-68123097D01*
X159840395Y-67310000D01*
X159027298Y-66496903D01*
X158783329Y-66568486D01*
X158662429Y-66823996D01*
X158593700Y-67098184D01*
X158579783Y-67380512D01*
X155700000Y-67380512D01*
X155700000Y-66317298D01*
X159206903Y-66317298D01*
X160020000Y-67130395D01*
X160833097Y-66317298D01*
X160761514Y-66073329D01*
X160506004Y-65952429D01*
X160231816Y-65883700D01*
X159949488Y-65869783D01*
X159669870Y-65911213D01*
X159403708Y-66006397D01*
X159278486Y-66073329D01*
X159206903Y-66317298D01*
X155700000Y-66317298D01*
X155700000Y-53663394D01*
X158134999Y-56098393D01*
G37*
X158134999Y-56098393D02*
X158135000Y-62337667D01*
X158131323Y-62374999D01*
X158145997Y-62523984D01*
X158189453Y-62667245D01*
X158260025Y-62799275D01*
X158313986Y-62865026D01*
X158354999Y-62915000D01*
X158383997Y-62938798D01*
X158621312Y-63176113D01*
X158585000Y-63358665D01*
X158585000Y-63641335D01*
X158640147Y-63918574D01*
X158748320Y-64179727D01*
X158905363Y-64414759D01*
X159105241Y-64614637D01*
X159340273Y-64771680D01*
X159601426Y-64879853D01*
X159878665Y-64935000D01*
X160161335Y-64935000D01*
X160438574Y-64879853D01*
X160699727Y-64771680D01*
X160934759Y-64614637D01*
X161134637Y-64414759D01*
X161285020Y-64189694D01*
X161285020Y-66621524D01*
X161256671Y-66568486D01*
X161012702Y-66496903D01*
X160199605Y-67310000D01*
X161012702Y-68123097D01*
X161256671Y-68051514D01*
X161285020Y-67991600D01*
X161285021Y-77898807D01*
X159654999Y-76268786D01*
X159654999Y-72572321D01*
X159658675Y-72534998D01*
X159654999Y-72497675D01*
X159654999Y-72497666D01*
X159644002Y-72386013D01*
X159600545Y-72242752D01*
X159529973Y-72110723D01*
X159435000Y-71994998D01*
X159406003Y-71971201D01*
X155737504Y-68302702D01*
X159206903Y-68302702D01*
X159278486Y-68546671D01*
X159533996Y-68667571D01*
X159808184Y-68736300D01*
X160090512Y-68750217D01*
X160370130Y-68708787D01*
X160636292Y-68613603D01*
X160761514Y-68546671D01*
X160833097Y-68302702D01*
X160020000Y-67489605D01*
X159206903Y-68302702D01*
X155737504Y-68302702D01*
X155700000Y-68265199D01*
X155700000Y-67380512D01*
X158579783Y-67380512D01*
X158621213Y-67660130D01*
X158716397Y-67926292D01*
X158783329Y-68051514D01*
X159027298Y-68123097D01*
X159840395Y-67310000D01*
X159027298Y-66496903D01*
X158783329Y-66568486D01*
X158662429Y-66823996D01*
X158593700Y-67098184D01*
X158579783Y-67380512D01*
X155700000Y-67380512D01*
X155700000Y-66317298D01*
X159206903Y-66317298D01*
X160020000Y-67130395D01*
X160833097Y-66317298D01*
X160761514Y-66073329D01*
X160506004Y-65952429D01*
X160231816Y-65883700D01*
X159949488Y-65869783D01*
X159669870Y-65911213D01*
X159403708Y-66006397D01*
X159278486Y-66073329D01*
X159206903Y-66317298D01*
X155700000Y-66317298D01*
X155700000Y-53663394D01*
X158134999Y-56098393D01*
G36*
X125605001Y-76701589D02*
G01*
X125452702Y-76656903D01*
X124639605Y-77470000D01*
X124653748Y-77484143D01*
X124474143Y-77663748D01*
X124460000Y-77649605D01*
X124445858Y-77663748D01*
X124266253Y-77484143D01*
X124280395Y-77470000D01*
X124266253Y-77455858D01*
X124445858Y-77276253D01*
X124460000Y-77290395D01*
X125273097Y-76477298D01*
X125201514Y-76233329D01*
X124946004Y-76112429D01*
X124671816Y-76043700D01*
X124389488Y-76029783D01*
X124280195Y-76045977D01*
X124971003Y-75355169D01*
X125000001Y-75331371D01*
X125094974Y-75215646D01*
X125165546Y-75083617D01*
X125209003Y-74940356D01*
X125214798Y-74881519D01*
X125374759Y-74774637D01*
X125574637Y-74574759D01*
X125605000Y-74529317D01*
X125605001Y-76701589D01*
G37*
X125605001Y-76701589D02*
X125452702Y-76656903D01*
X124639605Y-77470000D01*
X124653748Y-77484143D01*
X124474143Y-77663748D01*
X124460000Y-77649605D01*
X124445858Y-77663748D01*
X124266253Y-77484143D01*
X124280395Y-77470000D01*
X124266253Y-77455858D01*
X124445858Y-77276253D01*
X124460000Y-77290395D01*
X125273097Y-76477298D01*
X125201514Y-76233329D01*
X124946004Y-76112429D01*
X124671816Y-76043700D01*
X124389488Y-76029783D01*
X124280195Y-76045977D01*
X124971003Y-75355169D01*
X125000001Y-75331371D01*
X125094974Y-75215646D01*
X125165546Y-75083617D01*
X125209003Y-74940356D01*
X125214798Y-74881519D01*
X125374759Y-74774637D01*
X125574637Y-74574759D01*
X125605000Y-74529317D01*
X125605001Y-76701589D01*
G36*
X141097000Y-50673000D02*
G01*
X141117000Y-50673000D01*
X141117000Y-50927000D01*
X141097000Y-50927000D01*
X141097000Y-50947000D01*
X140843000Y-50947000D01*
X140843000Y-50927000D01*
X140823000Y-50927000D01*
X140823000Y-50673000D01*
X140843000Y-50673000D01*
X140843000Y-50653000D01*
X141097000Y-50653000D01*
X141097000Y-50673000D01*
G37*
X141097000Y-50673000D02*
X141117000Y-50673000D01*
X141117000Y-50927000D01*
X141097000Y-50927000D01*
X141097000Y-50947000D01*
X140843000Y-50947000D01*
X140843000Y-50927000D01*
X140823000Y-50927000D01*
X140823000Y-50673000D01*
X140843000Y-50673000D01*
X140843000Y-50653000D01*
X141097000Y-50653000D01*
X141097000Y-50673000D01*
M02*
