M48
; DRILL file {KiCad 5.1.5-52549c5~84~ubuntu18.04.1} date Wed 18 Mar 2020 07:12:46 PM EDT
; FORMAT={-:-/ absolute / inch / decimal}
; #@! TF.CreationDate,2020-03-18T19:12:46-04:00
; #@! TF.GenerationSoftware,Kicad,Pcbnew,5.1.5-52549c5~84~ubuntu18.04.1
; #@! TF.FileFunction,Plated,1,2,PTH
FMAT,2
INCH
T1C0.0295
T2C0.0315
T3C0.0394
T4C0.0400
T5C0.0433
%
G90
G05
T1
X6.25Y-1.6
X6.25Y-1.65
X6.25Y-1.7
X5.25Y-4.05
X5.25Y-4.1
X5.25Y-4.15
X6.0Y-1.6
X6.0Y-1.65
X6.0Y-1.7
T2
X5.45Y-2.25
X5.45Y-2.35
X5.45Y-2.45
X5.45Y-2.55
X5.45Y-2.65
X5.45Y-2.75
X5.45Y-2.85
X5.45Y-2.95
X5.75Y-2.25
X5.75Y-2.35
X5.75Y-2.45
X5.75Y-2.55
X5.75Y-2.65
X5.75Y-2.75
X5.75Y-2.85
X5.75Y-2.95
X4.9Y-3.725
X5.2Y-3.725
X5.1016Y-3.4
X5.2Y-3.4
X6.0Y-3.15
X6.3Y-3.15
X6.0Y-3.9
X6.3Y-3.9
X6.0016Y-3.45
X6.1Y-3.45
X4.9Y-2.75
X5.2Y-2.75
X4.9Y-2.6
X5.2Y-2.6
X6.0Y-2.2
X6.3Y-2.2
X4.95Y-3.9
X5.05Y-3.9
X5.15Y-3.9
X6.0Y-3.3
X6.3Y-3.3
X4.9Y-3.05
X5.2Y-3.05
X4.9Y-3.6
X5.2Y-3.6
X4.9Y-2.9
X5.2Y-2.9
X6.0Y-3.75
X6.3Y-3.75
X6.0016Y-2.95
X6.1Y-2.95
X5.1016Y-3.3
X5.2Y-3.3
X6.0Y-3.6
X6.3Y-3.6
X6.0Y-2.5
X6.3Y-2.5
X4.925Y-3.175
X4.925Y-3.475
X5.45Y-3.15
X5.45Y-3.25
X5.45Y-3.35
X5.45Y-3.45
X5.45Y-3.55
X5.45Y-3.65
X5.45Y-3.75
X5.75Y-3.15
X5.75Y-3.25
X5.75Y-3.35
X5.75Y-3.45
X5.75Y-3.55
X5.75Y-3.65
X5.75Y-3.75
X6.0Y-2.35
X6.3Y-2.35
X6.0Y-2.65
X6.3Y-2.65
X5.35Y-1.5
X5.4287Y-1.5
X4.75Y-4.15
X5.05Y-4.15
X6.0016Y-2.8
X6.1Y-2.8
X5.325Y-3.025
X5.325Y-3.1234
X6.0Y-4.05
X6.3Y-4.05
X5.2Y-1.65
X5.2Y-1.7287
T3
X5.35Y-1.9
X5.35Y-2.0
X5.45Y-1.9
X5.45Y-2.0
X5.55Y-1.9
X5.55Y-2.0
X5.65Y-1.9
X5.65Y-2.0
X5.75Y-1.9
X5.75Y-2.0
X5.85Y-1.9
X5.85Y-2.0
T4
X4.7953Y-1.8992
X4.7953Y-1.9992
X4.7953Y-2.0992
X4.7953Y-2.1992
X4.7953Y-2.2992
X4.8953Y-1.8992
X4.8953Y-1.9992
X4.8953Y-2.0992
X4.8953Y-2.1992
X4.8953Y-2.2992
T5
X4.7575Y-1.4961
X5.1575Y-1.4961
X5.1575Y-1.9622
X5.1575Y-2.3622
T0
M30
